<?xml version="1.0" encoding="UTF-8"?>
<svg id="Calque_2" data-name="Calque 2" xmlns="http://www.w3.org/2000/svg" xmlns:xlink="http://www.w3.org/1999/xlink" viewBox="0 0 845.37 649.62">
  <defs>
    <style>
      .cls-1, .cls-2, .cls-3, .cls-4 {
        fill: none;
      }

      .cls-5 {
        fill: #c2c7cc;
      }

      .cls-6, .cls-2, .cls-3, .cls-7 {
        stroke: #373a3a;
      }

      .cls-6, .cls-2, .cls-3, .cls-7, .cls-4 {
        stroke-linecap: round;
        stroke-linejoin: round;
      }

      .cls-6, .cls-3, .cls-7 {
        stroke-width: 3px;
      }

      .cls-6, .cls-8 {
        fill: #dae0e5;
      }

      .cls-9 {
        fill: #969a9e;
      }

      .cls-2 {
        stroke-width: 2.5px;
      }

      .cls-10, .cls-7 {
        fill: #fff;
      }

      .cls-11 {
        fill: #5f646b;
      }

      .cls-12 {
        fill: #fdb827;
      }

      .cls-13 {
        fill: #373a3a;
      }

      .cls-14 {
        fill: url(#New_Pattern_Swatch_2);
      }

      .cls-4 {
        stroke: #dae0e5;
        stroke-width: 2px;
      }
    </style>
    <pattern id="New_Pattern_Swatch_2" data-name="New Pattern Swatch 2" x="0" y="0" width="16" height="19" patternTransform="translate(-4966.58 -4485.63) scale(.4)" patternUnits="userSpaceOnUse" viewBox="0 0 16 19">
      <g>
        <rect class="cls-1" x="0" width="16" height="19"/>
        <g>
          <polygon class="cls-9" points="16 22.18 10.5 19 16 15.82 21.5 19 16 22.18"/>
          <polygon class="cls-9" points="8 12.68 2.5 9.5 8 6.32 13.5 9.5 8 12.68"/>
        </g>
        <polygon class="cls-9" points="0 22.18 -5.5 19 0 15.82 5.5 19 0 22.18"/>
        <polygon class="cls-9" points="16 3.18 10.5 0 16 -3.18 21.5 0 16 3.18"/>
        <polygon class="cls-9" points="0 3.18 -5.5 0 0 -3.18 5.5 0 0 3.18"/>
      </g>
    </pattern>
  </defs>
  <g id="shadow">
    <path class="cls-14" d="M166.34,581.91c173.1,81.7,249.27,31.85,253.42-18,4.15-49.85-168.95-124.63-168.95-124.63l-84.47,142.64Z"/>
    <path class="cls-14" d="M358.57,597.6c45.94,38.28,99.02,5.1,134.75-53.08,35.73-58.19,36.24-105.65,36.24-105.65l-35.22,4.59-78.6,101.57-57.17,52.57Z"/>
    <path class="cls-14" d="M270.37,382.49c36.44-26.82,91.46-53.64,91.46-53.64l37.82,3.44-9.63,31.63s-48.13,6.19-90.08,38.51c-41.95,32.32-66.01,6.88-29.57-19.94Z"/>
    <path class="cls-14" d="M349.28,371.73l205.74,121.25c4.63,2.73,10.37,2.77,15.04.11l48.99-27.89c3.45-1.96,3.47-6.93.04-8.92l-160.97-93.46-108.84,8.91Z"/>
    <path class="cls-14" d="M426.88,289.97c19.54,6.25,27.1,6.77,27.1,6.77l95.11-53.68-55.76-15.37-66.44,62.27Z"/>
    <path class="cls-14" d="M536.62,292.01l210.88,117.1c5.23,2.77,11.34,3.33,16.98,1.54l74.08-23.42c8.22-2.6,9.25-13.82,1.63-17.87l-214.09-113.35-88.41,25.56c-4.89,1.41-5.57,8.05-1.08,10.43Z"/>
    <path class="cls-14" d="M696.45,435.48c-4.37,2.52-11.46,2.52-15.84,0-4.37-2.52-4.37-6.62,0-9.14,4.37-2.52,11.46-2.52,15.84,0,4.37,2.52,4.37,6.62,0,9.14Z"/>
    <path class="cls-14" d="M441.78,647.73c-4.37,2.52-11.46,2.52-15.84,0-4.37-2.52-4.37-6.62,0-9.14,4.37-2.52,11.46-2.52,15.84,0,4.37,2.52,4.37,6.62,0,9.14Z"/>
    <path class="cls-14" d="M291.04,90.19c-4.37,2.52-11.46,2.52-15.84,0-4.37-2.52-4.37-6.62,0-9.14,4.37-2.52,11.46-2.52,15.84,0,4.37,2.52,4.37,6.62,0,9.14Z"/>
    <polygon class="cls-14" points="104.58 175.26 144.55 182.59 187.46 158.75 128.42 140.79 104.58 175.26"/>
    <polygon class="cls-14" points="32.83 342.5 60.83 350.5 130.14 310.95 89.71 297.62 32.83 342.5"/>
    <path class="cls-14" d="M130.7,626.64l50.12,20.81c6.63,2.75,14.17,2.27,20.4-1.32,3.05-1.75,2.93-6.19-.2-7.78l-60.62-27.69-9.69,15.97Z"/>
    <path class="cls-14" d="M683.14,533.21c-20.95,14.1-8.24,40.4,24.18,30.86,32.42-9.54,46.61-16.51,62.34-29.05,15.73-12.54,2.2-31.78-19.74-29.12-21.94,2.66-45.83,13.22-66.78,27.32Z"/>
  </g>
  <g id="graphic">
    <g>
      <g>
        <g>
          <path class="cls-5" d="M507.25,128.72c0,5.95-1.97,10.15-5.11,11.95l-13.14,7.59c3.01-1.87,4.91-6.01,4.91-11.83,0-10.89-6.61-23.53-14.78-28.24l-46.06-26.6c-2.08-1.2-4.07-1.78-5.86-1.78-1.3,0-2.5.3-3.57.86l13.1-7.57c2.59-1.5,5.97-1.36,9.67.78l46.06,26.59c8.16,4.71,14.78,17.35,14.78,28.24Z"/>
          <path class="cls-13" d="M479.14,108.18c8.16,4.71,14.78,17.35,14.78,28.24,0,5.82-1.89,9.96-4.91,11.83l-.2.12c-1.13.65-2.41.99-3.8.99-1.8,0-3.79-.57-5.87-1.78l-46.06-26.59c-8.16-4.71-14.79-17.35-14.79-28.24,0-5.95,1.98-10.15,5.12-11.95l.24-.14c1.07-.57,2.27-.86,3.57-.86,1.8,0,3.78.58,5.86,1.78l46.06,26.6Z"/>
        </g>
        <g>
          <path class="cls-3" d="M423.65,80.67c1.07-.57,2.27-.86,3.57-.86,1.8,0,3.78.58,5.86,1.78l46.06,26.6c8.16,4.71,14.78,17.35,14.78,28.24,0,5.82-1.89,9.96-4.91,11.83"/>
          <path class="cls-3" d="M488.8,148.38c-1.13.65-2.41.99-3.8.99-1.8,0-3.79-.57-5.87-1.78l-46.06-26.59c-8.16-4.71-14.79-17.35-14.79-28.24,0-5.95,1.98-10.15,5.12-11.95"/>
          <path class="cls-3" d="M423.41,80.81l13.34-7.71c2.59-1.5,5.97-1.36,9.67.78l46.06,26.59c8.16,4.71,14.78,17.35,14.78,28.24,0,5.95-1.97,10.15-5.11,11.95l-13.34,7.71"/>
        </g>
      </g>
      <g>
        <path class="cls-10" d="M435.83,108.81c-.87-1.04-1.56-2.18-2.06-3.43-.5-1.25-.75-2.47-.75-3.69s.25-2.15.75-2.82c.5-.67,1.19-1.02,2.06-1.05.88-.03,1.86.27,2.96.9.96.55,1.82,1.25,2.59,2.08.77.84,1.41,1.77,1.92,2.8l-1.89.88c-.68-1.34-1.5-2.29-2.47-2.85-.57-.33-1.08-.48-1.52-.44-.45.03-.79.24-1.03.62-.25.38-.37.92-.37,1.6s.12,1.35.37,2.02c.24.67.59,1.27,1.03,1.82.44.55.95.98,1.52,1.31.97.56,1.79.56,2.47,0l1.89,3.06c-.51.44-1.15.64-1.92.59-.77-.05-1.63-.35-2.59-.91-1.1-.64-2.09-1.47-2.96-2.51Z"/>
        <polygon class="cls-10" points="444.62 102.33 447.58 104.04 447.58 113.44 452.59 116.33 452.59 119.05 444.62 114.45 444.62 102.33"/>
        <polygon class="cls-10" points="453.76 107.61 456.73 109.32 456.73 121.44 453.76 119.72 453.76 107.61"/>
        <path class="cls-10" d="M461.11,123.41c-.87-1.04-1.56-2.18-2.06-3.43-.5-1.25-.75-2.48-.75-3.69s.25-2.15.75-2.82c.5-.67,1.19-1.02,2.06-1.05.87-.03,1.86.27,2.96.9.96.55,1.82,1.25,2.59,2.08.77.84,1.41,1.77,1.92,2.8l-1.89.88c-.68-1.34-1.5-2.29-2.47-2.85-.57-.33-1.08-.48-1.52-.45-.44.03-.79.24-1.03.62-.25.38-.37.92-.37,1.6s.12,1.35.37,2.02c.24.67.59,1.27,1.03,1.82.44.55.95.98,1.52,1.31.97.56,1.79.56,2.47,0l1.89,3.06c-.51.44-1.15.64-1.92.59-.77-.05-1.63-.35-2.59-.91-1.1-.63-2.09-1.47-2.96-2.51Z"/>
        <polygon class="cls-10" points="473.95 126.98 472.84 127.71 472.84 130.74 469.9 129.04 469.9 116.93 472.84 118.63 472.84 123.66 476.9 120.97 480.17 122.86 475.88 125.75 480.39 135.1 476.95 133.11 473.95 126.98"/>
      </g>
    </g>
    <g>
      <g>
        <path class="cls-10" d="M145.53,116.81v34.81l-19.66-5.88c9.28-13.6,19.66-28.94,19.66-28.94Z"/>
        <polygon class="cls-10" points="145.53 116.81 125.66 145.69 105.79 139.75 145.53 116.81"/>
        <path class="cls-10" d="M145.53,151.62l-39.74,22.94c1.55-1.8,10.86-15.32,20.08-28.82l19.66,5.88Z"/>
        <path class="cls-10" d="M125.66,145.69l19.76-28.72c-1.08,1.59-10.27,15.18-19.56,28.78l-.2-.06Z"/>
        <path class="cls-10" d="M125.66,145.69l.2.06c-9.22,13.5-18.53,27.01-20.08,28.82l19.87-28.88Z"/>
        <polygon class="cls-10" points="125.66 145.69 105.79 174.57 105.79 139.75 125.66 145.69"/>
      </g>
      <g>
        <polygon class="cls-3" points="145.53 151.62 105.79 174.57 105.79 139.75 145.53 116.81 145.53 151.62"/>
        <path class="cls-3" d="M105.79,174.57c1.55-1.8,10.86-15.32,20.08-28.82,9.28-13.6,18.48-27.19,19.56-28.78"/>
        <line class="cls-3" x1="145.53" y1="116.81" x2="145.43" y2="116.97"/>
        <line class="cls-3" x1="105.79" y1="139.75" x2="145.53" y2="151.62"/>
      </g>
    </g>
    <g>
      <g>
        <polygon class="cls-9" points="98.27 283.15 98.27 303.33 77.72 315.2 77.72 295.02 98.27 283.15"/>
        <polygon class="cls-9" points="98.27 250.86 98.27 271.04 33.8 308.25 33.8 288.07 98.27 250.86"/>
        <polygon class="cls-10" points="98.27 218.58 98.27 238.75 33.8 275.96 33.8 255.78 98.27 218.58"/>
        <polygon class="cls-8" points="77.72 295.02 77.72 315.2 55.19 328.2 55.19 308.02 77.72 295.02"/>
        <polygon class="cls-10" points="55.19 308.02 55.19 328.2 33.8 340.55 33.8 320.37 55.19 308.02"/>
      </g>
      <g>
        <polygon class="cls-3" points="98.27 238.75 33.8 275.96 33.8 255.78 98.27 218.58 98.27 238.75"/>
        <polygon class="cls-3" points="98.27 271.04 33.8 308.25 33.8 288.07 98.27 250.86 98.27 271.04"/>
        <polygon class="cls-3" points="77.72 295.02 98.27 283.15 98.27 303.33 33.8 340.55 33.8 320.37 77.72 295.02"/>
        <line class="cls-3" x1="55.19" y1="308.02" x2="55.19" y2="328.2"/>
        <line class="cls-3" x1="77.72" y1="295.02" x2="77.72" y2="315.2"/>
      </g>
    </g>
    <g>
      <g>
        <polygon class="cls-10" points="135.53 451.21 113.36 464.02 91.17 451.21 113.36 438.41 135.53 451.21"/>
        <polygon class="cls-11" points="113.36 438.41 91.17 451.21 68.99 438.41 91.17 425.6 113.36 438.41"/>
        <polygon class="cls-12" points="91.17 425.6 68.99 438.41 46.82 425.6 68.99 412.79 91.17 425.6"/>
      </g>
      <g>
        <polygon class="cls-3" points="113.36 438.41 135.53 451.21 113.36 464.02 46.82 425.6 68.99 412.79 113.36 438.41"/>
        <line class="cls-3" x1="68.99" y1="438.41" x2="91.17" y2="425.6"/>
        <line class="cls-3" x1="91.17" y1="451.21" x2="113.36" y2="438.41"/>
      </g>
    </g>
    <g>
      <path class="cls-13" d="M1.05,457.36c-1.26-2.38-1.38-4.75-.37-7.11,1.01-2.36,3.14-4.47,6.37-6.34,3.23-1.86,6.89-3.09,10.98-3.68,4.09-.59,8.19-.51,12.31.21,4.12.73,7.87,2.07,11.25,4.02,2.95,1.7,5.09,3.54,6.41,5.51,1.32,1.97,1.78,3.98,1.38,6.02l-11.07-.32c.43-2.66-.85-4.86-3.83-6.58-1.75-1.01-3.7-1.69-5.83-2.04-2.14-.35-4.28-.33-6.43.04-2.15.37-4.14,1.08-5.95,2.13-1.81,1.05-3.05,2.19-3.69,3.44-.65,1.24-.67,2.48-.07,3.71.6,1.23,1.78,2.36,3.53,3.37,2.98,1.72,6.78,2.46,11.39,2.21l.55,6.39c-3.54.23-7.01-.04-10.43-.8-3.41-.76-6.6-2-9.55-3.7-3.38-1.95-5.7-4.12-6.96-6.5Z"/>
      <path class="cls-13" d="M30.29,475.6c-1.81-1.79-2.95-3.44-3.41-4.95l9.73-2.16c.49,1.38,1.4,2.8,2.72,4.23,1.32,1.44,2.91,2.69,4.75,3.75,3.51,2.02,6.13,2.53,7.89,1.52.92-.53,1.11-1.22.55-2.05-.56-.83-1.69-2.03-3.41-3.6-1.91-1.7-3.38-3.2-4.4-4.49-1.03-1.29-1.47-2.65-1.31-4.09.15-1.44,1.35-2.8,3.6-4.1,1.97-1.14,4.28-1.85,6.94-2.14,2.66-.29,5.52-.09,8.58.61,3.06.7,6.14,1.95,9.25,3.74,2.12,1.23,3.97,2.57,5.56,4.03,1.58,1.46,2.7,2.92,3.34,4.35l-9.59,2.29c-1.42-2.73-3.57-4.94-6.46-6.6-1.81-1.05-3.41-1.66-4.77-1.82-1.37-.17-2.48,0-3.34.49-.86.5-1.02,1.15-.46,1.97s1.69,1.99,3.41,3.52c1.94,1.72,3.41,3.22,4.43,4.5,1.02,1.28,1.46,2.64,1.34,4.07-.12,1.44-1.31,2.81-3.55,4.1-1.94,1.12-4.23,1.82-6.87,2.1-2.64.28-5.51.08-8.6-.63-3.09-.7-6.17-1.94-9.25-3.71-2.61-1.51-4.83-3.16-6.64-4.95Z"/>
      <path class="cls-13" d="M60.13,492.83c-1.81-1.79-2.95-3.44-3.41-4.95l9.73-2.16c.49,1.39,1.4,2.8,2.72,4.23,1.32,1.44,2.91,2.69,4.75,3.76,3.51,2.02,6.13,2.53,7.89,1.52.92-.53,1.11-1.22.55-2.05-.55-.83-1.69-2.03-3.41-3.6-1.91-1.7-3.38-3.2-4.4-4.49-1.03-1.29-1.47-2.65-1.31-4.09.15-1.44,1.35-2.8,3.6-4.1,1.97-1.14,4.28-1.85,6.94-2.14,2.66-.29,5.52-.09,8.58.61,3.06.7,6.14,1.95,9.25,3.74,2.12,1.23,3.97,2.57,5.56,4.03,1.58,1.47,2.7,2.92,3.34,4.35l-9.59,2.29c-1.41-2.73-3.57-4.94-6.46-6.6-1.81-1.05-3.41-1.65-4.77-1.82-1.37-.17-2.48,0-3.34.49-.86.5-1.01,1.15-.46,1.97.55.82,1.69,1.99,3.41,3.51,1.94,1.72,3.41,3.22,4.43,4.5,1.02,1.28,1.46,2.64,1.34,4.07-.12,1.44-1.31,2.8-3.55,4.1-1.94,1.12-4.23,1.82-6.87,2.1-2.64.28-5.51.08-8.6-.63-3.09-.7-6.17-1.94-9.25-3.71-2.61-1.51-4.83-3.16-6.64-4.95Z"/>
    </g>
    <g>
      <g>
        <path class="cls-9" d="M516.33,243.42v.14c0,.85-.42,1.69-1.27,2.41-.26.22-.56.44-.9.64-23.47,13.74-73.87,42.64-75.49,43.57-2.74,1.58-7.15,1.7-10.09.23-14.49-7.19-28.03-15-40.47-23.37-1.2-.81-1.78-1.79-1.78-2.78v-10.08c0,.99.59,1.99,1.78,2.78,12.44,8.38,25.98,16.18,40.47,23.37,2.94,1.47,7.35,1.35,10.09-.23,1.62-.93,52.03-29.84,75.49-43.57.34-.2.64-.41.9-.64.8-.68,1.22-1.47,1.27-2.25v9.78Z"/>
        <path class="cls-10" d="M516.33,233.28v.36c-.05.79-.48,1.57-1.27,2.25-.26.22-.56.44-.9.64-23.47,13.74-47.09,27.18-70.63,40.77l-50.17-28.96,70.63-40.77c.34-.2.71-.38,1.1-.53,2.72-1.04,6.41-.98,8.98.3,14.5,7.19,28.03,15,40.47,23.37,1.11.75,1.7,1.67,1.78,2.58Z"/>
        <path class="cls-11" d="M443.53,277.3c-1.61.93-3.24,1.87-4.86,2.8-2.74,1.58-7.15,1.7-10.09.23-14.49-7.19-28.03-14.99-40.47-23.37-1.19-.8-1.78-1.79-1.78-2.78,0-.03,0-.06,0-.1.02-1.07.78-2.13,2.18-2.94l4.86-2.81,50.17,28.96Z"/>
      </g>
      <g>
        <path class="cls-3" d="M516.33,233.64c-.05.79-.48,1.57-1.27,2.25-.26.22-.56.44-.9.64-23.47,13.74-73.87,42.64-75.49,43.57-2.74,1.58-7.15,1.7-10.09.23-14.49-7.19-28.03-14.99-40.47-23.37-1.19-.8-1.78-1.79-1.78-2.78,0-.03,0-.06,0-.1.02-1.07.78-2.13,2.18-2.94l75.49-43.59c.34-.2.71-.38,1.1-.53,2.72-1.04,6.41-.98,8.98.3,14.5,7.19,28.03,15,40.47,23.37,1.11.75,1.7,1.67,1.78,2.58"/>
        <line class="cls-3" x1="393.36" y1="248.34" x2="443.53" y2="277.3"/>
        <line class="cls-3" x1="516.33" y1="233.28" x2="516.33" y2="243.42"/>
        <path class="cls-3" d="M386.32,254.19v10.08c0,.99.58,1.97,1.78,2.78,12.44,8.37,25.98,16.18,40.47,23.37,2.94,1.47,7.35,1.35,10.09-.23,1.62-.93,52.03-29.84,75.49-43.57.34-.2.64-.41.9-.64.85-.72,1.27-1.56,1.27-2.41v-.14"/>
        <polyline class="cls-3" points="438.78 239.2 438.78 231.14 452.75 231.14"/>
        <polyline class="cls-3" points="469.56 240.85 469.56 248.9 455.61 248.9"/>
        <line class="cls-3" x1="466.77" y1="236.01" x2="441.42" y2="243.95"/>
      </g>
    </g>
    <g>
      <g>
        <path class="cls-11" d="M343.82,360.28c-1.64-.94-1.43-2.59.44-3.68l56.97-32.89c1.89-1.08,4.72-1.2,6.35-.26l217.21,125.4c1.63.93,1.42,2.58-.46,3.67l-56.97,32.89c-1.88,1.09-4.72,1.2-6.35.27l-217.2-125.4ZM374.11,355.03l-9.78,5.64,9.77,5.64,9.77-5.64-9.76-5.64ZM390.95,345.31l-9.76,5.63,9.76,5.64,9.76-5.64-9.76-5.63ZM391.3,364.96l-9.77,5.64,9.76,5.64,9.77-5.64-9.76-5.64ZM407.79,335.58l-9.77,5.64,9.76,5.64,9.77-5.65-9.76-5.63ZM408.14,355.24l-9.76,5.63,9.76,5.64,9.76-5.64-9.76-5.63ZM408.49,374.88l-9.77,5.64,9.76,5.64,9.77-5.64-9.76-5.64ZM424.99,345.51l-9.77,5.64,9.76,5.63,9.79-5.64-9.77-5.63ZM425.28,384.57l-9.77,5.64,9.77,5.65,9.77-5.65-9.77-5.64ZM425.33,365.17l-9.76,5.63,9.76,5.64,9.77-5.64-9.77-5.63ZM442.07,394.27l-9.78,5.64,60.09,34.69,9.77-5.64-60.08-34.69ZM442.11,374.85l-9.76,5.63,9.77,5.65,9.76-5.64-9.77-5.64ZM442.19,355.44l-9.79,5.64,9.77,5.63,9.77-5.64-9.76-5.63ZM458.91,384.55l-9.76,5.63,9.76,5.64,9.76-5.64-9.76-5.63ZM458.96,365.12l-9.77,5.64,9.77,5.64,9.78-5.64-9.78-5.64ZM475.68,394.23l-9.76,5.63,9.78,5.65,9.76-5.64-9.78-5.64ZM475.76,374.82l-9.77,5.64,9.76,5.63,9.77-5.64-9.76-5.63ZM492.44,403.89l-9.77,5.64,9.78,5.64,9.76-5.63-9.77-5.65ZM492.54,384.5l-9.78,5.64,9.78,5.64,9.77-5.64-9.77-5.64ZM509.16,433.01l-9.77,5.64,9.77,5.64,9.77-5.64-9.77-5.64ZM509.22,413.59l-9.76,5.64,9.76,5.63,9.76-5.63-9.76-5.64ZM509.29,394.17l-9.77,5.65,9.77,5.64,9.77-5.64-9.77-5.65ZM525.96,442.7l-9.78,5.64,9.76,5.63,9.79-5.64-9.76-5.63ZM526,423.28l-9.76,5.64,9.77,5.64,9.76-5.63-9.77-5.65ZM526.08,403.86l-9.78,5.64,9.76,5.64,9.78-5.64-9.76-5.64ZM542.79,432.97l-9.76,5.64,9.76,5.63,9.76-5.63-9.76-5.64ZM542.85,413.55l-9.77,5.65,9.77,5.64,9.77-5.64-9.77-5.65ZM543.15,452.62l-9.77,5.65,9.76,5.63,9.77-5.64-9.76-5.64ZM559.64,423.24l-9.77,5.64,9.76,5.64,9.77-5.64-9.76-5.64ZM559.99,442.9l-9.76,5.64,9.76,5.63,9.76-5.63-9.76-5.64ZM560.34,462.55l-9.77,5.65,9.76,5.63,9.77-5.64-9.76-5.64ZM576.84,433.17l-9.77,5.64,9.76,5.64,9.77-5.64-9.76-5.64ZM577.18,452.83l-9.76,5.64,9.76,5.63,9.77-5.63-9.77-5.64ZM594.04,443.1l-9.78,5.64,9.77,5.64,9.77-5.64-9.76-5.64Z"/>
        <polygon class="cls-5" points="364.32 360.67 374.11 355.03 383.87 360.67 374.1 366.31 364.32 360.67"/>
        <polygon class="cls-5" points="381.18 350.94 390.95 345.31 400.71 350.94 390.95 356.58 381.18 350.94"/>
        <polygon class="cls-5" points="381.53 370.6 391.3 364.96 401.06 370.6 391.29 376.24 381.53 370.6"/>
        <polygon class="cls-5" points="398.02 341.22 407.79 335.58 417.56 341.21 407.78 346.86 398.02 341.22"/>
        <polygon class="cls-5" points="398.38 360.87 408.14 355.24 417.9 360.87 408.14 366.51 398.38 360.87"/>
        <polygon class="cls-5" points="398.72 380.53 408.49 374.88 418.26 380.53 408.48 386.17 398.72 380.53"/>
        <polygon class="cls-5" points="415.21 351.15 424.99 345.51 434.76 351.14 424.98 356.78 415.21 351.15"/>
        <polygon class="cls-5" points="415.5 390.21 425.28 384.57 435.05 390.21 425.28 395.86 415.5 390.21"/>
        <polygon class="cls-5" points="415.57 370.8 425.33 365.17 435.1 370.8 425.33 376.44 415.57 370.8"/>
        <polygon class="cls-5" points="432.28 399.91 442.07 394.27 502.14 428.95 492.37 434.59 432.28 399.91"/>
        <polygon class="cls-5" points="432.35 380.48 442.11 374.85 451.89 380.49 442.12 386.14 432.35 380.48"/>
        <polygon class="cls-5" points="432.41 361.08 442.19 355.44 451.95 361.07 442.18 366.71 432.41 361.08"/>
        <polygon class="cls-5" points="449.14 390.18 458.91 384.55 468.67 390.18 458.91 395.82 449.14 390.18"/>
        <polygon class="cls-5" points="449.19 370.76 458.96 365.12 468.75 370.76 458.96 376.41 449.19 370.76"/>
        <polygon class="cls-5" points="465.91 399.86 475.68 394.23 485.46 399.87 475.7 405.52 465.91 399.86"/>
        <polygon class="cls-5" points="465.98 380.46 475.76 374.82 485.52 380.45 475.74 386.09 465.98 380.46"/>
        <polygon class="cls-5" points="482.66 409.54 492.44 403.89 502.21 409.55 492.45 415.18 482.66 409.54"/>
        <polygon class="cls-5" points="482.75 390.14 492.54 384.5 502.31 390.14 492.54 395.79 482.75 390.14"/>
        <polygon class="cls-5" points="499.39 438.65 509.16 433.01 518.94 438.65 509.16 444.29 499.39 438.65"/>
        <polygon class="cls-5" points="499.46 419.23 509.22 413.59 518.98 419.23 509.22 424.86 499.46 419.23"/>
        <polygon class="cls-5" points="499.51 399.82 509.29 394.17 519.06 399.82 509.29 405.46 499.51 399.82"/>
        <polygon class="cls-5" points="516.17 448.34 525.96 442.7 535.72 448.33 525.93 453.97 516.17 448.34"/>
        <polygon class="cls-5" points="516.24 428.92 526 423.28 535.78 428.93 526.01 434.56 516.24 428.92"/>
        <polygon class="cls-5" points="516.29 409.5 526.08 403.86 535.84 409.5 526.06 415.15 516.29 409.5"/>
        <polygon class="cls-5" points="533.03 438.61 542.79 432.97 552.56 438.61 542.79 444.25 533.03 438.61"/>
        <polygon class="cls-5" points="533.08 419.2 542.85 413.55 552.62 419.2 542.85 424.84 533.08 419.2"/>
        <polygon class="cls-5" points="533.38 458.27 543.15 452.62 552.91 458.26 543.14 463.9 533.38 458.27"/>
        <polygon class="cls-5" points="549.87 428.88 559.64 423.24 569.41 428.88 559.63 434.53 549.87 428.88"/>
        <polygon class="cls-5" points="550.23 448.54 559.99 442.9 569.75 448.54 559.99 454.17 550.23 448.54"/>
        <polygon class="cls-5" points="550.57 468.2 560.34 462.55 570.11 468.19 560.33 473.83 550.57 468.2"/>
        <polygon class="cls-5" points="567.06 438.81 576.84 433.17 586.6 438.81 576.83 444.46 567.06 438.81"/>
        <polygon class="cls-5" points="567.42 458.47 577.18 452.83 586.95 458.47 577.18 464.1 567.42 458.47"/>
        <polygon class="cls-5" points="584.26 448.74 594.04 443.1 603.8 448.74 594.03 454.39 584.26 448.74"/>
      </g>
      <path class="cls-3" d="M624.8,448.87c1.63.93,1.42,2.58-.46,3.67l-56.97,32.89c-1.88,1.09-4.72,1.2-6.35.27l-217.2-125.4c-1.64-.94-1.43-2.59.44-3.68l56.97-32.89c1.89-1.08,4.72-1.2,6.35-.26l217.21,125.4Z"/>
    </g>
    <g>
      <g>
        <path class="cls-10" d="M515.73,424.18c1.35-.37,2.61-.05,3.91,1.03,2.46,2.05,4.11,6.24,5.04,9.3.65,2.15.85,4.39.64,6.62l-.43,4.54c-.23,2.34-2.19,4.12-4.53,4.12-1.21,0-2.31-.47-3.12-1.25h-.01c-8.32,13.94-43.96,72.5-72.58,102.08-3.25-20.87-22.07-54.22-36.32-52.68l39.24-37.13c3.34-3.15,5.82-7.1,7.22-11.47l2.74-8.58c.79-2.46,1.2-5.03,1.2-7.61v-8.94c0-2.42,1.58-4.54,3.89-5.25.53-.16,1.07-.24,1.6-.24,1.89,0,3.69.98,4.71,2.68l5.08,8.56,10.84-12.96c3.36-4.02,7.85-6.93,12.89-8.35l2.36-.68c4.67-1.32,9.25,2.35,8.99,7.2l-.1,1.66c3.57-.31,6.34,1.64,6.76,7.35Z"/>
        <path class="cls-5" d="M444.64,550.62c1.07,6.84.46,12.34-2.53,14.82-6.49,5.39-12.32,11.46-18.74,16.58,8.89-8.56-9.64-39.47-15.06-49.76-5.42-10.3-13.48-24.02-19.71-19.69,4.93-4.22,10.03-8.53,14.8-12.48,1.54-1.28,3.2-1.96,4.91-2.15,14.25-1.54,33.07,31.81,36.32,52.68Z"/>
        <path class="cls-5" d="M423.38,582.02h-.01c-6.66,5.33-13.98,9.59-23.32,10.95-9.63,22.83-46.78,6.27-53.5,2.46-3.29-1.86-5.34-3.24-8.34-6.76h0c-1.03-1.21-2.17-2.67-3.5-4.49-.11-.16-.23-.31-.34-.46-1.83-2.5-4.03-5.66-6.8-9.72-.1.12-.2.25-.3.37-7.27,8.79-15.53,18.09-21.12,22.29-5.55,4.17-18.67,8.83-37.8,9.84-22.67,1.21-53.81-2.7-90.89-18.59-68.39-29.32-71.98-61.71-71.98-61.71,0,0,8.47-37.54,1.13-50.53-7.34-12.99-11.57-14.4-11.29-43.47.28-29.07-13.84-84.13-6.22-126.75,7.47-41.78,41.24-73.79,91.22-47.42-2.56,3.43-4.79,6.92-6.13,9.08-.85,1.4-1,3.12-.39,4.64,1.74,4.25,5.94,13.23,12.91,20.36,0,0,21.29,28.58,81.46,25.15,10.33,4.45,24.06,11.03,36.48,21.44,9.3,7.8,17.85,17.72,23.69,30.5,1.06,2.3,2.03,4.69,2.89,7.18,12.99,37.26,14.5,61.16,26.54,90.34,7.86,19.04,20.13,32.7,27.11,49.04,1.22-1.05,2.45-2.1,3.7-3.17,6.23-4.33,14.29,9.39,19.71,19.69,5.42,10.29,23.96,41.2,15.06,49.76Z"/>
        <path class="cls-9" d="M277.15,500.68c.04.06,21.68,35.64,50.13,73.69-7.27,8.79-15.53,18.09-21.12,22.29-5.55,4.17-18.67,8.83-37.8,9.84,1.63-37.3,27.75-45.95,23.11-53.99-2.57-4.46-17.17-12.8-22.22-21.56-14.06-24.35-9.24-39.79-.75-60.57,2.24,1.75,4.22,3.2,5.94,6.18,6.58,11.41-8.74,4.27,2.72,24.12Z"/>
        <path class="cls-9" d="M338.21,588.66c-1.03-1.2-2.17-2.66-3.5-4.48,1.16,1.49,2.32,2.99,3.5,4.48Z"/>
        <path class="cls-10" d="M393.05,322.77c2.19.09,4.02.17,5.5.26,2.96.17,5.13,2.83,4.71,5.75-.36,2.5-2.5,4.36-5.03,4.34-8.32-.04-26.01.08-31.4,1.79-7.12,2.26-5.56,8.33.53,9.73,2.97.68,6.61,2.4,9.55,3.98,2.91,1.57,3.8,5.33,1.85,8.02-1.22,1.67-3.27,2.52-5.32,2.16-5.6-.95-17.04-2.58-23.8-1.31-4.91.93-13.92,6.6-21.26,11.69h-.01c-5.84-12.77-14.4-22.69-23.69-30.49,6.77-2.68,14.85-6.1,19.94-9,10.08-5.74,15.99-15.47,26.07-17.73,8.14-1.81,26.58.78,33.39,1.85,2.43.38,4.76,1.28,6.72,2.78,2.03,1.54,3.75,3.72,2.27,6.17Z"/>
        <path class="cls-13" d="M330.41,127.04c1.2,12.33-8.57,22.98-20.89,23.09-5.19-6.39-15.47-9.94-20.65,3.05-3.99,10.05-5.13,37.09-5.43,48.85-.09,3.27-.59,6.52-1.62,9.62-.32.98-.64,2.01-.93,3.07-6.53-.14-23.54-.16-30.61,3.21-17.94-7.49-33.25,14.12-15.46,30.82-3.43,5.25-9.51,12.68-16.37,12.76-10.6.13-24.09-3.27-29.37-14.78-1.6-6.52-4.06-12.37-6.27-16.33-5.28-9.46-22.56-38.54-15.03-69.84,7.53-31.3,40.61-50.2,63.94-52.72,23.33-2.5,42.38,3.55,53.44,1.78,4.38-.7,13.22-1.54,22.32-2.3,11.56-.96,21.69,7.57,22.86,19.12.02.19.03.4.05.6Z"/>
        <path class="cls-8" d="M323.34,214.72c.17,1.38-.06,2.8-.76,4.11l-3.53,6.62c-1.91,3.58-5.9,5.54-9.91,4.85l-.58-.1c-.11-.72-.22-1.4-.31-2.07-.36-2.5.35-7.96,1.51-13.4h13.58Z"/>
        <path class="cls-8" d="M323.34,214.72h-13.58c.83-3.95,1.92-7.87,3.01-10.7l7.89,6.01c1.53,1.18,2.45,2.9,2.68,4.69Z"/>
        <path class="cls-10" d="M309.52,150.13c5.25,12.73,6.58,46.97,4.09,51.95-.28.56-.56,1.21-.84,1.94-1.09,2.83-2.18,6.75-3.01,10.7,0,0-27.22.03-28.86,0,.29-1.06.6-2.08.93-3.07,1.03-3.1,1.53-6.35,1.62-9.62.3-11.77,1.44-38.8,5.43-48.85,5.18-13,15.46-9.44,20.65-3.05Z"/>
        <path class="cls-10" d="M283.52,214.72h26.24c-1.17,5.44-1.87,10.9-1.51,13.4.1.67.21,1.35.31,2.07.67,4.53.98,11.01-5.89,28.57-7.72-11.36-19.46-15.93-25.14-25.09.54-6.47,1.75-13.23,3.37-18.97,1.64.03,2.62,0,2.62,0Z"/>
        <path class="cls-13" d="M302.67,258.77c-1.22,17.89-18.26,28.71-31.52,32.94-5.18,1.65-10.74-.29-13.83-4.67-.18-.26-.37-.54-.53-.82-1.94-3.31-4.03-6.21-6.4-8.92-3.94-4.5-4.12-11.17-.49-15.93,6.19-8.08,15.06-20.01,20.24-28.43.2-6.37-.23-13.4-3.59-11.25-.09.05-.16.11-.25.17-1.69,1.24-3.54,2.49-5.6,3.85-3.42-3.83-6.97-6.35-10.42-7.79,7.07-3.37,24.08-3.35,30.61-3.21-1.62,5.73-2.83,12.5-3.37,18.97,5.68,9.15,17.42,13.73,25.14,25.09Z"/>
        <path class="cls-10" d="M234.83,248.74c-17.79-16.7-2.48-38.31,15.46-30.82,3.44,1.45,6.99,3.96,10.42,7.79,2.06-1.36,3.91-2.61,5.6-3.85.09-.06.16-.12.25-.17,3.36-2.15,3.8,4.88,3.59,11.25-5.18,8.42-14.05,20.35-20.24,28.43-3.64,4.76-3.45,11.43.49,15.93,2.37,2.71,4.47,5.6,6.4,8.92.16.28.35.56.53.82-4.34,3.52-6.29,8.88-7.18,13.11-24.6-2.85-47.9-23.8-59.55-36.2.31-3.11.24-6.3-.12-9.46-.29-2.64-.78-5.26-1.39-7.77,5.28,11.51,18.77,14.91,29.37,14.78,6.87-.08,12.94-7.51,16.37-12.76Z"/>
        <path class="cls-5" d="M250.14,300.16c4.37.52,8.79.45,13.19-.33,0,0,2.77,4.81,4.85,17.43-60.18,3.43-81.46-25.15-81.46-25.15-6.96-7.13-11.17-16.1-12.91-20.36-.62-1.52-.46-3.24.39-4.64,1.34-2.16,3.57-5.65,6.13-9.08.81-1.09,1.65-2.18,2.52-3.22,0,.21,2.84,3.92,7.75,9.14,11.65,12.4,34.95,33.35,59.55,36.2Z"/>
        <path class="cls-10" d="M190.47,254.5c.36,3.15.43,6.35.12,9.46-4.91-5.22-7.75-8.94-7.75-9.14.37-.91,4.05-.72,7.63-.31Z"/>
      </g>
      <g>
        <path class="cls-3" d="M180.32,258.03c-49.98-26.37-83.75,5.65-91.22,47.42-7.62,42.63,6.5,97.67,6.22,126.75-.28,29.07,3.95,30.48,11.29,43.47,7.34,12.99-1.13,50.53-1.13,50.53,0,0,3.59,32.4,71.98,61.71,68.38,29.31,116.56,17.85,128.69,8.75,5.68-4.26,14.09-13.76,21.43-22.65"/>
        <path class="cls-3" d="M182.84,254.81c-.86,1.04-1.71,2.13-2.52,3.22-2.56,3.43-4.79,6.92-6.13,9.08-.85,1.4-1,3.12-.39,4.64,1.74,4.25,5.95,13.22,12.91,20.36,0,0,21.28,28.58,81.46,25.15"/>
        <path class="cls-3" d="M190.47,254.5c-3.58-.41-7.26-.59-7.63.31,0,.21,2.84,3.92,7.75,9.14,11.65,12.4,34.96,33.32,59.55,36.2,4.37.51,8.79.45,13.19-.33,0,0,2.77,4.81,4.85,17.43,10.33,4.45,24.06,11.03,36.48,21.44,9.29,7.79,17.84,17.72,23.69,30.5,1.05,2.3,2.03,4.68,2.89,7.18,12.99,37.26,14.5,61.16,26.54,90.34,7.86,19.03,20.11,32.7,27.11,49.04,3.73,8.7,5.97,18.18,5.25,29.62"/>
        <path class="cls-3" d="M423.38,582.02c6.42-5.12,12.25-11.19,18.74-16.58,2.99-2.48,3.59-7.98,2.53-14.82-3.25-20.86-22.07-54.21-36.32-52.68-1.72.18-3.37.86-4.91,2.15-4.77,3.95-17.28,14.6-18.5,15.65"/>
        <path class="cls-3" d="M273.16,493.38c18.12,31.11,35.14,52.15,50.13,74.3,1.58,2.32,3,4.43,4.3,6.32,11.08,16.24,12.96,18.03,18.98,21.43,6.71,3.81,43.87,20.37,53.5-2.46,9.34-1.36,16.66-5.62,23.32-10.94"/>
        <path class="cls-3" d="M408.32,497.95l39.24-37.13c3.34-3.15,5.82-7.1,7.22-11.47l2.74-8.58c.79-2.46,1.2-5.03,1.2-7.61v-8.94c0-2.42,1.58-4.54,3.89-5.25.53-.16,1.07-.24,1.6-.24,1.89,0,3.69.98,4.71,2.68l5.08,8.56,10.84-12.96c3.36-4.02,7.85-6.93,12.89-8.35l2.36-.68c4.67-1.32,9.25,2.35,8.99,7.2l-.1,1.66"/>
        <path class="cls-3" d="M494.34,426.11c4.08-4.73,10.04-8.88,14.64-9.28,3.57-.31,6.34,1.64,6.76,7.35"/>
        <path class="cls-3" d="M504.15,435.63c5.21-6.54,8.61-10.64,11.58-11.45,1.35-.37,2.61-.05,3.91,1.03,2.46,2.05,4.11,6.24,5.04,9.3.65,2.15.85,4.39.64,6.62l-.43,4.54c-.23,2.34-2.19,4.12-4.53,4.12-1.21,0-2.31-.47-3.12-1.25-.03-.02-.06-.05-.1-.09-.83-.82-1.34-1.95-1.34-3.22v-3.73"/>
        <path class="cls-3" d="M444.64,550.62c28.62-29.58,64.26-88.15,72.58-102.07"/>
        <path class="cls-3" d="M388.61,512.57c6.23-4.33,14.29,9.39,19.71,19.69,5.42,10.29,23.95,41.2,15.06,49.76h-.01"/>
        <path class="cls-3" d="M369.42,543.29c5.42-9.55,5.99-28.1,3-37.79"/>
        <path class="cls-3" d="M272.57,489.67c12.13-14.33-11.69-20.39-9.12-28.66"/>
        <path class="cls-3" d="M281.42,467.28c5.13-10.7,10.7-42.79,10.7-42.79"/>
        <path class="cls-3" d="M278.42,493.81c11.41.71,17.26-4.14,17.26-4.14"/>
        <path class="cls-3" d="M126.17,273.43c12.63-7.34,26.95-7.19,35.78-5.19"/>
        <path class="cls-3" d="M142.38,286.18c6.07-2.14,13.44-7.21,13.44-7.21"/>
        <path class="cls-3" d="M266.3,221.87c-1.71,1.22-3.54,2.49-5.6,3.85-3.42-3.83-6.97-6.35-10.42-7.79-17.93-7.51-33.24,14.11-15.46,30.82,3.27,3.07,7.66,5.99,13.37,8.52"/>
        <path class="cls-3" d="M239.02,225.78c2.78-1.05,6.93-.77,10.34,1.25,2.23,1.33,4.15,3.41,5.12,6.4"/>
        <path class="cls-3" d="M244.16,233.95c.3-3.85,4.91-6.75,5.2-6.92h.01"/>
        <path class="cls-3" d="M309.52,150.13c-5.19-6.39-15.47-9.94-20.65,3.05-3.99,10.05-5.13,37.09-5.43,48.85-.09,3.27-.59,6.52-1.62,9.62-.32.98-.63,2.01-.93,3.07-1.6,5.74-2.83,12.5-3.37,18.97,5.68,9.15,17.42,13.73,25.14,25.09"/>
        <path class="cls-3" d="M189.06,246.68s.01.03.02.04c5.28,11.51,18.77,14.91,29.37,14.78,6.87-.08,12.94-7.51,16.37-12.76"/>
        <path class="cls-3" d="M250.28,217.93c7.07-3.37,24.08-3.34,30.61-3.21,1.64.03,2.62,0,2.62,0h39.83"/>
        <path class="cls-3" d="M312.77,204.02l7.89,6.01c1.53,1.18,2.45,2.9,2.68,4.69.17,1.38-.06,2.8-.76,4.11l-3.53,6.62c-1.91,3.58-5.9,5.54-9.91,4.85l-.58-.1"/>
        <path class="cls-3" d="M304.66,338.7c6.77-2.68,14.85-6.1,19.94-9,10.08-5.74,15.99-15.47,26.07-17.73,8.14-1.81,26.58.78,33.39,1.85,2.43.38,4.76,1.28,6.72,2.78,2.03,1.54,3.75,3.72,2.27,6.17"/>
        <path class="cls-3" d="M370.3,322.39c10.04,0,17.45.17,22.74.38,2.19.09,4.02.17,5.5.26,2.96.17,5.13,2.83,4.71,5.75-.36,2.5-2.5,4.36-5.03,4.34-8.32-.04-26.01.08-31.4,1.79-7.12,2.26-5.56,8.33.53,9.73,2.97.68,6.61,2.4,9.55,3.98,2.91,1.57,3.8,5.33,1.85,8.02-1.22,1.67-3.27,2.52-5.32,2.16-5.6-.95-17.04-2.58-23.8-1.31-4.91.93-13.92,6.6-21.26,11.69"/>
        <path class="cls-3" d="M257.32,287.04c-4.34,3.52-6.29,8.88-7.18,13.11h0"/>
        <path class="cls-3" d="M198.61,471.64c8.35,16.08,24.64,19.63,39.67,48.65"/>
        <path class="cls-3" d="M222.21,521.76c3.34,8.14,23.6,21.72,23.6,21.72"/>
        <path class="cls-3" d="M266.3,221.87c.09-.06.16-.12.25-.17,3.36-2.15,3.8,4.88,3.59,11.25-5.18,8.42-14.05,20.35-20.24,28.43-3.64,4.76-3.45,11.43.49,15.93,2.37,2.71,4.47,5.6,6.4,8.92.16.28.35.56.53.82,3.09,4.38,8.65,6.33,13.83,4.67,13.26-4.23,30.3-15.06,31.52-32.94,6.88-17.56,6.56-24.04,5.89-28.57-.11-.72-.22-1.4-.31-2.07-.36-2.5.36-7.96,1.51-13.4.84-3.95,1.93-7.87,3.01-10.7.28-.73.56-1.38.84-1.94,2.49-4.99,1.15-39.23-4.09-51.95,12.32-.11,22.09-10.76,20.89-23.09-.02-.21-.03-.41-.05-.6-1.18-11.55-11.3-20.08-22.86-19.12-9.1.76-17.94,1.6-22.32,2.3-11.06,1.77-30.12-4.29-53.44-1.78-23.34,2.52-56.41,21.42-63.94,52.72-7.53,31.3,9.75,60.38,15.03,69.84,2.21,3.96,4.68,9.81,6.27,16.33.62,2.51,1.1,5.13,1.39,7.77.35,3.15.43,6.35.12,9.46"/>
      </g>
    </g>
    <g>
      <g>
        <path class="cls-10" d="M148.45,553.58v68.11c0,1.45-.96,2.91-2.9,4.03-3.85,2.22-10.11,2.22-13.96,0-1.92-1.12-2.9-2.58-2.9-4.03v-68.17c0,1.45.98,2.92,2.9,4.03,3.85,2.23,10.11,2.23,13.96,0,1.91-1.09,2.87-2.52,2.9-3.97Z"/>
        <path class="cls-10" d="M148.45,553.51v.07c-.03,1.44-.99,2.88-2.9,3.97-3.85,2.23-10.11,2.23-13.96,0-1.92-1.11-2.9-2.58-2.9-4.03s.98-2.91,2.9-4.03c3.85-2.22,10.11-2.22,13.96,0,1.93,1.12,2.9,2.58,2.9,4.03Z"/>
      </g>
      <g>
        <path class="cls-3" d="M148.45,553.58c-.03,1.44-.99,2.88-2.9,3.97-3.85,2.23-10.11,2.23-13.96,0-1.92-1.11-2.9-2.58-2.9-4.03s.98-2.91,2.9-4.03c3.85-2.22,10.11-2.22,13.96,0,1.93,1.12,2.9,2.58,2.9,4.03v.07Z"/>
        <path class="cls-3" d="M148.45,553.51v68.17c0,1.45-.96,2.91-2.9,4.03-3.85,2.22-10.11,2.22-13.96,0-1.92-1.12-2.9-2.58-2.9-4.03v-68.17"/>
      </g>
    </g>
    <polygon class="cls-6" points="370.72 190.74 360.93 196.39 411.55 200.42 404.56 171.2 394.78 176.85 398.63 192.96 370.72 190.74"/>
    <g>
      <polyline class="cls-3" points="524.33 601.24 517.16 597.1 492.44 611.37 499.61 615.51"/>
      <polyline class="cls-3" points="535.24 607.53 542.41 611.67 517.68 625.95 510.51 621.81"/>
    </g>
    <g>
      <polyline class="cls-3" points="370 121.9 376.7 118.03 399.8 131.37 393.1 135.24"/>
      <polyline class="cls-3" points="359.82 127.78 353.12 131.65 376.22 144.99 382.92 141.12"/>
    </g>
    <g id="monitor_screen_computer" data-name="monitor screen computer">
      <g>
        <path class="cls-8" d="M749.6,156.67v204.64c0,3.71-1.22,6.33-3.17,7.48l-13.08,7.85h0c1.95-1.15,3.15-3.77,3.15-7.48v-204.63c0-6.85-4.14-14.79-9.27-17.75L491.13,10.46c-2.27-1.31-4.34-1.43-5.95-.55l12.91-7.76c1.63-.96,3.77-.89,6.12.47l236.11,136.32c5.12,2.96,9.29,10.9,9.29,17.74Z"/>
        <path class="cls-9" d="M736.51,344.41v24.74c0,3.71-1.21,6.33-3.15,7.46-1.64.99-3.78.9-6.12-.46l-235.67-136.05c-6.01-3.47-9.72-9.9-9.72-16.86V17.48c0-3.83,1.29-6.48,3.34-7.57,1.61-.87,3.68-.75,5.95.55l236.11,136.32c5.14,2.96,9.27,10.9,9.27,17.75v179.88ZM724.04,357.5v-192.9c0-2.97-1.87-6.66-4.02-7.89L495.87,27.28c-.47-.27-.75-.31-.85-.31-.28,0-.7.76-.7,2.14v192.9c0,2.98,1.87,6.68,4.02,7.91l224.16,129.42c.47.27.75.31.85.31.28,0,.7-.76.7-2.16Z"/>
        <path class="cls-10" d="M724.04,191.15v166.35c0,1.39-.42,2.16-.7,2.16-.1,0-.38-.04-.85-.31l-224.16-129.42c-2.14-1.23-4.02-4.93-4.02-7.91V58.52l229.73,132.64Z"/>
        <path class="cls-11" d="M724.04,164.6v26.55L494.32,58.52v-29.4c0-1.38.42-2.14.7-2.14.1,0,.38.04.85.31l224.16,129.42c2.14,1.23,4.02,4.93,4.02,7.89ZM538.61,68.98c0-2.36-1.66-5.23-3.71-6.42-2.04-1.18-3.69-.22-3.69,2.14s1.65,5.22,3.69,6.4c2.04,1.18,3.71.22,3.71-2.13ZM526.06,61.72c0-2.36-1.66-5.23-3.71-6.4-2.04-1.18-3.71-.23-3.71,2.13s1.66,5.23,3.71,6.42c2.04,1.18,3.71.22,3.71-2.14ZM513.49,54.48c0-2.36-1.65-5.23-3.69-6.42s-3.71-.22-3.71,2.14,1.66,5.22,3.71,6.4,3.69.22,3.69-2.13Z"/>
        <path class="cls-9" d="M674.3,345.61l9.72,5.62c-2.4,7.03-8.66,15.85-20.32,22.55-13.08,7.55-30.2,11.33-47.34,11.33s-34.25-3.78-47.33-11.33c-26.14-15.09-26.14-39.56,0-54.66,3.6-2.06,7.49-3.86,11.59-5.33v17.88c0,2.14,1.42,4.29,4.24,5.91l39.03,22.54c5.65,3.26,14.83,3.26,20.48,0,2.85-1.64,4.25-3.79,4.24-5.95v-23.4l25.7,14.84Z"/>
        <path class="cls-11" d="M648.59,354.17c.01,2.16-1.39,4.31-4.24,5.95-5.65,3.26-14.83,3.26-20.48,0l-39.03-22.54c-2.82-1.63-4.24-3.77-4.24-5.91v-40.15l67.99,39.25v23.4Z"/>
        <path class="cls-9" d="M534.9,62.56c2.04,1.18,3.71,4.05,3.71,6.42s-1.66,3.31-3.71,2.13c-2.04-1.18-3.69-4.05-3.69-6.4s1.65-3.33,3.69-2.14Z"/>
        <path class="cls-9" d="M522.35,55.32c2.04,1.17,3.71,4.04,3.71,6.4s-1.66,3.33-3.71,2.14c-2.04-1.18-3.71-4.05-3.71-6.42s1.66-3.31,3.71-2.13Z"/>
        <path class="cls-9" d="M509.8,48.06c2.04,1.18,3.69,4.05,3.69,6.42s-1.65,3.31-3.69,2.13-3.71-4.05-3.71-6.4,1.66-3.33,3.71-2.14Z"/>
      </g>
      <g>
        <path class="cls-3" d="M580.61,291.52l-89.05-51.41c-6.01-3.47-9.72-9.9-9.72-16.86V17.48c0-3.83,1.3-6.47,3.34-7.57,1.62-.87,3.68-.75,5.95.55l236.11,136.32c5.14,2.96,9.27,10.9,9.27,17.75v204.63c0,3.71-1.22,6.32-3.15,7.46-1.65.97-3.78.9-6.12-.46l-146.63-84.64Z"/>
        <path class="cls-3" d="M733.35,376.63l13.08-7.85c1.95-1.15,3.17-3.77,3.17-7.48v-204.64c0-6.84-4.16-14.78-9.29-17.74L504.21,2.61c-2.35-1.35-4.5-1.43-6.12-.47l-13.08,7.85"/>
        <path class="cls-3" d="M684.02,351.23c-2.4,7.03-8.66,15.85-20.32,22.55-13.08,7.55-30.2,11.33-47.34,11.33s-34.25-3.78-47.33-11.33c-26.14-15.09-26.14-39.56,0-54.66,3.6-2.06,7.49-3.86,11.59-5.33"/>
        <path class="cls-3" d="M724.04,191.15v166.35c0,1.39-.42,2.16-.7,2.16-.1,0-.38-.04-.85-.31l-224.16-129.42c-2.14-1.23-4.02-4.93-4.02-7.91V29.12c0-1.38.42-2.14.7-2.14.1,0,.38.04.85.31l224.16,129.42c2.14,1.23,4.02,4.93,4.02,7.89v26.55Z"/>
        <path class="cls-3" d="M580.61,291.52v40.15c0,2.14,1.42,4.29,4.24,5.91l39.03,22.54c5.65,3.26,14.83,3.26,20.48,0,2.85-1.64,4.25-3.79,4.24-5.95v-23.39"/>
        <line class="cls-2" x1="494.32" y1="58.52" x2="724.04" y2="191.15"/>
        <path class="cls-4" d="M513.49,54.48c0,2.35-1.65,3.31-3.69,2.13s-3.71-4.05-3.71-6.4,1.66-3.33,3.71-2.14,3.69,4.05,3.69,6.42Z"/>
        <path class="cls-4" d="M526.06,61.72c0,2.36-1.66,3.33-3.71,2.14-2.04-1.18-3.71-4.05-3.71-6.42s1.66-3.31,3.71-2.13c2.04,1.17,3.71,4.04,3.71,6.4Z"/>
        <path class="cls-4" d="M538.61,68.98c0,2.35-1.66,3.31-3.71,2.13-2.04-1.18-3.69-4.05-3.69-6.4s1.65-3.33,3.69-2.14c2.04,1.18,3.71,4.05,3.71,6.42Z"/>
      </g>
    </g>
    <g>
      <g>
        <path class="cls-10" d="M771.22,489.42c0,3.9-.94,7.98-2.81,12.22-1.88,4.24-4.7,8.39-8.45,12.45-3.76,4.06-8.32,7.64-13.68,10.73-4.56,2.63-8.99,4.54-13.28,5.71-4.29,1.18-7.78,1.46-10.46.84l5.23-16.59c2.52.46,5.45.32,8.77-.42,3.32-.74,6.6-2.05,9.81-3.91,6.12-3.53,9.18-7.06,9.18-10.59,0-1.86-.87-2.73-2.62-2.62s-4.54.78-8.41,2.02c-4.24,1.39-7.78,2.31-10.63,2.74-1.04.16-2.02.19-2.95.09-1.29-.14-2.47-.52-3.56-1.14-.28-.16-.55-.34-.82-.53-2.04-1.49-3.06-4.49-3.06-9.01,0-3.97.94-8.08,2.82-12.36,1.88-4.27,4.68-8.42,8.41-12.43,3.73-4.01,8.3-7.58,13.72-10.71,3.7-2.14,7.35-3.76,10.95-4.88,3.6-1.11,6.76-1.53,9.5-1.26l-4.91,16.5c-5.32-.24-10.51,1.01-15.48,3.92-.04.03-.09.05-.13.08-3.15,1.85-5.47,3.7-6.92,5.62-1.45,1.92-2.17,3.75-2.17,5.49s.85,2.54,2.57,2.41c1.72-.12,4.48-.82,8.29-2.09,4.29-1.42,7.85-2.35,10.66-2.77,2.52-.37,4.73,0,6.64,1.1.23.13.46.28.68.43,2.07,1.44,3.1,4.42,3.1,8.94Z"/>
        <path class="cls-9" d="M753.93,441.16l14.95,8.63c-2.74-.28-5.9.14-9.5,1.26-3.6,1.12-7.24,2.74-10.95,4.88-5.42,3.13-9.99,6.7-13.72,10.71-3.73,4.01-6.53,8.15-8.41,12.43-1.88,4.28-2.82,8.39-2.82,12.36,0,4.52,1.02,7.52,3.06,9.01.26.19.54.37.82.53l-14.96-8.63c-.28-.16-.55-.34-.82-.53-2.04-1.48-3.06-4.49-3.06-9.01,0-3.97.94-8.08,2.81-12.36,1.88-4.27,4.68-8.42,8.41-12.43,3.73-4.01,8.3-7.58,13.72-10.71,3.7-2.14,7.35-3.76,10.95-4.88,3.59-1.11,6.76-1.53,9.5-1.26Z"/>
        <path class="cls-11" d="M767.44,480.05c-1.91-1.11-4.13-1.47-6.64-1.1-2.81.42-6.37,1.34-10.66,2.77-3.81,1.27-6.57,1.97-8.29,2.09-1.72.13-2.57-.68-2.57-2.41s.73-3.57,2.17-5.49c1.45-1.92,3.77-3.77,6.92-5.62.04-.03.09-.05.13-.08,1.45.11,2.78.51,3.99,1.21l14.95,8.63Z"/>
        <path class="cls-11" d="M755.52,499.88c0,3.53-3.06,7.06-9.18,10.59-3.22,1.86-6.49,3.16-9.81,3.91-3.33.74-6.25.88-8.77.42l-15.12-8.1.17-.54c2.52.46,5.45.32,8.77-.42,3.16-.71,6.28-1.92,9.35-3.64.93.1,1.91.07,2.95-.09,2.84-.43,6.39-1.35,10.63-2.74,3.86-1.24,6.66-1.91,8.41-2.02s2.62.77,2.62,2.62Z"/>
        <polygon class="cls-11" points="727.76 514.79 722.53 531.38 707.58 522.75 712.64 506.7 727.76 514.79"/>
      </g>
      <g>
        <path class="cls-3" d="M748.5,470.21s-.09.05-.13.08c-3.15,1.85-5.47,3.7-6.92,5.62-1.45,1.92-2.17,3.75-2.17,5.49s.85,2.54,2.57,2.41c1.72-.12,4.48-.82,8.29-2.09,4.29-1.42,7.85-2.35,10.66-2.77,2.52-.37,4.73,0,6.64,1.1.23.13.46.28.68.43,2.07,1.44,3.1,4.42,3.1,8.94,0,3.9-.94,7.98-2.81,12.22-1.88,4.24-4.7,8.39-8.45,12.45-3.76,4.06-8.32,7.64-13.68,10.73-4.56,2.63-8.99,4.54-13.28,5.71-4.29,1.18-7.78,1.46-10.46.84l5.23-16.59c2.52.46,5.45.32,8.77-.42,3.32-.74,6.6-2.05,9.81-3.91,6.12-3.53,9.18-7.06,9.18-10.59,0-1.86-.87-2.73-2.62-2.62s-4.54.78-8.41,2.02c-4.24,1.39-7.78,2.31-10.63,2.74-1.04.16-2.02.19-2.95.09-1.29-.14-2.47-.52-3.56-1.14-.28-.16-.55-.34-.82-.53-2.04-1.49-3.06-4.49-3.06-9.01,0-3.97.94-8.08,2.82-12.36,1.88-4.27,4.68-8.42,8.41-12.43,3.73-4.01,8.3-7.58,13.72-10.71,3.7-2.14,7.35-3.76,10.95-4.88,3.6-1.11,6.76-1.53,9.5-1.26l-4.91,16.5c-5.32-.24-10.5,1.01-15.48,3.92Z"/>
        <path class="cls-3" d="M748.5,470.21c1.45.11,2.78.51,3.99,1.21l14.95,8.63"/>
        <path class="cls-3" d="M727.37,500.97l-14.96-8.63c-.28-.16-.55-.34-.82-.53-2.04-1.48-3.06-4.49-3.06-9.01,0-3.97.94-8.08,2.81-12.36,1.88-4.27,4.68-8.42,8.41-12.43,3.73-4.01,8.3-7.58,13.72-10.71,3.7-2.14,7.35-3.76,10.95-4.88,3.59-1.11,6.76-1.53,9.5-1.26l14.95,8.63"/>
        <line class="cls-3" x1="712.64" y1="506.7" x2="727.76" y2="514.79"/>
        <path class="cls-3" d="M730.93,502.11c-3.07,1.71-6.18,2.93-9.35,3.64-3.32.74-6.25.88-8.77.42l-5.23,16.59,14.95,8.63"/>
      </g>
    </g>
    <g>
      <g>
        <path class="cls-10" d="M716.75,475.33v41.08c0,8.42-1.84,15.81-5.52,22.14-3.67,6.34-9.08,11.56-16.22,15.68-4.13,2.38-7.89,3.73-11.26,4.04-2.65.24-4.92-.18-6.82-1.27l-.03-.02c-.51-.29-.99-.64-1.45-1.03l8.69-16.91c3,2.79,6.25,3.18,9.74,1.16,2.3-1.33,4.07-3.15,5.27-5.46,1.21-2.31,1.81-5.01,1.81-8.11v-27.97l-19.47,11.25v-14.22l35.25-20.35Z"/>
        <polygon class="cls-9" points="716.75 475.33 681.5 495.68 666.55 487.05 701.8 466.7 716.75 475.33"/>
        <path class="cls-11" d="M700.98,498.65v27.97c0,3.1-.6,5.8-1.81,8.11-1.2,2.3-2.97,4.13-5.27,5.46-3.49,2.02-6.73,1.63-9.74-1.16l-11.09-6.4c1.87.47,3.83.11,5.87-1.07,2.3-1.33,4.06-3.15,5.27-5.46,1.21-2.3,1.81-5.01,1.81-8.11v-10.7l14.95-8.64Z"/>
        <path class="cls-9" d="M684.16,539.03l-8.69,16.91c.45.39.94.74,1.45,1.03l-14.92-8.61c-.52-.3-1.01-.65-1.47-1.05l8.69-16.91,14.95,8.63Z"/>
        <polygon class="cls-9" points="681.5 495.68 681.5 509.9 666.55 501.27 666.55 487.05 681.5 495.68"/>
      </g>
      <g>
        <path class="cls-3" d="M676.91,556.98c-.51-.29-.99-.64-1.45-1.03l8.69-16.91c3,2.79,6.25,3.18,9.74,1.16,2.3-1.33,4.07-3.15,5.27-5.46,1.21-2.31,1.81-5.01,1.81-8.11v-27.97l-19.47,11.25v-14.22l35.25-20.35v41.08c0,8.42-1.84,15.81-5.52,22.14-3.67,6.34-9.08,11.56-16.22,15.68-4.13,2.38-7.89,3.73-11.26,4.04-2.65.24-4.92-.18-6.82-1.27l-.03-.02Z"/>
        <path class="cls-3" d="M673.07,532.63c1.87.47,3.83.11,5.87-1.07,2.3-1.33,4.06-3.15,5.27-5.46,1.21-2.3,1.81-5.01,1.81-8.11v-10.7"/>
        <line class="cls-3" x1="666.55" y1="487.05" x2="681.5" y2="495.68"/>
        <polyline class="cls-3" points="716.75 475.33 701.8 466.7 666.55 487.05 666.55 501.27 681.5 509.9"/>
        <path class="cls-3" d="M676.94,556.99l-14.95-8.63c-.52-.3-1.01-.65-1.47-1.05l8.69-16.91,14.95,8.63"/>
      </g>
    </g>
    <path class="cls-7" d="M693.02,419.31c2.15,3.72.87,8.47-2.85,10.62-3.72,2.15-8.47.87-10.62-2.85-2.15-3.72-.87-8.47,2.85-10.62,3.72-2.15,8.47-.87,10.62,2.85Z"/>
    <path class="cls-7" d="M437.34,631.69c2.15,3.72.87,8.47-2.85,10.62-3.72,2.15-8.47.87-10.62-2.85-2.15-3.72-.87-8.47,2.85-10.62,3.72-2.15,8.47-.87,10.62,2.85Z"/>
    <circle class="cls-7" cx="281.09" cy="78.14" r="7.77" transform="translate(-10.12 95.86) rotate(-19.02)"/>
    <g>
      <polygon class="cls-13" points="561.42 542.55 540.22 554.8 535.31 551.96 544 546.94 534.37 541.38 525.68 546.4 520.77 543.57 541.97 531.32 546.88 534.16 538.52 538.98 548.15 544.55 556.52 539.72 561.42 542.55"/>
      <polygon class="cls-13" points="566.85 550.3 560.06 546.38 564.06 544.07 582.54 554.74 578.54 557.05 571.75 553.13 554.55 563.07 549.64 560.23 566.85 550.3"/>
      <polygon class="cls-13" points="583.26 579.65 595.96 572.29 579.24 574.73 577.02 573.46 581.02 563.98 568.57 571.17 563.97 568.51 585.17 556.26 589.23 558.61 583.99 570.8 604.99 567.7 609.02 570.03 587.87 582.31 583.26 579.65"/>
      <polygon class="cls-13" points="614.11 572.97 619.01 575.8 601.8 585.74 612.44 591.88 608.44 594.18 592.9 585.21 614.11 572.97"/>
    </g>
    <g>
      <polygon class="cls-13" points="525.1 112.39 519.76 111.68 525.1 117.14 525.1 118.59 518.36 111.62 518.36 110.13 525.1 110.95 525.1 112.39"/>
      <path class="cls-13" d="M534.14,117.79c.6,1.02.9,2.19.9,3.49v5.3l-1.44-.83v-5.1c0-.89-.19-1.67-.56-2.34-.37-.67-.9-1.2-1.59-1.6-.78-.45-1.4-.54-1.85-.28-.45.27-.68.89-.68,1.87v4.74l-1.44-.83v-12.88l1.44.83v4.98c.3-.27.69-.38,1.18-.34.49.04,1.03.23,1.63.58,1.01.58,1.82,1.39,2.41,2.41Z"/>
      <path class="cls-13" d="M542.19,130.17c-.21.09-.47.1-.78.03-.31-.07-.63-.2-.96-.39-.8-.46-1.42-1.07-1.87-1.82-.44-.75-.66-1.59-.66-2.52v-5.05l-1.35-.78v-1.37l1.35.78v-2.01l1.44.83v2.01l2.29,1.32v1.37l-2.29-1.32v4.98c0,.5.11.94.32,1.33.22.39.52.7.92.93.44.25.82.33,1.13.22l.45,1.46Z"/>
      <path class="cls-13" d="M556.29,130.57c.59,1.01.88,2.18.88,3.49v5.3l-1.44-.83v-5.1c0-.89-.18-1.67-.53-2.32-.36-.66-.86-1.18-1.53-1.56-.73-.42-1.31-.49-1.74-.22-.43.28-.65.91-.65,1.89v4.74l-1.44-.83v-5.1c0-.89-.18-1.67-.53-2.32-.36-.66-.86-1.18-1.53-1.56-.73-.42-1.31-.5-1.74-.22-.43.28-.65.91-.65,1.89v4.74l-1.44-.83v-9.2l1.38.8v1.37c.29-.31.67-.45,1.14-.43.47.02,1.01.21,1.61.56.62.36,1.17.82,1.65,1.39.48.57.85,1.2,1.11,1.91.3-.36.72-.53,1.26-.52.54,0,1.14.21,1.81.59,1,.58,1.8,1.37,2.38,2.38Z"/>
      <polygon class="cls-13" points="559.83 128.01 561.28 128.85 561.28 141.73 559.83 140.9 559.83 128.01"/>
      <polygon class="cls-13" points="570.4 140.18 570.4 141.67 563.67 140.85 563.67 139.41 569.02 140.12 563.67 134.65 563.67 133.21 570.4 140.18"/>
      <polygon class="cls-13" points="547.65 146.24 542.31 145.54 547.65 151 547.65 152.44 540.92 145.48 540.92 143.99 547.65 144.8 547.65 146.24"/>
      <path class="cls-13" d="M556.33,151.01c.61.75,1.09,1.57,1.44,2.48.35.91.52,1.82.52,2.75s-.17,1.65-.52,2.16c-.35.51-.82.79-1.44.83-.61.04-1.3-.16-2.07-.61-.59-.34-1.13-.79-1.62-1.34-.49-.55-.9-1.17-1.22-1.87v1.46l-1.38-.8v-12.88l1.44.83v5.07c.32-.3.72-.44,1.2-.41.48.03,1.01.21,1.58.54.77.45,1.46,1.04,2.07,1.79ZM555.51,157.47c.41-.04.73-.23.96-.59.24-.36.35-.85.35-1.49s-.12-1.27-.35-1.9c-.24-.63-.56-1.19-.96-1.69s-.86-.9-1.38-1.19c-.5-.29-.96-.42-1.37-.39-.41.03-.73.22-.96.58-.23.36-.35.86-.35,1.49s.12,1.27.35,1.89c.23.62.55,1.19.96,1.7.41.51.87.91,1.37,1.2.51.29.97.42,1.38.39Z"/>
      <path class="cls-13" d="M561.56,162.23c-.63-.77-1.13-1.61-1.48-2.53-.36-.92-.53-1.83-.53-2.73s.18-1.61.53-2.11c.36-.51.85-.78,1.48-.81s1.34.18,2.14.63c.79.46,1.5,1.07,2.13,1.83.63.76,1.12,1.6,1.47,2.52.36.92.53,1.83.53,2.73s-.18,1.61-.53,2.11c-.36.51-.85.78-1.47.82-.63.04-1.34-.16-2.13-.62-.79-.46-1.5-1.07-2.14-1.84ZM565.07,162.99c.41-.04.72-.24.95-.59.23-.36.35-.86.35-1.49s-.12-1.27-.35-1.89c-.23-.62-.55-1.19-.95-1.69s-.86-.9-1.38-1.19c-.51-.3-.97-.43-1.38-.39-.41.03-.73.23-.96.58-.24.36-.35.85-.35,1.49s.12,1.27.35,1.9c.24.63.56,1.2.96,1.7.41.51.86.91,1.38,1.2.51.29.97.42,1.38.39Z"/>
      <path class="cls-13" d="M577.35,158.96v12.88l-1.38-.8v-1.46c-.32.32-.73.48-1.22.46-.49-.02-1.03-.2-1.62-.54-.77-.45-1.46-1.04-2.07-1.79-.61-.75-1.09-1.58-1.44-2.49-.35-.91-.52-1.83-.52-2.76s.17-1.64.52-2.15c.35-.51.82-.78,1.44-.82.61-.04,1.3.16,2.07.61.57.33,1.1.76,1.58,1.28.48.53.88,1.13,1.2,1.8v-5.07l1.44.83ZM574.61,168.5c.41-.04.73-.23.96-.59.23-.36.35-.86.35-1.49s-.12-1.27-.35-1.89c-.23-.63-.55-1.19-.96-1.69-.41-.5-.87-.9-1.37-1.19-.51-.29-.97-.43-1.38-.39-.41.03-.73.23-.96.58-.24.36-.35.85-.35,1.49s.12,1.27.35,1.9c.24.63.56,1.2.96,1.7.41.51.86.91,1.38,1.2.5.29.96.42,1.37.38Z"/>
      <path class="cls-13" d="M587.14,168.29l-3.86,7.89c-.34.74-.74,1.17-1.2,1.29-.46.12-1.01,0-1.65-.38-.39-.23-.77-.52-1.14-.87-.37-.36-.67-.74-.91-1.16l.62-.9c.41.69.89,1.19,1.43,1.5.35.2.64.26.88.19.24-.08.45-.32.64-.73l.26-.5-3.52-11.22,1.5.87,2.78,8.97,2.75-5.77,1.41.82Z"/>
      <polygon class="cls-13" points="594.87 175.14 594.87 176.63 588.13 175.81 588.13 174.37 593.48 175.08 588.13 169.61 588.13 168.17 594.87 175.14"/>
      <polygon class="cls-13" points="570.21 180.1 564.87 179.4 570.21 184.86 570.21 186.3 563.47 179.34 563.47 177.84 570.21 178.66 570.21 180.1"/>
      <path class="cls-13" d="M572.61,178.66c-.19-.32-.28-.62-.28-.92s.09-.5.28-.61c.19-.11.42-.08.7.08.28.16.51.4.7.71.19.31.28.62.28.92s-.09.52-.28.63c-.19.11-.42.08-.7-.08-.28-.16-.51-.4-.7-.72ZM572.58,180.73l1.44.83v9.2l-1.44-.83v-9.2Z"/>
      <path class="cls-13" d="M589.13,191.2c.59,1.01.88,2.18.88,3.49v5.3l-1.44-.83v-5.1c0-.89-.18-1.67-.53-2.32-.36-.66-.86-1.18-1.53-1.56-.73-.42-1.31-.5-1.74-.22-.43.28-.65.91-.65,1.89v4.74l-1.44-.83v-5.1c0-.89-.18-1.67-.53-2.32-.36-.66-.86-1.18-1.53-1.56-.73-.42-1.31-.5-1.74-.22-.43.28-.65.91-.65,1.89v4.74l-1.44-.83v-9.2l1.38.8v1.37c.29-.31.67-.45,1.14-.43.47.02,1.01.21,1.61.56.62.36,1.17.82,1.65,1.39.48.57.85,1.2,1.11,1.91.3-.36.72-.53,1.26-.52.54,0,1.14.21,1.81.59,1,.58,1.8,1.37,2.38,2.38Z"/>
      <path class="cls-13" d="M600.34,196.75v7.95c0,1.61-.35,2.6-1.04,2.97-.69.37-1.72.16-3.1-.63-.75-.43-1.47-.97-2.15-1.6s-1.23-1.29-1.65-1.97l.69-.89c.37.58.83,1.14,1.38,1.67.55.53,1.11.96,1.69,1.3.93.54,1.62.68,2.07.43.45-.25.67-.9.67-1.94v-.73c-.34.28-.76.39-1.26.34-.5-.05-1.04-.24-1.62-.58-.76-.44-1.45-1.03-2.07-1.76-.62-.73-1.1-1.54-1.45-2.42-.35-.88-.53-1.75-.53-2.62s.18-1.54.53-2.01c.35-.47.83-.72,1.45-.73.62-.01,1.31.2,2.07.64.6.35,1.16.8,1.68,1.35.52.55.94,1.17,1.27,1.86v-1.42l1.37.79ZM597.6,202.15c.42-.01.74-.18.98-.5.24-.32.35-.77.35-1.35,0-.89-.26-1.76-.77-2.6-.51-.84-1.17-1.5-1.97-1.96-.81-.47-1.47-.58-1.98-.32-.51.25-.77.83-.77,1.72,0,.58.12,1.16.35,1.76.24.59.56,1.14.98,1.63.42.5.89.9,1.42,1.2.52.3.99.44,1.41.43Z"/>
      <path class="cls-13" d="M607.54,209.91c-.6-.55-1.07-1.08-1.41-1.59l.6-.97c.35.49.78.97,1.28,1.43.5.46,1.01.84,1.52,1.14,1.26.73,1.89.68,1.89-.16,0-.28-.08-.55-.26-.81-.17-.26-.38-.5-.64-.72-.26-.22-.62-.52-1.09-.88-.64-.49-1.17-.92-1.57-1.31-.41-.39-.75-.84-1.04-1.37-.29-.53-.44-1.11-.44-1.76,0-.83.3-1.33.9-1.48.6-.16,1.41.06,2.42.64.53.31,1.06.69,1.59,1.15.53.46.97.91,1.31,1.36l-.62.96c-.65-.86-1.42-1.55-2.3-2.06-.61-.35-1.08-.51-1.4-.46-.32.05-.48.26-.48.64,0,.3.09.59.27.87.18.28.4.53.67.77.27.23.64.54,1.12.93.64.5,1.16.93,1.56,1.31.4.37.73.81,1.02,1.32.28.51.42,1.08.42,1.7,0,.83-.31,1.32-.92,1.45-.62.14-1.46-.1-2.52-.72-.65-.38-1.28-.84-1.88-1.39Z"/>
      <path class="cls-13" d="M615.97,214.47c-.64-.77-1.13-1.62-1.5-2.54-.36-.92-.54-1.83-.54-2.74s.18-1.61.54-2.11c.36-.5.86-.77,1.5-.8.64-.03,1.36.19,2.17.66.72.42,1.37.96,1.93,1.62.57.66,1,1.4,1.32,2.22l-1.1.18c-.25-.58-.56-1.09-.93-1.53-.37-.43-.78-.78-1.23-1.04-.52-.3-.99-.44-1.41-.41-.42.03-.74.22-.98.57-.24.36-.35.85-.35,1.49s.12,1.29.35,1.91c.24.63.56,1.2.98,1.7.42.51.88.91,1.41,1.21.45.26.86.39,1.23.38.37,0,.68-.16.93-.45l1.1,1.43c-.31.46-.75.69-1.32.71-.57.01-1.21-.19-1.93-.6-.81-.47-1.54-1.09-2.17-1.86Z"/>
      <path class="cls-13" d="M625.75,211.75c.49,0,1.09.21,1.79.62v1.61c-.08-.06-.19-.13-.33-.21-.78-.45-1.4-.54-1.84-.26-.45.28-.67.92-.67,1.91v4.58l-1.44-.83v-9.2l1.38.8v1.54c.25-.39.62-.58,1.11-.57Z"/>
      <path class="cls-13" d="M629.06,213.71l6.74,3.89v1.37l-6.74-3.89v-1.37ZM629.06,217.83l6.74,3.89v1.37l-6.74-3.89v-1.37Z"/>
      <path class="cls-13" d="M639.23,215.76c.19.33.28.67.28,1,0,.17-.02.34-.05.49-.03.15-.1.35-.2.61l-.72,2.01-.95-.55.56-2.27c-.19-.19-.34-.41-.46-.67-.12-.26-.17-.51-.17-.77,0-.35.1-.58.29-.69.19-.11.43-.08.72.09.28.16.51.41.7.74ZM642.07,217.4c.19.33.28.67.28,1,0,.17-.01.34-.05.49-.03.15-.1.35-.2.61l-.72,2.01-.95-.55.56-2.27c-.19-.19-.34-.42-.46-.67-.12-.26-.17-.51-.17-.77,0-.35.09-.58.29-.69.19-.11.43-.08.72.09.28.16.51.41.7.74Z"/>
      <polygon class="cls-13" points="653.69 224.6 653.69 236.75 652.19 235.89 652.19 230.47 646.14 226.98 646.14 232.4 644.64 231.53 644.64 219.38 646.14 220.24 646.14 225.47 652.19 228.96 652.19 223.73 653.69 224.6"/>
      <path class="cls-13" d="M663.81,238.55l-6.47-3.73c.09.86.4,1.69.92,2.49.53.8,1.18,1.42,1.96,1.87.95.55,1.72.62,2.3.22l.8,1.54c-.36.28-.81.39-1.35.33-.54-.06-1.14-.27-1.8-.66-.84-.49-1.59-1.12-2.24-1.89-.65-.78-1.16-1.62-1.51-2.55-.36-.92-.53-1.84-.53-2.74s.17-1.6.52-2.11c.35-.52.82-.8,1.43-.85.61-.05,1.29.15,2.05.59.76.44,1.44,1.03,2.04,1.77.6.74,1.06,1.57,1.4,2.48.34.91.5,1.83.5,2.76,0,.13-.01.29-.03.49ZM658.16,232.18c-.47.22-.74.7-.82,1.44l5.11,2.95c-.08-.82-.35-1.61-.82-2.37-.47-.76-1.05-1.34-1.74-1.74-.69-.4-1.27-.49-1.74-.27Z"/>
      <polygon class="cls-13" points="665.84 230.89 667.28 231.72 667.28 244.6 665.84 243.77 665.84 230.89"/>
      <polygon class="cls-13" points="670.03 233.31 671.48 234.14 671.48 247.03 670.03 246.19 670.03 233.31"/>
      <path class="cls-13" d="M675.51,248.85c-.63-.77-1.13-1.61-1.48-2.53-.36-.92-.53-1.83-.53-2.73s.18-1.61.53-2.11c.36-.51.85-.78,1.48-.81.63-.03,1.34.18,2.14.63.79.46,1.5,1.07,2.13,1.83.63.76,1.12,1.6,1.47,2.52.36.92.53,1.83.53,2.73s-.18,1.61-.53,2.11c-.36.51-.85.78-1.47.82-.63.04-1.34-.16-2.13-.62-.79-.46-1.5-1.07-2.14-1.84ZM679.02,249.62c.41-.04.72-.24.96-.59.23-.36.35-.86.35-1.49s-.12-1.27-.35-1.89c-.23-.63-.55-1.19-.96-1.69-.41-.5-.86-.9-1.38-1.19-.51-.3-.97-.43-1.38-.39-.41.03-.73.23-.96.58-.24.36-.35.85-.35,1.49s.12,1.27.35,1.9c.24.63.56,1.2.96,1.7.41.51.86.91,1.38,1.2.51.3.97.42,1.38.39Z"/>
      <path class="cls-13" d="M683.73,253.88c-.19-.32-.29-.64-.29-.96s.1-.52.29-.63c.19-.1.43-.07.71.09.28.16.51.4.69.72.18.32.27.63.27.95s-.09.52-.28.63c-.19.11-.41.08-.68-.07-.28-.16-.52-.4-.71-.73ZM683.58,241.86l1.7.98-.29,8.15-1.14-.66-.27-8.47Z"/>
      <path class="cls-13" d="M688.91,244.44c.19.33.28.67.28,1,0,.17-.01.34-.04.49-.03.15-.1.35-.2.61l-.72,2.01-.95-.55.56-2.27c-.19-.19-.34-.42-.46-.67-.12-.26-.17-.51-.17-.77,0-.35.1-.58.29-.69.19-.11.43-.08.72.09.28.16.51.41.7.74ZM691.75,246.08c.19.33.28.67.28,1,0,.17-.01.34-.05.49-.03.15-.1.35-.2.61l-.72,2.01-.95-.55.56-2.27c-.19-.19-.34-.41-.46-.67-.12-.26-.17-.51-.17-.77,0-.35.09-.58.29-.69.19-.11.43-.08.72.09.28.16.51.41.7.74Z"/>
      <polygon class="cls-13" points="700.48 256.95 700.48 258.44 693.75 257.62 693.75 256.18 699.1 256.9 693.75 251.43 693.75 249.99 700.48 256.95"/>
      <polygon class="cls-13" points="547.65 187.91 542.31 187.21 547.65 192.67 547.65 194.11 540.92 187.15 540.92 185.66 547.65 186.47 547.65 187.91"/>
      <polygon class="cls-13" points="553.2 184.95 554.51 185.71 549.55 199.2 548.24 198.45 553.2 184.95"/>
      <path class="cls-13" d="M561.62,195.74c.61.75,1.09,1.57,1.44,2.48.35.91.52,1.82.52,2.75s-.17,1.65-.52,2.16c-.35.51-.82.79-1.44.83-.61.04-1.3-.16-2.07-.61-.59-.34-1.13-.79-1.62-1.34-.49-.55-.9-1.17-1.22-1.87v1.46l-1.38-.8v-12.88l1.44.83v5.07c.32-.3.72-.44,1.2-.41.48.03,1.01.21,1.58.54.77.45,1.46,1.04,2.07,1.79ZM560.8,202.2c.41-.04.73-.23.96-.59.24-.36.35-.85.35-1.49s-.12-1.27-.35-1.9c-.24-.63-.56-1.19-.96-1.69-.41-.5-.86-.9-1.38-1.19-.5-.29-.96-.42-1.37-.39-.41.03-.73.22-.96.58-.23.36-.35.86-.35,1.49s.11,1.27.35,1.89c.23.62.55,1.19.96,1.7.41.51.87.91,1.37,1.2.51.3.97.42,1.38.39Z"/>
      <path class="cls-13" d="M566.85,206.95c-.63-.77-1.13-1.61-1.48-2.53-.36-.92-.53-1.83-.53-2.73s.18-1.61.53-2.11c.36-.51.85-.78,1.48-.81.63-.03,1.34.18,2.14.63s1.5,1.07,2.13,1.83c.63.76,1.12,1.6,1.47,2.52.36.92.53,1.83.53,2.73s-.18,1.61-.53,2.11c-.36.51-.85.78-1.47.82-.63.04-1.34-.16-2.13-.62s-1.5-1.07-2.14-1.84ZM570.36,207.72c.41-.04.72-.24.96-.59.23-.36.35-.86.35-1.49s-.12-1.27-.35-1.89c-.23-.63-.55-1.19-.96-1.69-.41-.5-.86-.9-1.38-1.19-.51-.3-.97-.43-1.38-.39-.41.03-.73.22-.96.58-.24.36-.35.85-.35,1.49s.12,1.27.35,1.9c.24.63.56,1.2.96,1.7.41.51.86.91,1.38,1.2.51.3.97.42,1.38.39Z"/>
      <path class="cls-13" d="M582.64,203.69v12.88l-1.38-.8v-1.46c-.32.32-.73.48-1.22.46-.49-.02-1.03-.2-1.62-.54-.77-.45-1.46-1.04-2.07-1.79-.61-.75-1.09-1.58-1.44-2.49-.35-.91-.52-1.83-.52-2.76s.17-1.64.52-2.15c.35-.51.82-.78,1.44-.82.61-.04,1.3.16,2.07.61.57.33,1.1.76,1.58,1.28.48.53.88,1.13,1.2,1.8v-5.07l1.44.83ZM579.91,213.23c.41-.03.73-.23.96-.59.23-.36.35-.86.35-1.49s-.12-1.27-.35-1.89c-.23-.62-.55-1.19-.96-1.69-.41-.5-.87-.9-1.37-1.19-.51-.3-.97-.43-1.38-.39-.41.03-.73.23-.96.58-.24.36-.35.85-.35,1.49s.12,1.27.35,1.9c.24.63.56,1.2.96,1.7.41.51.86.91,1.38,1.2.5.29.96.42,1.37.38Z"/>
      <path class="cls-13" d="M592.43,213.02l-3.86,7.89c-.34.74-.74,1.17-1.2,1.29-.46.12-1,0-1.65-.38-.39-.23-.77-.52-1.14-.87-.37-.36-.67-.74-.91-1.16l.62-.89c.41.69.89,1.19,1.43,1.5.35.2.64.26.88.19.24-.08.45-.32.64-.73l.26-.5-3.52-11.22,1.5.87,2.78,8.97,2.75-5.77,1.41.82Z"/>
      <polygon class="cls-13" points="600.16 219.86 600.16 221.35 593.42 220.54 593.42 219.1 598.78 219.81 593.42 214.34 593.42 212.9 600.16 219.86"/>
      <polygon class="cls-13" points="525.1 195.73 519.76 195.02 525.1 200.48 525.1 201.93 518.36 194.96 518.36 193.47 525.1 194.29 525.1 195.73"/>
      <polygon class="cls-13" points="530.65 192.77 531.95 193.52 526.99 207.01 525.68 206.26 530.65 192.77"/>
      <path class="cls-13" d="M539.43,204.19c.6,1.02.9,2.19.9,3.49v5.3l-1.44-.83v-5.1c0-.89-.19-1.67-.56-2.33s-.9-1.2-1.59-1.6c-.78-.45-1.4-.54-1.85-.28-.45.27-.68.89-.68,1.87v4.74l-1.44-.83v-12.88l1.44.83v4.98c.3-.27.69-.38,1.18-.34.49.04,1.03.23,1.63.58,1.01.58,1.82,1.39,2.41,2.41Z"/>
      <path class="cls-13" d="M547.49,216.57c-.21.09-.47.1-.78.03-.31-.07-.63-.2-.96-.39-.8-.46-1.42-1.07-1.86-1.82-.44-.75-.66-1.59-.66-2.52v-5.05l-1.35-.78v-1.37l1.35.78v-2.01l1.44.83v2.01l2.29,1.32v1.37l-2.29-1.32v4.98c0,.5.11.94.32,1.33.22.39.52.7.92.93.44.25.82.33,1.13.22l.45,1.46Z"/>
      <path class="cls-13" d="M561.58,216.97c.59,1.01.88,2.18.88,3.49v5.3l-1.44-.83v-5.1c0-.89-.18-1.67-.53-2.32-.36-.66-.86-1.18-1.53-1.56-.73-.42-1.31-.49-1.74-.22-.43.28-.65.91-.65,1.89v4.74l-1.44-.83v-5.1c0-.89-.18-1.67-.53-2.32-.36-.66-.86-1.18-1.53-1.56-.73-.42-1.31-.49-1.74-.22-.43.28-.65.91-.65,1.89v4.74l-1.44-.83v-9.2l1.38.8v1.37c.29-.31.67-.45,1.14-.43.47.02,1.01.21,1.61.56.62.36,1.17.82,1.65,1.39.48.57.85,1.2,1.11,1.91.3-.36.72-.53,1.26-.52.54,0,1.14.21,1.81.59,1,.58,1.8,1.37,2.38,2.38Z"/>
      <polygon class="cls-13" points="565.12 214.41 566.57 215.24 566.57 228.13 565.12 227.29 565.12 214.41"/>
      <polygon class="cls-13" points="575.7 226.57 575.7 228.06 568.96 227.25 568.96 225.81 574.31 226.52 568.96 221.05 568.96 219.61 575.7 226.57"/>
    </g>
    <g>
      <g>
        <polygon class="cls-10" points="740.66 190.28 740.66 221.14 713.24 205.31 713.24 174.45 740.66 190.28"/>
        <polygon class="cls-8" points="740.66 159.02 740.66 190.28 713.24 174.45 713.24 143.18 740.66 159.02"/>
        <polygon class="cls-9" points="740.66 128.56 740.66 159.02 713.24 143.18 713.24 112.73 740.66 128.56"/>
        <polygon class="cls-10" points="713.24 174.45 713.24 205.31 633.75 159.42 633.75 128.56 713.24 174.45"/>
        <polygon class="cls-10" points="713.24 143.18 713.24 174.45 633.75 128.56 633.75 97.29 713.24 143.18"/>
        <polygon class="cls-10" points="713.24 112.73 713.24 143.18 687.2 128.15 687.2 97.7 713.24 112.73"/>
        <polygon class="cls-12" points="687.2 97.7 687.2 128.15 661.18 113.13 661.18 82.67 687.2 97.7"/>
        <polygon class="cls-13" points="661.18 82.67 661.18 113.13 633.75 97.29 633.75 66.84 661.18 82.67"/>
      </g>
      <g>
        <line class="cls-3" x1="661.18" y1="113.13" x2="661.18" y2="82.67"/>
        <line class="cls-3" x1="687.2" y1="128.15" x2="687.2" y2="97.7"/>
        <line class="cls-3" x1="713.24" y1="205.31" x2="713.24" y2="112.73"/>
        <line class="cls-3" x1="740.66" y1="159.02" x2="633.75" y2="97.29"/>
        <line class="cls-3" x1="740.66" y1="190.28" x2="633.75" y2="128.56"/>
        <polygon class="cls-3" points="740.66 190.28 740.66 221.14 633.75 159.42 633.75 66.84 740.66 128.56 740.66 190.28"/>
      </g>
    </g>
  </g>
</svg>