<?xml version="1.0" encoding="UTF-8"?>
<svg xmlns="http://www.w3.org/2000/svg" viewBox="0 0 715.41 923.17">
  <defs>
    <style>
      .cls-1, .cls-2, .cls-3 {
        stroke: #fff;
      }

      .cls-1, .cls-2, .cls-3, .cls-4 {
        stroke-linecap: round;
        stroke-linejoin: round;
        stroke-width: 3px;
      }

      .cls-1, .cls-5 {
        fill: #fff;
      }

      .cls-6, .cls-7 {
        fill: #d7dce0;
      }

      .cls-7, .cls-8 {
        mix-blend-mode: multiply;
      }

      .cls-9 {
        fill: #3a3a3a;
      }

      .cls-10 {
        isolation: isolate;
      }

      .cls-11 {
        fill: #eff1f3;
      }

      .cls-3, .cls-4 {
        fill: none;
      }

      .cls-12 {
        fill: #fdb827;
      }

      .cls-4 {
        stroke: #3a3a3a;
      }
    </style>
  </defs>
  <g class="cls-10">
    <g id="Calque_2" data-name="Calque 2">
      <g id="Calque_1-2" data-name="Calque 1">
        <path class="cls-7" d="M141.97,134.61c-1.26-6.21-2.88-12.36-5.31-18.23-9.99-24.11-30.65-43.26-49.08-60.99-8.41-8.09-23.27-8.99-31.52,0-7.37,8.03-9.78,23.82,0,31.52,12.28,9.66,24.34,19.6,35.9,30.12,5.7,5.18,10.72,10.83,15.87,16.54,2.7,2.99,7.19,6.37,9.91,10.18-.85.56-1.68,1.12-2.5,1.74-2.93,2.22-6.05,4.73-8.73,7.26-3.19,3.01-8.35,9.18-4.04,13.47,4.57,4.55,11.72,1.76,17.01.13,6.49-2,14.15-4.18,19.05-9.2,6.3-6.46,5.07-14.51,3.44-22.53Z"/>
        <path class="cls-7" d="M247.14,735.37c-8.7-4.26-19.24-8.79-29.1-9.18-17.12-.67-25.97,17.08-17.21,31.08,5.16,8.25,12.57,14.67,20.46,20.18.1.07.2.13.29.2.3,1.27.84,2.46,1.64,3.43,11.62,14.16,42.06,19,52.79,1.37,12.02-19.75-13.21-39.42-28.87-47.08Z"/>
        <path class="cls-7" d="M356.73,876.79c-.94-3.45-2.53-5.56-4.8-8.24-5.5-6.48-15.67-6.52-22.62-2.92-10.05,5.21-20.32,9.99-30.38,15.19-10.95,5.66-22.3,10.65-29.89,20.73-2.97,3.94-2.34,10.38,0,14.38,2.76,4.72,7.14,6.46,12.3,7.06,11.41,1.33,23.59-5.08,33.87-9.35,11.23-4.67,22.11-10.25,32.94-15.78,7.3-3.72,10.67-13.45,8.58-21.08Z"/>
        <g class="cls-8">
          <path class="cls-6" d="M481.47,883.61c-2.76-4.71-7.16-6.49-12.33-7.07-1.96-.22-3.91.15-5.79.73-1.84.76-2.99,1.24-3.44,1.44-.82.34-1.64.7-2.43,1.12-1.12.56-1.25.67-1.02.59l-.37.15c-.77.33-4.44,2.91-5.03,3.26-3.01,2.55-5.05,5.58-5.05,9.87,0,4.64,2.47,8.26,6.19,10.78,8.69,5.91,24.38,3.52,29.27-6.47,2.29-4.68,2.73-9.75,0-14.41Z"/>
          <path class="cls-6" d="M451.07,883.84c.37-.31.74-.62,1.14-.92-1.13.86-1.37,1.06-1.14.92Z"/>
        </g>
        <path class="cls-7" d="M557.31,710.18c-7.56,2.36-12.71,5.92-18.94,10.81-.21.17-1.67,1.3-2.01,1.56-.81.62-1.65,1.2-2.48,1.78-2.54,1.76-5.15,3.41-7.81,4.98-10.06,5.91-19.9,10.41-30.09,14.15-11.81,4.33-23.92,8.3-36.01,11.76-6.75,1.93-13.49,3.88-20.37,5.3-3.55.73-7.14,1.19-10.63,2.18-3.55,1-8.1,4.26-11.67,4.07-1.34-.07-1.68,2.13-.32,2.38,3.68.67,6.49,3.98,9.93,5.35,3.76,1.5,7.62,2,11.62,2.49,7.76.96,15.63,1.5,23.45,1.29,14.55-.39,28.89-2.26,43.07-5.51,13.36-3.06,26.23-7.42,38.46-13.65,13.49-6.87,27.53-15.7,31.85-30.91,2.99-10.5-7.32-21.39-18.04-18.04Z"/>
        <path class="cls-7" d="M639.21,852.35c-12.14-.21-22.69,9.74-31.12,17.42-6.79,6.19-16.01,13.96-18.89,22.92-1.06,3.31,1.25,6.84,4.42,7.79,9.73,2.92,19.94-3.89,27.82-8.85,4.19-2.63,8.18-5.5,12.56-7.84,5.06-2.71,10.63-4.54,14.5-8.99,7.35-8.47,2.59-22.23-9.29-22.44Z"/>
        <path class="cls-7" d="M678.42,794.27c-5.08-1.97-10.34-3.6-15.49-5.39-.17-.1-.36-.21-.6-.34-1.07-.6-2.16-1.15-3.22-1.77-.59-.35-1.17-.69-1.75-1.04,1.53.1,2.98-.06,4.6-.28,4.05-.54,8.12-1.37,12.05-2.52,7.33-2.15,14.74-6.06,21.48-9.64,6.8-3.61,13.35-9.03,17.15-15.84,5.93-10.61,1.57-22.62-5.97-31.01-10.75-11.97-25.77-19.59-39.5-27.54-14.4-8.33-28.81-16.6-43.39-24.61-9.68-5.32-25.53-3.27-30.54,8.01-6.52,14.67-5.45,28.45,1.77,42.62,5.25,10.29,13.21,19.52,20.32,28.56,7.49,9.53,14.96,21.18,27.5,24.13,1.11.26,2.2.45,3.27.57,0,.98.29,1.91.79,2.75-18.82-4.44-33.34,15.76-24.41,32.52,6.59,12.36,22.18,16.92,34.93,19.89,4.5,1.05,9.02,2.03,13.51,3.12,2.13.51,4.34,1.03,6.41,1.82-.39-.03,2.63,1.67,3.12,1.82l1.79,1.38c.66.58,1.28,1.2,1.87,1.85-.45-.32.29,1.3.82,2.08-.06.08-.11.15-.17.24-1.26,1.76-2.61,3.33-4.03,4.98-3.99,4.62-17.44,21.41-6.04,25.78,10.98,4.21,23.69-9.78,29.7-17.53,8.09-10.44,12.23-22.58,7.27-35.52-5.68-14.83-18.94-23.54-33.24-29.1Z"/>
        <g id="cross">
          <g>
            <polygon class="cls-6" points="688.38 813.67 688.38 843.09 674.57 872.86 674.57 843.45 688.38 813.67"/>
            <polygon class="cls-5" points="688.38 813.67 674.57 843.45 613.43 833.99 597.04 869.28 545.48 861.3 561.86 826.01 500.72 816.55 514.54 786.78 575.68 796.24 592.06 760.94 643.62 768.91 627.24 804.22 688.38 813.67"/>
            <polygon class="cls-9" points="674.57 843.45 674.57 872.86 613.43 863.4 597.04 898.7 597.04 869.28 613.43 833.99 674.57 843.45"/>
            <polygon class="cls-9" points="643.62 768.91 643.62 798.33 639.98 806.18 627.24 804.22 643.62 768.91"/>
            <polygon class="cls-6" points="597.04 869.28 597.04 898.7 545.48 890.73 545.48 861.3 597.04 869.28"/>
            <polygon class="cls-9" points="561.86 826.01 549.13 853.45 500.72 845.97 500.72 816.55 561.86 826.01"/>
          </g>
          <g>
            <polygon class="cls-4" points="674.57 843.45 688.38 813.67 627.24 804.22 643.62 768.91 592.06 760.94 575.68 796.24 514.54 786.78 500.72 816.55 561.86 826.01 545.48 861.3 597.04 869.28 613.43 833.99 674.57 843.45"/>
            <line class="cls-4" x1="597.04" y1="869.28" x2="597.04" y2="898.7"/>
            <line class="cls-4" x1="674.57" y1="843.45" x2="674.57" y2="872.86"/>
            <polyline class="cls-4" points="688.38 813.67 688.38 843.09 674.57 872.86 613.43 863.4 597.04 898.7 545.48 890.73 545.48 861.3"/>
            <polyline class="cls-4" points="500.72 816.55 500.72 845.97 549.13 853.45"/>
            <polyline class="cls-4" points="643.62 768.91 643.62 798.33 639.98 806.18"/>
          </g>
        </g>
        <g>
          <g>
            <path class="cls-6" d="M2.1,153.27c-.4,2.88-.6,5.73-.6,8.52,0,13.3,4.77,22.56,12.46,26.67l32.62,17.53c-5.64-3.13-9.66-9.05-11.35-17.31-.57-2.81-.88-5.9-.88-9.26,0-26,18.24-57.62,40.75-70.61,1.49-.86,2.97-1.6,4.42-2.27,3.17-30.77,24.55-65.49,50.47-80.45,5.29-3.05,10.37-5.06,15.15-6.09,7.42-1.63,14.12-.91,19.66,1.88l-32.35-17.37c-9.15-4.91-21.6-4.01-35.34,3.94-25.91,14.96-47.29,49.68-50.45,80.45-1.45.66-2.92,1.41-4.41,2.27-10.52,6.08-20.14,16.22-27.36,27.97-6.59,10.68-11.21,22.67-12.8,34.13Z"/>
            <path class="cls-5" d="M34.36,179.43c0,3.36.31,6.45.88,9.26,1.68,8.26,5.71,14.18,11.35,17.31l.23.11c3.71,2,8.08,2.8,12.92,2.28,3.57-.37,7.38-1.46,11.36-3.32,1.33-.62,2.67-1.32,4.02-2.1l103.67-59.83c19.28-11.14,34.9-38.22,34.9-60.48s-14.6-30.68-33-21.2c-.02.02-.04.03-.07.03.02-.15.03-.29.04-.45.13-1.86.22-3.73.22-5.57,0-16.59-5.96-28.15-15.55-33.29l-.51-.28c-5.54-2.79-12.24-3.52-19.66-1.88-4.78,1.03-9.86,3.04-15.15,6.09-25.92,14.96-47.3,49.68-50.47,80.45-1.45.67-2.93,1.41-4.42,2.27-22.51,12.99-40.75,44.62-40.75,70.61Z"/>
          </g>
          <g>
            <path class="cls-4" d="M164.82,21.89l.51.28c9.6,5.14,15.55,16.7,15.55,33.29,0,1.84-.09,3.71-.22,5.57-.01.16-.02.3-.04.45.03,0,.05,0,.07-.03,18.4-9.48,33-.33,33,21.2s-15.62,49.34-34.9,60.48c0,0-106.36,61.32-107.69,61.93-3.98,1.85-7.79,2.95-11.36,3.32-4.84.52-9.22-.28-12.92-2.28l-.23-.11"/>
            <path class="cls-4" d="M164.82,21.89c-5.54-2.79-12.24-3.52-19.66-1.88-4.78,1.03-9.86,3.04-15.15,6.09-25.92,14.96-47.3,49.68-50.47,80.45-1.45.67-2.93,1.41-4.42,2.27-22.51,12.99-40.75,44.62-40.75,70.61,0,3.36.31,6.45.88,9.26,1.68,8.26,5.71,14.18,11.35,17.31l-32.62-17.53c-7.69-4.12-12.46-13.37-12.46-26.67,0-2.79.2-5.64.6-8.52,1.59-11.46,6.22-23.44,12.8-34.13,7.22-11.75,16.84-21.89,27.36-27.97,1.49-.86,2.96-1.61,4.41-2.27,3.16-30.77,24.54-65.49,50.45-80.45,13.74-7.94,26.19-8.85,35.34-3.94l32.35,17.37Z"/>
          </g>
        </g>
        <g>
          <g>
            <path class="cls-6" d="M231.23,887.7c1.81,1.93,3.88,3.56,6.19,4.89l20.94,11.85c-2.14-1.28-4.07-2.84-5.78-4.66.72-1.65,1.52-3.3,2.34-4.93,11.78-23.47,31.67-45.88,54.22-58.9,10.94-6.31,21.23-9.7,30.3-10.39,7.56-.56,14.28.75,19.74,3.81l-21-11.91c-12.02-6.93-30.12-5.3-50.38,6.39-24.12,13.93-45.22,38.62-56.57,63.84Z"/>
            <path class="cls-5" d="M309.13,835.95c10.94-6.31,21.23-9.7,30.3-10.39,7.56-.56,14.28.75,19.74,3.81l.34.19c2.29,1.32,4.37,2.97,6.18,4.9-11.35,25.2-32.44,49.88-56.56,63.81-20.25,11.71-38.38,13.34-50.39,6.39l-.38-.22c-2.14-1.28-4.07-2.84-5.78-4.66.72-1.65,1.52-3.3,2.34-4.93,11.78-23.47,31.67-45.88,54.22-58.9ZM309.13,886.57c9.32-5.38,16.85-18.44,16.85-29.19s-7.54-15.11-16.85-9.73c-9.32,5.38-16.86,18.44-16.86,29.21s7.55,15.09,16.86,9.72Z"/>
            <path class="cls-9" d="M325.98,857.38c0,10.75-7.54,23.81-16.85,29.19-9.32,5.38-16.86,1.03-16.86-9.72s7.55-23.83,16.86-29.21c9.32-5.38,16.85-1.02,16.85,9.73ZM309.13,872.35c2.5-1.45,4.54-4.97,4.54-7.85s-2.03-4.07-4.54-2.62c-2.5,1.45-4.53,4.96-4.53,7.84s2.03,4.07,4.53,2.63Z"/>
            <path class="cls-5" d="M309.13,861.88c-2.5,1.45-4.53,4.96-4.53,7.84s2.03,4.07,4.53,2.63c2.5-1.45,4.54-4.97,4.54-7.85s-2.03-4.07-4.54-2.62Z"/>
          </g>
          <g>
            <path class="cls-4" d="M258.35,904.44l.38.22c12.02,6.94,30.14,5.32,50.39-6.39,24.12-13.93,45.21-38.61,56.56-63.81-1.81-1.94-3.89-3.58-6.18-4.9l-.34-.19"/>
            <path class="cls-4" d="M359.17,829.37l-21-11.91c-12.02-6.93-30.12-5.3-50.38,6.39-24.12,13.93-45.22,38.62-56.57,63.84,1.81,1.93,3.88,3.56,6.19,4.89l20.94,11.85c-2.14-1.28-4.07-2.84-5.78-4.66.72-1.65,1.52-3.3,2.34-4.93,11.78-23.47,31.67-45.88,54.22-58.9,10.94-6.31,21.23-9.7,30.3-10.39,7.56-.56,14.28.75,19.74,3.81Z"/>
            <path class="cls-4" d="M292.27,876.85c0-10.76,7.55-23.83,16.86-29.21,9.32-5.38,16.85-1.02,16.85,9.73s-7.54,23.81-16.85,29.19c-9.32,5.38-16.86,1.03-16.86-9.72Z"/>
            <path class="cls-3" d="M304.6,869.72c0-2.88,2.03-6.39,4.53-7.84,2.5-1.45,4.54-.27,4.54,2.62s-2.03,6.4-4.54,7.85c-2.5,1.44-4.53.27-4.53-2.63Z"/>
          </g>
        </g>
        <g>
          <path class="cls-5" d="M459.6,868.16c6.95,0,12.59,5.64,12.59,12.59s-5.64,12.59-12.59,12.59-12.59-5.64-12.59-12.59,5.64-12.59,12.59-12.59Z"/>
          <path class="cls-4" d="M472.19,880.74c0-6.95-5.64-12.59-12.59-12.59s-12.59,5.64-12.59,12.59,5.64,12.59,12.59,12.59,12.59-5.64,12.59-12.59Z"/>
        </g>
        <g>
          <g>
            <path class="cls-9" d="M655.98,733.54v47.06c0,7.07-2.31,12.05-6.01,14.21-3.11,1.87-7.19,1.71-11.64-.86l-448.34-258.82c-11.44-6.61-18.5-18.83-18.5-32.08V111.6c0-7.27,2.47-12.32,6.36-14.41,3.06-1.66,7.01-1.43,11.31,1.06l449.17,259.33c9.76,5.64,17.65,20.75,17.65,33.77v342.2ZM641.89,779.75v-388.41c0-8.69-5.71-18.73-10.6-21.57L185.58,112.45v390.6c0,8.17,4.39,15.79,11.46,19.88l444.85,256.82Z"/>
            <path class="cls-5" d="M678.32,777.9l-28.34,16.92h-.01c3.7-2.17,6.01-7.15,6.01-14.22v-389.26c0-13.02-7.89-28.13-17.65-33.77L189.16,98.25c-4.3-2.49-8.24-2.71-11.31-1.06l28.03-16.77c3.09-1.83,7.16-1.68,11.64.88l449.16,259.33c9.76,5.64,17.66,20.75,17.66,33.75v389.3c0,7.06-2.31,12.04-6.01,14.23Z"/>
            <path class="cls-12" d="M641.89,580.23v199.52l-444.85-256.82c-7.07-4.09-11.46-11.71-11.46-19.88v-186.27l456.31,263.45Z"/>
            <path class="cls-5" d="M641.89,391.34v188.89L185.58,316.78V112.45l445.7,257.32c4.9,2.84,10.6,12.88,10.6,21.57Z"/>
            <path class="cls-6" d="M381.23,645.54l109.73,63.36c-3.29,4.1-7.89,7.97-13.75,11.37-13.43,7.75-31,11.61-48.6,11.61s-35.15-3.86-48.59-11.61c-18.53-10.71-24.26-26.02-17.19-39.55l18.4-35.18Z"/>
            <path class="cls-5" d="M381.23,645.54l-18.4,35.18c-7.07,13.53-1.34,28.84,17.19,39.55,13.43,7.75,31.01,11.61,48.59,11.61s35.17-3.86,48.6-11.61c5.86-3.39,10.46-7.27,13.75-11.37l46.67,26.94c-4.45,3.69-9.53,7.21-15.24,10.51-25.9,14.96-59.85,22.43-93.78,22.43s-67.87-7.47-93.77-22.43c-51.79-29.89-51.79-78.38,0-108.27,5.72-3.3,11.82-6.23,18.21-8.79l28.18,16.26Z"/>
          </g>
          <g>
            <path class="cls-4" d="M353.05,629.28l-163.06-94.15c-11.44-6.61-18.5-18.83-18.5-32.08V111.6c0-7.27,2.47-12.31,6.36-14.41,3.07-1.65,7.01-1.43,11.31,1.06l449.17,259.33c9.76,5.64,17.65,20.75,17.65,33.77v389.26c0,7.07-2.33,12.03-6.01,14.21-3.12,1.85-7.19,1.71-11.64-.86l-285.28-164.68Z"/>
            <path class="cls-4" d="M641.89,580.23v199.52l-444.85-256.82c-7.07-4.09-11.46-11.71-11.46-19.88V112.45l445.7,257.32c4.9,2.84,10.6,12.88,10.6,21.57v188.89Z"/>
            <path class="cls-4" d="M649.97,794.84h.01s28.34-16.93,28.34-16.93c3.7-2.2,6.01-7.17,6.01-14.23v-389.3c0-13-7.9-28.11-17.66-33.75L217.52,81.3c-4.47-2.56-8.55-2.71-11.64-.88l-28.36,16.94"/>
            <path class="cls-4" d="M366.29,673.92s.01-.04.02-.05h0s.01-.05.01-.06h.01"/>
            <path class="cls-4" d="M366.62,673.27c-.05.07-.12.25-.26.55-.02.02-.05.06-.07.09-.01.02-.04.07-.06.11,0,.01-.01.02-.01.04-.07.14-.18.36-.32.65-.02.02-.05.05-.05.11-.43.8-1.91,3.71-2.24,4.37-.02.04-.04.07-.06.12"/>
            <path class="cls-4" d="M366.58,673.37s.04-.07.04-.09l-.04.09Z"/>
            <path class="cls-4" d="M366.62,673.27h0s.01-.02.01-.04h0s.04-.07.05-.09l.06-.09"/>
            <path class="cls-4" d="M381.23,645.54l-18.4,35.18c-7.07,13.53-1.34,28.84,17.19,39.55,13.43,7.75,31.01,11.61,48.59,11.61s35.17-3.86,48.6-11.61c5.86-3.39,10.46-7.27,13.75-11.37"/>
            <path class="cls-4" d="M537.63,735.83c-4.45,3.69-9.53,7.21-15.24,10.51-25.9,14.96-59.85,22.43-93.78,22.43s-67.87-7.47-93.77-22.43c-51.79-29.89-51.79-78.38,0-108.27,5.72-3.3,11.82-6.23,18.21-8.79"/>
            <line class="cls-4" x1="185.58" y1="316.78" x2="641.89" y2="580.23"/>
          </g>
        </g>
        <path class="cls-5" d="M329.72,462.26c4.19,2.42,7.59,8.91,7.59,14.49,0,4.17-1.88,6.65-4.58,6.65-.92,0-1.94-.28-3.01-.9l-76.04-43.9c-4.19-2.42-7.59-8.91-7.59-14.5,0-4.16,1.88-6.63,4.58-6.63.92,0,1.94.28,3.01.9l76.04,43.9Z"/>
        <line class="cls-1" x1="248.88" y1="455.14" x2="346.64" y2="511.58"/>
        <line class="cls-1" x1="381.42" y1="531.66" x2="450.8" y2="571.72"/>
        <line class="cls-1" x1="248.88" y1="470.43" x2="298.17" y2="498.89"/>
        <line class="cls-1" x1="320.92" y1="512.01" x2="450.8" y2="587.01"/>
        <line class="cls-1" x1="248.88" y1="485.71" x2="328.51" y2="531.68"/>
        <line class="cls-1" x1="347.33" y1="542.55" x2="400.03" y2="572.97"/>
        <g>
          <polygon points="566.72 685.65 486.88 639.55 486.88 547.36 566.72 593.46 566.72 685.65"/>
          <g>
            <line class="cls-2" x1="558.32" y1="639.66" x2="559.58" y2="644.89"/>
            <line class="cls-2" x1="493.01" y1="615.91" x2="494.53" y2="621.19"/>
            <line class="cls-2" x1="523.03" y1="576.44" x2="519.59" y2="577.03"/>
            <line class="cls-2" x1="544.12" y1="617.26" x2="543.68" y2="612.29"/>
            <line class="cls-2" x1="492.88" y1="561.95" x2="492.94" y2="566.72"/>
            <line class="cls-2" x1="513.97" y1="649.63" x2="515.68" y2="646.31"/>
            <line class="cls-2" x1="540.96" y1="641.52" x2="537.21" y2="641.28"/>
            <line class="cls-2" x1="530.13" y1="618.77" x2="526.29" y2="618.22"/>
            <line class="cls-2" x1="559.64" y1="667.99" x2="560.5" y2="673.11"/>
            <line class="cls-2" x1="546.41" y1="629.32" x2="549.8" y2="633.94"/>
            <line class="cls-2" x1="516.19" y1="605.94" x2="512.11" y2="604.02"/>
            <line class="cls-2" x1="495.58" y1="635.46" x2="495.04" y2="630.45"/>
            <line class="cls-2" x1="559.96" y1="594.93" x2="559.55" y2="599.41"/>
            <line class="cls-2" x1="510.86" y1="568.2" x2="514.47" y2="568.04"/>
            <line class="cls-2" x1="507.35" y1="609.7" x2="509.13" y2="615"/>
            <line class="cls-2" x1="540.58" y1="663.89" x2="536.49" y2="661.08"/>
            <line class="cls-2" x1="530.47" y1="585.35" x2="532.24" y2="582.09"/>
            <line class="cls-2" x1="524.49" y1="607.2" x2="522.25" y2="601.94"/>
            <line class="cls-2" x1="495.27" y1="593.75" x2="491.66" y2="589.42"/>
            <line class="cls-2" x1="553.73" y1="672.31" x2="551.73" y2="667.01"/>
            <line class="cls-2" x1="492.57" y1="580.75" x2="492.49" y2="575.96"/>
            <line class="cls-2" x1="541.74" y1="652.86" x2="543.36" y2="658.15"/>
            <line class="cls-2" x1="513.73" y1="591.03" x2="509.63" y2="588.94"/>
            <line class="cls-2" x1="519.67" y1="623.12" x2="519.27" y2="618.17"/>
            <line class="cls-2" x1="547.76" y1="589.29" x2="543.69" y2="587.53"/>
            <line class="cls-2" x1="502.66" y1="639.52" x2="506.25" y2="643.88"/>
            <line class="cls-2" x1="544.09" y1="594.57" x2="541.53" y2="596.79"/>
            <line class="cls-2" x1="528.42" y1="646.8" x2="531.97" y2="651.23"/>
            <line class="cls-2" x1="506.21" y1="630.69" x2="503.72" y2="625.48"/>
            <line class="cls-2" x1="552.2" y1="646.11" x2="548.13" y2="644.44"/>
            <line class="cls-2" x1="560.83" y1="659.89" x2="558.93" y2="654.59"/>
            <line class="cls-2" x1="553.45" y1="601.34" x2="557.48" y2="602.73"/>
            <line class="cls-2" x1="502.1" y1="562.93" x2="498" y2="560.39"/>
            <line class="cls-2" x1="551.54" y1="620.52" x2="555.08" y2="624.96"/>
            <line class="cls-2" x1="534.93" y1="600.96" x2="530.84" y2="598.25"/>
            <line class="cls-2" x1="502.06" y1="602.81" x2="498.01" y2="599.68"/>
            <line class="cls-2" x1="532.92" y1="612.56" x2="536.66" y2="612.77"/>
            <line class="cls-2" x1="549.69" y1="653.81" x2="551.91" y2="659.08"/>
            <line class="cls-2" x1="561.42" y1="631.54" x2="561.6" y2="626.91"/>
            <line class="cls-2" x1="524.05" y1="592.41" x2="520.92" y2="587.54"/>
            <line class="cls-2" x1="499.82" y1="588.6" x2="503.28" y2="588.04"/>
            <line class="cls-2" x1="512.08" y1="626.44" x2="514.6" y2="624.16"/>
            <line class="cls-2" x1="520.49" y1="645.24" x2="516.95" y2="640.81"/>
            <line class="cls-2" x1="511.79" y1="575.19" x2="512.93" y2="580.4"/>
            <line class="cls-2" x1="560.91" y1="616.87" x2="560.01" y2="611.73"/>
            <line class="cls-2" x1="496.93" y1="611.84" x2="498.97" y2="608.91"/>
            <line class="cls-2" x1="550.62" y1="606.85" x2="550.18" y2="611.3"/>
            <line class="cls-2" x1="500.73" y1="575.82" x2="504.13" y2="575.14"/>
            <line class="cls-2" x1="528.8" y1="630.89" x2="527.26" y2="634.4"/>
            <line class="cls-2" x1="538.77" y1="630.05" x2="539.04" y2="625.47"/>
          </g>
        </g>
        <g>
          <path class="cls-9" d="M478.52,339.82c4.19,2.42,7.59,8.9,7.59,14.49,0,4.16-1.88,6.63-4.58,6.63-.92,0-1.94-.28-3.01-.9l-106.56-61.52c-4.19-2.42-7.59-8.91-7.59-14.49,0-4.17,1.88-6.65,4.58-6.65.92,0,1.94.28,3.01.9l106.56,61.53Z"/>
          <path class="cls-11" d="M247.2,248.95c0-29.28,20.57-41.15,45.95-26.5,25.37,14.64,45.95,50.27,45.95,79.55s-20.57,41.18-45.95,26.52c-25.37-14.64-45.95-50.27-45.95-79.57ZM313.15,287.03l-30.67-41.14v46.9l30.67-5.75Z"/>
          <polygon class="cls-9" points="282.48 245.88 313.15 287.03 282.48 292.78 282.48 245.88"/>
          <path class="cls-4" d="M293.15,222.45c-25.37-14.65-45.95-2.78-45.95,26.5s20.57,64.93,45.95,79.57c25.37,14.65,45.95,2.78,45.95-26.52s-20.57-64.91-45.95-79.55Z"/>
          <line class="cls-4" x1="367.16" y1="315.07" x2="421.71" y2="346.56"/>
          <line class="cls-4" x1="438.36" y1="356.17" x2="484.07" y2="382.57"/>
          <line class="cls-4" x1="499.71" y1="391.6" x2="569.09" y2="431.65"/>
          <line class="cls-4" x1="367.16" y1="330.35" x2="466.28" y2="387.57"/>
          <line class="cls-4" x1="482.46" y1="396.92" x2="569.09" y2="446.94"/>
          <line class="cls-4" x1="367.16" y1="345.64" x2="419.5" y2="375.85"/>
          <line class="cls-4" x1="445.28" y1="390.74" x2="569.09" y2="462.23"/>
          <line class="cls-4" x1="367.16" y1="360.92" x2="526.09" y2="452.67"/>
        </g>
        <g id="mobile_phone" data-name="mobile phone">
          <g>
            <path class="cls-6" d="M245.65,763.62v13.07c0,3.79-1.3,6.51-3.42,7.83-2.02,1.26-4.77,1.27-7.88-.24-31.38-15.36-62.88-33.55-94.26-54.42-6.37-4.25-11.28-13.25-11.28-20.62v-13.07l116.83,67.45ZM174.41,739.63l25.64,14.8c1.42.82,2.56-.05,2.56-1.92,0-.95-.28-1.96-.75-2.85-.46-.89-1.11-1.64-1.82-2.04l-25.64-14.8c-1.42-.82-2.56.05-2.56,1.94,0,.94.28,1.96.75,2.85.46.88,1.11,1.62,1.82,2.03Z"/>
            <polygon class="cls-5" points="128.82 594.99 128.82 696.17 245.65 763.62 245.65 662.44 128.82 594.99"/>
            <g>
              <path class="cls-9" d="M245.65,573.71c0-.93-.07-1.88-.23-2.84-20.34-12.99-40.13-25.53-45.67-28.87-1.95-1.17-3.68-.81-4.46.81-1.05,2.18-3.27,4.33-8.06,1.58-4.79-2.77-7.01-7.49-8.06-10.88-.78-2.5-2.51-4.87-4.46-5.94-5.54-3.08-25.33-13.38-45.66-23.87-.16.79-.23,1.65-.23,2.57v88.73l116.83,67.45v-88.73Z"/>
              <g>
                <line class="cls-3" x1="163.23" y1="599.23" x2="159.19" y2="601.22"/>
                <line class="cls-3" x1="210.2" y1="591.44" x2="205.88" y2="592.69"/>
                <line class="cls-3" x1="157.18" y1="541.46" x2="154.71" y2="537.7"/>
                <line class="cls-3" x1="145.85" y1="553.11" x2="150.19" y2="554.31"/>
                <line class="cls-3" x1="172.28" y1="590.68" x2="167.79" y2="590.45"/>
                <line class="cls-3" x1="203.42" y1="575.98" x2="207.38" y2="578.11"/>
                <line class="cls-3" x1="202.26" y1="630.67" x2="200.55" y2="626.51"/>
                <line class="cls-3" x1="148.48" y1="584.64" x2="147.02" y2="580.38"/>
                <line class="cls-3" x1="184.88" y1="551.8" x2="181" y2="554.08"/>
                <line class="cls-3" x1="222.75" y1="593.78" x2="219.74" y2="597.13"/>
                <line class="cls-3" x1="168.47" y1="534.23" x2="167.56" y2="529.82"/>
                <line class="cls-3" x1="159.26" y1="553.51" x2="163.54" y2="552.13"/>
                <line class="cls-3" x1="185.96" y1="595.92" x2="181.9" y2="593.99"/>
                <line class="cls-3" x1="238.52" y1="618.72" x2="239.96" y2="622.99"/>
                <line class="cls-3" x1="207.66" y1="557.44" x2="203.55" y2="559.28"/>
                <line class="cls-3" x1="135.74" y1="556.35" x2="136.61" y2="551.94"/>
                <line class="cls-3" x1="169.22" y1="542.93" x2="173.15" y2="545.12"/>
                <line class="cls-3" x1="180.55" y1="568.72" x2="184.8" y2="567.23"/>
                <line class="cls-3" x1="146.89" y1="569.56" x2="149.89" y2="566.22"/>
                <line class="cls-3" x1="145.31" y1="527.3" x2="149.37" y2="525.36"/>
                <line class="cls-3" x1="176.03" y1="616.42" x2="180.53" y2="616.62"/>
                <line class="cls-3" x1="171.33" y1="606.81" x2="166.92" y2="607.71"/>
                <line class="cls-3" x1="237.93" y1="591.45" x2="237.02" y2="587.04"/>
                <line class="cls-3" x1="141.31" y1="541.2" x2="145.79" y2="540.73"/>
                <line class="cls-3" x1="239.57" y1="605.89" x2="239.14" y2="601.41"/>
                <line class="cls-3" x1="205.87" y1="614.33" x2="204" y2="618.43"/>
                <line class="cls-3" x1="234.06" y1="641.21" x2="230.96" y2="637.96"/>
                <line class="cls-3" x1="217.56" y1="608.17" x2="214.93" y2="611.82"/>
                <line class="cls-3" x1="213.45" y1="633.21" x2="217.11" y2="630.59"/>
                <line class="cls-3" x1="193.02" y1="578.21" x2="192.67" y2="573.72"/>
                <line class="cls-3" x1="189.85" y1="618.86" x2="193.89" y2="616.89"/>
                <line class="cls-3" x1="159.99" y1="563.9" x2="161.2" y2="568.23"/>
                <line class="cls-3" x1="134.46" y1="537.56" x2="134.76" y2="533.07"/>
                <line class="cls-3" x1="234.49" y1="574.63" x2="231.85" y2="578.28"/>
                <line class="cls-3" x1="225.44" y1="622.41" x2="224.96" y2="617.93"/>
                <line class="cls-3" x1="193.44" y1="560.02" x2="194.02" y2="555.56"/>
                <line class="cls-3" x1="229.94" y1="604.11" x2="231.08" y2="608.47"/>
                <line class="cls-3" x1="174.3" y1="573.45" x2="170.1" y2="575.07"/>
                <line class="cls-3" x1="134.31" y1="584.9" x2="138.78" y2="585.39"/>
                <line class="cls-3" x1="179.08" y1="584.02" x2="182.2" y2="580.78"/>
                <line class="cls-3" x1="158.72" y1="578.83" x2="161.03" y2="582.69"/>
                <line class="cls-3" x1="146.32" y1="593.5" x2="149.36" y2="596.83"/>
                <line class="cls-3" x1="136.41" y1="571.53" x2="139.05" y2="567.88"/>
                <line class="cls-3" x1="185.51" y1="605.67" x2="181.06" y2="606.33"/>
                <line class="cls-3" x1="192.57" y1="589.27" x2="196.99" y2="588.41"/>
                <line class="cls-3" x1="198.03" y1="602.38" x2="202.15" y2="604.18"/>
                <line class="cls-3" x1="173.17" y1="561.63" x2="168.99" y2="559.96"/>
                <line class="cls-3" x1="135.58" y1="515.56" x2="138.37" y2="519.09"/>
                <line class="cls-3" x1="220" y1="569.28" x2="216.08" y2="567.06"/>
                <line class="cls-3" x1="218.49" y1="581.66" x2="222.93" y2="582.39"/>
              </g>
            </g>
            <path class="cls-5" d="M140.1,498.67c31.38,15.36,62.88,33.54,94.26,54.42,5.57,3.72,10.03,11.06,11.06,17.79-20.34-12.99-40.13-25.53-45.67-28.87-1.95-1.17-3.68-.81-4.46.81-1.05,2.18-3.27,4.33-8.06,1.58-4.79-2.77-7.01-7.49-8.06-10.88-.78-2.5-2.51-4.87-4.46-5.94-5.54-3.08-25.33-13.38-45.66-23.87.51-2.75,1.86-4.68,3.78-5.59,1.95-.91,4.47-.79,7.28.58ZM187.23,533.74c.66.38,1.2.07,1.2-.69s-.54-1.71-1.2-2.09c-.66-.38-1.2-.07-1.2.7s.54,1.7,1.2,2.08Z"/>
            <path class="cls-6" d="M145.95,490.49l-13.14,7.59h.01c1.95-.9,4.47-.78,7.28.59,31.38,15.36,62.88,33.54,94.26,54.42,5.57,3.72,10,11.07,11.06,17.79.15.96.23,1.91.23,2.84v202.98c0,3.79-1.3,6.51-3.42,7.83h.01s13.34-7.7,13.34-7.7c2.24-1.29,3.61-4.06,3.61-7.95v-202.98c0-7.38-4.92-16.38-11.29-20.62-31.38-20.88-62.88-39.06-94.26-54.42-3.01-1.48-5.69-1.5-7.68-.36Z"/>
            <path class="cls-9" d="M171.85,734.75c0,.94.28,1.96.75,2.85.46.88,1.11,1.62,1.82,2.03l25.64,14.8c1.42.82,2.56-.05,2.56-1.92,0-.95-.28-1.96-.75-2.85-.46-.89-1.11-1.64-1.82-2.04l-25.64-14.8c-1.42-.82-2.56.05-2.56,1.94Z"/>
            <path class="cls-5" d="M187.23,530.96c-.66-.38-1.2-.07-1.2.7s.54,1.7,1.2,2.08c.66.38,1.2.07,1.2-.69s-.54-1.71-1.2-2.09Z"/>
          </g>
          <g>
            <path class="cls-4" d="M128.82,696.17v13.07c0,7.37,4.91,16.38,11.28,20.62,31.38,20.86,62.88,39.06,94.26,54.42,3.1,1.52,5.86,1.5,7.88.24,2.12-1.32,3.42-4.04,3.42-7.83v-202.98c0-.93-.08-1.88-.23-2.84-1.06-6.72-5.5-14.07-11.06-17.79-31.38-20.88-62.88-39.06-94.26-54.42-2.8-1.37-5.33-1.5-7.28-.58-1.92.91-3.25,2.84-3.78,5.59-.15.79-.23,1.65-.23,2.57v189.91Z"/>
            <path class="cls-4" d="M245.42,570.87c-20.34-12.99-40.13-25.53-45.67-28.87-1.95-1.17-3.68-.81-4.46.81-1.05,2.18-3.27,4.33-8.06,1.58-4.79-2.77-7.01-7.49-8.06-10.88-.78-2.5-2.51-4.87-4.46-5.94-5.54-3.08-25.33-13.38-45.66-23.87,0-.01-.01-.01-.01-.01"/>
            <line class="cls-4" x1="245.65" y1="763.62" x2="128.82" y2="696.17"/>
            <path class="cls-4" d="M174.41,739.63l25.64,14.8c1.42.82,2.56-.05,2.56-1.92,0-.95-.28-1.96-.75-2.85-.46-.89-1.11-1.64-1.82-2.04l-25.64-14.8c-1.42-.82-2.56.05-2.56,1.94,0,.94.28,1.96.75,2.85.46.88,1.11,1.62,1.82,2.03Z"/>
            <path class="cls-4" d="M186.02,531.66c0-.77.54-1.07,1.2-.7.66.38,1.2,1.32,1.2,2.09s-.54,1.07-1.2.69c-.66-.38-1.2-1.31-1.2-2.08Z"/>
            <path class="cls-4" d="M132.41,498.31l13.54-7.82c2-1.14,4.68-1.12,7.68.36,31.38,15.36,62.88,33.54,94.26,54.42,6.37,4.25,11.29,13.24,11.29,20.62v202.98c0,3.88-1.37,6.66-3.61,7.95l-13.53,7.82"/>
          </g>
          <g>
            <line class="cls-4" x1="148.37" y1="628.48" x2="221.59" y2="670.75"/>
            <line class="cls-4" x1="148.37" y1="645.38" x2="172.76" y2="659.46"/>
            <line class="cls-4" x1="183.68" y1="665.77" x2="221.59" y2="687.65"/>
            <line class="cls-4" x1="148.37" y1="662.28" x2="221.59" y2="704.55"/>
            <line class="cls-4" x1="148.37" y1="679.18" x2="185.12" y2="700.4"/>
          </g>
        </g>
      </g>
    </g>
  </g>
</svg>