<?xml version="1.0" encoding="UTF-8"?>
<svg id="Calque_2" xmlns="http://www.w3.org/2000/svg" version="1.1" viewBox="0 0 171.1 191.3">
  <!-- Generator: Adobe Illustrator 29.1.0, SVG Export Plug-In . SVG Version: 2.1.0 Build 142)  -->
  <defs>
    <style>
      .st0, .st1 {
        fill: none;
      }

      .st2 {
        fill: #969a9e;
      }

      .st3 {
        fill: #dae0e5;
      }

      .st4 {
        fill: #fff;
      }

      .st1 {
        stroke: #fff;
        stroke-linecap: round;
        stroke-linejoin: round;
        stroke-width: 3px;
      }

      .st5 {
        fill: #fdb827;
      }

      .st6 {
        fill: #5f646b;
      }
    </style>
  </defs>
  <path class="st2" d="M116.4,96.3c3.2,5.6,3.2,11.6,0,13.5-2.3,1.4-3.1,5.1-1.8,9.3,1.3,4.4.5,8-1.8,9.3l-6.9,4c2.3-1.3,3.1-4.9,1.8-9.3-1.3-4.3-.6-7.9,1.8-9.3,3.2-1.9,3.2-7.9,0-13.5-2.3-4.1-3-8.6-1.8-11.4,1.7-3.9-.3-10.6-4.5-15-3.1-3.2-5.1-7.9-5.1-11.7,0-5.3-3.7-11.6-8.3-14.3-3.3-1.9-6.3-6-7.6-10.2-1.8-5.9-6.6-11-10.8-11.4-3.1-.3-6.6-3.2-9-7.2-3.2-5.6-8.4-8.6-11.7-6.7-2.4,1.3-5.9.1-9-3.1-3.2-3.3-6.7-4.4-9-3.1h0l6.9-4c2.3-1.3,5.8-.2,9,3.1,3.1,3.2,6.6,4.4,9,3.1,3.2-1.8,8.4,1.2,11.7,6.7,2.4,4.1,5.9,6.9,9,7.2,4.2.4,9,5.5,10.8,11.4,1.3,4.3,4.3,8.3,7.6,10.3,4.6,2.7,8.2,9,8.3,14.3,0,3.8,2,8.5,5.1,11.7,4.2,4.5,6.2,11.2,4.5,15-1.3,2.8-.6,7.3,1.8,11.4h0Z"/>
  <path class="st0" d="M78.3,147.7c-2.1,0-4.5-1.2-6.8-3.7-3.1-3.2-6.6-4.4-9-3.1-3,1.7-7.5-.8-10.8-5.4-.3-.4-.6-.9-.8-1.3-2.3-4.1-5.9-6.9-9-7.2-3.5-.4-7.5-4.1-9.8-8.7-.4-.8-.8-1.7-1-2.6-1.3-4.3-4.3-8.3-7.6-10.3-4.6-2.7-8.2-9-8.3-14.3,0-3.8-2-8.5-5.1-11.7-4.2-4.5-6.2-11.2-4.5-15,1.3-2.8.6-7.3-1.8-11.4-3.2-5.6-3.2-11.6,0-13.5,2.3-1.4,3.1-5.1,1.8-9.3-1.3-4.3-.5-7.9,1.7-9.3l.4-.2c.7-.3,1.5-.5,2.4-.4,2.5.2,4.2-1.2,4.9-3.8.1-.6.2-1.3.2-2.1,0-2.6.9-4.5,2.4-5.3,1.5-.9,3.5-.8,5.8.6,3.3,1.9,6.3,1.3,7.6-1.5.3-.7.8-1.3,1.3-1.7.2-.1.3-.2.5-.3,2.3-1.3,5.8-.2,9,3.1,3.1,3.2,6.6,4.5,9,3.1,3.2-1.8,8.4,1.2,11.7,6.7,2.4,4.1,5.9,6.9,9,7.2,4.2.4,9,5.5,10.8,11.4,1.3,4.3,4.3,8.3,7.6,10.2,4.6,2.7,8.2,9,8.3,14.3,0,3.9,2,8.5,5.1,11.7,4.2,4.5,6.2,11.2,4.5,15-1.3,2.8-.6,7.3,1.8,11.4,3.2,5.6,3.2,11.6,0,13.5-2.3,1.4-3,5.1-1.8,9.3,1.3,4.4.5,8-1.8,9.3h0c-.2.1-.3.2-.6.3-.6.2-1.3.3-2.1.3-3.1-.3-5.1,2-5.1,5.9,0,2.5-.9,4.4-2.3,5.2h-.1c-.2.2-.4.3-.6.3-1.4.5-3.2.3-5.2-.8-.6-.4-1.3-.6-1.9-.8h0c-2.5-.8-4.7,0-5.7,2.3-.4.9-.9,1.5-1.6,1.9l-.4.2c-.6.3-1.2.4-1.9.4h0ZM87.1,125.8c6.5-4.6,10.5-13.4,10.5-25.5,0-26.1-18.3-57.8-40.9-70.9-10.5-6.1-20.1-7-27.4-3.7h0c-8.3,3.9-13.5,13.4-13.5,27.3,0,26.1,18.3,57.8,40.9,70.9,12.1,7,23,7.2,30.4,1.9h0Z"/>
  <path class="st6" d="M95.1,144.5l13.1,37.6-11.6-8.1-6.3,7.7-11.9-34c.7,0,1.3-.1,1.9-.4l.4-.2c.7-.4,1.2-1.1,1.6-1.9,1-2.2,3.2-3.1,5.7-2.3h0c.6.2,1.2.5,1.9.8,2,1.1,3.8,1.4,5.2.8h0Z"/>
  <path class="st2" d="M105.3,132.8c-.2.6-.2,1.3-.2,2.1,0,2.6-.9,4.5-2.4,5.3l-6.8,3.9c1.4-.9,2.3-2.7,2.3-5.2,0-3.8,2-6.1,5.1-5.9.8,0,1.5,0,2.1-.3h0Z"/>
  <path class="st3" d="M97.6,100.2c0,12.2-4,20.9-10.5,25.5-7.5,5.3-18.3,5.1-30.4-1.9-22.6-13.1-40.9-44.8-40.9-70.9s5.2-23.5,13.5-27.3h0c7.3-3.4,16.9-2.4,27.4,3.7,22.6,13.1,40.9,44.8,40.9,70.9h0ZM66.6,102.6c3.6-2.2,5.8-6.9,5.8-13.4,0-13.3-9.4-29.5-20.9-36.2-5.7-3.3-10.8-3.6-14.5-1.6h-.2c-3.8,2.3-6.1,7-6.1,13.7,0,13.3,9.4,29.5,20.9,36.2,5.8,3.3,11,3.7,14.8,1.5l.3-.2h0Z"/>
  <path class="st5" d="M72.4,89.2c0,6.5-2.2,11.1-5.8,13.4l-.3.2c-3.8,2.2-9,1.9-14.8-1.5-11.5-6.7-20.9-22.9-20.9-36.2s2.3-11.3,6.1-13.5h.2c3.8-2.2,8.9-1.8,14.5,1.5,11.5,6.7,20.9,22.9,20.9,36.2h0ZM65.4,79.2l-5.6-9.7-11.4,6.6-4.8-8.4-5.6,3.2,10.4,18.1,17-9.8Z"/>
  <polygon class="st0" points="59.8 69.5 65.4 79.2 48.5 89 38.1 70.8 43.7 67.6 48.5 76.1 59.8 69.5"/>
  <path class="st6" d="M51.7,135.5l-10.4,19.1-6.3-15-11.6-5.4,8.8-16.1c2.2,4.7,6.2,8.4,9.8,8.7,3.1.3,6.6,3.2,9,7.2.3.5.5.9.8,1.3h0Z"/>
  <path class="st2" d="M32.4,6.4c-.5.4-1,1-1.3,1.7-1.3,2.8-4.3,3.4-7.6,1.5-2.3-1.3-4.3-1.4-5.8-.6l6.9-4c1.5-.8,3.6-.8,5.8.6.7.4,1.3.7,1.9.8Z"/>
  <path class="st4" d="M7.7,20.6l7.3-4.2c-.6,2.6-2.4,4-4.9,3.8-.9,0-1.7,0-2.4.4Z"/>
  <path class="st4" d="M7.7,20.6l-.4.2c.1,0,.2-.1.4-.2Z"/>
  <g>
    <line class="st1" x1="78.3" y1="147.7" x2="78.3" y2="147.7"/>
    <polyline class="st1" points="95.1 144.5 108.2 182.1 96.5 174 90.2 181.7 78.3 147.7"/>
    <polyline class="st1" points="32.1 118.2 23.3 134.3 35 139.7 41.3 154.6 51.7 135.5"/>
    <path class="st1" d="M105.3,132.8c-.2.6-.2,1.3-.2,2.1,0,2.6-.9,4.5-2.4,5.3"/>
    <path class="st1" d="M80.3,147.3c-.6.3-1.2.4-1.9.4h0c-2.1,0-4.5-1.2-6.8-3.7-3.1-3.2-6.6-4.4-9-3.1-3,1.7-7.5-.8-10.8-5.4-.3-.4-.6-.9-.8-1.3-2.3-4.1-5.9-6.9-9-7.2-3.5-.4-7.5-4.1-9.8-8.7-.4-.8-.8-1.7-1-2.6-1.3-4.3-4.3-8.3-7.6-10.3-4.6-2.7-8.2-9-8.3-14.3,0-3.8-2-8.5-5.1-11.7-4.2-4.5-6.2-11.2-4.5-15,1.3-2.8.6-7.3-1.8-11.4-3.2-5.6-3.2-11.6,0-13.5,2.3-1.4,3.1-5.1,1.8-9.3-1.3-4.3-.5-7.9,1.7-9.3.1,0,.2-.1.4-.2.7-.3,1.5-.5,2.4-.4,2.5.2,4.2-1.2,4.9-3.8.1-.6.2-1.3.2-2.1,0-2.6.9-4.5,2.4-5.3,1.5-.9,3.5-.8,5.8.6,3.3,1.9,6.3,1.3,7.6-1.5.3-.7.8-1.3,1.3-1.7.2-.1.3-.2.5-.3,2.3-1.3,5.8-.2,9,3.1,3.1,3.2,6.6,4.5,9,3.1,3.2-1.8,8.4,1.2,11.7,6.7,2.4,4.1,5.9,6.9,9,7.2,4.2.4,9,5.5,10.8,11.4,1.3,4.3,4.3,8.3,7.6,10.2,4.6,2.7,8.2,9,8.3,14.3,0,3.9,2,8.5,5.1,11.7,4.2,4.5,6.2,11.2,4.5,15-1.3,2.8-.6,7.3,1.8,11.4,3.2,5.6,3.2,11.6,0,13.5-2.3,1.4-3,5.1-1.8,9.3,1.3,4.4.5,8-1.8,9.3"/>
    <path class="st1" d="M88,142.8c-2.5-.8-4.7,0-5.7,2.3-.4.9-.9,1.5-1.6,1.9"/>
    <path class="st1" d="M95.7,144.2c-.2.1-.4.2-.6.3-1.4.5-3.2.3-5.2-.8-.6-.4-1.3-.6-1.9-.8"/>
    <path class="st1" d="M105.9,132.5c-.2.1-.3.2-.6.3-.6.2-1.3.3-2.1.3-3.1-.3-5.1,2-5.1,5.9,0,2.5-.9,4.4-2.3,5.2"/>
    <path class="st1" d="M29.3,25.7c7.3-3.3,16.9-2.4,27.4,3.7,22.6,13.1,40.9,44.8,40.9,70.9s-4,20.9-10.5,25.5c-7.5,5.3-18.3,5.1-30.4-1.9-22.6-13.1-40.9-44.8-40.9-70.9s5.2-23.5,13.5-27.3c0,0,0,0,0,0Z"/>
    <path class="st1" d="M66.3,102.8c-3.8,2.2-9,1.9-14.8-1.5-11.5-6.7-20.9-22.9-20.9-36.2s2.3-11.3,6.1-13.5"/>
    <path class="st1" d="M37,51.5c3.8-2,8.9-1.7,14.5,1.6,11.5,6.7,20.9,22.9,20.9,36.2s-2.2,11.1-5.8,13.4"/>
    <line class="st1" x1="95.7" y1="144.2" x2="102.7" y2="140.2"/>
    <path class="st1" d="M32.9,6.1l6.9-4c2.3-1.3,5.8-.2,9,3.1,3.1,3.2,6.6,4.4,9,3.1,3.2-1.8,8.4,1.2,11.7,6.7,2.4,4.1,5.9,6.9,9,7.2,4.2.4,9,5.5,10.8,11.4,1.3,4.3,4.3,8.3,7.6,10.3,4.6,2.7,8.2,9,8.3,14.3,0,3.8,2,8.5,5.1,11.7,4.2,4.5,6.2,11.2,4.5,15-1.3,2.8-.6,7.3,1.8,11.4,3.2,5.6,3.2,11.6,0,13.5-2.3,1.4-3.1,5.1-1.8,9.3,1.3,4.4.5,8-1.8,9.3l-6.9,4h0"/>
    <path class="st1" d="M17.7,9l6.9-4c1.5-.8,3.6-.8,5.8.6.7.4,1.3.7,1.9.8"/>
    <line class="st1" x1="7.4" y1="20.8" x2="15" y2="16.4"/>
    <polygon class="st1" points="65.4 79.2 48.5 89 38.1 70.8 43.7 67.6 48.5 76.1 59.8 69.5 65.4 79.2"/>
  </g>
</svg>