<?xml version="1.0" encoding="UTF-8"?>
<svg id="Calque_2" data-name="Calque 2" xmlns="http://www.w3.org/2000/svg" xmlns:xlink="http://www.w3.org/1999/xlink" viewBox="0 0 789.57 691.96">
  <defs>
    <style>
      .cls-1, .cls-2, .cls-3, .cls-4, .cls-5, .cls-6, .cls-7 {
        fill: none;
      }

      .cls-8 {
        fill: #c2c7cc;
      }

      .cls-2 {
        stroke-width: 2px;
      }

      .cls-2, .cls-3, .cls-4, .cls-5, .cls-6, .cls-7, .cls-9 {
        stroke: #373a3a;
        stroke-linecap: round;
        stroke-linejoin: round;
      }

      .cls-10 {
        fill: #969a9e;
      }

      .cls-3 {
        stroke-width: 2.8px;
      }

      .cls-4 {
        stroke-width: 2.5px;
      }

      .cls-5, .cls-9 {
        stroke-width: 3px;
      }

      .cls-6 {
        stroke-width: 4px;
      }

      .cls-7 {
        stroke-width: 5px;
      }

      .cls-11, .cls-9 {
        fill: #fff;
      }

      .cls-12 {
        fill: #5f646b;
      }

      .cls-13 {
        fill: #dae0e5;
      }

      .cls-14 {
        fill: #fdb827;
      }

      .cls-15 {
        fill: #373a3a;
      }

      .cls-16 {
        fill: url(#New_Pattern_Swatch_2);
      }
    </style>
    <pattern id="New_Pattern_Swatch_2" data-name="New Pattern Swatch 2" x="0" y="0" width="16" height="19" patternTransform="translate(-4999.18 -4484.43) scale(.4)" patternUnits="userSpaceOnUse" viewBox="0 0 16 19">
      <g>
        <rect class="cls-1" x="0" width="16" height="19"/>
        <g>
          <polygon class="cls-10" points="16 22.18 10.5 19 16 15.82 21.5 19 16 22.18"/>
          <polygon class="cls-10" points="8 12.68 2.5 9.5 8 6.32 13.5 9.5 8 12.68"/>
        </g>
        <polygon class="cls-10" points="0 22.18 -5.5 19 0 15.82 5.5 19 0 22.18"/>
        <polygon class="cls-10" points="16 3.18 10.5 0 16 -3.18 21.5 0 16 3.18"/>
        <polygon class="cls-10" points="0 3.18 -5.5 0 0 -3.18 5.5 0 0 3.18"/>
      </g>
    </pattern>
  </defs>
  <g id="shadow">
    <path class="cls-16" d="M138.65,366.41c-55.39,24.21,14.43,26.91-98.38,60.85l-.12.07c-4.53,1.68-8.02,3.75-10.4,6.08-7.04,6.9-4.55,16.05,8.19,23.8,18.23,11.09,45.77,12,67.4,5.86,9.36-2.65,15.18-6.78,17.3-11.5,2.23-2.26,4.55-4.49,7.68-6.3,18.59-10.79,74.37-16.26,74.37-32.95s-26.1-13.96-34.39-19.4c-11.54-7.58-12.55-27.17-26.4-27.17-1.8,0-3.55.24-5.26.66Z"/>
    <path class="cls-16" d="M265.31,113.12c5.76,3.32,5.76,8.71,0,12.03-5.76,3.32-15.09,3.32-20.84,0-5.76-3.32-5.76-8.71,0-12.03,5.76-3.32,15.09-3.32,20.84,0Z"/>
    <path class="cls-16" d="M773.05,383.2l-40.75-14.77c-7.01-2.54-16.38-2.05-22.49,1.47-7.09,4.1-7.09,10.73,0,14.83.99.57,2.06,1.06,3.2,1.47l40.75,14.77c7.01,2.54,16.38,2.05,22.49-1.47,7.09-4.09,7.09-10.73,0-14.83-.99-.57-2.06-1.06-3.2-1.47Z"/>
    <path class="cls-16" d="M675.16,396.77l-20.65-7.22c-7.01-2.54-16.38-2.05-22.49,1.47-7.09,4.09-7.09,10.73,0,14.83.99.57,2.06,1.06,3.2,1.47l20.65,7.22c7.01,2.54,16.38,2.05,22.49-1.47,7.09-4.09,7.09-10.73,0-14.83-.99-.57-2.06-1.06-3.2-1.47Z"/>
    <path class="cls-16" d="M604.76,320.68l-50.69,29.26c-2.64,1.53-7.26,1.34-10.31-.43l-27.43-15.84c-3.05-1.76-3.38-4.43-.74-5.96l50.69-29.26c2.64-1.53,7.26-1.33,10.31.43l27.43,15.84c3.05,1.76,3.38,4.43.74,5.96Z"/>
    <polygon class="cls-16" points="287.27 691.96 235.17 661.88 300.3 624.28 352.4 654.36 287.27 691.96"/>
    <path class="cls-16" d="M462.44,507.85c135.91,5.71,199.87-38.83,155.33-83.37-44.54-44.54-191.73-59.44-191.73-59.44l36.41,142.82Z"/>
    <path class="cls-16" d="M251.31,468.79c-2.4,0-4.59.52-6.26,1.38-9.02-4.49-26.2-8.65-26.2-8.65l2.36,22.5c15.18,1.84,22.49-.75,26.42-4.75,1.13.28,2.37.43,3.67.43,5.21,0,9.43-2.44,9.43-5.45s-4.22-5.45-9.43-5.45Z"/>
    <path class="cls-16" d="M213.35,476.98c-2.4,0-4.59.52-6.26,1.38-9.02-4.49-26.2-8.65-26.2-8.65l2.36,22.5c15.18,1.84,22.49-.75,26.42-4.75,1.13.28,2.37.43,3.67.43,5.21,0,9.43-2.44,9.43-5.45s-4.22-5.45-9.43-5.45Z"/>
    <path class="cls-16" d="M209.95,447.2c-2.4,0-4.59.52-6.26,1.38-9.02-4.49-26.2-8.65-26.2-8.65l2.36,22.5c15.18,1.84,22.49-.75,26.42-4.75,1.13.28,2.37.43,3.67.43,5.21,0,9.43-2.44,9.43-5.45s-4.22-5.45-9.43-5.45Z"/>
    <path class="cls-16" d="M97.66,599.53c11.43,5.55,24.17,5.88,33.64-1.31,7.14-5.42,42.18-24.28,56.5-32.01,3.47-1.87,3.69-6.77.41-8.95l-76.51-42.32-40.17,15.35-25.48,18.62,51.6,50.62Z"/>
    <path class="cls-16" d="M589.8,538.97c-45.43-26.3-125.97-35.83-179.89-21.28-53.92,14.55-60.8,47.66-15.36,73.97,13.64,7.9,30.46,14.27,48.77,18.94l-46.78,23.18c-3.19,1.58-4.42,5.32-2.76,8.35,1.16,2.12,3.43,3.33,5.77,3.33,1.01,0,2.04-.23,3-.7l60.33-29.9c37.94,6.86,79.47,6.73,111.56-1.93,53.92-14.55,60.8-47.66,15.36-73.97Z"/>
    <polygon class="cls-16" points="547.64 130.47 497.96 170.06 604.51 157.83 547.64 130.47"/>
    <path class="cls-16" d="M91.61,226.01l27,15.59c4.65,2.69,12.78,2.35,18.15-.75l87.56-48.14c5.37-3.1,5.96-7.79,1.3-10.48l-27-15.59c-4.65-2.69-12.78-2.35-18.15.75l-87.56,48.14c-5.37,3.1-5.96,7.79-1.3,10.48Z"/>
    <path class="cls-16" d="M671.23,244.62c-3.94,1.26-7.99,1.69-12.07,1.69-11.31,0-45.78-5.31-50.31-5.31-11.18,0-17.81,5-17.81,16.31,0,14.23,9.84,25.66,31.73,25.66,5.68,0,11.46-.53,16.98-.53,1.24,0,2.46.03,3.67.09v.04c.33.05.65.1.97.15l.04.05c7.39,1.96,11.92,7.58,16.89,13.05,4.18,1.21,6.54,1.91,6.54,1.91,0,0,18.4,4.27,40.49,4.78,79.98,1.82,122.11-55.02,25.02-62.25-34.96-2.6-50.8,1.9-62.14,4.34Z"/>
    <path class="cls-16" d="M679.46,518.99c-12.02,13.59-10.45,45.47,23.52,28.22,33.97-17.25,76.31-43.9,76.31-43.9l-42.86-19.86-56.97,35.54Z"/>
  </g>
  <g id="lineart">
    <circle class="cls-9" cx="250.67" cy="111.26" r="9.68" transform="translate(84.58 329.5) rotate(-76.66)"/>
    <g>
      <line class="cls-5" x1="37.2" y1="272.47" x2="53.56" y2="263.02"/>
      <line class="cls-5" x1="53.56" y1="272.47" x2="37.2" y2="263.02"/>
    </g>
    <g>
      <line class="cls-5" x1="521.51" y1="227.67" x2="538.32" y2="217.96"/>
      <line class="cls-5" x1="538.32" y1="227.67" x2="521.51" y2="217.96"/>
    </g>
    <g>
      <line class="cls-5" x1="165.47" y1="625.86" x2="182.28" y2="616.15"/>
      <line class="cls-5" x1="182.28" y1="625.86" x2="165.47" y2="616.15"/>
    </g>
    <g id="cloud">
      <g>
        <path class="cls-11" d="M45.67,187.21c0,4.39,1.5,7.49,3.94,9.01l28.49,16.45c-2.44-1.51-3.93-4.62-3.93-9.01,0-8.98,6.3-19.91,14.09-24.4,2.88-1.66,5.55-2.21,7.77-1.79l-28.49-16.45c-2.22-.42-4.9.12-7.77,1.79-7.78,4.49-14.1,15.42-14.1,24.4Z"/>
        <path class="cls-13" d="M66.58,155.19c0,2.24.36,4.19.96,5.83l28.49,16.45c-.6-1.64-.96-3.59-.96-5.82,0-10.63,7.47-23.55,16.67-28.87,3.48-2.01,6.7-2.63,9.39-2.07l-28.5-16.46c-2.68-.56-5.91.06-9.39,2.08-9.2,5.31-16.67,18.24-16.67,28.86Z"/>
        <path class="cls-11" d="M74.17,203.65c0,4.39,1.49,7.5,3.93,9.01l.19.12c2.54,1.46,6.07,1.25,9.96-.99l78.8-45.51c10-5.76,18.09-19.79,18.09-31.33,0-5.76-2.01-9.81-5.29-11.72l-.2-.12s-.05-.03-.08-.04c-3.26-1.71-7.66-1.38-12.52,1.43-.83.48-1.62,1.02-2.41,1.6.08-.84.11-1.68.11-2.51,0-3.69-.67-6.82-1.88-9.29-.22-.44-.46-.86-.71-1.27-1.05-1.68-2.38-3-3.95-3.91l-.37-.21c-4.02-2.13-9.47-1.7-15.47,1.75-9.91,5.73-18.31,18.02-21.23,30.02-2.68-.56-5.91.06-9.39,2.07-9.21,5.31-16.67,18.24-16.67,28.87,0,2.23.36,4.18.96,5.82-2.22-.42-4.89.13-7.77,1.79-7.78,4.5-14.09,15.42-14.09,24.4Z"/>
        <path class="cls-8" d="M92.64,124.25l28.5,16.46c2.93-12,11.32-24.29,21.23-30.02,5.99-3.46,11.45-3.88,15.47-1.75l-28.49-16.46c-4.02-2.12-9.47-1.7-15.48,1.76-9.91,5.72-18.3,18.02-21.23,30.01Z"/>
        <path class="cls-8" d="M162.18,113.04h-.02c.26.42.5.83.71,1.28,1.21,2.47,1.88,5.6,1.88,9.29,0,.82-.03,1.67-.11,2.51.79-.58,1.59-1.12,2.41-1.6,4.86-2.81,9.27-3.14,12.52-1.43l-17.4-10.05Z"/>
      </g>
      <g>
        <path class="cls-5" d="M179.66,123.13l.2.12c3.27,1.9,5.29,5.96,5.29,11.72,0,11.53-8.09,25.57-18.09,31.33l-78.8,45.51c-3.89,2.24-7.42,2.45-9.96.99"/>
        <line class="cls-5" x1="162.18" y1="113.04" x2="179.58" y2="123.09"/>
        <path class="cls-5" d="M162.17,113.05c.26.41.5.82.71,1.27,1.21,2.47,1.88,5.6,1.88,9.29,0,.82-.03,1.67-.11,2.51.79-.58,1.59-1.12,2.41-1.6,4.86-2.81,9.27-3.14,12.52-1.43.03.02.05.03.08.04"/>
        <path class="cls-5" d="M129.7,92.67l28.51,16.47c1.57.9,2.92,2.22,3.95,3.91"/>
        <path class="cls-5" d="M78.11,212.67c-2.44-1.51-3.93-4.62-3.93-9.01,0-8.98,6.3-19.91,14.09-24.4,2.88-1.66,5.55-2.21,7.77-1.79-.6-1.64-.96-3.59-.96-5.82,0-10.63,7.47-23.55,16.67-28.87,3.48-2.01,6.7-2.63,9.39-2.07,2.93-12,11.32-24.29,21.23-30.02,5.99-3.46,11.45-3.88,15.47-1.75"/>
        <path class="cls-5" d="M78.11,212.67l-28.49-16.45c-2.44-1.52-3.94-4.63-3.94-9.01,0-8.99,6.31-19.91,14.1-24.4,2.87-1.67,5.55-2.21,7.77-1.79-.6-1.64-.96-3.59-.96-5.83,0-10.62,7.47-23.55,16.67-28.86,3.48-2.01,6.7-2.63,9.39-2.08,2.94-11.99,11.32-24.29,21.23-30.01,6-3.47,11.45-3.88,15.48-1.76"/>
        <line class="cls-5" x1="67.54" y1="161.01" x2="96.03" y2="177.46"/>
        <line class="cls-5" x1="92.64" y1="124.25" x2="121.14" y2="140.71"/>
      </g>
    </g>
    <g>
      <g>
        <path class="cls-11" d="M600.82,310.19c.03.36-.17.71-.61.97l-51.86,29.94c-.45.26-1.05.37-1.66.35-.66-.03-1.34-.19-1.87-.5l-34.47-19.9c-.53-.31-.83-.71-.87-1.09l50.24.46c2.75.02,4.79-1.15,4.74-2.74l-.84-28.96c.66.02,1.34.19,1.87.5l34.47,19.9c.53.31.84.71.87,1.08Z"/>
        <path class="cls-11" d="M564.46,317.68c.05,1.59-1.98,2.76-4.74,2.74l-50.24-.46c-.02-.35.17-.69.61-.95l51.86-29.94c.43-.25,1.04-.36,1.66-.35l.84,28.96Z"/>
      </g>
      <g>
        <path class="cls-3" d="M563.62,288.71c.66.02,1.34.19,1.87.5l34.47,19.9c.53.31.84.71.87,1.08.03.36-.17.71-.61.97l-51.86,29.94c-.45.26-1.05.37-1.66.35-.66-.03-1.34-.19-1.87-.5l-34.47-19.9c-.53-.31-.84-.71-.87-1.09-.03-.35.17-.69.61-.95l51.86-29.94c.43-.25,1.04-.36,1.66-.35Z"/>
        <path class="cls-3" d="M563.62,288.71l.84,28.96c.05,1.59-1.98,2.76-4.74,2.74l-50.24-.46"/>
      </g>
    </g>
    <g>
      <g>
        <path class="cls-8" d="M558.46,176.18c-2.64,8.04-.67,16.68,4.73,22.91,1.18,1.36,5.44,4.02,11.48,7.79-.01-.35-.01-.7-.01-1.06,0-18.54,12-40.78,27.52-51.99-3.12-1.04-5.68-1.94-7.55-2.58-8.79-3.1-18.65-.79-25.02,6.02-4.89,5.19-8.91,12.07-11.16,18.92Z"/>
        <path class="cls-11" d="M574.65,205.82c0,.36,0,.7.01,1.06,3.8,2.38,8.32,5.2,13.2,8.41,7.05,4.62,14.88,10.07,22.46,16.14,3.83,3.07,7.6,6.3,11.18,9.68,8.99,8.47,16.76,17.84,21.29,27.77-.37-2.55-.56-5.25-.56-8.12,0-29.97,21.03-66.42,46.99-81.4,3.5-2.02,6.92-3.56,10.19-4.61-24.32,2.32-74.91-13.43-97.24-20.92-15.52,11.21-27.52,33.45-27.52,51.99Z"/>
        <path class="cls-10" d="M587.87,215.29c3.08,16.88,7.82,31.98,15.05,48.57,2.28,5.2,6.5,9.33,10.4,10.27,1.55.38,2.88.21,3.95-.39,2.84-1.59,3.73-6.24,1.71-11.82-3.93-10.78-6.7-20.65-8.64-30.49-7.59-6.07-15.41-11.52-22.46-16.14Z"/>
        <path class="cls-12" d="M610.33,231.43c1.94,9.84,4.71,19.71,8.64,30.49,2.02,5.58,1.13,10.22-1.71,11.82l7.88-4.28c2.83-1.59,3.73-6.23,1.7-11.81-2.09-5.73-3.84-11.19-5.33-16.54-3.58-3.37-7.35-6.61-11.18-9.68Z"/>
        <path class="cls-11" d="M642.24,260.76c0,2.87.19,5.57.56,8.12,3.52,23.93,22.96,32.56,46.43,19.02,25.96-14.99,46.99-51.43,46.99-81.4,0-25.95-15.74-38.54-36.8-31.75-3.27,1.05-6.69,2.58-10.19,4.61-25.95,14.98-46.99,51.43-46.99,81.4ZM653.15,261.02c-.28-1.97-.44-4.08-.44-6.32,0-6.9,1.43-14.24,3.97-21.47,3.25-9.2,8.28-18.19,14.46-25.82,5.33-6.59,11.5-12.17,18.08-15.97,2.73-1.57,5.38-2.76,7.93-3.58,16.35-5.28,28.59,4.51,28.59,24.67,0,23.29-16.35,51.6-36.53,63.26-18.24,10.52-33.35,3.81-36.08-14.78Z"/>
        <path class="cls-15" d="M652.71,254.71c0,2.23.16,4.34.44,6.32,2.73,18.59,17.84,25.3,36.08,14.78,20.18-11.66,36.53-39.97,36.53-63.26,0-20.17-12.24-29.95-28.59-24.67-2.56.82-5.2,2.01-7.93,3.58-6.58,3.8-12.76,9.38-18.08,15.97l25.04,16.05c3.3,2.12,5.49,5.83,5.49,10.04,0,6.58-5.33,11.92-11.92,11.92-1.55,0-3.02-.3-4.39-.83l-28.68-11.35c-2.54,7.22-3.97,14.57-3.97,21.47Z"/>
        <path class="cls-14" d="M656.68,233.24l28.68,11.35c1.36.53,2.84.83,4.39.83,6.58,0,11.92-5.34,11.92-11.92,0-4.21-2.2-7.93-5.49-10.04l-25.04-16.05c-6.17,7.63-11.2,16.63-14.46,25.82Z"/>
      </g>
      <g>
        <path class="cls-5" d="M699.42,174.75c-3.27,1.05-6.69,2.58-10.19,4.61-25.95,14.98-46.99,51.43-46.99,81.4,0,2.87.19,5.57.56,8.12,3.48,23.93,22.96,32.56,46.43,19.02,25.96-14.99,46.99-51.43,46.99-81.4,0-25.95-15.74-38.51-36.8-31.75Z"/>
        <path class="cls-5" d="M656.68,233.24c-2.55,7.22-3.97,14.57-3.97,21.47,0,2.23.16,4.34.44,6.32,2.73,18.59,17.84,25.3,36.08,14.78,20.18-11.66,36.53-39.97,36.53-63.26,0-20.17-12.24-29.95-28.59-24.67-2.56.82-5.2,2.01-7.93,3.58-6.58,3.8-12.76,9.38-18.08,15.97-6.17,7.63-11.21,16.62-14.46,25.82Z"/>
        <path class="cls-5" d="M602.18,153.83c-15.52,11.21-27.52,33.45-27.52,51.99,0,.36,0,.7.01,1.06"/>
        <path class="cls-5" d="M699.42,174.75c-24.32,2.32-74.91-13.44-97.24-20.92-3.12-1.04-5.68-1.94-7.55-2.58-8.79-3.1-18.65-.79-25.02,6.02-4.89,5.19-8.91,12.07-11.16,18.92-2.64,8.04-.67,16.68,4.73,22.91,1.18,1.36,5.44,4.02,11.48,7.79,3.81,2.38,8.32,5.21,13.2,8.41,7.05,4.63,14.88,10.06,22.46,16.14,3.83,3.06,7.6,6.3,11.18,9.68,8.99,8.47,16.76,17.84,21.29,27.77"/>
        <path class="cls-5" d="M610.33,231.43c1.94,9.84,4.71,19.71,8.64,30.49,2.02,5.58,1.13,10.23-1.71,11.82-1.07.6-2.4.77-3.95.39-3.9-.93-8.12-5.06-10.4-10.27-7.23-16.58-11.97-31.69-15.05-48.57"/>
        <path class="cls-5" d="M621.51,241.11c1.49,5.35,3.24,10.81,5.33,16.54,2.03,5.58,1.13,10.22-1.7,11.81l-7.88,4.28"/>
        <path class="cls-5" d="M656.68,233.24l28.68,11.35c1.36.53,2.84.83,4.39.83,6.58,0,11.92-5.34,11.92-11.92,0-4.21-2.2-7.93-5.49-10.04l-25.04-16.05"/>
      </g>
    </g>
    <g>
      <g>
        <path class="cls-11" d="M268.07,316.48c-4.08-1.32-7.95-3.51-11.72-6.93-1.92-1.72-3.81-3.77-5.68-6.19,7.69-54.34-6.79-96.11,30.8-133.71,13.62-13.62,26.88-21.78,40.28-25.89.27,3.74.64,7.17,1.15,10.23.3,1.83.63,3.58,1.04,5.28,2.12,9.04,5.72,16.29,11.61,21,1.02.81,2.11,1.55,3.29,2.22,2.09,1.19,4.43,2.12,7.01,2.78,8.51,24.36,49.87,40.66,117.92,8.41h.01c74.01,66.85,70.71,165.59,70.98,190.3.13,11.73-3.48,20.58-9.34,27.05-23.43,25.89-82.94,13.96-84.39-2.91-.08-.99-.16-2-.21-3.02h-.01c.17,13.69-2.11,51.13-3.14,67.16-33.78,10.91-82.81,6.78-123.1-13.22-58.03-28.82-52.27-62.15-52.27-62.15,0,0,3.39-51.02,5.77-80.41Z"/>
        <path class="cls-13" d="M437.35,477.29c.08-1.26.19-2.97.33-5.03,1.02-16.03,3.31-53.46,3.14-67.16h.01c.05,1.02.13,2.03.21,3.02,1.44,16.86,60.95,28.8,84.39,2.91-.61,22.17-2.04,45.62-3.66,68.14,0,.01-.19,2.64-.19,2.65-.91,5.44-4.98,10.75-12.19,14.93-16.52,9.53-43.3,9.53-59.81,0-9.22-5.32-13.3-12.5-12.22-19.46Z"/>
        <path class="cls-11" d="M521.77,479.19c.02.88-.04,1.74-.19,2.61l.19-2.61Z"/>
        <path class="cls-13" d="M321.76,143.76c-1.61-22.44.55-55.63.87-81.45,20.57,5.2,47.94-3.71,67.61,3.29,28.8,10.24,21.32,53.9,21.32,53.9l10.26-6.1s14.7-45.03,23.97-23.11c.13.31.26.62.39.96,9.25,24.16-12.58,31.24-12.58,31.24v40.68c0,4.86,2.42,9.4,6.47,12.1,8.68,5.77,16.56,11.95,23.73,18.4h-.01c-68.04,32.26-109.4,15.96-117.92-8.4-2.59-.65-4.92-1.58-7.01-2.78-1.17-.67-2.26-1.4-3.29-2.22-5.89-4.71-9.49-11.96-11.61-21-.4-1.7-.74-3.45-1.04-5.28-.51-3.05-.88-6.49-1.15-10.23Z"/>
        <path class="cls-15" d="M442.02,37.53c10.36,19.26,9.87,36.47,3.76,52.76-9.43-21.85-23.97,23.11-23.97,23.11l-10.26,6.1s7.48-43.66-21.32-53.9c-19.67-6.99-47.04,1.91-67.61-3.29-9.57-2.42-17.06-9.55-20.44-25.89-7.79-37.56,44.01-42.72,61.03-25.47,3.1,3.14,7.49,4.61,11.86,4.15,30.8-3.29,55.76,1.61,66.94,22.43Z"/>
        <path class="cls-13" d="M268.07,316.48c-2.38,29.39-4.66,63.42-5.46,75.69-6.47-4.46-9.74-9.94-9.81-15.43l.15-2.36s.01-.03.01-.05c.63-9.58,2.93-45.44,3.4-64.77h0c3.76,3.41,7.64,5.6,11.72,6.92Z"/>
        <path class="cls-11" d="M252.8,376.74c-.02-.78.03-1.57.15-2.36l-.15,2.36Z"/>
      </g>
      <g>
        <path class="cls-5" d="M268.08,316.48h-.01c-4.08-1.32-7.94-3.52-11.72-6.93-1.92-1.73-3.81-3.77-5.68-6.19,7.69-54.34-6.79-96.11,30.8-133.71,13.62-13.62,26.88-21.78,40.28-25.89h.01"/>
        <path class="cls-5" d="M445.78,90.29c6.11-16.29,6.6-33.5-3.76-52.76-11.19-20.82-36.14-25.71-66.94-22.43-4.37.45-8.77-1.01-11.86-4.15-17.02-17.25-68.81-12.09-61.03,25.47,3.38,16.34,10.87,23.47,20.44,25.89,20.57,5.2,47.94-3.71,67.61,3.29,28.8,10.24,21.32,53.9,21.32,53.9l10.26-6.1s14.7-45.03,23.97-23.11c.13.31.26.62.39.96,9.25,24.16-12.58,31.24-12.58,31.24v40.68c0,4.86,2.42,9.4,6.47,12.1,8.68,5.77,16.57,11.94,23.73,18.4,74.05,66.82,70.71,165.6,70.98,190.31.13,11.73-3.48,20.58-9.34,27.05-23.43,25.89-82.94,13.96-84.39-2.91-.08-.99-.15-2-.21-3.02-1.16-20.7,2.21-47.14-1.24-64.05"/>
        <path class="cls-5" d="M521.58,481.82c-.91,5.44-4.98,10.75-12.19,14.93-16.52,9.53-43.3,9.53-59.81,0-9.22-5.32-13.3-12.5-12.22-19.46"/>
        <path class="cls-5" d="M521.77,479.19c.02.88-.04,1.74-.19,2.61"/>
        <path class="cls-5" d="M437.68,472.26c-33.78,10.91-82.81,6.78-123.1-13.22-58.03-28.82-52.27-62.15-52.27-62.15,0,0,3.39-51.02,5.77-80.41,1.43-17.67,2.89-33.66,4.11-42.24"/>
        <path class="cls-5" d="M521.58,481.82s.19-2.64.19-2.65c1.62-22.52,3.04-45.96,3.66-68.14"/>
        <path class="cls-5" d="M437.19,479.7l.49-7.44c1.05-16.02,3.31-53.46,3.14-67.16"/>
        <path class="cls-5" d="M262.61,392.18c-6.47-4.46-9.7-9.94-9.81-15.43-.02-.78.03-1.57.15-2.36"/>
        <path class="cls-5" d="M252.8,376.74l.15-2.36s.01-.03.01-.05c.63-9.58,2.93-45.44,3.4-64.77"/>
        <path class="cls-5" d="M322.62,62.31c-.32,25.82-2.49,59.01-.87,81.45.27,3.74.64,7.17,1.15,10.23.3,1.83.63,3.58,1.04,5.28,2.12,9.04,5.72,16.29,11.61,21,1.02.81,2.11,1.55,3.29,2.22,2.09,1.19,4.43,2.12,7.01,2.78,10.2,2.58,24.49.83,44.38-6.52"/>
        <path class="cls-5" d="M345.85,185.27c8.51,24.36,49.87,40.66,117.92,8.41"/>
        <line class="cls-7" x1="361.55" y1="136.75" x2="361.55" y2="129.3"/>
        <line class="cls-6" x1="328.09" y1="119.51" x2="328.09" y2="112.06"/>
        <path class="cls-7" d="M355.72,106.13c11.77,3.89,20.67,12.65,20.67,12.65"/>
        <path class="cls-6" d="M334.77,96.26c-3.74-1.69-8.38-.68-12.03.72"/>
        <path class="cls-5" d="M338.83,113.19c-.44,6.6-4.88,17.52-6.51,23.35-.59,2.1.21,4.38,2.04,5.58,2.21,1.45,5.39,2.54,8.43.04"/>
      </g>
    </g>
    <g>
      <g>
        <polygon class="cls-11" points="531.48 65.89 498.16 114.07 581.59 94.82 560.57 82.69 526.3 97.82 552.5 78.03 531.48 65.89"/>
        <polygon class="cls-12" points="498.16 114.07 552.5 109.85 555.34 100.88 498.16 114.07"/>
        <polygon class="cls-10" points="526.3 97.82 552.5 86.25 552.5 78.03 526.3 97.82"/>
      </g>
      <g>
        <polygon class="cls-4" points="552.5 78.03 526.3 97.82 560.57 82.69 581.59 94.82 498.16 114.07 531.48 65.89 552.5 78.03"/>
        <line class="cls-4" x1="552.5" y1="78.03" x2="552.5" y2="86.25"/>
        <polyline class="cls-4" points="555.34 100.88 552.5 109.85 498.16 114.07"/>
      </g>
    </g>
    <g>
      <g>
        <path class="cls-15" d="M487.44,521.07c0,29.31-10.71,49.55-27.87,58.26l-23.61,11.57h-.01c17.15-8.71,27.87-28.95,27.87-58.27,0-56.32-39.54-124.82-88.31-152.99-22.78-13.15-43.55-15.18-59.22-7.88l22.36-10.95c15.81-8.01,37.08-6.24,60.46,7.27,48.78,28.16,88.33,96.65,88.33,152.99Z"/>
        <path class="cls-11" d="M463.82,532.63c0,29.31-10.71,49.55-27.87,58.26-15.8,8.01-37.06,6.24-60.45-7.27-23.48-13.55-44.82-36.46-60.64-62.84l18.93-10.8c12.01,19.88,27.74,37.3,44.68,47.98,35.68,22.5,63.28,6.58,61.65-35.59-1.66-42.15-31.91-94.55-67.59-117.05-35.69-22.5-63.28-6.57-61.63,35.59.78,19.87,7.9,41.99,18.95,62.22l-18.93,10.79c-14.72-26.73-23.74-56.39-23.74-83.27,0-29.31,10.71-49.56,27.87-58.27l1.24-.61c15.66-7.3,36.43-5.28,59.22,7.88,48.77,28.17,88.31,96.67,88.31,152.99Z"/>
        <path class="cls-13" d="M440.13,522.37c1.64,42.16-25.97,58.09-61.65,35.59-16.94-10.68-32.67-28.1-44.68-47.98l17.46-9.96c7.59,12.27,17.21,23.06,27.43,29.89,22.22,14.85,38.8,5.28,37.04-21.38-1.75-26.66-21.19-60.32-43.39-75.17-22.22-14.85-38.8-5.27-37.04,21.39.8,12.17,5.29,25.79,12.02,38.41l-17.46,9.97c-11.05-20.23-18.17-42.35-18.95-62.22-1.65-42.15,25.95-58.09,61.63-35.59,35.68,22.5,65.93,74.9,67.59,117.05Z"/>
        <path class="cls-11" d="M415.73,508.53c1.75,26.66-14.83,36.23-37.04,21.38-10.22-6.83-19.83-17.62-27.43-29.89l15.3-8.72c2.96,4.35,6.52,8.14,10.27,10.65,9.35,6.23,16.32,2.21,15.59-9-.73-11.21-8.9-25.37-18.24-31.6-9.35-6.25-16.33-2.21-15.59,9,.29,4.46,1.76,9.39,4.01,14.1l-15.29,8.71c-6.74-12.62-11.22-26.24-12.02-38.41-1.75-26.66,14.83-36.24,37.04-21.39,22.21,14.85,41.64,48.51,43.39,75.17Z"/>
        <path class="cls-13" d="M392.43,492.95c.72,11.21-6.25,15.22-15.59,9-3.75-2.51-7.31-6.29-10.27-10.65l10.91-6.23c1.9-1.07,2.57-3.49,1.48-5.39-1.07-1.9-3.49-2.57-5.39-1.48l-10.95,6.25c-2.25-4.71-3.72-9.64-4.01-14.1-.73-11.21,6.25-15.24,15.59-9,9.33,6.23,17.5,20.39,18.24,31.6Z"/>
        <path class="cls-12" d="M378.95,479.68c1.08,1.9.42,4.32-1.48,5.39l-132.12,75.36c-.62.36-1.3.52-1.96.52-.45,0-.9-.09-1.32-.24-.86-.31-1.63-.89-2.12-1.75-1.08-1.88-.43-4.27,1.42-5.37l1.3,2.19,38.83-21.2-2.25-2.6,94.3-53.79c1.9-1.08,4.32-.42,5.39,1.48Z"/>
        <polygon class="cls-13" points="279.25 531.99 281.5 534.59 242.67 555.79 234.48 541.97 270.12 521.39 279.25 531.99"/>
        <path class="cls-13" d="M278.96,541.27l-8.84,20.48-35.64,20.58,7.59-21.6h0c.42.15.87.23,1.32.23.66,0,1.33-.16,1.96-.52l33.61-19.17Z"/>
      </g>
      <g>
        <path class="cls-5" d="M366.56,491.3c2.96,4.35,6.52,8.14,10.27,10.65,9.35,6.23,16.32,2.21,15.59-9-.73-11.21-8.9-25.37-18.24-31.6-9.35-6.25-16.33-2.21-15.59,9,.29,4.46,1.76,9.39,4.01,14.1"/>
        <path class="cls-5" d="M351.26,500.02c7.59,12.27,17.21,23.06,27.43,29.89,22.22,14.85,38.8,5.28,37.04-21.38-1.75-26.66-21.19-60.32-43.39-75.17-22.22-14.85-38.8-5.27-37.04,21.39.8,12.17,5.29,25.79,12.02,38.41"/>
        <path class="cls-5" d="M333.8,509.98c12.01,19.88,27.74,37.3,44.68,47.98,35.68,22.5,63.28,6.58,61.65-35.59-1.66-42.15-31.91-94.55-67.59-117.05-35.69-22.5-63.28-6.57-61.63,35.59.78,19.87,7.9,41.99,18.95,62.22"/>
        <path class="cls-5" d="M315.05,372.38c-17.15,8.7-27.87,28.95-27.87,58.27,0,26.88,9.02,56.55,23.74,83.27"/>
        <path class="cls-5" d="M314.87,520.78c15.82,26.39,37.16,49.29,60.64,62.84,23.39,13.5,44.65,15.28,60.45,7.27,17.15-8.7,27.87-28.94,27.87-58.26,0-56.32-39.54-124.82-88.31-152.99-22.78-13.15-43.55-15.18-59.22-7.88"/>
        <path class="cls-5" d="M435.97,590.9l23.61-11.57c17.15-8.7,27.87-28.94,27.87-58.26,0-56.33-39.54-124.83-88.33-152.99-23.38-13.5-44.65-15.28-60.46-7.27l-23.61,11.56"/>
        <path class="cls-5" d="M279.25,531.99l94.3-53.79c1.9-1.08,4.32-.42,5.39,1.48,1.08,1.9.42,4.32-1.48,5.39l-132.12,75.36c-.62.36-1.3.52-1.96.52-.45,0-.9-.09-1.32-.24-.86-.31-1.63-.89-2.12-1.75-1.08-1.88-.43-4.27,1.42-5.37"/>
        <polygon class="cls-5" points="241.37 553.6 242.67 555.79 281.5 534.59 270.12 521.39 234.48 541.97 241.37 553.6"/>
        <polyline class="cls-5" points="242.07 560.73 234.48 582.32 270.12 561.74 278.96 541.27"/>
      </g>
    </g>
    <g id="wallet">
      <g>
        <path class="cls-10" d="M746.44,476.34v24.87l-70.42,40.67c-2.99,1.72-5.68,1.88-7.62.75l-.15-.09c-1.86-1.16-3.01-3.54-3.01-6.89,0-6.88,4.82-15.22,10.78-18.65l70.42-40.66Z"/>
        <path class="cls-11" d="M746.44,476.34l-70.42,40.66c-5.95,3.43-10.78,11.78-10.78,18.65,0,3.34,1.15,5.73,3.01,6.89l-68.71-39.67c-1.94-1.12-3.16-3.53-3.16-6.97,0-6.88,4.82-15.23,10.78-18.66l70.43-40.66,20.87,12.05-15.44,8.91c-2.4,1.39-3.57,3.24-3.57,5.18,0,2.34,1.71,4.81,5.05,6.73,6.1,3.53,15.34,3.91,20.62.85l15.44-8.91,25.88,14.95Z"/>
        <polygon class="cls-11" points="725.69 458.42 725.69 464.35 720.56 461.38 725.69 458.42"/>
        <path class="cls-8" d="M725.69,458.42l-20.57,11.87c-5.28,3.06-14.52,2.68-20.62-.85-3.34-1.92-5.05-4.39-5.05-6.73,0-1.94,1.17-3.79,3.57-5.18l20.55-11.87,22.12,12.76ZM699.99,463.48c2.01-1.16,2.01-3.05,0-4.21-2.01-1.16-5.28-1.16-7.29,0-2,1.16-2,3.05,0,4.21,2.01,1.16,5.28,1.16,7.29,0Z"/>
        <path class="cls-15" d="M699.99,459.27c2.01,1.16,2.01,3.05,0,4.21s-5.28,1.16-7.29,0c-2-1.16-2-3.05,0-4.21,2.01-1.16,5.28-1.16,7.29,0Z"/>
      </g>
      <g>
        <path class="cls-5" d="M668.24,542.54c-1.86-1.16-3.01-3.54-3.01-6.89,0-6.88,4.82-15.22,10.78-18.65l70.42-40.66"/>
        <path class="cls-5" d="M720.56,461.38l25.88,14.95v24.87l-70.42,40.67c-2.99,1.72-5.68,1.88-7.62.75l-68.85-39.76c-1.94-1.12-3.16-3.53-3.16-6.97,0-6.88,4.82-15.23,10.78-18.66l70.43-40.66,20.87,12.05"/>
        <path class="cls-5" d="M725.69,458.42l-20.57,11.87c-5.28,3.06-14.52,2.68-20.62-.85-3.34-1.92-5.05-4.39-5.05-6.73,0-1.94,1.17-3.79,3.57-5.18l20.55-11.87,22.12,12.76Z"/>
        <path class="cls-5" d="M699.99,463.48c-2.01,1.16-5.28,1.16-7.29,0-2-1.16-2-3.05,0-4.21,2.01-1.16,5.28-1.16,7.29,0,2.01,1.16,2.01,3.05,0,4.21Z"/>
        <line class="cls-5" x1="725.69" y1="458.42" x2="725.69" y2="464.35"/>
        <line class="cls-2" x1="676.16" y1="525.46" x2="746.05" y2="485.12"/>
        <line class="cls-2" x1="676.16" y1="533.17" x2="746.05" y2="492.83"/>
      </g>
    </g>
    <g>
      <g>
        <path class="cls-11" d="M608.59,544.83v13.11c0,2.37-1.57,4.74-4.7,6.55-6.26,3.62-16.41,3.62-22.67,0-3.13-1.81-4.7-4.18-4.7-6.55v-13.11c0,2.37,1.57,4.74,4.7,6.55,6.26,3.62,16.41,3.62,22.67,0,3.13-1.81,4.7-4.17,4.7-6.55Z"/>
        <path class="cls-13" d="M608.59,531.73v13.1c0,2.37-1.57,4.74-4.7,6.55-6.26,3.62-16.41,3.62-22.67,0-3.13-1.81-4.7-4.17-4.7-6.55v-13.1c0,2.37,1.57,4.74,4.7,6.55,6.26,3.61,16.41,3.61,22.67,0,3.13-1.81,4.7-4.18,4.7-6.55Z"/>
        <path class="cls-11" d="M608.59,518.62v13.11c0,2.37-1.57,4.74-4.7,6.55-6.26,3.61-16.41,3.61-22.67,0-3.13-1.81-4.7-4.18-4.7-6.55v-13.11c0,2.38,1.57,4.75,4.7,6.55,6.26,3.62,16.41,3.62,22.67,0,3.13-1.81,4.7-4.18,4.7-6.55Z"/>
        <path class="cls-13" d="M608.59,505.52v13.1c0,2.38-1.57,4.75-4.7,6.55-6.26,3.62-16.41,3.62-22.67,0-3.13-1.81-4.7-4.18-4.7-6.55v-13.1c0,2.37,1.57,4.73,4.7,6.55,6.26,3.61,16.41,3.61,22.67,0,3.13-1.81,4.7-4.18,4.7-6.55Z"/>
        <path class="cls-11" d="M608.59,496.72v8.8c0,2.37-1.57,4.73-4.7,6.55-6.26,3.61-16.41,3.61-22.67,0-3.13-1.81-4.7-4.18-4.7-6.55v-12.91c0,2.37,1.57,4.74,4.7,6.55,6.26,3.61,16.41,3.61,22.67,0,3.13-1.81,4.7-4.18,4.7-6.55v4.11Z"/>
        <path class="cls-11" d="M603.88,486.06c3.13,1.81,4.7,4.18,4.7,6.55s-1.57,4.74-4.7,6.55c-6.26,3.61-16.41,3.61-22.67,0-3.13-1.81-4.7-4.18-4.7-6.55s1.57-4.74,4.7-6.55c6.26-3.61,16.41-3.61,22.67,0Z"/>
      </g>
      <g>
        <path class="cls-5" d="M608.59,492.61c0,2.37-1.57,4.74-4.7,6.55-6.26,3.61-16.41,3.61-22.67,0-3.13-1.81-4.7-4.18-4.7-6.55s1.57-4.74,4.7-6.55c6.26-3.61,16.41-3.61,22.67,0,3.13,1.81,4.7,4.18,4.7,6.55Z"/>
        <path class="cls-5" d="M608.59,505.52c0,2.37-1.57,4.73-4.7,6.55-6.26,3.61-16.41,3.61-22.67,0-3.13-1.81-4.7-4.18-4.7-6.55"/>
        <path class="cls-5" d="M608.59,518.62c0,2.38-1.57,4.75-4.7,6.55-6.26,3.62-16.41,3.62-22.67,0-3.13-1.81-4.7-4.18-4.7-6.55"/>
        <path class="cls-5" d="M608.59,531.73c0,2.37-1.57,4.74-4.7,6.55-6.26,3.61-16.41,3.61-22.67,0-3.13-1.81-4.7-4.18-4.7-6.55"/>
        <path class="cls-5" d="M608.59,544.83c0,2.37-1.57,4.74-4.7,6.55-6.26,3.62-16.41,3.62-22.67,0-3.13-1.81-4.7-4.17-4.7-6.55"/>
        <path class="cls-5" d="M608.59,492.61v65.33c0,2.37-1.57,4.74-4.7,6.55-6.26,3.62-16.41,3.62-22.67,0-3.13-1.81-4.7-4.18-4.7-6.55v-65.33"/>
      </g>
    </g>
    <g>
      <g>
        <path class="cls-11" d="M737.28,362.24v12.79c0,2.31-1.53,4.62-4.59,6.39-6.11,3.52-16.01,3.52-22.12,0-3.05-1.77-4.58-4.08-4.58-6.39v-12.79c0,2.32,1.53,4.63,4.58,6.4,6.11,3.53,16.02,3.53,22.12,0,3.06-1.76,4.59-4.07,4.59-6.4Z"/>
        <path class="cls-11" d="M737.28,349.46v12.78c0,2.32-1.53,4.63-4.59,6.4-6.11,3.53-16.01,3.53-22.12,0-3.05-1.76-4.58-4.07-4.58-6.4v-12.78c0,2.31,1.53,4.62,4.58,6.39,6.11,3.52,16.02,3.52,22.12,0,3.06-1.77,4.59-4.08,4.59-6.39Z"/>
        <path class="cls-13" d="M737.28,340.87v8.59c0,2.31-1.53,4.62-4.59,6.39-6.11,3.52-16.01,3.52-22.12,0-3.05-1.77-4.58-4.08-4.58-6.39v-12.6c0,2.31,1.53,4.62,4.58,6.39,6.11,3.52,16.02,3.52,22.12,0,3.06-1.77,4.59-4.08,4.59-6.39v4.01Z"/>
        <path class="cls-11" d="M732.69,330.47c3.06,1.77,4.59,4.07,4.59,6.39s-1.53,4.62-4.59,6.39c-6.11,3.52-16.01,3.52-22.12,0-3.05-1.77-4.58-4.08-4.58-6.39s1.53-4.62,4.58-6.39c6.11-3.52,16.02-3.52,22.12,0Z"/>
      </g>
      <g>
        <path class="cls-5" d="M737.28,336.86c0,2.31-1.53,4.62-4.59,6.39-6.11,3.52-16.01,3.52-22.12,0-3.05-1.77-4.58-4.08-4.58-6.39s1.53-4.62,4.58-6.39c6.11-3.52,16.02-3.52,22.12,0,3.06,1.77,4.59,4.07,4.59,6.39Z"/>
        <path class="cls-5" d="M737.28,349.46c0,2.31-1.53,4.62-4.59,6.39-6.11,3.52-16.01,3.52-22.12,0-3.05-1.77-4.58-4.08-4.58-6.39"/>
        <path class="cls-5" d="M737.28,362.24c0,2.32-1.53,4.63-4.59,6.4-6.11,3.53-16.01,3.53-22.12,0-3.05-1.76-4.58-4.07-4.58-6.4"/>
        <path class="cls-5" d="M737.28,336.86v38.17c0,2.31-1.53,4.62-4.59,6.39-6.11,3.52-16.01,3.52-22.12,0-3.05-1.77-4.58-4.08-4.58-6.39v-38.17"/>
      </g>
    </g>
    <g>
      <g>
        <path class="cls-11" d="M658.07,388.84v8.8c0,2.37-1.57,4.73-4.7,6.55-6.26,3.61-16.41,3.61-22.67,0-3.13-1.81-4.7-4.18-4.7-6.55v-12.91c0,2.37,1.57,4.74,4.7,6.55,6.26,3.61,16.41,3.61,22.67,0,3.13-1.81,4.7-4.18,4.7-6.55v4.11Z"/>
        <path class="cls-11" d="M653.37,378.19c3.13,1.81,4.7,4.18,4.7,6.55s-1.57,4.74-4.7,6.55c-6.26,3.61-16.41,3.61-22.67,0-3.13-1.81-4.7-4.18-4.7-6.55s1.57-4.74,4.7-6.55c6.26-3.61,16.41-3.61,22.67,0Z"/>
      </g>
      <g>
        <path class="cls-5" d="M658.07,384.73c0,2.37-1.57,4.74-4.7,6.55-6.26,3.61-16.41,3.61-22.67,0-3.13-1.81-4.7-4.18-4.7-6.55s1.57-4.74,4.7-6.55c6.26-3.61,16.41-3.61,22.67,0,3.13,1.81,4.7,4.18,4.7,6.55Z"/>
        <path class="cls-5" d="M658.07,384.73v12.91c0,2.37-1.57,4.73-4.7,6.55-6.26,3.61-16.41,3.61-22.67,0-3.13-1.81-4.7-4.18-4.7-6.55v-12.91"/>
      </g>
    </g>
    <g>
      <g>
        <g>
          <path class="cls-8" d="M162.29,448.76c-.13,1.27.57,2.49,2.13,3.39l10.64,6.15c5.28,3.05,15.43.09,15.44-4.52,0-.03,0-.06,0-.08-.02-11.74-2.02-15.31-7.87-19.4-1.43,1.56-3.47,2.54-5.75,2.54-3.23,0-6-1.97-7.18-4.78-4.23,2.22-7.4,6.25-7.41,16.71Z"/>
          <path class="cls-11" d="M182.63,434.29c1.26-1.38,2.04-3.22,2.04-5.24,0-4.3-3.49-7.78-7.79-7.78s-7.78,3.48-7.78,7.78c0,1.07.21,2.08.6,3,1.18,2.8,3.94,4.78,7.18,4.78,2.28,0,4.32-.98,5.75-2.54Z"/>
        </g>
        <g>
          <path class="cls-5" d="M190.49,453.68c-.03-11.74-2.02-15.31-7.87-19.4"/>
          <path class="cls-5" d="M169.7,432.05c-4.23,2.22-7.4,6.25-7.41,16.71-.13,1.27.57,2.49,2.13,3.39l10.64,6.15c5.28,3.05,15.43.09,15.44-4.52,0-.03,0-.06,0-.08"/>
          <path class="cls-5" d="M169.7,432.05c-.39-.92-.6-1.93-.6-3,0-4.3,3.49-7.78,7.78-7.78s7.79,3.48,7.79,7.78c0,2.02-.77,3.86-2.04,5.24-1.43,1.56-3.47,2.54-5.75,2.54-3.23,0-6-1.97-7.18-4.78Z"/>
        </g>
      </g>
      <g>
        <g>
          <path class="cls-12" d="M165.85,480.09c-.13,1.27.57,2.49,2.13,3.39l10.64,6.15c5.28,3.05,15.43.09,15.44-4.52,0-.03,0-.06,0-.08-.02-11.74-2.02-15.31-7.87-19.4-1.43,1.56-3.47,2.54-5.75,2.54-3.23,0-6-1.97-7.18-4.78-4.23,2.22-7.4,6.25-7.41,16.71Z"/>
          <path class="cls-11" d="M186.19,465.62c1.26-1.38,2.04-3.22,2.04-5.24,0-4.3-3.49-7.78-7.79-7.78s-7.78,3.48-7.78,7.78c0,1.07.21,2.08.6,3,1.18,2.8,3.94,4.78,7.18,4.78,2.28,0,4.32-.98,5.75-2.54Z"/>
        </g>
        <g>
          <path class="cls-5" d="M194.05,485.02c-.03-11.74-2.02-15.31-7.87-19.4"/>
          <path class="cls-5" d="M173.26,463.38c-4.23,2.22-7.4,6.25-7.41,16.71-.13,1.27.57,2.49,2.13,3.39l10.64,6.15c5.28,3.05,15.43.09,15.44-4.52,0-.03,0-.06,0-.08"/>
          <path class="cls-5" d="M173.26,463.38c-.39-.92-.6-1.93-.6-3,0-4.3,3.49-7.78,7.78-7.78s7.79,3.48,7.79,7.78c0,2.02-.77,3.86-2.04,5.24-1.43,1.56-3.47,2.54-5.75,2.54-3.23,0-6-1.97-7.18-4.78Z"/>
        </g>
      </g>
      <g>
        <g>
          <path class="cls-11" d="M205.3,471.94c-.13,1.27.57,2.49,2.13,3.39l10.64,6.15c5.28,3.05,15.43.09,15.44-4.52,0-.03,0-.06,0-.08-.02-11.74-2.02-15.31-7.87-19.4-1.43,1.56-3.47,2.54-5.75,2.54-3.23,0-6-1.97-7.18-4.78-4.23,2.22-7.4,6.25-7.41,16.71Z"/>
          <path class="cls-11" d="M225.63,457.47c1.26-1.38,2.04-3.22,2.04-5.24,0-4.3-3.49-7.78-7.79-7.78s-7.78,3.48-7.78,7.78c0,1.07.21,2.08.6,3,1.18,2.8,3.94,4.78,7.18,4.78,2.28,0,4.32-.98,5.75-2.54Z"/>
        </g>
        <g>
          <path class="cls-5" d="M233.5,476.87c-.03-11.74-2.02-15.31-7.87-19.4"/>
          <path class="cls-5" d="M212.7,455.24c-4.23,2.22-7.4,6.25-7.41,16.71-.13,1.27.57,2.49,2.13,3.39l10.64,6.15c5.28,3.05,15.43.09,15.44-4.52,0-.03,0-.06,0-.08"/>
          <path class="cls-5" d="M212.7,455.24c-.39-.92-.6-1.93-.6-3,0-4.3,3.49-7.78,7.78-7.78s7.79,3.48,7.79,7.78c0,2.02-.77,3.86-2.04,5.24-1.43,1.56-3.47,2.54-5.75,2.54-3.23,0-6-1.97-7.18-4.78Z"/>
        </g>
      </g>
    </g>
    <g>
      <g>
        <g>
          <path class="cls-11" d="M306.31,278.64v58.78c0,12.53-7.62,18.3-17.03,12.87l-155.89-90.01c-9.4-5.42-17.02-19.99-17.02-32.52v-58.78c0-12.53,7.62-18.3,17.02-12.87l155.89,90.01c9.41,5.43,17.03,20,17.03,32.53ZM198.28,278.08v-64.85c0-4.35-3.07-9.67-6.84-11.84l-58.06-33.52c-3.76-2.17-6.83-.4-6.83,3.95v64.85c0,4.35,3.07,9.67,6.83,11.84l58.06,33.52c3.77,2.18,6.84.41,6.84-3.95Z"/>
          <g>
            <path class="cls-14" d="M133.39,167.87c-3.76-2.17-6.83-.4-6.83,3.95v21.93l25.97-14.84-19.14-11.05Z"/>
            <path class="cls-15" d="M191.45,201.39l-38.92-22.47-25.97,14.84v42.91c0,4.35,3.07,9.67,6.83,11.84l58.06,33.52c3.77,2.18,6.84.41,6.84-3.95v-64.85c0-4.35-3.07-9.67-6.84-11.84Z"/>
          </g>
        </g>
        <g>
          <path class="cls-5" d="M289.29,350.29l-155.89-90.01c-9.4-5.42-17.02-19.99-17.02-32.52v-58.78c0-12.53,7.62-18.3,17.02-12.87l155.89,90.01c9.41,5.43,17.03,20,17.03,32.53v58.78c0,12.53-7.62,18.3-17.03,12.87Z"/>
          <path class="cls-5" d="M133.39,248.51c-3.76-2.17-6.83-7.48-6.83-11.84v-64.85c0-4.35,3.07-6.12,6.83-3.95l58.06,33.52c3.77,2.18,6.84,7.49,6.84,11.84v64.85c0,4.35-3.07,6.12-6.84,3.95l-58.06-33.52Z"/>
          <line class="cls-5" x1="214.57" y1="234.96" x2="237.67" y2="248.3"/>
          <line class="cls-5" x1="252.14" y1="256.65" x2="279.08" y2="272.21"/>
          <line class="cls-5" x1="214.57" y1="248.33" x2="285.54" y2="289.3"/>
          <line class="cls-5" x1="214.57" y1="261.68" x2="227.08" y2="268.91"/>
          <line class="cls-5" x1="239.78" y1="276.24" x2="273.21" y2="295.54"/>
          <line class="cls-5" x1="214.57" y1="275.05" x2="246.82" y2="293.67"/>
        </g>
      </g>
      <g>
        <path class="cls-11" d="M148.59,196.66l7.55,4.36,5.78,44.29-5.57-3.22-1.01-8.72v.12l-6.33-3.66-1.01,7.43-5.17-2.98,5.78-37.62ZM154.67,227.55l-2.48-21.68-.1-.06-2.43,18.84,5.02,2.9Z"/>
        <path class="cls-11" d="M164.61,205.9l8.51,4.91c2.77,1.6,4.85,3.66,6.23,6.17,1.38,2.52,2.08,5.43,2.08,8.75v20.71c0,3.32-.69,5.43-2.08,6.35-1.39.92-3.46.57-6.23-1.02l-8.51-4.91v-40.95ZM173.02,245.86c.91.53,1.61.62,2.1.28.49-.34.73-1.21.73-2.62v-21.3c0-1.4-.25-2.56-.73-3.47-.49-.91-1.19-1.62-2.1-2.15l-2.84-1.64v29.25l2.84,1.64Z"/>
      </g>
    </g>
    <g>
      <g>
        <path class="cls-11" d="M147.37,315.15c6.78-13.53,15.77-40.55,19.43-51.9,1-3.1,3.88-5.2,7.14-5.2,4.2,0,7.51,3.42,7.51,7.5,0,.3-.02.61-.06.92-.57,5.01-1.58,11.73-3.06,18.65-4.02,18.9-12.16,35.2-19.81,47.82-5.8,9.59-11.32,17.04-14.53,21.9-.86,1.31-1.55,2.42-2.04,3.34-.87,1.63.83,3.43,2.5,2.67,7.65-3.5,22.09-9.06,35.43-8.42,4.74.22,9.08,2.76,11.7,6.72.15.23.3.46.45.68,2.31,3.63-.04,8.37-4.32,8.73-3.12.26-6.71.78-10.18,1.75-9.09,2.58-23.15,16.04-23.15,16.04-3.93,3.23-7.78,6.22-10.86,8.37-1.15.81-2.25,1.52-3.31,2.12-16.28,9.4-24.19-3.74-57.87,14.41-1.95,1.05-4.34,2.33-7.62,4.13.22-1.67.33-3.44.33-5.31,0-19.73-12.48-42.94-27.89-51.83-2.3-1.33-4.53-2.27-6.67-2.83,5.51-3.07,6.28-3.48,8.55-4.79,5-2.89,9.57-6.33,13.23-10.9,2.33-2.91,4.37-5.64,5.7-7.72,5.57-8.81,15.81-24.99,22.82-28.58,7.02-3.6,16.67-5.42,16.99,3.67,1.3-1.36,9.05-2.63,12.85-1.16,3.81,1.49,4.25,8.07,4.25,8.07,0,0,12.5-6.65,17.79-3.47,2.09,1.26,3.61,2.99,4.7,4.63Z"/>
        <path class="cls-11" d="M165.14,345.68c0,.47-.11.92-.3,1.35-.03.07-.06.13-.09.19-2.18,3.96-12.29,6.31-20.74,7.61,3.21-4.86,8.72-12.32,14.53-21.9v.96h0c2.81,4.72,6.6,8.58,6.6,11.79Z"/>
        <path class="cls-15" d="M75.05,410.06c0,1.87-.11,3.64-.33,5.31-.5,3.9-1.58,7.23-3.12,9.92-1.52,2.65-3.49,4.68-5.81,6.01l-17.77,10.18c5.69-3.27,9.26-10.69,9.26-21.24,0-19.74-12.48-42.94-27.89-51.83-7.09-4.09-13.56-4.44-18.48-1.7l17.61-10.09c3.02-1.74,6.62-2.28,10.6-1.52.45.09.91.19,1.37.31,2.14.57,4.37,1.5,6.67,2.83,15.41,8.89,27.89,32.1,27.89,51.83Z"/>
        <path class="cls-10" d="M57.28,420.25c0,10.55-3.57,17.97-9.26,21.24-4.94,2.83-11.47,2.52-18.63-1.62-15.41-8.9-27.89-32.1-27.89-51.83,0-10.56,3.57-17.99,9.26-21.25l.15-.08c4.92-2.74,11.39-2.38,18.48,1.7,15.41,8.9,27.89,32.1,27.89,51.83Z"/>
      </g>
      <g>
        <path class="cls-5" d="M40.49,355.41c5.51-3.07,6.28-3.48,8.55-4.79,5-2.89,9.57-6.33,13.23-10.9,2.33-2.91,4.37-5.64,5.7-7.72,5.57-8.81,15.81-24.99,22.82-28.58,7.02-3.6,16.67-5.42,16.99,3.67,1.3-1.36,9.05-2.63,12.85-1.16,3.81,1.49,4.25,8.07,4.25,8.07,0,0,12.5-6.65,17.79-3.47,2.09,1.26,3.61,2.99,4.7,4.63h0"/>
        <path class="cls-5" d="M158.53,332.93v.96h0c2.81,4.72,6.6,8.58,6.6,11.79,0,.47-.11.92-.3,1.35-.03.07-.06.13-.09.19-2.18,3.96-12.29,6.31-20.74,7.61"/>
        <path class="cls-5" d="M10.91,366.71c4.92-2.74,11.39-2.38,18.48,1.7,15.41,8.9,27.89,32.1,27.89,51.83,0,10.55-3.57,17.97-9.26,21.24-4.93,2.83-11.47,2.52-18.63-1.62-15.41-8.9-27.89-32.1-27.89-51.83,0-10.56,3.57-17.99,9.26-21.25"/>
        <path class="cls-5" d="M10.76,366.8l17.76-10.18c3.02-1.74,6.62-2.28,10.6-1.52.45.09.91.19,1.37.31,2.14.57,4.37,1.5,6.67,2.83,15.41,8.89,27.89,32.1,27.89,51.83,0,1.87-.11,3.64-.33,5.31-.5,3.9-1.58,7.23-3.12,9.92-1.52,2.65-3.49,4.68-5.81,6.01l-17.77,10.18"/>
        <path class="cls-5" d="M144.62,320.05c.86-1.3,1.78-2.97,2.75-4.9,6.77-13.53,15.77-40.55,19.43-51.9,1-3.1,3.88-5.2,7.14-5.2,4.2,0,7.51,3.42,7.51,7.5,0,.3-.02.61-.06.92-.57,5.01-1.58,11.73-3.06,18.65-4.02,18.9-12.16,35.2-19.81,47.82-5.81,9.58-11.32,17.04-14.53,21.9-.86,1.31-1.55,2.42-2.04,3.34-.87,1.63.83,3.43,2.5,2.67,7.65-3.5,22.09-9.06,35.43-8.42,4.74.22,9.08,2.76,11.7,6.72.15.23.3.46.45.68,2.31,3.63-.04,8.37-4.32,8.73-3.12.26-6.71.78-10.18,1.75-9.09,2.58-23.15,16.04-23.15,16.04-3.93,3.23-7.78,6.22-10.86,8.37-1.15.81-2.25,1.52-3.31,2.12-16.28,9.4-24.19-3.74-57.87,14.41-1.95,1.05-4.34,2.33-7.62,4.13"/>
      </g>
    </g>
    <g id="bar_graph_round" data-name="bar graph round">
      <g>
        <path class="cls-15" d="M472.24,668.28c-2.32,1.34-3.46,3.14-3.46,5.02,0,2.27,1.66,4.66,4.9,6.53,3.67,2.12,8.52,3.06,12.89,2.77v-22.58l-14.33,8.27Z"/>
        <path class="cls-14" d="M486.57,660.01v22.58c2.67-.17,5.16-.82,7.11-1.94l8.25-4.77v-31.02c-.08,1.07-.83,2.12-2.25,2.93-3,1.73-7.86,1.73-10.86,0-1.46-.84-2.21-1.94-2.25-3.04v15.25Z"/>
        <path class="cls-11" d="M488.81,641.54c-1.54.89-2.29,2.06-2.25,3.23.04,1.11.79,2.2,2.25,3.04,3,1.73,7.86,1.73,10.86,0,1.41-.81,2.16-1.86,2.25-2.93.09-1.2-.66-2.42-2.25-3.34-3-1.73-7.86-1.73-10.86,0Z"/>
        <polygon class="cls-15" points="501.92 651.15 501.92 675.89 509.1 671.75 509.1 647.01 501.92 651.15"/>
        <path class="cls-14" d="M509.1,647.01v24.74l15.36-8.87v-47.24c0,1.13-.75,2.27-2.25,3.14-3,1.73-7.86,1.73-10.86,0-1.5-.87-2.25-2-2.25-3.14v31.36Z"/>
        <path class="cls-11" d="M511.35,612.51c-1.5.87-2.25,2-2.25,3.14s.75,2.27,2.25,3.14c3,1.73,7.86,1.73,10.86,0,1.5-.87,2.25-2,2.25-3.14s-.75-2.27-2.25-3.14c-3-1.73-7.86-1.73-10.86,0Z"/>
        <polygon class="cls-15" points="524.46 638.13 524.46 662.88 531.63 658.74 531.63 633.99 524.46 638.13"/>
        <path class="cls-14" d="M531.63,633.99v24.75l15.36-8.87v-51.84c0,1.14-.75,2.27-2.25,3.14-3,1.73-7.86,1.73-10.86,0-1.5-.87-2.25-2-2.25-3.14v35.96Z"/>
        <path class="cls-11" d="M533.88,594.9c-1.5.87-2.25,2-2.25,3.14s.75,2.27,2.25,3.14c3,1.73,7.86,1.73,10.86,0,1.5-.87,2.25-2,2.25-3.14s-.75-2.27-2.25-3.14c-3-1.73-7.86-1.73-10.86,0Z"/>
        <path class="cls-15" d="M546.99,627.29v22.58l14.32-8.27c2.32-1.34,3.46-3.14,3.46-5.02,0-2.27-1.65-4.66-4.89-6.52-3.67-2.12-8.52-3.07-12.89-2.77Z"/>
      </g>
      <g>
        <line class="cls-3" x1="501.92" y1="644.87" x2="501.92" y2="651.15"/>
        <line class="cls-3" x1="486.57" y1="660.01" x2="486.57" y2="644.76"/>
        <path class="cls-3" d="M501.92,675.89l-8.25,4.77c-1.95,1.12-4.44,1.77-7.11,1.94"/>
        <path class="cls-3" d="M486.57,682.59c-4.37.3-9.22-.65-12.89-2.77-3.24-1.87-4.9-4.26-4.9-6.53,0-1.88,1.14-3.67,3.46-5.02l14.33-8.27v22.58Z"/>
        <line class="cls-3" x1="524.46" y1="615.64" x2="524.46" y2="638.13"/>
        <line class="cls-3" x1="509.1" y1="647.01" x2="509.1" y2="615.64"/>
        <line class="cls-3" x1="524.46" y1="662.88" x2="509.1" y2="671.75"/>
        <polygon class="cls-3" points="501.92 651.15 509.1 647.01 509.1 671.75 501.92 675.89 501.92 651.15"/>
        <line class="cls-3" x1="546.99" y1="597.92" x2="546.99" y2="627.29"/>
        <line class="cls-3" x1="531.63" y1="633.99" x2="531.63" y2="598.03"/>
        <line class="cls-3" x1="546.99" y1="649.87" x2="531.63" y2="658.74"/>
        <polygon class="cls-3" points="524.46 638.13 531.63 633.99 531.63 658.74 524.46 662.88 524.46 638.13"/>
        <path class="cls-3" d="M546.99,627.29c4.37-.3,9.22.65,12.89,2.77,3.24,1.86,4.89,4.25,4.89,6.52,0,1.88-1.13,3.68-3.46,5.02l-14.32,8.27v-22.58Z"/>
        <path class="cls-3" d="M546.99,598.03c0,1.14-.75,2.27-2.25,3.14-3,1.73-7.86,1.73-10.86,0-1.5-.87-2.25-2-2.25-3.14s.75-2.27,2.25-3.14c3-1.73,7.86-1.73,10.86,0,1.5.87,2.25,2,2.25,3.14Z"/>
        <path class="cls-3" d="M524.46,615.64c0,1.13-.75,2.27-2.25,3.14-3,1.73-7.86,1.73-10.86,0-1.5-.87-2.25-2-2.25-3.14s.75-2.27,2.25-3.14c3-1.73,7.86-1.73,10.86,0,1.5.87,2.25,2,2.25,3.14Z"/>
        <path class="cls-3" d="M501.92,644.87c-.08,1.07-.83,2.12-2.25,2.93-3,1.73-7.86,1.73-10.86,0-1.46-.84-2.21-1.94-2.25-3.04-.04-1.16.71-2.34,2.25-3.23,3-1.73,7.86-1.73,10.86,0,1.59.92,2.34,2.14,2.25,3.34Z"/>
      </g>
    </g>
    <g id="done">
      <g>
        <path class="cls-8" d="M166.28,546.32v14.71c0,1.15-.76,2.3-2.3,3.18l-58.4,33.72c-3.05,1.77-8.01,1.77-11.06,0l-58.41-33.72c-1.52-.87-2.29-2.03-2.29-3.18v-14.71c0,1.15.76,2.3,2.29,3.18l58.41,33.72c3.05,1.77,8.01,1.77,11.06,0l58.4-33.72c1.54-.88,2.3-2.03,2.3-3.18Z"/>
        <path class="cls-11" d="M163.98,543.12c1.54.88,2.3,2.03,2.3,3.2s-.76,2.3-2.3,3.18l-58.4,33.72c-3.05,1.77-8.01,1.77-11.06,0l-58.41-33.72c-1.52-.88-2.29-2.03-2.29-3.18s.76-2.31,2.29-3.2l58.41-33.72c1.19-.68,2.66-1.11,4.2-1.26v11.61l-46,26.56,47.32,27.33,47.34-27.33-30.4-17.56v-12.77l47,27.14Z"/>
        <polygon class="cls-15" points="147.38 546.32 134.65 553.67 116.98 543.47 116.98 528.75 147.38 546.32"/>
        <polygon class="cls-14" points="116.98 555.13 116.98 563.87 106.63 569.84 93.48 569.84 79.5 561.78 79.5 555.13 116.98 555.13"/>
        <polygon class="cls-14" points="116.98 543.47 116.98 555.13 79.5 555.13 79.5 544.59 98.72 544.59 98.72 498.31 116.98 498.31 116.98 543.47"/>
        <polygon class="cls-15" points="98.72 519.75 98.72 534.47 81.19 544.59 79.5 544.59 79.5 545.55 65.46 553.67 52.72 546.32 98.72 519.75"/>
      </g>
      <g>
        <line class="cls-5" x1="98.72" y1="534.47" x2="81.19" y2="544.59"/>
        <line class="cls-5" x1="79.5" y1="545.55" x2="65.46" y2="553.67"/>
        <line class="cls-5" x1="134.65" y1="553.67" x2="116.98" y2="543.47"/>
        <line class="cls-5" x1="116.98" y1="555.13" x2="116.98" y2="563.87"/>
        <line class="cls-5" x1="106.63" y1="569.84" x2="93.48" y2="569.84"/>
        <path class="cls-5" d="M116.98,515.98l47,27.14c1.54.88,2.3,2.03,2.3,3.2s-.76,2.3-2.3,3.18l-58.4,33.72c-3.05,1.77-8.01,1.77-11.06,0l-58.41-33.72c-1.52-.88-2.29-2.03-2.29-3.18s.76-2.31,2.29-3.2l58.41-33.72c1.19-.68,2.66-1.11,4.2-1.26"/>
        <polyline class="cls-5" points="98.72 519.75 52.72 546.32 100.05 573.64 147.38 546.32 116.98 528.75"/>
        <polygon class="cls-5" points="116.98 555.13 79.5 555.13 79.5 544.59 98.72 544.59 98.72 498.31 116.98 498.31 116.98 555.13"/>
        <path class="cls-5" d="M166.28,546.32v14.71c0,1.15-.76,2.3-2.3,3.18l-58.4,33.72c-3.05,1.77-8.01,1.77-11.06,0l-58.41-33.72c-1.52-.87-2.29-2.03-2.29-3.18v-14.71"/>
        <line class="cls-5" x1="79.5" y1="555.13" x2="79.5" y2="561.78"/>
      </g>
    </g>
    <g>
      <polygon class="cls-11" points="347.47 644.37 287.62 678.93 236.1 649.18 295.95 614.63 347.47 644.37"/>
      <g>
        <polygon class="cls-3" points="287.62 678.93 236.1 649.18 295.95 614.63 347.47 644.37 287.62 678.93"/>
        <line class="cls-3" x1="294.11" y1="634.3" x2="313.39" y2="645.43"/>
        <line class="cls-3" x1="282.14" y1="641.21" x2="301.43" y2="652.34"/>
        <line class="cls-3" x1="270.18" y1="648.12" x2="289.46" y2="659.25"/>
      </g>
    </g>
  </g>
</svg>