<?xml version="1.0" encoding="UTF-8"?>
<svg id="Calque_2" xmlns="http://www.w3.org/2000/svg" version="1.1" viewBox="0 0 185.8 264.8">
  <!-- Generator: Adobe Illustrator 29.1.0, SVG Export Plug-In . SVG Version: 2.1.0 Build 142)  -->
  <defs>
    <style>
      .st0, .st1 {
        fill: none;
      }

      .st2 {
        fill: #dae0e5;
      }

      .st3 {
        fill: #fff;
      }

      .st1 {
        stroke: #fff;
        stroke-linecap: round;
        stroke-linejoin: round;
        stroke-width: 3px;
      }

      .st4 {
        fill: #fdb827;
      }
    </style>
  </defs>
  <path class="st0" d="M116.8,120.7c-.2,8.4-5.8,16.7-16.9,23.1-22.5,13-59,13-81.6,0-11.3-6.5-16.9-15-16.9-23.5s5.6-17,16.9-23.5c5.8-3.3,12.4-5.8,19.5-7.4l.9,7.8c-4.1,1.2-8,2.8-11.4,4.8-8.8,5.1-13.2,11.7-13.2,18.3s4.4,13.3,13.2,18.3c4.9,2.8,10.7,4.9,16.8,6.1,4.3.9,8.8,1.4,13.4,1.5,7.7.2,15.5-.8,22.5-2.9,3.9-1.2,7.6-2.7,10.9-4.6,8.6-5,13-11.5,13.2-18,.1-6.3-3.7-12.6-11.4-17.6l2.7-8.6c1.6.7,3.1,1.5,4.5,2.4,11.4,6.6,17.1,15.3,16.9,24h0Z"/>
  <path class="st4" d="M116.8,191.9v16.6c0,8.5-5.6,17-16.9,23.5-22.5,13-59,13-81.6,0-11.3-6.5-16.9-15-16.9-23.5v-16.6c0,8.5,5.6,17,16.9,23.5,22.5,13,59,13,81.6,0,11.3-6.5,16.9-15,16.9-23.5h0Z"/>
  <path class="st0" d="M116.8,120.7v71.2c0,8.5-5.6,17-16.9,23.5-22.5,13-59,13-81.6,0-11.3-6.5-16.9-15-16.9-23.5v-71.6c0,8.5,5.6,17,16.9,23.5,22.5,13,59,13,81.6,0,11.1-6.4,16.7-14.8,16.9-23.1h0Z"/>
  <path class="st0" d="M105.5,42.1c1,7.9,1.4,14.6.3,19.1h0c-.5,1.5-1.8,2.6-3.6,3.1-6.5,2.6-17.8-3.5-16-9.3h0s0,0,0,0c0,0,0,0,0-.1h0c1-3.9,6.6-10.3,11.2-15.2,1.8,1.9,5.4,3.2,8,2.4h0Z"/>
  <path class="st2" d="M105.8,61.2l-25.8,82.1c-7,2.1-14.8,3.1-22.5,2.9l28.6-91.1c-1.7,5.7,9.5,11.9,16,9.3,1.8-.5,3.1-1.7,3.6-3.1,0,0,0,0,0,0Z"/>
  <path class="st0" d="M104.2,33.1c.5,3.1.9,6.2,1.3,9-2.6.8-6.2-.5-8-2.4,3.6-3.8,6.7-6.6,6.7-6.6h0Z"/>
  <path class="st3" d="M92.7,103c7.7,5,11.5,11.3,11.4,17.6-.1,6.5-4.5,13-13.2,18-3.3,1.9-7,3.4-10.9,4.6l12.6-40.2h0Z"/>
  <path class="st3" d="M75.7,88.3l-2.3,7.3c-4.6-.9-9.4-1.3-14.2-1.3l-.8-7.3c5.8,0,11.7.4,17.3,1.4Z"/>
  <path class="st3" d="M73.4,95.6l-10.3,32.9-3.9-34.2c4.8,0,9.6.4,14.2,1.3h0Z"/>
  <path class="st0" d="M63.1,128.6l-5.5,17.6c-4.5,0-9-.6-13.4-1.5l-11.3-100.8h0s0-.2,0-.4c0,.5.3,1,.5,1.5,0,0,0,.2.2.3,0,0,.1.2.2.3,0,.1.2.3.3.4.5.6,1.1,1.1,1.7,1.5,3.2,2,8.1,2.3,12.2.5,1-.5,2-1,2.7-1.7.2-.1.3-.3.4-.4,0,0,0,0,.1-.2,0,0,.2-.2.3-.3,1.2-1.3,1.8-2.9,1.7-4.4l9.9,87.5h0Z"/>
  <path class="st3" d="M53.2,41.1c0,1.5-.5,3.1-1.7,4.4,0,0-.2.2-.3.3,0,0,0,.1-.1.2-.1.1-.3.3-.4.4-.8.7-1.7,1.2-2.7,1.7-4.1,1.8-9.1,1.5-12.2-.5-.7-.4-1.2-.9-1.7-1.5-.1-.1-.2-.3-.3-.4,0,0-.1-.2-.2-.3,0,0-.1-.2-.2-.3-.3-.5-.5-1-.5-1.5,0,0,0-.6,0-1.1,0-1.1.4-2.1,1-3.1.4.4.8.7,1.2.9,3.2,2,8.1,2.3,12.2.5,1-.5,2-1,2.7-1.7.2-.1.3-.3.4-.4,0,0,0,0,.1-.2,0,0,.2-.2.3-.3.3-.3.5-.6.7-.9.2.2.3.4.5.6.7.9,1.1,1.8,1.2,2.8h0c0,.1,0,.2,0,.2,0,0,0,.1,0,.1h0Z"/>
  <path class="st3" d="M53.2,41h0c0,0,0,0,0,0h0s0,0,0,0Z"/>
  <path class="st3" d="M53.2,40.9s0,0,0,0c0,0,0,0,0-.1h0s0,0,0,0Z"/>
  <path class="st3" d="M52.6,35.8c.3,2.3.5,4.2.6,5-.1-1-.5-1.9-1.2-2.8-.2-.2-.3-.4-.5-.6.6-.9.9-1.8,1-2.7,0,.4.1.8.2,1.1Z"/>
  <path class="st0" d="M52.4,34.7c0,.9-.4,1.8-1,2.7-.2.3-.4.6-.7.9,0,0-.2.2-.3.3,0,0,0,0-.1.2-.1.1-.3.3-.4.4-.8.7-1.7,1.2-2.7,1.7-4.1,1.8-9.1,1.5-12.2-.5-.4-.3-.8-.6-1.2-.9-.2-.2-.4-.4-.5-.6-.1-.1-.2-.3-.3-.4,0,0-.1-.2-.2-.3,0,0-.1-.2-.2-.3-.1-.2-.2-.4-.3-.6,0-5.2,1.9-15.4,3.6-23.6,0,0,0,0,.1.1,1.6,1,4.1,1.2,6.2.2.5-.2,1-.5,1.4-.9,0,0,.2-.1.2-.2,0,0,0,0,0,0h0c3.4,7.5,7.4,16.9,8.4,21.8h0Z"/>
  <path class="st3" d="M38.8,97.1l5.4,47.6c-6.1-1.2-11.9-3.3-16.8-6.1-8.8-5.1-13.2-11.7-13.2-18.3s4.4-13.3,13.2-18.3c3.5-2,7.3-3.6,11.4-4.8Z"/>
  <path class="st0" d="M44,12.8h0c0,.1,0,.2,0,.2,0,0-.1.1-.2.2-.4.3-.8.6-1.4.9-2.1.9-4.6.8-6.2-.2,0,0,0,0-.1-.1,1.5-6.8,2.8-12.2,2.8-12.2,0,0,2.5,5,5.3,11.3h0Z"/>
  <path class="st3" d="M33.8,39.4c-.7,1-1,2-1,3.1-.1-1.1-.3-2.7-.4-4,0-.4,0-.8,0-1.2,0,.2.2.4.3.6,0,0,0,.2.2.3,0,0,.1.2.2.3,0,.1.2.3.3.4.2.2.3.4.5.6h0Z"/>
  <polygon class="st3" points="32.8 43.9 32.8 44 32.8 43.9 32.8 43.9"/>
  <path class="st3" d="M32.8,43.6s0,0,0-.2c0-.3,0-.6,0-.9,0,.4,0,.8,0,1.1h0Z"/>
  <path class="st1" d="M58.4,87c5.8,0,11.7.4,17.3,1.4"/>
  <path class="st1" d="M95.4,94.3c1.6.7,3.1,1.5,4.5,2.4,11.4,6.6,17.1,15.3,16.9,23.9-.2,8.4-5.8,16.8-16.9,23.1-22.5,13-59,13-81.6,0-11.3-6.5-16.9-15-16.9-23.5s5.6-17,16.9-23.5c5.8-3.3,12.4-5.8,19.5-7.4"/>
  <path class="st1" d="M59.2,94.3c4.8,0,9.6.4,14.2,1.3"/>
  <path class="st1" d="M92.7,103c7.7,5,11.5,11.3,11.4,17.6-.1,6.5-4.5,13-13.2,18-3.3,1.9-7,3.4-10.9,4.6-7,2.1-14.8,3.1-22.5,2.9-4.5,0-9-.6-13.4-1.5-6.1-1.2-11.9-3.3-16.8-6.1-8.8-5.1-13.2-11.7-13.2-18.3s4.4-13.3,13.2-18.3c3.5-2,7.3-3.6,11.4-4.8"/>
  <path class="st1" d="M116.8,120.2v88.2c0,8.5-5.6,17-16.9,23.5-22.5,13-59,13-81.6,0-11.3-6.5-16.9-15-16.9-23.5v-88.2"/>
  <path class="st1" d="M116.8,191.9c0,8.5-5.6,17-16.9,23.5-22.5,13-59,13-81.6,0-11.3-6.5-16.9-15-16.9-23.5"/>
  <line class="st1" x1="57.5" y1="146.2" x2="86.2" y2="55"/>
  <path class="st1" d="M105.5,42.1c-2.6.8-6.2-.5-8-2.4"/>
  <path class="st1" d="M32.8,43.6s0,0,0-.2c0-.3,0-.6,0-.9,0-1.1.4-2.1,1-3.1"/>
  <path class="st1" d="M53.2,41h0c0,1.6-.5,3.2-1.7,4.5,0,0-.2.2-.3.3,0,0,0,.1-.1.2-.1.1-.3.3-.4.4-.8.7-1.7,1.2-2.7,1.7-4.1,1.8-9.1,1.5-12.2-.5-.7-.4-1.2-.9-1.7-1.5-.1-.1-.2-.3-.3-.4,0,0-.1-.2-.2-.3,0,0-.1-.2-.2-.3-.3-.5-.5-1-.5-1.5"/>
  <path class="st1" d="M53.2,40.8h0s0,0,0,.1"/>
  <path class="st1" d="M51.4,37.4c.2.2.3.4.5.6.7.9,1.1,1.8,1.2,2.8"/>
  <path class="st1" d="M52.4,34.7c0,.9-.4,1.8-1,2.7-.2.3-.4.6-.7.9,0,0-.2.2-.3.3,0,0,0,0-.1.2-.1.1-.3.3-.4.4-.8.7-1.7,1.2-2.7,1.7-4.1,1.8-9.1,1.5-12.2-.5-.4-.3-.8-.6-1.2-.9-.2-.2-.4-.4-.5-.6-.1-.1-.2-.3-.3-.4,0,0-.1-.2-.2-.3,0,0-.1-.2-.2-.3-.1-.2-.2-.4-.3-.6"/>
  <path class="st1" d="M32.8,44h0s0-.2,0-.4l-.5-5c0-.4,0-.8,0-1.2,0-5.2,1.9-15.4,3.6-23.6,1.5-6.8,2.8-12.2,2.8-12.2,0,0,2.5,5,5.3,11.3,3.4,7.6,7.4,17,8.4,21.9,0,.4.1.8.2,1.1.3,2.3.5,4.2.6,5h0c0,.1,0,.2,0,.2,0,0,0,.1,0,.1l9.9,87.5"/>
  <line class="st1" x1="32.8" y1="43.9" x2="32.8" y2="43.9"/>
  <path class="st1" d="M32.7,43.1c0,.4,0,.6,0,.7"/>
  <line class="st1" x1="44.2" y1="144.7" x2="32.8" y2="43.8"/>
  <path class="st1" d="M105.8,61.2c.1-.4.2-.7.2-1.1"/>
  <path class="st1" d="M80.1,143.2l25.8-82.1s0,0,0,0h0c1.1-4.6.7-11.2-.3-19.2-.4-2.8-.8-5.9-1.3-9,0,0-3.1,2.8-6.7,6.6-4.7,4.9-10.2,11.3-11.2,15.2h0s0,0,0,.1h0s0,0,0,0c-1.7,5.7,9.5,11.9,16,9.3,1.8-.5,3.1-1.7,3.6-3.1"/>
  <path class="st1" d="M44,12.8h0c0,.1,0,.2,0,.2,0,0-.1.1-.2.2-.4.3-.8.6-1.4.9-2.1.9-4.6.8-6.2-.2,0,0,0,0-.1-.1"/>
</svg>