<?xml version="1.0" encoding="UTF-8"?>
<svg id="Calque_2" xmlns="http://www.w3.org/2000/svg" version="1.1" viewBox="0 0 254.5 195.4">
  <!-- Generator: Adobe Illustrator 29.1.0, SVG Export Plug-In . SVG Version: 2.1.0 Build 142)  -->
  <defs>
    <style>
      .st0, .st1 {
        fill: none;
      }

      .st2 {
        fill: #969a9e;
      }

      .st3 {
        fill: #fff;
      }

      .st1 {
        stroke: #fff;
        stroke-linecap: round;
        stroke-linejoin: round;
        stroke-width: 3px;
      }

      .st4 {
        fill: #fdb827;
      }
    </style>
  </defs>
  <path class="st0" d="M61.8,167.9c-.5.5-1,1.1-1.5,1.7-2.1,2.6-2.2,6.2-.3,8.9s5.3,3.8,8.5,2.8l21.3-7.2c6-2,11.8-4.7,17.3-7.8l56.3-32.3c13.8-7.9,24.5-20.3,30.4-35.1.3-.8.7-1.6,1.1-2.3,4.4-7.8,14.2-12.7,22-17.2l8.8-5.1c-.3-10.2-3.9-21.3-9.5-31.2-6.1-10.8-14.6-20.2-24.1-25.6-2.1-1.2-4.2-2.2-6.2-2.9,0,0-25.2,15.4-27,16.4-9.6,5.6-18.6,9.6-30.2,9.3-22.6-.5-30,0-40.6,2.6-10.1,2.5-19.4,5.1-34.9,4.7-5.4-.1-8.9,5.6-6.3,10.3,6.2,11.4,21.2,13.4,33.7,9.3,6.8-2.3,14.6-2,24.1-1.3.6,0,1.1.4,1.2,1s0,1.2-.6,1.5c-44.3,27.8-57.3,36.6-70.3,46.3-11.2,5.9-22.9,8.2-31,14.8-5.3,4.3-1.4,12.9,5.3,11.8l16-2.5c-8.6,2.7-15,6.4-20,11.5-2.3,2.3-2.8,5.9-1.2,8.8,1.5,2.9,4.8,4.5,8,3.9,5.7-1,11.2-2,17.1-3-1,.9-1.9,1.9-2.7,3-2.1,2.6-2.2,6.4-.3,9.2s5.4,4.1,8.6,3.1c9.9-2.9,18.6-5.1,27.1-7.1h0Z"/>
  <path class="st3" d="M168.4,15c-4.9,2.8-8.3,8.3-9.4,15.9,1.8-1,27-16.4,27-16.4-1.4-.5-2.7-.9-4.1-1.1-5.1-1.1-9.8-.4-13.5,1.7Z"/>
  <path class="st2" d="M225.8,74.2c0,.5,0,1,0,1.4v.8c-.2,10.3-3.9,17.6-9.8,21l19.5-11.3c6.1-3.5,9.9-11.1,9.8-21.8,0-10.5-3.6-22.2-9.6-32.6-6.1-10.7-14.6-20.1-24.1-25.6-9.3-5.4-17.7-5.9-23.8-2.3l-19.5,11.3h0c3.7-2.1,8.3-2.8,13.5-1.7,1.3.3,2.7.6,4.1,1.1,2,.7,4.1,1.7,6.2,2.9,9.4,5.4,17.9,14.9,24.1,25.6,5.6,9.9,9.2,21,9.5,31.2h0Z"/>
  <path class="st3" d="M216.9,79.3c-7.9,4.5-17.6,9.3-22,17.2,8.2,4,15.6,4.1,21,.9,5.9-3.4,9.6-10.7,9.8-21v-.8c0-.5,0-.9,0-1.4l-8.8,5.1h0Z"/>
  <path class="st1" d="M225.8,74.2l-8.8,5.1c-7.9,4.5-17.6,9.4-22,17.2-.4.7-.8,1.5-1.1,2.3-5.9,14.8-16.6,27.1-30.4,35l-56.3,32.3c-5.5,3.2-11.3,5.8-17.3,7.8l-21.3,7.2c-3.1,1.1-6.6,0-8.5-2.8s-1.8-6.3.3-8.9c.5-.6,1-1.1,1.5-1.7,6.4-6.4,16.7-9.4,26.1-12.2l29.5-16.7"/>
  <path class="st1" d="M185.9,14.4s-25.2,15.4-27,16.4c-9.6,5.6-18.6,9.6-30.2,9.3-22.6-.5-30,0-40.6,2.6-10.1,2.5-19.4,5.1-34.9,4.7-5.4-.1-8.9,5.6-6.3,10.3,6.2,11.5,21.2,13.4,33.7,9.3,6.8-2.3,14.6-2,24.1-1.3.6,0,1.1.4,1.2,1s0,1.2-.6,1.5c-44.3,27.8-57.3,36.6-70.3,46.3-11.2,5.9-22.9,8.2-31,14.8-5.3,4.3-1.4,12.9,5.3,11.8l16-2.5"/>
  <path class="st1" d="M61.8,167.9c-8.5,2-17.2,4.2-27.1,7.1-3.2.9-6.7-.3-8.6-3.1-1.9-2.8-1.8-6.5.3-9.2.8-1,1.7-2,2.7-3,5.5-5.3,13.6-9.1,25.2-12.2,2.7-.7,5.3-1.8,7.7-3.1,12.1-6.4,20.8-11.1,34.2-17.3"/>
  <path class="st1" d="M29.1,159.7c-6,1-11.4,1.9-17.1,3-3.2.6-6.4-1-8-3.9-1.5-2.9-1-6.4,1.2-8.8,5-5.1,11.4-8.8,20-11.5,2.8-.9,5.9-1.6,9.2-2.3,2.9-.6,5.6-1.8,8.1-3.4,10.7-7.2,21.7-13.4,35.9-21.2"/>
  <path class="st1" d="M158.9,30.9c1.1-7.6,4.6-13,9.4-15.9,3.7-2.1,8.3-2.8,13.5-1.7,1.3.3,2.7.6,4.1,1.1,2,.7,4.1,1.7,6.2,2.9,9.4,5.4,17.9,14.9,24.1,25.6,5.6,9.9,9.2,21,9.5,31.2,0,.5,0,1,0,1.4v.8c-.2,10.3-3.9,17.6-9.8,21-5.5,3.2-12.8,3.1-21-.9"/>
  <path class="st1" d="M168.4,15l19.5-11.3c6.1-3.5,14.5-3,23.8,2.3,9.4,5.4,18,14.9,24.1,25.6,5.9,10.4,9.6,22.1,9.6,32.6,0,10.7-3.8,18.2-9.8,21.8l-19.5,11.3"/>
  <path class="st4" d="M168.5,47.5c0,12.9-4.4,27.1-11.6,39.8-7.5,13.2-17.9,24.7-29.4,31.3-11.3,6.6-21.6,7.2-29.1,2.9-7.4-4.3-12-13.5-12-26.6,0-26.2,18.4-58.1,41.1-71.2,11.3-6.5,21.5-7.2,28.9-2.9l.5.3c7.2,4.4,11.6,13.5,11.6,26.4h0ZM151.8,62l-48.7,28.1c.9,5.5,3.3,9.4,6.9,11.4,4.5,2.6,10.7,2.2,17.5-1.7,6.9-4,13.2-10.9,17.7-18.8,3.4-6,5.8-12.6,6.7-19h0Z"/>
  <path class="st3" d="M136,9.1l20.4,11.8c-7.4-4.2-17.6-3.6-28.9,2.9-22.7,13.1-41.1,45-41.1,71.2,0,13.1,4.6,22.3,12,26.6l-20.4-11.8c-7.4-4.3-12-13.5-12-26.6,0-26.2,18.4-58.1,41.1-71.2,11.3-6.6,21.6-7.2,29-2.9h0Z"/>
  <path class="st0" d="M103.1,90.1l48.7-28.1c-.9,6.3-3.2,12.9-6.7,19-4.5,7.9-10.8,14.8-17.7,18.8-6.8,3.9-13,4.3-17.5,1.7-3.6-2.1-6-5.9-6.9-11.4h0Z"/>
  <g>
    <path class="st1" d="M156.4,20.9h0c-7.4-4.3-17.6-3.7-28.9,2.9-22.7,13.1-41.1,45-41.1,71.2,0,13.1,4.6,22.3,12,26.6,7.4,4.3,17.7,3.7,29.1-2.9,11.6-6.7,22-18.2,29.4-31.3,7.2-12.7,11.6-26.9,11.6-39.8,0-12.9-4.4-22-11.6-26.4"/>
    <path class="st1" d="M77.9,109.8c-7.4-4.3-12-13.5-12-26.6,0-26.2,18.4-58.1,41.1-71.2,11.3-6.6,21.6-7.2,29-2.9l20.4,11.8"/>
    <path class="st1" d="M103.1,90.1l48.7-28.1c-.9,6.3-3.2,12.9-6.7,19-4.5,7.9-10.8,14.8-17.7,18.8-6.8,3.9-13,4.3-17.5,1.7-3.6-2.1-6-5.9-6.9-11.4h0Z"/>
    <path class="st1" d="M119.7,63.8c-1.6-2-4.4-2.3-7.5-.5-3.5,2-6.6,6.2-8,10.4"/>
    <path class="st1" d="M150.7,45.9c-1.6-2-4.4-2.3-7.5-.5-3.5,2-6.6,6.2-8,10.4"/>
    <line class="st1" x1="77.9" y1="109.8" x2="98.4" y2="121.6"/>
  </g>
</svg>