<?xml version="1.0" encoding="UTF-8"?>
<svg id="Calque_2" data-name="Calque 2" xmlns="http://www.w3.org/2000/svg" xmlns:xlink="http://www.w3.org/1999/xlink" viewBox="0 0 1542.87 1482.16">
  <defs>
    <style>
      .cls-1, .cls-2, .cls-3 {
        fill: none;
      }

      .cls-4 {
        fill: #c2c7cc;
      }

      .cls-5 {
        fill: #969a9e;
      }

      .cls-6, .cls-7 {
        fill: #fff;
      }

      .cls-6, .cls-2, .cls-3 {
        stroke: #3a3a3a;
        stroke-linecap: round;
        stroke-linejoin: round;
      }

      .cls-6, .cls-3 {
        stroke-width: 6px;
      }

      .cls-8 {
        fill: #3a3a3a;
      }

      .cls-9 {
        fill: #dae0e5;
      }

      .cls-10 {
        fill: url(#New_Pattern);
      }

      .cls-2 {
        stroke-width: 3px;
      }

      .cls-11 {
        fill: #3232fc;
      }

      .cls-12 {
        clip-path: url(#clippath);
      }
    </style>
    <clipPath id="clippath">
      <rect class="cls-1" x="0" width="16" height="19"/>
    </clipPath>
    <pattern id="New_Pattern" data-name="New Pattern" x="0" y="0" width="16" height="19" patternTransform="translate(-418.68 926.2)" patternUnits="userSpaceOnUse" viewBox="0 0 16 19">
      <g>
        <rect class="cls-1" x="0" width="16" height="19"/>
        <g class="cls-12">
          <polygon class="cls-5" points="16 22.18 10.5 19 16 15.82 21.5 19 16 22.18"/>
          <polygon class="cls-5" points="0 22.18 -5.5 19 0 15.82 5.5 19 0 22.18"/>
          <polygon class="cls-5" points="8 12.68 2.5 9.5 8 6.32 13.5 9.5 8 12.68"/>
          <polygon class="cls-5" points="16 3.18 10.5 0 16 -3.18 21.5 0 16 3.18"/>
          <polygon class="cls-5" points="0 3.18 -5.5 0 0 -3.18 5.5 0 0 3.18"/>
        </g>
      </g>
    </pattern>
  </defs>
  <g id="shadow">
    <path class="cls-10" d="M162.37,816.5c5.78,10.39,7.92,23.72,3.79,35.06-3.63,9.99-10.21,18.32-18.47,24.93-15.01,12.01-31.8,18.62-50.86,20.8-16.12,1.84-35.41-1.14-48.96-10.58-10.13-7.05-16.89-18.52-15.2-31.1.97-7.22,4.87-13.52,10.46-17.09-.08-9.27,2.74-18.64,8.65-26.51,13.48-17.93,34.43-24.31,56.28-23.47,21.36.82,43.33,8.21,54.31,27.96ZM1432.92,1112.53c-1.48,8.66-6.35,16.08-12.27,22.54-.89,6.87-1.94,13.61-3.42,20.19.6.59,1.18,1.23,1.73,1.94,4.71,6.1,5.13,14.16,1.47,20.89-3.91,7.2-11.54,12.38-20.01,15.55-.45.6-.89,1.21-1.36,1.8-6.39,8.01-15.07,14.07-23.73,19.4-8.08,4.98-16.24,9.86-24.56,14.43-18.4,10.1-37.82,18.28-58.71,21.15-21.95,3.01-44.19,3.82-66.31,4.9-10.54.51-21.1,1.25-31.64,1.48-5.43.12-10.91.37-16.33.28-3.37-.06-6.85-.7-10.16-1.45-2.29-.52-4.14-1.32-6.35-2.15.78.29,2.56,1.08-.97-.25-6-2.25-10.37-6.51-11.3-12.99-1.19-.05-2.39-.09-3.58-.16-15.31-.89-30.5-3.76-45.56-6.55-6.89-1.28-13.93-2.27-20.72-3.95-3.71-.92-7.49-1.92-11.01-3.4-3.04-1.28-5.08-2.93-7.79-4.75,1.2,1.33.86,1.16-1.03-.5-1.12-.66-2.03-1.52-2.75-2.59-4.44-5.45-5.49-11.83-3.05-17.29-.23.28-.44.54-.58.75-1.98,2.89-3.81,5.89-5.48,8.97-.83,1.54-1.57,3.13-2.38,4.69-1.96,3.77-.15-.16.35-1.11-3.16,5.11-4.43,12.3-6.52,17.91-2.76,7.4-5.69,15.03-9.91,21.77-13.05,20.83-35.17,34.59-59.01,39.65-25.25,5.35-49.96,2.29-75.27-.63-12.8-1.48-25.55-2.42-38.44-1.98-5.78.2-11.55.45-17.3,1.04,1.2,2.31,2.26,4.7,3.16,7.17,7.9,21.57-.33,46.56-17.91,60.73-16.19,13.05-35.92,20.02-55.17,27.33-18.91,7.18-38.53,13.1-58.23,17.72-9.37,2.2-21.02,3.36-30.34.32-10.87-3.55-22.86-11.44-22.03-24.36.49-7.64,5.89-13.22,13.59-13.59,2.55-.12,4.97-.1,7.52.5.5.12,1.19.32,1.79.55,1.09-.11,2.47-.15,3.55-.09l2.34-.31c.07-.02.14-.04.21-.05.03,0,.07-.02.1-.02-1.35-6.09-.91-12.15,2.47-18.41,3.32-6.15,9.05-10.65,15.75-12.59,1.31-.38,2.6-.62,3.89-.74,5.59-2.85,11.51-5.32,16.88-8.05,8.72-4.44,29.41-14.81,32.18-16.15-.01-.26-.03-.51-.05-.77-1.05-.4-2.1-.86-3.17-1.39-4.22-2.06-6.23-6.89-6.48-11.29-.3-5.35,1.89-9.84,5.05-13.76-.03-5.62,1.96-11.08,5.45-15.6,5.21-6.75,11.59-9.03,19.84-9.96,4.41-.5,8.76-.46,13.01.04,8.74-3.74,17.73-6.95,26.87-9.45,24.9-6.83,49.88-7.82,75.46-5.52,12.68,1.14,25.35,2.6,38.09,2.77,5.3.07,10.56-.17,15.83-.61.98-.35,2.48-.33,3.44-.52,2.26-.43,4.5-.94,6.73-1.52,2.71-.71,5.38-1.56,8.02-2.49.82-.29,1.95-.94,2.9-1.21,1.81-.91,3.6-1.84,5.34-2.89,1.37-.83,2.89-2.39,4.39-3.08.91-.82,1.79-1.67,2.64-2.55.48-.49.93-1,1.39-1.51.17-.35.49-.91.9-1.58-3.7-.38-7.3-2.11-10-4.82-10.39-10.39-5.97-27.82.59-38.9,5.55-9.38,12.95-18.34,20.96-25.71,8.78-8.07,18.96-17.13,30.75-20.21,9.44-2.47,17.44,1.81,21.73,8.53,5.11.81,10.06,3.14,14.18,6.93,10,9.18,9.61,26.74,0,35.99-.96.92-1.9,1.86-2.83,2.82,12.36-8.46,30.95-4.04,44.83-2.61,12.93,1.33,25.86,2.34,38.84,3.1,6.6.39,13.22.53,19.83.29,3.04-.11,6.08-.3,9.12-.58.33-.03,5.67-1.02,2.4-.21-3.35.83,1.67-.27,2.37-.39,5.96-1.02,11.94-2.4,17.78-3.95,9.39-2.5,18.66-5.21,27.72.21,7.24,4.33,10.04,11.86,9.32,19.77,8.14-.98,34.26-3.88,39.17-4.48.86-.11,4.93-.19,1.65-.2-2.95,0,0,0,.66-.12,2.23-.37,4.47-.71,6.69-1.13,9.07-1.69,17.83-4.22,26.46-7.43.44-.16.76-.28,1-.35.69-.34,5.51-2.66,7.44-3.64,3.87-1.96,7.68-4.04,11.45-6.19,3.2-1.83,6.37-3.72,9.52-5.63-2.97-4.28-5.24-10.31-4.69-14.77.28-2.27.61-4.53.99-6.78h-.08c.06-.21.12-.4.18-.6,2.03-11.63,5.66-22.79,12.58-32.71,3.58-5.14,7.6-9.97,11.78-14.64,1.52-1.7,3.07-3.38,4.57-5.1.58-.67,1.16-1.51,1.78-2.21.74-1.16,1.45-2.34,2.16-3.52.05-.18.1-.36.15-.54-.31-1.12-.57-2.25-.91-3.37-.82-2.72-1.8-5.4-2.82-8.05-.15-.39-.31-.78-.46-1.17-.56-1.18-1.12-2.36-1.68-3.53-8.82,6.42-19.48,6.97-28.08-.93-3.81-3.5-6.07-9.57-6.07-14.66,0-6,2.54-10.13,6.07-14.66,1.31-1.67,2.68-3.29,4.09-4.89-3.45-3.57-7.05-6.99-10.83-10.21-.94-.8-1.91-1.57-2.86-2.36-1.25-.91-2.49-1.83-3.76-2.71-4.06-2.81-8.25-5.43-12.59-7.79-2.47-1.35-4.99-2.62-7.55-3.8-.42-.19-1.59-.64-2.21-.88-.15-.05-.29-.1-.38-.13-4.81-1.75-9.73-3.14-14.73-4.23-1.13-.24-7.77-.76-8.45-1.5-.95-.1-1.9-.2-2.85-.29-4.82-.44-9.66-.7-14.5-.86-12.29-.4-24.28.73-36.3-2.44-10.22-2.69-16.66-12.28-17.12-22.48-.47-10.57,7.7-19.31,17.12-22.48,13.35-4.51,29.07-3.77,43.08-3.16,14.02.62,28.41,2.44,41.86,6.53,12.86,3.91,25.18,9.71,36.67,16.98,2.7-.02,5.4.08,8.14.32,15.03,1.33,32.56,5.13,44.49,14.79,7.21,5.84,11.47,15.55,10.82,24.82-.49,7.07-3.04,13.12-6.74,18.68,1.91,3.22,3.71,6.49,5.38,9.81,2.38,4.72,4.79,9.67,6.93,14.73,1.84.74,3.56,1.56,5.1,2.43,14.5,8.14,21.37,24.56,18.62,40.6ZM731.48,1348.04c-.24-.27-.74-.88-1.49-1.82-.02,0-.04,0-.07,0,2.92,3.86,3.44,4.47,1.55,1.83ZM617.59,1188.29c-6.18-2.53-12.55-4.62-18.94-6.38-14.69-4.03-29.76-6.36-44.6-9.69-7.22-1.62-14.37-3.55-21.32-6.1-1.41-.51-3.52-.93-4.72-1.82.12.09,3.48,1.57,1.22.5-.77-.36-1.55-.69-2.33-1.05-3.59-1.66-7.17-3.41-10.68-5.24-7.52-3.91-14.32-8.78-21.44-13.32-3.27-2.09-6.34-4.27-9.84-5.97-5.93-2.88-17.47-4.64-21.2,3.17-3.34,7-2.81,11.76.31,18.81,1.86,4.2,4.79,7.64,7.61,11.25,4.64,5.94,10.32,10.91,16.22,15.57-17.56,6.16-34.52,14.21-51.43,22.43l-188.45,91.63c-5.78-3.5-12.98-3.65-19.71-.34-13.93,6.84-21.19,22.39-21.37,37.38-.21,17.06,8.2,32.73,22.29,42.11,15.3,10.18,35.66,11.11,52.87,6.02,17.32-5.12,31.44-15.69,45.1-27.1,2.79-2.33,13.81-11.55,14.46-12.08.02-.02.04-.02.06-.04,6.03-4.11,11.97-8.22,18.37-11.75,3.05-1.68,6.16-3.27,9.31-4.76,1.26-.6,2.52-1.19,3.8-1.73.55-.23,1.78-.74,2.15-.89,6.81-2.67,13.76-4.96,20.8-6.93,7.08-1.99,14.25-3.65,21.47-5.05,33.08-15.57,67.14-8.86,82-13.49,18.75-5.85,32.32-19.7,50.23-26.59,38.15-14.66,95.22-10.19,95.22-47.97,0-15.39-11.24-31.99-27.48-40.57ZM1114.79,1158.01c8.16,2.25,14.74-.66,21.04-5.56.78-.6,1.54-1.22,2.31-1.83,2.65,2.2,5.76,3.89,9.22,4.88,12.52,3.59,24.76-3.44,35.36-9.48,6.56-3.74,12.86-7.9,19.17-12.04,2.25,2.27,4.86,4.09,7.48,5.2,7.76,3.27,18.74,2.14,24.56-4.65,2.73-3.18,5.2-6.58,7.68-9.96.76-1.05,1.53-2.09,2.31-3.12.35-.46,1.64-2.08,1.79-2.28,3.28-4.05,6.58-8.07,10.05-11.96,6.44-7.24,9.11-18.59,3.52-27.27-5.11-7.93-12.99-11.31-21.84-10.76-3.85-7.06-11.3-12.94-19.6-12.16-1.78.17-3.54.39-5.3.63-4.87-3.45-11.11-4.78-17.55-3.21-21.85,5.33-44.57,11.34-63.23,24.45-9.58,6.73-17.4,14.24-23.71,24.18-1.97,3.1-3.58,6.45-4.94,9.88-4.32,9.29-5.33,19.53-3.42,29.98,1.32,7.22,8.33,13.24,15.11,15.11ZM1134.6,637.23c-2.78-3.5-2.69-10.71,3.04-11.52,4.23-.6,8.1-2.02,12.1-2.85-3.31-2.88-6.17-6.43-8.37-10.84-10.86-21.71,2.22-42.33,18.13-56.93,10.22-9.38,21.73-17.71,34.09-24.04,25.3-12.95,54.28-20.03,82.77-18.03,34.35,2.4,70.75,17.49,81.33,53.41,4.81,16.34,1.55,34.72-7.53,48.99-10.1,15.88-24.86,25.85-41.94,32.93-27.4,11.34-58.63,16.54-88.15,17.35-15.78.43-31.72-.59-47.07-4.42-7.95-1.99-15.39-4.81-22.72-8.48-4.59-2.3-7.97-4.62-10.9-9.03-1.52-2.29-3.06-4.38-4.78-6.55ZM1309.01,589.4c.3-.55.62-1.41.97-2.06.02-.08.05-.17.07-.25-1.11,1.31-1.25,2.21-1.05,2.31ZM1304.9,572.69c-.11-.11-.23-.22-.35-.34-.49-.36-.98-.74-1.44-1.05-.43-.09-.16.46,1.78,1.39ZM1279.88,563.81c2.94,1.02,3.39.71,2.6.39-.79-.11-1.68-.2-2.44-.38-.05,0-.11,0-.16-.01ZM1223.72,572.23c-.15.23,2.19-.48,2.49-1.12h-.01s-.05.02-.07.03c-.35.27-1.5.73-2.41,1.09ZM1150.44,740.31c-9.61,3.49-14.82,14.02-9.49,23.33,12.15,21.22,50.94,19.59,57.44-5.7,2.03-7.89-.78-16.16-7.2-21.13-5.93-4.58-15.79-6.18-22.32-1.57-1.73,1.2-3.41,2.48-5.04,3.82-1.43-.07-2.94-.31-4.19-.26-5.47.74-6.58.89-3.33.44-2.04-.02-3.98.38-5.87,1.06ZM831.25,1436.72c-1.57.53-3.11,1.15-4.63,1.81-.19.07-.42.15-.69.25-1.38.33-2.73.79-4.13,1.08-4.39.92-8.68,1.64-12.53,4.23-10.11,6.79-13.21,21.11-3.9,30.25,11.13,10.92,29.85,9.15,42.71,2.3,9.6-5.12,12.99-17.68,8.94-27.28-3.97-9.42-15.44-16.26-25.77-12.65ZM1531.18,918.28c-12.59,11.6-30.74,17.99-46.53,23.75-7.89,2.88-15.88,5.45-23.94,7.77-3.1.89-6.4,1.82-9.59,2.32-.53.33-3.9,1.18-4.05,1.23-2.04.68-4.25.86-6.39,1.04-7,.58-12.87-5.35-14.96-11.39-1.84-5.34-.88-10.66,1.63-15.39-3.98-5.83-5.47-13.57-3.55-20.13,1.59-5.44,3.87-9.75,7.98-13.7,1.55-1.49,3.26-2.71,5.08-3.67,3.97-3.84,8.03-7.59,12.15-11.25-1.88-.24-3.76-.49-5.64-.75-6.28-.87-10.79-8.31-10.79-14.18,0-6.43,4.56-12.5,10.79-14.18,9.64-2.6,19.16-6.54,29.06-8.05,7.99-1.21,15.27.85,19.87,6.56,2.69-.81,5.54-1.36,8.6-1.58,12.81-.91,23.06,6.73,29.92,16.83,5.72,8.43,11.3,17.15,12,27.59.68,10.11-4.27,20.4-11.63,27.18ZM1493.74,888.71c-.6-1.07-1.27-2.11-1.9-2.41.48.96,1.11,1.76,1.9,2.41ZM267.94,619.76c8.54,9.11,20.97,13.62,33.36,13.07,12.24-.53,23.2-5.28,33.52-11.62,15.82-9.73,31.67-18.98,48.29-27.31,34.84-17.45,69.49-33.9,100.03-58.5,7.39-5.96,8.36-18.34,4.98-26.33-3.52-8.35-12.5-15.39-22.03-14.82-19.81,1.19-37.09,9.36-54.7,17.87-14.95,7.23-29.69,14.9-44.19,22.99-14.5,8.1-28.77,16.62-42.77,25.55-7,4.47-13.94,9.03-20.8,13.7-3.17,2.15-12.28,8.43-13.74,9.41-7.75-1.45-15.02,1.51-21.95,6.92-3.7,2.88-6.22,10.02-6.02,14.53.25,5.55,2.17,10.43,6.02,14.53ZM98.43,1046.86c-7.61-4.01-14.98-3.55-22.87-1.02-.52.17-1.06.29-1.59.42-3.13-.14-6.53.53-9.42,1.6-6.74,2.5-12.05,6.83-14.04,14.04-1.78,6.48-.17,15.02,5.17,19.56,5.61,4.77,10.91,7.1,18.27,7.69,3.31.27,6.38-.08,9.68-.52,4.73-.64,9.16-1.78,13.22-4.44,7.26-4.76,10.82-11.43,11.51-20,.54-6.65-4.14-14.26-9.93-17.31Z"/>
  </g>
  <g id="lineart">
    <g>
      <g>
        <path class="cls-7" d="M3,752.38c0,16.07,6.7,30.6,17.46,40.91,6.97,6.68,12.7,14.59,16.24,23.51l.32-.13c1.15,1.93,3.06,3.75,5.73,5.28,9.38,5.42,24.57,5.42,33.95,0,2.66-1.53,4.57-3.34,5.71-5.27l.22.09c3.54-8.91,9.25-16.83,16.22-23.49,10.76-10.31,17.47-24.84,17.47-40.91,0-31.29-25.37-56.66-56.66-56.66s-56.65,25.37-56.65,56.66Z"/>
        <path class="cls-4" d="M40.36,829.89c.64,3.61,1.01,7.29,1.09,11.01,0,2.1,1.34,4.19,4.02,5.91.39.27.84.52,1.31.76,1.78.92,3.84,1.61,6.03,2.07,2.19.46,4.51.69,6.85.69h0c4.66,0,9.31-.92,12.86-2.76.63-.33,1.22-.68,1.75-1.05,2.39-1.66,3.58-3.64,3.58-5.62.09-3.72.46-7.39,1.1-11.01-.97,1.64-2.59,3.18-4.87,4.5-7.97,4.6-20.88,4.6-28.86,0-2.27-1.31-3.89-2.85-4.86-4.49Z"/>
        <path class="cls-8" d="M46.78,847.57c-.46-.24-.91-.49-1.31-.76h0c.36,7.65,6.66,13.74,14.39,13.74s14.21-6.24,14.41-14.03c-.54.37-1.12.72-1.75,1.05-3.56,1.84-8.21,2.76-12.86,2.76h0c-2.33,0-4.66-.23-6.85-.69-2.19-.46-4.25-1.15-6.03-2.07Z"/>
        <path class="cls-4" d="M36.7,816.81c.46,1.11.86,2.24,1.23,3.39.91,2.81,1.64,5.68,2.21,8.59h.02c.07.37.14.73.21,1.11.97,1.64,2.59,3.17,4.86,4.49,7.97,4.6,20.89,4.6,28.86,0,2.28-1.31,3.9-2.85,4.87-4.5.06-.37.13-.73.21-1.1h0c.56-2.91,1.31-5.78,2.22-8.59.37-1.15.79-2.29,1.24-3.41l-.22-.09c-1.14,1.92-3.05,3.74-5.71,5.27-9.38,5.42-24.57,5.42-33.95,0-2.67-1.54-4.58-3.35-5.73-5.28l-.32.13Z"/>
      </g>
      <g>
        <path class="cls-3" d="M36.7,816.81c-3.54-8.92-9.26-16.83-16.24-23.51-10.76-10.31-17.46-24.84-17.46-40.91,0-31.29,25.36-56.66,56.65-56.66s56.66,25.37,56.66,56.66c0,16.07-6.71,30.6-17.47,40.91-6.96,6.67-12.68,14.58-16.22,23.49-.46,1.12-.88,2.25-1.24,3.41-.91,2.81-1.65,5.68-2.22,8.59h0c-.07.37-.14.73-.21,1.1-.64,3.62-1.01,7.3-1.1,11.01,0,1.98-1.19,3.96-3.58,5.62-.54.37-1.12.72-1.75,1.05-3.56,1.84-8.21,2.76-12.86,2.76h0c-2.33,0-4.66-.23-6.85-.69-2.19-.46-4.25-1.15-6.03-2.07-.46-.24-.91-.49-1.31-.76-2.68-1.72-4.02-3.81-4.02-5.91-.08-3.72-.45-7.39-1.09-11.01-.06-.38-.13-.74-.21-1.11h-.02c-.56-2.91-1.3-5.78-2.21-8.59-.38-1.14-.78-2.28-1.23-3.39Z"/>
        <path class="cls-3" d="M82.51,740.18c-3.83,2.2-3.83,10-7.65,12.21-3.82,2.22-3.82-5.6-7.64-3.39-3.82,2.21-3.82,10.02-7.64,12.22-3.84,2.22-3.84-5.59-7.65-3.39-3.83,2.21-3.83,10.02-7.65,12.22"/>
        <path class="cls-3" d="M40.34,829.88l.02.02c.97,1.64,2.59,3.17,4.86,4.49,7.97,4.6,20.89,4.6,28.86,0,2.28-1.31,3.9-2.85,4.87-4.5"/>
        <path class="cls-3" d="M37.02,816.68c1.15,1.93,3.06,3.75,5.73,5.28,9.38,5.42,24.57,5.42,33.95,0,2.66-1.53,4.57-3.34,5.71-5.27"/>
        <path class="cls-3" d="M45.47,846.82c.36,7.64,6.66,13.73,14.39,13.73s14.21-6.24,14.41-14.03"/>
      </g>
    </g>
    <g>
      <g>
        <path class="cls-9" d="M396.04,330.23c9.45,5.06,15.32,16.45,15.32,32.79,0,1.82-.08,3.65-.22,5.49,0,.16-.02.29-.04.44.03,0,.05,0,.07-.03,18.13-9.33,32.51-.32,32.51,20.89s-15.39,48.61-34.38,59.58l-93.79,54.13-8.34,4.81c-1.32.78-2.65,1.46-3.96,2.07-3.92,1.83-7.68,2.91-11.19,3.27-4.77.51-9.08-.27-12.73-2.25l-.23-.11c-5.56-3.08-9.52-8.91-11.18-17.05-.56-2.77-.86-5.81-.86-9.12,0-25.61,17.97-56.76,40.15-69.56,1.47-.84,2.93-1.58,4.36-2.24,3.12-30.31,24.19-64.52,49.72-79.25,5.21-3,10.22-4.99,14.93-6,7.31-1.61,13.91-.89,19.37,1.86l.5.27Z"/>
        <path class="cls-7" d="M363.76,312.91l31.77,17.05c-5.46-2.75-12.05-3.46-19.37-1.86-4.71,1.01-9.72,2.99-14.93,6-25.53,14.73-46.59,48.94-49.72,79.25-1.43.66-2.89,1.39-4.36,2.24-22.17,12.8-40.15,43.95-40.15,69.56,0,3.31.3,6.35.86,9.12,1.66,8.14,5.62,13.97,11.18,17.05l-32.14-17.27c-7.58-4.05-12.28-13.17-12.28-26.28,0-2.75.2-5.56.59-8.39,1.57-11.29,6.12-23.1,12.61-33.62,7.12-11.57,16.59-21.56,26.95-27.55,1.47-.84,2.92-1.59,4.35-2.24,3.11-30.31,24.18-64.52,49.7-79.25,13.54-7.82,25.8-8.72,34.82-3.88l.1.06Z"/>
      </g>
      <g>
        <path class="cls-3" d="M395.54,329.96l.5.27c9.45,5.06,15.32,16.45,15.32,32.79,0,1.82-.08,3.65-.22,5.49,0,.16-.02.29-.04.44.03,0,.05,0,.07-.03,18.13-9.33,32.51-.32,32.51,20.89s-15.39,48.61-34.38,59.58l-93.79,54.13-8.34,4.81c-1.32.78-2.65,1.46-3.96,2.07-3.92,1.83-7.68,2.91-11.19,3.27-4.77.51-9.08-.27-12.73-2.25l-.23-.11"/>
        <path class="cls-3" d="M395.54,329.96c-5.46-2.75-12.05-3.46-19.37-1.86-4.71,1.01-9.72,2.99-14.93,6-25.53,14.73-46.59,48.94-49.72,79.25-1.43.66-2.89,1.39-4.36,2.24-22.17,12.8-40.15,43.95-40.15,69.56,0,3.31.3,6.35.86,9.12,1.66,8.14,5.62,13.97,11.18,17.05l-32.14-17.27c-7.58-4.05-12.28-13.17-12.28-26.28,0-2.75.2-5.56.59-8.39,1.57-11.29,6.12-23.1,12.61-33.62,7.12-11.57,16.59-21.56,26.95-27.55,1.47-.84,2.92-1.59,4.35-2.24,3.11-30.31,24.18-64.52,49.7-79.25,13.54-7.82,25.8-8.72,34.82-3.88l.1.06,31.77,17.05Z"/>
      </g>
    </g>
    <g>
      <g>
        <g>
          <path class="cls-7" d="M1299.66,562.15v35.37c0,15.44-10.19,30.83-30.53,42.61-40.77,23.56-106.88,23.56-147.61,0-20.4-11.78-30.58-27.17-30.58-42.61v-35.37c0,15.44,10.19,30.87,30.58,42.61,40.73,23.55,106.84,23.55,147.61,0,20.39-11.74,30.53-27.17,30.53-42.61Z"/>
          <path class="cls-7" d="M1271.61,521.03l-75.97,43.87-40.37-58.41c37.84-9.07,83.08-4.72,113.86,13.07.84.48,1.68.98,2.48,1.47Z"/>
        </g>
        <g>
          <path class="cls-7" d="M1271.61,521.03c-.81-.49-1.64-.99-2.48-1.47-30.78-17.79-76.02-22.14-113.86-13.07-12.27,2.94-23.78,7.3-33.75,13.07-17.77,10.2-27.75,23.21-30.09,36.61-.32,1.99-.49,4-.49,5.99,0,15.44,10.19,30.87,30.58,42.61,40.73,23.55,106.84,23.55,147.61,0,20.39-11.74,30.53-27.17,30.53-42.61s-9.33-29.57-28.04-41.13"/>
          <path class="cls-7" d="M1090.93,562.15v35.37c0,15.44,10.19,30.83,30.58,42.61,40.73,23.56,106.84,23.56,147.61,0,20.34-11.78,30.53-27.17,30.53-42.61v-35.37"/>
          <polyline class="cls-7" points="1271.63 521.03 1271.61 521.03 1195.65 564.89 1155.27 506.49"/>
        </g>
      </g>
      <g>
        <g>
          <path class="cls-8" d="M1299.66,562.15v35.37c0,15.44-10.19,30.83-30.53,42.61-40.77,23.56-106.88,23.56-147.61,0-20.4-11.78-30.58-27.17-30.58-42.61v-35.37c0,15.44,10.19,30.87,30.58,42.61,40.73,23.55,106.84,23.55,147.61,0,20.39-11.74,30.53-27.17,30.53-42.61Z"/>
          <path class="cls-11" d="M1271.61,521.03l-75.97,43.87-40.37-58.41c37.84-9.07,83.08-4.72,113.86,13.07.84.48,1.68.98,2.48,1.47Z"/>
        </g>
        <g>
          <path class="cls-2" d="M1271.61,521.03c-.81-.49-1.64-.99-2.48-1.47-30.78-17.79-76.02-22.14-113.86-13.07-12.27,2.94-23.78,7.3-33.75,13.07-17.77,10.2-27.75,23.21-30.09,36.61-.32,1.99-.49,4-.49,5.99,0,15.44,10.19,30.87,30.58,42.61,40.73,23.55,106.84,23.55,147.61,0,20.39-11.74,30.53-27.17,30.53-42.61s-9.33-29.57-28.04-41.13"/>
          <path class="cls-2" d="M1090.93,562.15v35.37c0,15.44,10.19,30.83,30.58,42.61,40.73,23.56,106.84,23.56,147.61,0,20.34-11.78,30.53-27.17,30.53-42.61v-35.37"/>
          <polyline class="cls-2" points="1271.63 521.03 1271.61 521.03 1195.65 564.89 1155.27 506.49"/>
        </g>
      </g>
      <g>
        <g>
          <path class="cls-3" d="M1299.66,562.15v35.37c0,15.44-10.19,30.83-30.53,42.61-40.77,23.56-106.88,23.56-147.61,0-20.4-11.78-30.58-27.17-30.58-42.61v-35.37c0,15.44,10.19,30.87,30.58,42.61,40.73,23.55,106.84,23.55,147.61,0,20.39-11.74,30.53-27.17,30.53-42.61Z"/>
          <path class="cls-3" d="M1271.61,521.03l-75.97,43.87-40.37-58.41c37.84-9.07,83.08-4.72,113.86,13.07.84.48,1.68.98,2.48,1.47Z"/>
        </g>
        <g>
          <path class="cls-3" d="M1271.61,521.03c-.81-.49-1.64-.99-2.48-1.47-30.78-17.79-76.02-22.14-113.86-13.07-12.27,2.94-23.78,7.3-33.75,13.07-17.77,10.2-27.75,23.21-30.09,36.61-.32,1.99-.49,4-.49,5.99,0,15.44,10.19,30.87,30.58,42.61,40.73,23.55,106.84,23.55,147.61,0,20.39-11.74,30.53-27.17,30.53-42.61s-9.33-29.57-28.04-41.13"/>
          <path class="cls-3" d="M1090.93,562.15v35.37c0,15.44,10.19,30.83,30.58,42.61,40.73,23.56,106.84,23.56,147.61,0,20.34-11.78,30.53-27.17,30.53-42.61v-35.37"/>
          <polyline class="cls-3" points="1271.63 521.03 1271.61 521.03 1195.65 564.89 1155.27 506.49"/>
        </g>
      </g>
    </g>
    <g>
      <g>
        <polygon class="cls-8" points="1376.43 1072.04 1376.43 1138.24 1359.18 1142.42 1359.18 1115.8 1337.51 1101.69 1346.29 1079.36 1376.43 1072.04"/>
        <path class="cls-7" d="M1265.25,1102.94c4.7-3.8,8.63-8,11.63-12.55,1.7-2.51,3.08-5.13,4.15-7.86,11.58-29.4-18.31-58.65-67.42-67.36,3.36-2.47,7.51-4.27,12.1-5.56,9.28-2.61,13.74-13.12,8.94-21.48-5.56-9.7-10.09-18.36-14.72-26.65l27.4,3.6,2.74,18.8,34.07,11.72,29.95-7.54,27.9,18.39-16.94,16.15,15.64,21.04,1.27.15h.03l30.62,3.91,3.84,24.34-30.14,7.32-8.78,22.33,21.68,14.11-2.1,2.05-15.78,15.27-3.8,3.66-31.82-4.3-29.86,15.09,3.19,18.77-38.92,9.63-21.36-14.28-39.5,2.08-16.55,16.26-41.29-5.42-2.74-18.78-34.06-11.74-29.96,7.53-27.9-18.38,15.27-14.56,1.67-1.59c-4.13-5.42-7.22-9.47-9.58-12.59-6.48-8.56-6.46-20.48.24-28.89,12.1-15.18,37.87-20.43,49.38-20.43,1.64,0,3.21.06,4.71.18-.26.59-.52,1.18-.75,1.78-4.51,11.51-2.68,23.01,4.15,33.22,2.99,4.47,6.9,8.67,11.65,12.53,13.63,11.13,34.13,19.49,58.93,22.75,40.26,5.28,80.36-4.41,102.85-22.73Z"/>
        <polygon class="cls-7" points="1359.18 1142.42 1359.18 1182 1357.09 1184.04 1341.31 1199.32 1337.51 1202.99 1337.51 1167.89 1337.51 1167.87 1337.51 1136.79 1341.31 1133.12 1357.09 1117.85 1359.18 1115.8 1359.18 1142.42"/>
        <polygon class="cls-8" points="1341.98 1006.44 1341.98 1043.79 1341.94 1043.79 1340.68 1043.64 1325.04 1022.6 1341.98 1006.44"/>
        <polygon class="cls-8" points="1337.51 1167.89 1337.51 1202.99 1305.69 1198.69 1279.01 1212.17 1279.01 1166.35 1275.82 1147.58 1305.69 1132.49 1337.51 1136.79 1337.51 1167.87 1337.51 1167.89"/>
        <path class="cls-8" d="M1213.6,1015.17c49.11,8.7,79.01,37.96,67.42,67.36-1.06,2.73-2.45,5.34-4.15,7.86-3,4.56-6.93,8.75-11.63,12.55-13.63-11.1-34.12-19.46-58.91-22.71-3.82-.51-7.62-.87-11.4-1.11,3.88-1.18,7.74-2.1,11.58-2.56,2.03-3.49,2.75-7.4,2.75-11.55,0-10.27-4.46-21.96-4.46-32.11,0-8.09,3.4-13.78,8.79-17.73Z"/>
        <polygon class="cls-7" points="1279.01 1212.17 1279.01 1232.56 1240.09 1242.18 1240.09 1175.98 1279.01 1166.35 1279.01 1212.17"/>
        <polygon class="cls-8" points="1240.09 1175.98 1240.09 1242.18 1218.73 1227.9 1179.22 1229.96 1162.67 1246.26 1162.67 1180.04 1179.22 1163.78 1218.73 1161.7 1240.09 1175.98"/>
        <path class="cls-4" d="M1131.57,1087.59c-5.09-9.75-7.19-18.65-16.13-35.37-50.29-94.03-106.78-67.26-133.92-90.53-29.76-25.5-47.13-96.69-55.66-137.73,2.7-7.89,7.18-17.58,17.76-28.62,22.81-23.79,71.31,8.47,71.31-57.38,0-.61-.01-1.23-.03-1.85,30.39,25.32-17.57,36.23,74.01,100.26,92.53,64.68,112.54,92.02,131,125.09,4.63,8.3,9.17,16.95,14.72,26.65,4.8,8.36.34,18.87-8.94,21.48-4.59,1.29-8.74,3.08-12.1,5.56-5.39,3.95-8.79,9.64-8.79,17.73,0,10.16,4.46,21.84,4.46,32.11,0,4.15-.72,8.06-2.75,11.55-3.85.46-7.71,1.38-11.58,2.56-15.93,4.86-32.07,14.16-47.88,14.16-6.36,0-11.03-1.73-14.82-4.45-.23-.42-.45-.84-.67-1.25Z"/>
        <polygon class="cls-7" points="1162.67 1180.04 1162.67 1246.26 1121.38 1240.82 1121.38 1174.63 1162.67 1180.04"/>
        <path class="cls-7" d="M1131.57,1087.59c.21.41.44.83.67,1.25-.45-.31-.88-.64-1.3-1,.2-.09.42-.16.63-.25Z"/>
        <path class="cls-9" d="M1088.41,1055.38c-1.49-.12-3.06-.18-4.71-.18-11.51,0-37.28,5.24-49.38,20.43-6.7,8.4-6.72,20.32-.24,28.89,2.35,3.13,5.45,7.18,9.58,12.59l-1.67,1.59c-7.6-5.26-17.39-11.7-19.45-13.24-19.25-14.2-43.35-15.98-61.85-31.91-20.63-17.79-16.76-25.15-40.22-54.18,27.37,80.31-8.17,110.16,64.75,195.49-4.12,25.69-4.63,54.14-42.95,54.14-3.43,0-6.72-.1-9.87-.26-5.16-5.59-10.24-11.55-15.61-17.58-65.21-73.33-37.97-81.99-59.11-123.66-15.15-29.88-39.89-48.37-59.09-74.85-5.86-8.08-9.22-17.33-12.95-26.47h-.01c.03-.57.04-1.13.04-1.7,0-19.13-11.08-27.06-21.22-43.94-.7.24-1.4.47-2.1.7,8.4-10.47,18.28-18.44,18.28-38.29,0-42.06-24.09-58.68-27.61-84.52,4.98,6.66,9.63,12.76,21.02,12.76,23.5,0,18.43-30.13,85.5-30.13,17,0,27.72,5.6,43.44,5.6,18.92,0,17.99-8.41,22.88-22.69,8.52,41.04,25.9,112.23,55.66,137.73,27.15,23.27,83.63-3.5,133.92,90.53,8.94,16.72,11.04,25.62,16.13,35.37-.21.09-.43.16-.63.25-12.21-9.97-15.53-30.35-42.52-32.45Z"/>
        <polygon class="cls-8" points="1121.38 1174.63 1121.38 1240.82 1118.64 1222.02 1084.59 1210.28 1054.63 1217.85 1054.63 1151.64 1084.59 1144.11 1118.64 1155.84 1121.38 1174.63"/>
        <path class="cls-8" d="M1088.41,1055.38c27,2.11,30.32,22.48,42.52,32.45-10.67,3.93-20.04,9.04-27.48,15.08-4.75-3.86-8.66-8.06-11.65-12.53-6.82-10.21-8.66-21.71-4.15-33.22.24-.6.49-1.19.75-1.78Z"/>
        <polygon class="cls-7" points="1054.63 1151.64 1054.63 1217.85 1026.73 1199.44 1026.73 1169.39 1026.73 1162.11 1026.73 1133.26 1054.63 1151.64"/>
        <path class="cls-8" d="M1042,1118.7l-15.27,14.56v36.13c-11.78,6.1-27.52,9.89-33.92,20.56-4.21,7.03-6.13,15.8-7.59,24.91-72.91-85.33-37.38-115.18-64.75-195.49,23.46,29.04,19.59,36.4,40.22,54.18,18.49,15.93,42.6,17.71,61.85,31.91,2.06,1.54,11.85,7.98,19.45,13.24Z"/>
        <path class="cls-7" d="M1014.91,736.13c.02.62.03,1.24.03,1.85,0,65.84-48.5,33.58-71.31,57.38-10.59,11.04-15.07,20.73-17.76,28.62-4.89,14.27-3.95,22.69-22.88,22.69-15.72,0-26.44-5.6-43.44-5.6-67.07,0-62,30.13-85.5,30.13-11.39,0-16.04-6.09-21.02-12.76-6.02-8.05-12.51-16.93-31.92-16.93-8.66,0-17.42,1.55-26.17,1.55-26.35,0-18.3-14.2-30.42-21.97-6.93-4.45-65.54-3.79-65.54-50.54,0-3.54.48-7.01,1.33-10.41,5.48-5.99,13.1-13.64,23.9-24.28,29.66-29.22,48.92-72.52,82.88-72.52,27.6,0,45.43,18.05,88.34,18.05s80.74-21.27,101.63-21.27c34.72,0,27.79,31.44,77.64,53.55,20.4,9.05,32.7,16.18,40.21,22.45Z"/>
        <path class="cls-9" d="M856.96,728.57c-52.86-10.4-114.39-28.02-161.66-3.38-10.49,7.34-18.37,17.27-21.05,29.33-7.27,30.11,41.53,39.45,68.52,46.72,11.53,3.14,22.26,5.55,33.06,7.5,37.99,14.42,77.44,21.69,112.75-4.57,20.7-7.01,29.24-6.01,34.14-14.22.1-2.08.1-4.16-.94-5.2-7.27-6.23-20.76-9.34-16.72-22.02-.96-10.77-2.78-12.65-8.78-17.09-11.99-8.82-26.71-14.73-39.32-17.07Z"/>
        <path class="cls-4" d="M916.79,1251.16c5.37,6.03,10.46,11.99,15.61,17.58-31.83-1.69-50.65-11.04-76.72-11.04-43.65,0-78.03,31.55-122.75,31.55-28.65,0-45.65-11.23-61.06-25.57-1.89-11.37-3-22.85-3-34.43,0-55.12,33.37-99.36,33.37-148.57,0-9.41-1.02-18.65-2.19-27.88,10.18,4.49,23.36,7.47,41.71,7.47,29.72,0,43.1-15.75,43.87-34.1h.01c3.73,9.13,7.09,18.39,12.95,26.47,19.2,26.48,43.94,44.97,59.09,74.85,21.14,41.67-6.1,50.33,59.11,123.66Z"/>
        <path class="cls-7" d="M762.35,981.24c.7-.23,1.4-.46,2.1-.7,10.14,16.88,21.22,24.81,21.22,43.94,0,.57-.01,1.13-.04,1.7-.76,18.34-14.14,34.1-43.87,34.1-18.34,0-31.53-2.98-41.71-7.47-31.32-13.83-34.06-42.02-70.17-42.02-23.69,0-36.19,9.93-48,9.93-28.23,0-22.32-29.97-35.95-43.35-17.93-17.6-53.5-5.17-55.39-36.87,1.5-4.33,3.68-8.43,6.46-12.13,12.49-16.62,25.32-28.16,50.87-38.78-.97,3.75-1.53,7.36-1.53,10.76,0,26.45,43.58,21.44,70.35,44.81,5.34,4.67,7.66,11.53,13.98,15.42,11.86,7.31,25.17,4.96,37.82,9.37,19.6,6.82,30.83,18.53,53.75,18.53,13.13,0,26.62-2.79,40.11-7.23Z"/>
        <path class="cls-9" d="M547.87,889.59c4.66-18.22,18.76-39.6,23.61-53.67,18.7-54.19,7.22-52.2,28.82-75.78-.85,3.41-1.33,6.88-1.33,10.41,0,46.75,58.61,46.09,65.54,50.54,12.12,7.77,4.07,21.97,30.42,21.97,8.75,0,17.51-1.55,26.17-1.55,19.41,0,25.9,8.88,31.92,16.93,3.51,25.85,27.61,42.46,27.61,84.52,0,19.85-9.88,27.82-18.28,38.29-13.49,4.44-26.97,7.23-40.11,7.23-22.92,0-34.15-11.7-53.75-18.53-12.65-4.41-25.95-2.06-37.82-9.37-6.32-3.89-8.64-10.75-13.98-15.42-26.77-23.37-70.35-18.37-70.35-44.81,0-3.4.56-7.01,1.53-10.76Z"/>
        <path class="cls-9" d="M700.06,1052.81c1.17,9.23,2.19,18.46,2.19,27.88,0,49.21-33.37,93.45-33.37,148.57,0,11.58,1.11,23.06,3,34.43-10.46-9.71-20.17-20.86-32.28-30.89-57.43-47.54-105.39-30.34-136.19-39.22-53.83-15.55-70.24-55.97-75.58-86.46,39.74-34.12,61.91-79.87,60.18-150.49-.13-5.52.73-10.99,2.54-16.13,1.89,31.7,37.46,19.27,55.39,36.87,13.63,13.38,7.72,43.35,35.95,43.35,11.81,0,24.32-9.93,48-9.93,36.12,0,38.86,28.19,70.17,42.02Z"/>
        <path class="cls-7" d="M551.79,986.14c1.1,4.87,2.81,9.57,5.13,13.94-1.66-4.67-3.1-9.55-5.13-13.94Z"/>
        <path class="cls-4" d="M609.31,1175.09c-8.31-26.99,13.5-67.48-20.76-89.28-15.57-10.38,3.11-29.07-1.04-45.68-2.08-6.23-2.08-15.57-6.23-17.65-1.51-.64-2.95-1.35-4.35-2.1-12.25-1.83-16.58-10.62-20-20.29-2.32-4.37-4.04-9.07-5.13-13.94-1.52-3.29-3.36-6.31-5.86-8.77-5.05-4.96-11.5-7.54-18.21-9.39-1.1,12.94-5.05,25.38-3.54,38.92,2.08,14.53,10.38,28.03,11.42,42.56,2.08,18.69,5.19,38.41-3.11,53.98-15.51,29.07-34.63,53.63-49.77,82.1,6.2,3.11,13.06,5.82,20.69,8.03,30.8,8.89,78.76-8.32,136.19,39.22.74.61,1.44,1.24,2.16,1.85.65-2.53,1.27-5.08,1.81-7.67,6.23-25.95-28.03-34.26-34.26-51.91Z"/>
      </g>
      <g>
        <path class="cls-3" d="M600.31,760.13c-.85,3.41-1.33,6.88-1.33,10.41,0,46.75,58.61,46.09,65.54,50.54,12.12,7.77,4.07,21.97,30.42,21.97,8.75,0,17.51-1.55,26.17-1.55,19.41,0,25.9,8.88,31.92,16.93,4.98,6.66,9.63,12.76,21.02,12.76,23.5,0,18.43-30.13,85.5-30.13,17,0,27.72,5.6,43.44,5.6,18.92,0,17.99-8.41,22.88-22.69,2.7-7.89,7.18-17.58,17.76-28.62,22.81-23.79,71.31,8.47,71.31-57.38,0-.61-.01-1.23-.03-1.85h0"/>
        <path class="cls-3" d="M762.34,981.25h.01c8.4-10.48,18.28-18.45,18.28-38.3,0-42.06-24.09-58.68-27.61-84.52"/>
        <path class="cls-3" d="M548.36,889.38c-.16.06-.32.13-.48.2-25.56,10.63-38.39,22.16-50.87,38.78-2.78,3.71-4.95,7.8-6.46,12.13-1.81,5.14-2.67,10.61-2.54,16.13,1.73,70.63-20.44,116.37-60.18,150.49,5.34,30.49,21.75,70.91,75.58,86.46,30.8,8.89,78.76-8.32,136.19,39.22,12.11,10.03,21.83,21.17,32.28,30.89,15.41,14.34,32.41,25.57,61.06,25.57,44.72,0,79.09-31.55,122.75-31.55,26.07,0,44.89,9.35,76.72,11.04,3.15.16,6.44.26,9.87.26,38.32,0,38.84-28.45,42.95-54.14,1.46-9.11,3.37-17.88,7.59-24.91,6.39-10.67,22.14-14.45,33.92-20.56"/>
        <path class="cls-3" d="M700.06,1052.81c1.17,9.23,2.19,18.46,2.19,27.88,0,49.21-33.37,93.45-33.37,148.57,0,11.58,1.11,23.06,3,34.43"/>
        <path class="cls-3" d="M785.64,1026.19c3.73,9.13,7.09,18.39,12.95,26.47,19.2,26.48,43.94,44.97,59.09,74.85,21.14,41.67-6.1,50.33,59.11,123.66,5.37,6.03,10.46,11.99,15.61,17.58"/>
        <path class="cls-3" d="M985.23,1214.86c-72.91-85.33-37.38-115.18-64.75-195.49,23.46,29.04,19.59,36.4,40.22,54.18,18.49,15.93,42.6,17.71,61.85,31.91,2.06,1.54,11.85,7.98,19.45,13.24"/>
        <path class="cls-3" d="M925.86,823.97c8.52,41.04,25.9,112.23,55.66,137.73,27.15,23.27,83.63-3.5,133.92,90.53,8.94,16.72,11.04,25.62,16.13,35.37.21.41.44.83.67,1.25,0,.01.01.01.01.02"/>
        <path class="cls-3" d="M1219.92,961.48l27.4,3.6,2.74,18.8,34.07,11.72,29.95-7.54,27.9,18.39-16.94,16.15,15.64,21.04,1.27.15h.03l30.62,3.91,3.84,24.34-30.14,7.32-8.78,22.33,21.68,14.11-2.1,2.05-15.78,15.27-3.8,3.66-31.82-4.3-29.86,15.09,3.19,18.77-38.92,9.63-21.36-14.28-39.5,2.08-16.55,16.26-41.29-5.42-2.74-18.78-34.06-11.74-29.96,7.53-27.9-18.38,15.27-14.56,1.67-1.59c-4.13-5.42-7.22-9.47-9.58-12.59-6.48-8.56-6.46-20.48.24-28.89,12.1-15.18,37.87-20.43,49.38-20.43,1.64,0,3.21.06,4.71.18,27,2.11,30.32,22.48,42.52,32.45.42.35.85.69,1.3,1,3.79,2.72,8.46,4.45,14.82,4.45,15.81,0,31.95-9.31,47.88-14.16,3.88-1.18,7.74-2.1,11.58-2.56,2.03-3.49,2.75-7.4,2.75-11.55,0-10.27-4.46-21.96-4.46-32.11,0-8.09,3.4-13.78,8.79-17.73,3.36-2.47,7.51-4.27,12.1-5.56,9.28-2.61,13.74-13.12,8.94-21.48-5.56-9.7-10.09-18.36-14.72-26.65-18.46-33.07-38.47-60.41-131-125.09-91.58-64.04-43.62-74.95-74.01-100.26-7.51-6.27-19.82-13.4-40.21-22.45-49.85-22.11-42.92-53.55-77.64-53.55-20.89,0-60.4,21.27-101.63,21.27s-60.74-18.05-88.34-18.05c-33.96,0-53.22,43.3-82.88,72.52-10.8,10.64-18.42,18.29-23.9,24.28-21.6,23.59-10.12,21.59-28.82,75.78-4.85,14.07-18.95,35.45-23.61,53.67-.97,3.75-1.53,7.36-1.53,10.76,0,26.45,43.58,21.44,70.35,44.81,5.34,4.67,7.66,11.53,13.98,15.42,11.86,7.31,25.17,4.96,37.82,9.37,19.6,6.82,30.83,18.53,53.75,18.53,13.13,0,26.62-2.79,40.11-7.23.7-.23,1.4-.46,2.1-.7,10.14,16.88,21.22,24.81,21.22,43.94,0,.57-.01,1.13-.04,1.7-.76,18.34-14.14,34.1-43.87,34.1-18.34,0-31.53-2.98-41.71-7.47-31.32-13.83-34.06-42.02-70.17-42.02-23.69,0-36.19,9.93-48,9.93-28.23,0-22.32-29.97-35.95-43.35-17.93-17.6-53.5-5.17-55.39-36.87v-.02"/>
        <path class="cls-3" d="M1213.6,1015.17c49.11,8.7,79.01,37.96,67.42,67.36-1.06,2.73-2.45,5.34-4.15,7.86-3,4.56-6.93,8.75-11.63,12.55-22.49,18.32-62.6,28.01-102.85,22.73-24.8-3.26-45.31-11.62-58.93-22.75-4.75-3.86-8.66-8.06-11.65-12.53-6.82-10.21-8.66-21.71-4.15-33.22.24-.6.49-1.19.75-1.78h.01"/>
        <path class="cls-3" d="M1103.45,1102.94v-.02c7.45-6.04,16.82-11.14,27.49-15.08.2-.09.42-.16.63-.25h.01"/>
        <path class="cls-3" d="M1194.93,1079.12c3.78.24,7.59.6,11.4,1.11,24.79,3.25,45.29,11.61,58.91,22.71v.02"/>
        <line class="cls-3" x1="1054.63" y1="1151.64" x2="1054.63" y2="1217.85"/>
        <line class="cls-3" x1="1121.38" y1="1174.63" x2="1121.38" y2="1240.82"/>
        <line class="cls-3" x1="1162.67" y1="1180.04" x2="1162.67" y2="1246.26"/>
        <line class="cls-3" x1="1240.09" y1="1175.98" x2="1240.09" y2="1242.18"/>
        <polyline class="cls-3" points="1279.01 1166.35 1279.01 1212.17 1279.01 1232.56 1240.09 1242.18 1218.73 1227.9 1179.22 1229.96 1162.67 1246.26 1121.38 1240.82 1118.64 1222.02 1084.59 1210.28 1054.63 1217.85 1026.73 1199.44 1026.73 1169.39 1026.73 1162.11 1026.73 1133.26"/>
        <polyline class="cls-3" points="1376.43 1072.04 1376.43 1138.24 1359.18 1142.42"/>
        <polyline class="cls-3" points="1337.51 1136.79 1337.51 1167.87 1337.51 1167.89 1337.51 1202.99"/>
        <polyline class="cls-3" points="1359.18 1115.8 1359.18 1142.42 1359.18 1182 1357.09 1184.04 1341.31 1199.32 1337.51 1202.99 1305.69 1198.69 1279.01 1212.17"/>
        <line class="cls-3" x1="1341.98" y1="1006.44" x2="1341.98" y2="1043.79"/>
      </g>
    </g>
    <g id="ok">
      <g>
        <g>
          <path class="cls-7" d="M774.91,1240.9v107.47l-93.08,53.72v-107.45l93.08-53.73ZM753.3,1307.25c.35-3.56-1.58-5.61-4.23-4.07l-13.27,7.66c1.56-11.4,3.01-22.48-.59-26.32-1.45-1.56-4.35,1.3-4.59,4.49-.84,11.14-3.89,20.25-8.72,27.92-2.47,3.93-4.01,4.24-13.09,9.49v32.78l8.15-4.71c1.65-.82,4.19-2.94,7.45-2.9,3,.02,3.89-.85,17.71-8.82,2.42-1.4,4.56-4.7,5.31-8.19,1.04-4.77,4.12-18.94,4.15-19.06h.01c1.53-7.14,1.62-7.24,1.72-8.26Z"/>
          <polygon class="cls-11" points="774.91 1240.9 681.83 1294.64 588.77 1240.9 681.83 1187.16 774.91 1240.9"/>
          <path class="cls-5" d="M749.06,1303.18c2.65-1.54,4.59.52,4.23,4.07-.1,1.02-.19,1.13-1.72,8.26h-.01c-.03.13-3.11,14.29-4.15,19.06-.75,3.49-2.89,6.79-5.31,8.19-13.82,7.97-14.71,8.84-17.71,8.82-3.26-.04-5.79,2.08-7.45,2.9l-8.15,4.71v-32.78c9.08-5.24,10.62-5.56,13.09-9.49,4.83-7.67,7.88-16.78,8.72-27.92.24-3.19,3.14-6.05,4.59-4.49,3.6,3.84,2.15,14.92.59,26.32l13.27-7.66Z"/>
          <path class="cls-7" d="M681.83,1294.64v107.45l-93.06-53.72v-107.47l93.06,53.73ZM611.99,1334.13l44.66,25.79c0-13.02-8.27-30.63-14.63-38.86,2.04-1.13,3.33-3.6,3.33-7.15,0-7.03-4.96-15.57-11.04-19.08-6.06-3.5-11.03-.69-11.03,6.34,0,3.55,1.29,7.51,3.34,10.99h-.01c-6.35.89-14.64,8.94-14.64,21.96Z"/>
          <path class="cls-7" d="M656.65,1359.92l-44.66-25.79c0-13.01,8.29-21.06,14.64-21.96h.01c.37.64.76,1.26,1.18,1.86,1.83,2.61,4.07,4.85,6.5,6.24,2.44,1.41,4.67,1.77,6.51,1.27.42-.12.82-.27,1.19-.48,6.35,8.23,14.63,25.83,14.63,38.86Z"/>
          <path class="cls-7" d="M645.36,1313.92c0,3.55-1.29,6.02-3.33,7.15-.38.21-.77.37-1.19.48-1.84.51-4.07.14-6.51-1.27-2.43-1.4-4.67-3.63-6.5-6.24-.42-.6-.82-1.21-1.18-1.86-2.05-3.48-3.34-7.45-3.34-10.99,0-7.03,4.96-9.84,11.03-6.34,6.07,3.5,11.04,12.05,11.04,19.08Z"/>
        </g>
        <g>
          <polygon class="cls-3" points="588.77 1240.9 681.83 1187.16 774.91 1240.9 681.83 1294.64 588.77 1240.9"/>
          <line class="cls-3" x1="681.83" y1="1294.64" x2="681.83" y2="1402.09"/>
          <polyline class="cls-3" points="588.77 1240.9 588.77 1348.37 681.83 1402.09 774.91 1348.37 774.91 1240.9"/>
          <path class="cls-3" d="M626.64,1312.17c.37.64.76,1.26,1.18,1.86,1.83,2.61,4.07,4.85,6.5,6.24,2.44,1.41,4.67,1.77,6.51,1.27.42-.12.82-.27,1.19-.48,2.04-1.13,3.33-3.6,3.33-7.15,0-7.03-4.96-15.57-11.04-19.08-6.06-3.5-11.03-.69-11.03,6.34,0,3.55,1.29,7.51,3.34,10.99Z"/>
          <path class="cls-3" d="M626.63,1312.17c-6.35.89-14.64,8.94-14.64,21.96l44.66,25.79c0-13.02-8.27-30.63-14.63-38.86"/>
          <path class="cls-3" d="M751.58,1315.52c1.53-7.14,1.62-7.24,1.72-8.26.35-3.56-1.58-5.61-4.23-4.07l-13.27,7.66c1.56-11.4,3.01-22.48-.59-26.32-1.45-1.56-4.35,1.3-4.59,4.49-.84,11.14-3.89,20.25-8.72,27.92-2.47,3.93-4.01,4.24-13.09,9.49v32.78l8.15-4.71c1.65-.82,4.19-2.94,7.45-2.9,3,.02,3.89-.85,17.71-8.82,2.42-1.4,4.56-4.7,5.31-8.19,1.04-4.77,4.12-18.94,4.15-19.06"/>
        </g>
      </g>
    </g>
    <g>
      <g>
        <path class="cls-7" d="M1301.59,3c-27.68,56.91-6.4,91.65-39.55,124.68-13.67,13.63-31.87,12.67-45.41,26.21-12.03,12.01-8.95,28.31-21.26,40.62-31.98,31.97-22.13-29.09-51.73.51-8.55,8.55-10.06,22.3-21.73,33.98-28.99,28.99-34.82-.71-52.16-.71-18.65,0-36.24,20.48-48.57,40.25,15.61-76.68,29.06-142.71,36.87-181.11h.01c12.78-13.34,28.85-25.36,45.32-25.36,21.01,0,33.73,65.96,77.77,21.91,3.94-3.94,21.21-43.42,38.97-25.66,4.01,4.01,8.84,20.16,25.09,3.91,20.02-20.02,7.79-36.29,56.39-59.22Z"/>
        <circle class="cls-7" cx="1067.09" cy="43.28" r="8.72"/>
        <path class="cls-9" d="M1008.57,330.41c2.25,2.51,4.49,5.1,6.73,7.75,2.87,3.4,4,7.94,3.06,12.29l-3.59,16.64c-.84,3.87-3.47,7.1-7.09,8.72l-8.05,3.58c-.37.16-.74.3-1.12.4h0c-1.9.53-3.94.32-5.72-.59l-1.85-.95c-4.44-2.29-6.63-7.36-5.36-12.2,1.59-6.08,2.57-14.64-1.32-21.98-6.91-13.06-42.61-26.11-54.52-36.47-3.04-2.65-5.75-4.98-8.1-6.96-6.89-5.81-15.28-9.53-24.2-10.74-2.19-.29-4.81-.64-7.77-1.02,3.17-10.79,6-22.52,8.24-35.18,36.42,13.3,74.89,36.82,110.66,76.72Z"/>
        <path class="cls-7" d="M897.91,253.69c-2.25,12.66-5.07,24.39-8.24,35.18-14.44-1.85-36.66-4.46-53.68-5.44,4.87,23.72,5.96,51.19,22.74,73.45,3.57,4.74,6.49,10.08,8.86,15.92-6.87,47.74-72.89,52.93-109.73,29.47-21.77-14.6-48.23-39.22-65.8-60.65l-21.36,51.74c-14.42,7.87-31.21-2.68-37.09-15.24h0c3.69-9.9,7.95-21.65,11.49-32.28,7.22-21.64,21.26-51.83,48.17-75.04,4.59,3.56,9.81,5.45,15.75,4.6,12.78,27.36,61.95,2.72,54.87-33.38,29.46-5.23,79.45-8.25,134.03,11.67Z"/>
        <path class="cls-8" d="M867.58,372.81c25.64,63.32-14.66,184.5-13.99,215.86.73,34.26,4.04,176.11,4.04,176.11-1.48,4.38-6.78,7.36-13.61,9.02-9.61,2.33-22.26,2.03-31.51-.66-7.17-2.06-12.3-5.57-12.43-10.38,7.63-76.68,2.43-217.25,8.4-308.74l-37.02,91.4c-4.64,11.47-7.62,23.53-8.9,35.84-5.1,49.24-14.68,92.3-26.09,147.17-.26,1.26-.69,2.4-1.26,3.4-6.43,11.37-31.03,6.65-42.88-3.16-4.35-3.61-6.99-7.91-6.35-12.36,16.52-61.16,24.58-96.57,27.38-151.25.64-12.56,2.59-25.06,6.24-37.09l38.24-125.71c36.84,23.46,102.87,18.27,109.73-29.47Z"/>
        <path class="cls-8" d="M844.03,773.8c.3,11.96,4.84,22.62,4.84,35,0,5.91-4.93,10.69-10.84,10.45-20.56-.87-24.51-9.71-24.51-9.71-4.27-9.8-1.55-24.49-.99-36.38h0c9.25,2.68,21.9,2.98,31.51.64Z"/>
        <path class="cls-9" d="M763.88,242.02c7.08,36.1-42.09,60.74-54.87,33.38-5.94.85-11.17-1.04-15.75-4.6-4.69-3.64-8.7-9.01-12.18-14.98-5.28-9.08-12.36-25.97-13.19-41.94,8.94,5.62,21.89,5.01,36.75-5.23,3.59,6.1,8.77,12.66,14.68,19.05,1.73-11.85,17.84-13.78,10.86,10.84,1.85,1.71,3.71,3.37,5.56,4.99,1.63,1.41,3.26,2.78,4.87,4.09,4.51-1.49,12.52-3.7,23.27-5.6Z"/>
        <path class="cls-8" d="M667.89,213.88c-4.56-2.86-8.08-7.34-10.28-12.99,12.48-1.11,13.45-12.97,22.2-18.05,2.55-1.48,6.11-2.18,9.05-1.72,3.57-7.78,14.71-7.91,20.53-1.95,8.03-2.69,13.1,1.98,15.63,9.59,5.92.67,8.88,5.66,6.82,11.15,4.64-.15,14.28,9.39,6.68,16.79,3.21,3.98,6.6,17.52-2.77,26.83-1.85-1.61-3.71-3.28-5.56-4.99,6.97-24.62-9.13-22.7-10.86-10.84-5.91-6.39-11.09-12.95-14.68-19.05-14.86,10.24-27.81,10.85-36.75,5.23Z"/>
        <path class="cls-8" d="M735.22,731.84c.51,9.31-2.65,12.69-10.36,15.53-11.69,4.31-12.92,13.23-21.84,21.84-6.96,6.72-19.91,6.32-32.14.71-4.84-2.22-5.82-8.68-1.77-12.13,11.21-9.55,18.69-20.72,23.23-29.1,11.85,9.81,36.45,14.53,42.88,3.16Z"/>
        <path class="cls-9" d="M670.69,393.37l-2.39,5.77c-5.1,12.35-11.75,24.02-19.92,34.59-18,23.32-41.38,48.25-66.18,77.75-.39-.32-4.58,11.34-4.31,20.96.11,3.98-2.93,7.31-6.89,7.57-4.29.28-9.82.54-15.1.46-7.44-.11-13.09-6.67-12.16-14.06,1.43-11.4,8.32-22.94,8.32-22.94,0,0-17.95-6.08-9.62-9.93,3.99-1.84,12.72-2.88,20.76-3.45,4.66-.34,8.87-2.9,11.31-6.89l42.48-69.41c5.47-8.95,10.1-18.39,13.81-28.2.88-2.31,1.82-4.83,2.8-7.46,5.88,12.56,22.66,23.1,37.09,15.24Z"/>
      </g>
      <g>
        <path class="cls-3" d="M633.6,378.12c3.69-9.89,7.95-21.64,11.49-32.27,7.22-21.64,21.26-51.83,48.17-75.04"/>
        <path class="cls-3" d="M998.51,379.79c-1.9.52-3.94.31-5.72-.6l-1.85-.95c-4.44-2.29-6.63-7.36-5.36-12.2,1.59-6.08,2.57-14.64-1.32-21.98-6.91-13.06-42.61-26.11-54.52-36.47-3.04-2.65-5.75-4.98-8.1-6.96-6.89-5.81-15.28-9.53-24.2-10.74-2.19-.29-4.81-.64-7.77-1.02-14.44-1.85-36.66-4.46-53.68-5.44,4.87,23.72,5.96,51.19,22.74,73.45,3.57,4.74,6.49,10.08,8.86,15.92,25.64,63.32-14.66,184.5-13.99,215.86.73,34.26,4.04,176.11,4.04,176.11-1.48,4.38-6.78,7.36-13.61,9.02-9.61,2.33-22.26,2.03-31.51-.66-7.17-2.06-12.3-5.57-12.43-10.38,7.63-76.68,2.43-217.25,8.4-308.74l-37.02,91.4c-4.64,11.47-7.62,23.53-8.9,35.84-5.1,49.24-14.68,92.3-26.09,147.17-.26,1.26-.69,2.4-1.26,3.4-6.43,11.37-31.03,6.65-42.88-3.16-4.35-3.61-6.99-7.91-6.35-12.36,16.52-61.16,24.58-96.57,27.38-151.25.64-12.56,2.59-25.06,6.24-37.09l38.24-125.71c-21.77-14.6-48.23-39.22-65.8-60.65l-21.36,51.74-2.39,5.77c-5.1,12.35-11.75,24.02-19.92,34.59-18,23.32-41.38,48.25-66.18,77.75-.39-.32-4.58,11.34-4.31,20.96.11,3.98-2.93,7.31-6.89,7.57-4.29.28-9.82.54-15.1.46-7.44-.11-13.09-6.67-12.16-14.06,1.43-11.4,8.32-22.94,8.32-22.94,0,0-17.95-6.08-9.62-9.93,3.99-1.84,12.72-2.88,20.76-3.45,4.66-.34,8.87-2.9,11.31-6.89l42.48-69.41c5.47-8.95,10.1-18.39,13.81-28.2.88-2.31,1.82-4.83,2.8-7.46"/>
        <path class="cls-3" d="M735.75,243.53c9.37-9.32,5.99-22.86,2.77-26.83,7.6-7.39-2.04-16.94-6.68-16.79,2.05-5.49-.9-10.49-6.82-11.15-2.53-7.61-7.6-12.27-15.63-9.59-5.81-5.96-16.96-5.84-20.53,1.95-2.93-.46-6.5.24-9.05,1.72-8.75,5.08-9.73,16.95-22.2,18.05,2.2,5.65,5.73,10.13,10.28,12.99,8.94,5.62,21.89,5.01,36.75-5.23,3.59,6.1,8.77,12.66,14.68,19.05,1.73-11.85,17.84-13.78,10.86,10.84,1.85,1.71,3.71,3.37,5.56,4.99,1.63,1.41,3.26,2.78,4.87,4.09,4.51-1.49,12.52-3.7,23.27-5.6,29.46-5.23,79.45-8.25,134.03,11.67,36.42,13.3,74.89,36.82,110.66,76.72,2.25,2.51,4.49,5.1,6.73,7.75,2.87,3.4,4,7.94,3.06,12.29l-3.59,16.64c-.84,3.87-3.47,7.1-7.09,8.72l-8.05,3.58c-.37.16-.74.3-1.12.4"/>
        <path class="cls-3" d="M667.89,213.81v.06c.83,15.97,7.91,32.86,13.19,41.94,3.47,5.97,7.49,11.34,12.18,14.98,4.59,3.56,9.81,5.45,15.75,4.6,12.78,27.36,61.95,2.72,54.87-33.38-.01-.06-.03-.14-.04-.2"/>
        <path class="cls-3" d="M692.34,728.68c-4.55,8.38-12.03,19.55-23.23,29.1-4.05,3.45-3.06,9.91,1.77,12.13,12.23,5.61,25.18,6.01,32.14-.71,8.92-8.61,10.14-17.53,21.84-21.84,7.71-2.84,10.86-6.22,10.36-15.53"/>
        <path class="cls-3" d="M812.52,773.16c-.56,11.89-3.28,26.58.99,36.38,0,0,3.95,8.84,24.51,9.71,5.91.25,10.84-4.54,10.84-10.45,0-12.38-4.53-23.04-4.84-35"/>
        <path class="cls-3" d="M633.6,378.12h0c5.88,12.57,22.66,23.12,37.09,15.25"/>
        <path class="cls-3" d="M889.67,288.89h0c3.17-10.8,6-22.54,8.24-35.19.02-.14.05-.29.08-.43"/>
        <path class="cls-3" d="M757.85,402.28c36.84,23.46,102.87,18.27,109.73-29.47"/>
        <path class="cls-3" d="M914.9,790.36s43.28-212.49,83.39-409.53l.21-1.04h0"/>
        <path class="cls-3" d="M1021.17,268.54c15.61-76.68,29.06-142.71,36.87-181.11,4.6-22.59,7.25-35.61,7.25-35.61"/>
        <path class="cls-3" d="M1004.57,350.05c1.34-6.58,2.68-13.13,4-19.63,4.31-21.15,8.52-41.87,12.59-61.87"/>
        <circle class="cls-3" cx="1067.09" cy="43.28" r="8.72" transform="translate(62.88 406.75) rotate(-22.22)"/>
        <path class="cls-3" d="M1021.16,268.55s0-.01.01-.01c12.34-19.76,29.93-40.25,48.57-40.25,17.34,0,23.17,29.7,52.16.71,11.67-11.68,13.18-25.43,21.73-33.98,29.61-29.6,19.75,31.47,51.73-.51,12.3-12.32,9.23-28.61,21.26-40.62,13.54-13.54,31.75-12.58,45.41-26.21,33.14-33.03,11.86-67.77,39.55-124.68-48.6,22.93-36.37,39.2-56.39,59.22-16.25,16.25-21.08.1-25.09-3.91-17.75-17.75-35.02,21.72-38.97,25.66-44.04,44.05-56.76-21.91-77.77-21.91-16.46,0-32.54,12.03-45.32,25.36"/>
      </g>
    </g>
    <g>
      <g>
        <path class="cls-5" d="M573.89,575.47c5.04,2.16,7.69,7.71,6.37,13.02-4.28,17.19-11.49,23.15-26.37,38.38-17.15,17.55-23.78,54.91-36.54,90.01-6.43,17.68-19.14,39.11-32.62,60.57-.47-26.28-5.66-43.07-13.7-55.76,10.81-13.59,20.75-27.89,25.86-37.67,10.08-19.32,29.36-55.38,34.43-67.64,3.75-9.08-.32-17.95-2.7-21.94-.86-1.45-.82-3.25.08-4.66,1.03-1.64,3.01-2.45,4.89-1.97,2.72.69,6.52,2.34,9.11,6.24,1.71,2.59,5.15,3.16,7.59,1.23,7.37-5.88,14.4-14.24,17.79-18.51,1.33-1.65,3.59-2.25,5.55-1.42.09.04.18.09.27.12Z"/>
        <path class="cls-7" d="M551.33,935.56c2.9,11.24,1.26,16.33-.57,22.33-1.83,6.01-4.57,17.52-5.79,26.03-.68,4.75-4.93,8.16-9.73,7.84h-.19c-3.95-.27-7.32-3.03-8.33-6.87l-.32-1.26c5.82-.05,8.22-4.9,9.71-10.78,1.53-6.03,1.76-11.52-3.8-14.31-1.59-.8-3.35-1.68-5.29-2.63h0c1.17-7.78,4.29-18.73,7.09-24.2,5.22-10.14,14.36-7.2,17.22,3.85Z"/>
        <path class="cls-5" d="M532.3,958.55c5.57,2.79,5.33,8.29,3.8,14.31-1.49,5.88-3.89,10.73-9.71,10.78-.19,0-.39,0-.58-.01-5.86-.26-13.81-.91-23.08-2.44,5.37-10.59,6.52-22.07,3.28-35.31,8.2,3.78,15.32,7.22,21.01,10.04,1.93.96,3.7,1.84,5.29,2.63Z"/>
        <path class="cls-8" d="M506.01,945.88c3.25,13.24,2.1,24.73-3.28,35.31-.97,1.9-2.06,3.78-3.3,5.63-25.99-8.83-58.7-27.04-59.48-27.49-4.49,5.16-10.64,11.47-18.59,17.99h-.01c-.02-3.79-.17-7.63-.45-11.51-.02-.28-.04-.57-.06-.85-1.6-20.38-1.63-36.65-.4-50.33.85-.55,1.69-1.09,2.55-1.62,30.67,9.76,60.79,22.59,83.03,32.86Z"/>
        <path class="cls-7" d="M420.67,912.27c-.09.77-.16,1.57-.24,2.36-1.24,13.68-1.2,29.95.4,50.33.02.28.04.57.06.85-38.39,6.56-89.32-5.43-100.97-43.92,19.68-21.05,17.24-60.66,12.56-87.64-15.64,9.54-28.97,19.38-41.15,29.13-7.81-8.08-12.04-18.61-13.8-29.2,12.64-10.98,28.41-24.34,45.37-37.9,16.09-12.87,35.11-19.85,53.29-24.47,10.75-2.72,21.21-4.62,30.62-6.42,15.05-2.86,27.36-5.47,33.78-10.8,8.51-7.06,19.89-19.64,30.44-32.92,8.04,12.69,13.23,29.49,13.7,55.76-13.27,21.13-27.29,42.27-36.79,59.89-13.34,24.71-23.95,42.47-27.29,74.94Z"/>
        <path class="cls-7" d="M420.67,912.27c.77.25,1.55.48,2.31.74-.86.54-1.7,1.07-2.55,1.62.08-.8.15-1.59.24-2.36Z"/>
        <path class="cls-8" d="M330.1,1039.04c-3.31-4.11-5.86-8.77-7.71-13.58-54.64-17.73-25.38-80.62-3.46-102.53.34-.34.68-.69.99-1.03,11.65,38.49,62.59,50.48,100.97,43.92.28,3.88.43,7.72.45,11.51.43,65.1-36.44,116.35-62.34,152.77-27.51,38.69-76.57,139.99-76.57,139.99,0,0-3.47-2.25-8.68-5.38-7.53-4.55-18.7-10.96-28.21-15.15h0c-1.88-.84-3.69-1.58-5.39-2.2,17.15-44.67,51.45-97.32,62.22-116.86,9.37-17.01,15.72-60.9,27.73-91.45Z"/>
        <path class="cls-5" d="M419.87,718.65c6.08,20.09-1.84,36.71-13.06,46.75-9.4,1.79-19.87,3.7-30.62,6.42,1.05-3.88,2.13-8.25,3.12-12.99,8.81-4.09,17.77-9.99,26.65-18.87,6.71-6.71,11.34-14.11,13.9-21.3h.01Z"/>
        <path class="cls-11" d="M398.76,682.24c20.59.8,27.69,17.94,21.11,36.41-2.56,7.19-7.19,14.59-13.9,21.3-8.88,8.88-17.84,14.78-26.65,18.87-20.54,9.54-40.22,9.25-55.89,13.94-27.87,8.34-61.31,60.44-97.15,24.6-14.09-14.09-9.58-38.87,5.74-54.17,37.35-37.35,76.81,17.09,104.62-10.72,14.94-14.94,23.16-51.73,62.13-50.22Z"/>
        <path class="cls-5" d="M277.54,834.19c1.76,10.59,5.99,21.12,13.8,29.2-4.67,3.73-9.18,7.46-13.58,11.15-6.33,5.32-11.02,12.34-13.45,20.25-2.04,6.58-4.47,14.65-7.3,24.38-10.36,35.64-22.79,50.96-48.48,54.69-4.74.69-8.48,2.98-11.43,6.23-3.1,3.43-8.73.84-8-3.73,2.92-18.37,14.42-24.37,26.68-26.33,3.94-.63,6.81-4.06,6.92-8.05.54-21.26,5.03-38.96,10.1-52.38,5.92-15.68,15.64-29.66,28.15-40.83,4.56-4.06,10.17-9.03,16.59-14.59Z"/>
        <path class="cls-5" d="M245.54,1249.55c9.51,4.19,20.68,10.61,28.21,15.15-26.36,40.65-23.86,62.75-13.53,78.38-33.12-4.3-9.33-33.29-36.85-37.6,10.6-20.03,15.56-38.97,22.17-55.94Z"/>
        <path class="cls-7" d="M223.37,1305.49c27.52,4.31,3.73,33.3,36.85,37.6,2.35,3.56,5.12,6.79,8.03,9.82,2.37,2.48,1.61,6.61-1.5,8.05-20.73,9.61-36.55-5.2-46.93-26.37-3.76-7.67-3.43-16.74.83-24.16.95-1.65,1.86-3.31,2.73-4.94Z"/>
      </g>
      <g>
        <path class="cls-3" d="M320.42,992.33c-3.02,6.78-2.91,20.44,1.98,33.12,1.85,4.81,4.4,9.48,7.71,13.58,4.88,6.03,11.43,10.83,19.96,13.07"/>
        <path class="cls-3" d="M245.54,1249.55c9.51,4.19,20.68,10.61,28.21,15.15,5.21,3.14,8.68,5.38,8.68,5.38,0,0,49.06-101.31,76.57-139.99,25.9-36.42,62.77-87.67,62.34-152.77-.02-3.79-.17-7.63-.45-11.51-.02-.28-.04-.57-.06-.85-1.6-20.38-1.63-36.65-.4-50.33.08-.8.15-1.59.24-2.36,3.33-32.47,13.95-50.23,27.29-74.94,9.5-17.62,23.51-38.76,36.79-59.89,13.48-21.46,26.19-42.89,32.62-60.57,12.76-35.1,19.39-72.46,36.54-90.01,14.88-15.23,22.09-21.18,26.37-38.38,1.32-5.32-1.33-10.86-6.37-13.02-.09-.03-.18-.08-.27-.12-1.96-.83-4.21-.24-5.55,1.42-3.39,4.27-10.41,12.63-17.79,18.51-2.44,1.93-5.88,1.36-7.59-1.23-2.59-3.9-6.39-5.56-9.11-6.24-1.88-.48-3.86.32-4.89,1.97-.89,1.42-.93,3.21-.08,4.66,2.37,4,6.45,12.86,2.7,21.94-5.07,12.26-24.35,48.32-34.43,67.64-5.1,9.78-15.05,24.07-25.86,37.67-10.55,13.27-21.93,25.86-30.44,32.92-6.42,5.33-18.73,7.94-33.78,10.8-9.4,1.79-19.87,3.7-30.62,6.42-18.18,4.62-37.2,11.6-53.29,24.47-16.96,13.56-32.73,26.92-45.37,37.9-6.43,5.57-12.04,10.53-16.59,14.59-12.51,11.17-22.22,25.15-28.15,40.83-5.07,13.42-9.56,31.12-10.1,52.38-.11,3.99-2.98,7.42-6.92,8.05-12.26,1.96-23.76,7.96-26.68,26.33-.73,4.57,4.9,7.16,8,3.73,2.96-3.26,6.7-5.55,11.43-6.23,25.68-3.73,38.12-19.05,48.48-54.69,2.83-9.74,5.26-17.81,7.3-24.38,2.44-7.91,7.12-14.93,13.45-20.25,4.41-3.7,8.91-7.43,13.58-11.15,12.18-9.76,25.51-19.59,41.15-29.13,4.67,26.97,7.11,66.59-12.56,87.64-.31.34-.64.69-.99,1.03-21.92,21.91-51.17,84.8,3.46,102.53"/>
        <path class="cls-3" d="M330.1,1039.04c-12,30.55-18.35,74.44-27.73,91.45-10.77,19.54-45.07,72.18-62.22,116.86,1.71.62,3.51,1.36,5.39,2.19"/>
        <path class="cls-3" d="M319.92,921.89c11.65,38.49,62.59,50.48,100.97,43.92"/>
        <path class="cls-3" d="M471.04,721.68c8.04,12.69,13.23,29.49,13.7,55.76"/>
        <path class="cls-3" d="M277.54,834.19c1.76,10.59,5.99,21.12,13.8,29.2"/>
        <path class="cls-3" d="M420.43,914.64c.85-.55,1.69-1.09,2.55-1.62,0-.01.01-.01.01-.01"/>
        <path class="cls-3" d="M421.36,977.32c7.95-6.52,14.1-12.83,18.59-17.99.78.45,33.5,18.66,59.48,27.49,1.24-1.85,2.33-3.73,3.3-5.63,5.37-10.59,6.52-22.07,3.28-35.31"/>
        <path class="cls-3" d="M502.73,981.19c9.27,1.53,17.23,2.18,23.08,2.44.19.01.39.01.58.01,5.82-.05,8.22-4.9,9.71-10.78,1.53-6.03,1.76-11.52-3.8-14.31-1.59-.8-3.35-1.68-5.29-2.63-5.68-2.82-12.81-6.25-21.01-10.04-22.23-10.27-52.36-23.11-83.03-32.86-.76-.26-1.54-.49-2.31-.74h-.01"/>
        <path class="cls-3" d="M527.02,955.9c1.17-7.77,4.29-18.72,7.09-24.19,5.22-10.14,14.36-7.2,17.22,3.85,2.9,11.24,1.26,16.33-.57,22.33-1.83,6.01-4.57,17.52-5.79,26.03-.68,4.75-4.93,8.16-9.73,7.84h-.19c-3.95-.27-7.32-3.03-8.33-6.87l-.32-1.26"/>
        <path class="cls-3" d="M245.54,1249.54h0c-6.61,16.98-11.57,35.91-22.17,55.95-.87,1.63-1.78,3.29-2.73,4.94-4.26,7.42-4.59,16.49-.83,24.16,10.38,21.17,26.2,35.98,46.93,26.37,3.12-1.44,3.88-5.57,1.5-8.05-2.91-3.03-5.67-6.27-8.03-9.82-10.33-15.64-12.83-37.73,13.53-78.38"/>
        <path class="cls-3" d="M223.37,1305.49c27.52,4.31,3.73,33.3,36.85,37.6"/>
        <path class="cls-3" d="M376.2,771.82c1.05-3.88,2.13-8.25,3.12-12.99"/>
        <path class="cls-3" d="M406.82,765.4c11.22-10.04,19.14-26.66,13.06-46.75"/>
        <path class="cls-3" d="M379.32,758.82c-20.54,9.54-40.22,9.25-55.89,13.94-27.87,8.34-61.31,60.44-97.15,24.6-14.09-14.09-9.58-38.87,5.74-54.17,37.35-37.35,76.81,17.09,104.62-10.72,14.94-14.94,23.16-51.73,62.13-50.22,20.59.8,27.69,17.94,21.11,36.41-2.56,7.19-7.19,14.59-13.9,21.3-8.88,8.88-17.84,14.78-26.65,18.87Z"/>
      </g>
    </g>
    <polyline class="cls-3" points="1108.24 1381.83 1088.04 1401.73 1067.84 1358.5 1047.64 1378.4 1027.44 1335.18 1007.24 1355.08"/>
    <polyline class="cls-3" points="1295.51 740.83 1315.7 760.73 1335.9 717.51 1356.1 737.41 1376.3 694.18 1396.5 714.08"/>
    <polyline class="cls-3" points="210.15 591.25 189.95 611.15 169.75 567.93 149.56 587.83 129.36 544.61 109.15 564.51"/>
    <path class="cls-6" d="M1176.2,739.11c0-9.86-7.99-17.85-17.85-17.85s-17.85,7.99-17.85,17.85,7.99,17.85,17.85,17.85,17.85-7.99,17.85-17.85Z"/>
    <path class="cls-6" d="M843.89,1437.45c0-9.86-7.99-17.85-17.85-17.85s-17.85,7.99-17.85,17.85,7.99,17.85,17.85,17.85,17.85-7.99,17.85-17.85Z"/>
    <path class="cls-6" d="M88.24,1049.23c0-9.86-7.99-17.85-17.85-17.85s-17.85,7.99-17.85,17.85,7.99,17.85,17.85,17.85,17.85-7.99,17.85-17.85Z"/>
    <g>
      <line class="cls-3" x1="394.73" y1="1337.24" x2="428.44" y2="1317.78"/>
      <line class="cls-3" x1="428.44" y1="1337.24" x2="394.73" y2="1317.78"/>
    </g>
    <g>
      <line class="cls-3" x1="1094.56" y1="448.92" x2="1128.27" y2="429.45"/>
      <line class="cls-3" x1="1128.27" y1="448.92" x2="1094.56" y2="429.45"/>
    </g>
    <g>
      <line class="cls-3" x1="527.36" y1="369.29" x2="561.07" y2="349.83"/>
      <line class="cls-3" x1="561.07" y1="369.29" x2="527.36" y2="349.83"/>
    </g>
    <g>
      <path class="cls-7" d="M1513.54,898.04l-34.01,19.64-2.3-1.32c-3.65-2.11-5.87-4.87-6.72-7.82-.57-2-2.18-3.9-4.86-5.45-4.37-2.53-10.49-3.42-16.11-2.7-3.41.44-6.63,1.46-9.17,3.09-5.94,3.83-5.86,9.77.18,13.53,2.86,1.78,6.53,2.83,10.36,3.14,5.03.4,9.65,1.84,13.25,3.92l2.14,1.24-32.63,18.83-82.43-47.59,32.62-18.84-4.61-2.67c-3.6-2.07-8.21-3.51-13.25-3.92-1.27-.11-2.53-.29-3.75-.56-2.43-.53-4.71-1.39-6.61-2.57-3.05-1.9-4.58-4.36-4.58-6.82s1.46-4.81,4.4-6.71c6.73-4.32,18.26-4.46,25.28-.41,2.68,1.55,4.29,3.46,4.86,5.46.85,2.94,3.06,5.71,6.72,7.81l4.77,2.76,34.02-19.64,31.97,18.46,5.21-3.01c3.6-2.07,6.1-4.74,6.8-7.64.53-2.21,2.33-4.33,5.42-5.99,6.51-3.48,16.81-3.54,23.42-.11,3.78,1.97,5.72,4.62,5.8,7.3.09,2.64-1.61,5.29-5.09,7.3-2.04,1.18-4.45,2-7.02,2.47-.8.15-1.6.26-2.43.34-5.1.47-9.88,1.75-13.54,3.87l-5.35,3.09,37.24,21.49Z"/>
      <path class="cls-3" d="M1509.73,859.47c-.09-2.68-2.02-5.33-5.8-7.3-6.61-3.43-16.9-3.37-23.42.11-3.08,1.65-4.89,3.77-5.42,5.99-.7,2.9-3.2,5.57-6.8,7.64l-5.21,3.01-31.97-18.46-34.02,19.64-4.77-2.76c-3.65-2.11-5.87-4.87-6.72-7.81-.57-2-2.18-3.91-4.86-5.46-7.02-4.05-18.55-3.91-25.28.41-2.93,1.89-4.4,4.3-4.4,6.71s1.53,4.92,4.58,6.82c1.9,1.18,4.18,2.04,6.61,2.57,1.23.27,2.48.45,3.75.56,5.04.41,9.65,1.85,13.25,3.92l4.61,2.67-32.62,18.84,82.43,47.59,32.63-18.83-2.14-1.24c-3.6-2.08-8.22-3.52-13.25-3.92-3.83-.31-7.5-1.35-10.36-3.14-6.04-3.76-6.13-9.7-.18-13.53,2.54-1.63,5.76-2.65,9.17-3.09,5.62-.72,11.74.17,16.11,2.7,2.68,1.55,4.29,3.45,4.86,5.45.85,2.96,3.06,5.72,6.72,7.82l2.3,1.32,34.01-19.64-37.24-21.49,5.35-3.09c3.66-2.12,8.44-3.4,13.54-3.87.83-.09,1.63-.19,2.43-.34,2.57-.47,4.98-1.29,7.02-2.47,3.48-2.01,5.18-4.65,5.09-7.3Z"/>
    </g>
  </g>
</svg>