<svg xmlns="http://www.w3.org/2000/svg" xmlns:xlink="http://www.w3.org/1999/xlink" viewBox="0 0 254.47 195.45"><defs><style>.cls-1,.cls-6{fill:none;}.cls-2{fill:#969a9e;}.cls-3{fill:url(#New_Pattern_Swatch_3);}.cls-4{fill:#fff;}.cls-5{fill:#373a3a;}.cls-6{stroke:#373a3a;stroke-linecap:round;stroke-linejoin:round;stroke-width:3px;}.cls-7{fill:#3232FC;}</style><pattern id="New_Pattern_Swatch_3" data-name="New Pattern Swatch 3" width="16" height="19" patternTransform="translate(-2123.38 -47.85) scale(0.4)" patternUnits="userSpaceOnUse" viewBox="0 0 16 19"><rect class="cls-1" width="16" height="19"/><polygon class="cls-2" points="16 22.18 10.5 19 16 15.82 21.5 19 16 22.18"/><polygon class="cls-2" points="8 12.68 2.5 9.5 8 6.33 13.5 9.5 8 12.68"/><polygon class="cls-2" points="0 22.18 -5.5 19 0 15.82 5.5 19 0 22.18"/><polygon class="cls-2" points="16 3.18 10.5 0 16 -3.17 21.5 0 16 3.18"/><polygon class="cls-2" points="0 3.18 -5.5 0 0 -3.17 5.5 0 0 3.18"/></pattern></defs><g id="Layer_2" data-name="Layer 2"><g id="icons_design" data-name="icons design"><path class="cls-3" d="M227.39,77.48c-7.72,5.4-6.66,14.14-15.24,18a35.59,35.59,0,0,1-5.85,2c5.07-11-10-22.1-19.09-13a38.39,38.39,0,0,0-8.32,11.9c-4.11,5.73-8.19,11.57-10,18.15a9,9,0,0,0,1.28,7.9,80.38,80.38,0,0,0-16.33,13.36c-6.47,6.94-14.1,11.08-22.57,15.18-10.52,5.08-21.13,9.95-32,14.3q-8.79,3.54-17.72,6.73l-1.69.6c5.68-6-1.31-17.44-10.27-15.55a155.16,155.16,0,0,0-20.18,6.12,9.53,9.53,0,0,0-11.46-10c-4.79.89-9.5,2.21-14.23,3.39-4.49,1.12-9.46,1.77-12.65,5.39l.31.08a6.15,6.15,0,0,0,.92,9.45c4,3.09,9.9,2.44,14.7,2.1,1.79-.13,3.58-.3,5.37-.52-.79,4.08,1.61,8.67,6.92,8.65a121.39,121.39,0,0,0,17-1.21c-1.86,4.74.09,11.41,5.82,13.46,10.88,3.87,22.62-.92,32.93-4.48Q111,184,126.44,177.48c10.07-4.23,20.51-8.45,29.79-14.29,8.8-5.54,14.67-14.22,23.3-19.79,18.66-12,40.39-19.38,60-29.64,9.55-5,17.32-14.48,14.2-25.82C250.58,76.4,237.52,70.4,227.39,77.48Z"/><g id="hand"><path class="cls-4" d="M61.84,167.85a19.62,19.62,0,0,0-1.49,1.65,7.4,7.4,0,0,0,8.14,11.66l21.26-7.24a98.23,98.23,0,0,0,17.33-7.84l56.32-32.27a70.41,70.41,0,0,0,30.4-35,17.22,17.22,0,0,1,1.1-2.29c4.46-7.83,14.17-12.67,22-17.2l8.83-5.1c-.3-10.17-3.89-21.27-9.53-31.2-6.12-10.75-14.63-20.16-24.07-25.6a38.13,38.13,0,0,0-6.23-2.93s-25.2,15.4-27,16.44c-9.6,5.59-18.57,9.62-30.22,9.34-22.6-.55-30-.06-40.63,2.56C78,45.27,68.68,47.85,53.16,47.46a7,7,0,0,0-6.33,10.29C53,69.21,68.07,71.18,80.53,67c6.77-2.27,14.55-2,24.09-1.33a1.34,1.34,0,0,1,.63,2.46C60.91,95.93,48,104.77,35,114.42c-11.24,5.92-22.91,8.16-31,14.8a6.73,6.73,0,0,0,5.31,11.83l16-2.5c-8.58,2.67-15,6.34-20,11.47A7.54,7.54,0,0,0,12,162.69c5.74-1,11.15-2,17.13-3a28,28,0,0,0-2.71,3A7.76,7.76,0,0,0,34.7,175C44.63,172,53.32,169.82,61.84,167.85Z"/><path class="cls-5" d="M168.4,15c-4.9,2.84-8.3,8.27-9.46,15.85,1.79-1,27-16.44,27-16.44a29.37,29.37,0,0,0-4.06-1.15A18.8,18.8,0,0,0,168.4,15Z"/><path class="cls-2" d="M225.76,74.17c0,.48,0,1,0,1.43v.76c-.23,10.32-3.89,17.59-9.84,21L235.47,86.1c6.09-3.52,9.85-11,9.84-21.77,0-10.55-3.64-22.24-9.55-32.64C229.66,21,221.13,11.54,211.7,6.09S194,.23,187.92,3.74L168.39,15h0c3.71-2.16,8.33-2.81,13.47-1.74a29.37,29.37,0,0,1,4.06,1.15,38.13,38.13,0,0,1,6.23,2.93c9.44,5.44,18,14.85,24.07,25.6C221.87,52.9,225.39,64,225.76,74.17Z"/><path class="cls-5" d="M216.93,79.27c-7.86,4.53-17.61,9.35-22,17.2,8.2,4,15.57,4.07,21,.91,5.95-3.43,9.61-10.7,9.84-21V75.6c0-.47,0-.95,0-1.43Z"/><path class="cls-6" d="M225.76,74.17l-8.83,5.1c-7.86,4.53-17.57,9.37-22,17.2a17.22,17.22,0,0,0-1.1,2.29,70.41,70.41,0,0,1-30.4,35.05l-56.32,32.27a98.23,98.23,0,0,1-17.33,7.84l-21.26,7.24a7.4,7.4,0,0,1-8.14-11.66,21.32,21.32,0,0,1,1.49-1.65c6.39-6.38,16.7-9.35,26.14-12.18l29.47-16.74"/><path class="cls-6" d="M185.93,14.44s-25.2,15.4-27,16.44c-9.6,5.6-18.57,9.62-30.22,9.34-22.6-.55-30-.06-40.63,2.56C78,45.27,68.68,47.85,53.16,47.46a7,7,0,0,0-6.33,10.29C53,69.21,68.07,71.18,80.53,67c6.77-2.27,14.55-2,24.09-1.33a1.34,1.34,0,0,1,.63,2.46C60.91,95.93,48,104.77,35,114.42c-11.24,5.92-22.91,8.16-31,14.8a6.73,6.73,0,0,0,5.31,11.83l16-2.5"/><path class="cls-6" d="M61.84,167.85c-8.52,2-17.21,4.19-27.14,7.11a7.76,7.76,0,0,1-8.28-12.26,28,28,0,0,1,2.71-3c5.52-5.26,13.62-9,25.22-12.21a38.4,38.4,0,0,0,7.73-3.06c12.12-6.45,20.8-11.11,34.24-17.33"/><path class="cls-6" d="M29.13,159.73c-6,1-11.39,1.93-17.13,3A7.54,7.54,0,0,1,5.27,150c5-5.13,11.42-8.8,20-11.47,2.82-.88,5.88-1.65,9.19-2.33a22.39,22.39,0,0,0,8.09-3.39c10.64-7.17,21.69-13.41,35.91-21.16"/><path class="cls-6" d="M158.94,30.88c1.16-7.58,4.56-13,9.46-15.85a18.8,18.8,0,0,1,13.47-1.74,29.37,29.37,0,0,1,4.06,1.15,38.13,38.13,0,0,1,6.23,2.93c9.44,5.44,18,14.85,24.07,25.6,5.64,9.93,9.16,21,9.53,31.2,0,.48,0,1,0,1.43v.76c-.23,10.32-3.89,17.58-9.84,21-5.47,3.16-12.84,3.06-21-.91"/><path class="cls-6" d="M168.39,15,187.92,3.74C194,.23,202.41.72,211.7,6.09s18,14.86,24.06,25.6c5.91,10.4,9.56,22.09,9.55,32.64,0,10.72-3.75,18.25-9.84,21.77L215.94,97.38"/></g><g id="smile_laught_face_emotion" data-name="smile laught face emotion"><path class="cls-7" d="M168.49,47.55c0,12.88-4.43,27.09-11.64,39.82C149.4,100.52,139,112,127.41,118.7c-11.34,6.55-21.6,7.18-29,2.88s-12-13.5-12-26.59c0-26.2,18.41-58.07,41.1-71.16,11.32-6.54,21.55-7.17,29-2.93l.47.27C164.06,25.57,168.49,34.69,168.49,47.55ZM151.77,62,103.05,90.11c.88,5.46,3.34,9.36,6.89,11.41,4.47,2.58,10.64,2.21,17.47-1.72S140.62,88.86,145.11,81A54.09,54.09,0,0,0,151.77,62Z"/><path class="cls-5" d="M136,9.15,156.37,20.9c-7.4-4.24-17.63-3.61-28.95,2.93-22.69,13.09-41.08,45-41.1,71.16,0,13.09,4.61,22.29,12,26.59l-20.42-11.8c-7.43-4.28-12-13.49-12-26.58C65.91,57,84.31,25.14,107,12,118.36,5.49,128.59,4.87,136,9.15Z"/><path class="cls-4" d="M103.05,90.11,151.77,62a54.09,54.09,0,0,1-6.66,19c-4.49,7.91-10.76,14.84-17.7,18.85s-13,4.3-17.47,1.72C106.39,99.47,103.93,95.57,103.05,90.11Z"/><path class="cls-6" d="M156.45,20.94h0l0,0c-7.4-4.24-17.63-3.61-28.95,2.93-22.69,13.09-41.08,45-41.1,71.16,0,13.09,4.6,22.29,12,26.59s17.71,3.67,29.05-2.88c11.55-6.66,22-18.18,29.44-31.33,7.21-12.73,11.65-26.94,11.64-39.82s-4.43-22-11.65-26.38"/><path class="cls-6" d="M77.94,109.78c-7.43-4.28-12-13.49-12-26.58C65.91,57,84.31,25.14,107,12c11.35-6.55,21.58-7.17,29-2.89L156.37,20.9"/><path class="cls-6" d="M103.05,90.11,151.77,62a54.09,54.09,0,0,1-6.66,19c-4.49,7.91-10.76,14.84-17.7,18.85s-13,4.3-17.47,1.72C106.39,99.47,103.93,95.57,103.05,90.11Z"/><path class="cls-6" d="M119.69,63.8c-1.57-2-4.37-2.3-7.53-.47-3.53,2-6.57,6.16-8,10.43"/><path class="cls-6" d="M150.66,45.92c-1.57-2-4.35-2.3-7.53-.47-3.52,2-6.57,6.16-8,10.42"/><line class="cls-6" x1="77.94" y1="109.78" x2="98.36" y2="121.58"/></g></g></g></svg>