<?xml version="1.0" encoding="UTF-8"?>
<svg xmlns="http://www.w3.org/2000/svg" xmlns:xlink="http://www.w3.org/1999/xlink" viewBox="0 0 1603.02 1419.35">
  <defs>
    <style>
      .cls-1, .cls-2 {
        fill: none;
      }

      .cls-3 {
        fill: #c2c7cc;
      }

      .cls-4 {
        fill: #969a9e;
      }

      .cls-5, .cls-6 {
        fill: #fff;
      }

      .cls-5, .cls-2 {
        stroke: #3a3a3a;
        stroke-linecap: round;
        stroke-linejoin: round;
        stroke-width: 6px;
      }

      .cls-7 {
        fill: #3a3a3a;
      }

      .cls-8 {
        isolation: isolate;
      }

      .cls-9 {
        mix-blend-mode: multiply;
      }

      .cls-10 {
        fill: #dae0e5;
      }

      .cls-11 {
        fill: #3232FC;
      }

      .cls-12 {
        fill: url(#New_Pattern);
      }

      .cls-13 {
        clip-path: url(#clippath);
      }
    </style>
    <clipPath id="clippath">
      <rect class="cls-1" x="0" width="16" height="19"/>
    </clipPath>
    <pattern id="New_Pattern" data-name="New Pattern" x="0" y="0" width="16" height="19" patternTransform="translate(-339.7 907.83)" patternUnits="userSpaceOnUse" viewBox="0 0 16 19">
      <g>
        <rect class="cls-1" x="0" width="16" height="19"/>
        <g class="cls-13">
          <polygon class="cls-4" points="16 22.18 10.5 19 16 15.82 21.5 19 16 22.18"/>
          <polygon class="cls-4" points="0 22.18 -5.5 19 0 15.82 5.5 19 0 22.18"/>
          <polygon class="cls-4" points="8 12.68 2.5 9.5 8 6.32 13.5 9.5 8 12.68"/>
          <polygon class="cls-4" points="16 3.18 10.5 0 16 -3.18 21.5 0 16 3.18"/>
          <polygon class="cls-4" points="0 3.18 -5.5 0 0 -3.18 5.5 0 0 3.18"/>
        </g>
      </g>
    </pattern>
  </defs>
  <g class="cls-8">
    <g id="Calque_2" data-name="Calque 2">
      <g id="shadow" class="cls-9">
        <path class="cls-12" d="M1053.94,1239.73c-27.38-4.73-53.94.56-79.21,11.4-21.96,9.42-43.23,23.32-59.41,41.02-17.29,18.91-30.56,43.67-24.98,70,.32,1.51.74,3.01,1.24,4.48-5.41,2.28-9.44,8.45-5.19,13.96,4.37,5.66,7.04,10.07,12.74,13.83,4.51,2.98,9.25,5.65,14.04,8.13,5.13,2.65,10.4,4.97,15.75,7.13l1.52.62c-2.57-1.1-1.56-.67,3.03,1.27,1.01.35,2.11.61,3.14.9,2.88.81,5.77,1.56,8.69,2.23,23.53,5.38,47.01,5.95,70.81,2.32,21.96-3.35,43.65-11.14,62.72-22.55,20.47-12.25,38.98-30.16,45.72-53.68,13.29-46.36-25.81-93.34-70.6-101.08Z"/>
        <path class="cls-12" d="M309.72,687.19c-5.24-4.05-11.62-5.62-18.05-6.65-.08-.01-.16-.02-.24-.04-2.47-1.08-5.08-1.75-7.62-1.89-20.71-1.18-44.35,6.84-56.47,24.35-4.17,6.03-3.34,15.58.99,21.63-14.41,8.72-29.21,16.81-43.92,24.98-18.03,10.02-36.14,19.9-54.1,30.03-4.16,2.35-8.26,5.03-12.66,6.92.95-.46-2.33.56-3.96,1.06,1.02-.37-2.26.18-3.07.24-.64-.2-1.01-.3-1.12-.31-.32-.18-.64-.38-.96-.58l-.35-.3c-.16-.17-.31-.33-.43-.46-.36-.63-.68-1.27-.94-1.95-1.46-1.94-2.29-3.02-2.49-3.26-.13-.22-.26-.44-.38-.66-4.06-7.48-13.48-7.56-19.46-2.51-17.94,15.16,1.15,39.51,18.56,44.86,8.31,4.49,18.4,6.11,27.67,5.2,13.18-1.29,24.91-6.17,36.59-12.2,10.43-5.38,20.8-10.95,30.97-16.79,20.18-11.58,40.01-23.8,59.52-36.48,9.89-6.42,19.7-12.98,29.42-19.67,10.62-7.3,24.87-14.46,30.08-26.81,4.4-10.43,1.32-21.85-7.6-28.74Z"/>
        <path class="cls-12" d="M399.85,663.58c-4.07-5.27-9.57-8.48-16.18-9.37-7.89-1.06-13.89,1.68-19.95,6.54-2.06,1.65-3.39,3.77-4.19,6.09-1.84.27-3.66.88-5.4,1.9-7.22,4.24-10.51,12.93-8.47,20.98,1.99,7.85,8.6,12.86,15.85,15.45,11.18,3.99,25.5,2.13,34.3-6.08,9.69-9.05,12.42-24.67,4.04-35.51Z"/>
        <path class="cls-12" d="M1044.05,1115.19c-7.88.17-16.82,4.11-21.86,10.65-1.69.31-3.34.94-4.86,1.97l-.33.23c-5.09,3.44-8.47,8.43-8.47,14.76,0,5.68,3.18,12.17,8.47,14.76,17,8.34,47.78,4.26,50.83-18.43,1.92-14.27-10.3-24.24-23.78-23.94Z"/>
        <path class="cls-12" d="M1245.43,527.74c-5.49-3.21-11.83-3.42-17.93-2.28-3.51.66-6.86,2.19-9.73,4.31-1.8,1.33-3.54,2.63-5.03,4.29-2.83,3.15-4.1,6.11-4.8,9.73-.04.05-.09.08-.13.13-2.08,2.26-3.37,4.79-4.25,7.75-1.84,6.2,1.09,15.26,7.37,18.11,4.73,2.15,9.07,3.09,14.15,2.5,5.45-.63,9.77-2.11,14.73-4.39,8.73-4.02,16.1-12.18,15.99-22.32-.08-7.23-4.11-14.17-10.36-17.83Z"/>
        <path class="cls-12" d="M1578.06,641.48c-5.82-12.01-18.58-20.1-30.2-25.82-22.24-10.94-46.77-18.94-71.32-22.4-13.51-1.9-27.04-2.94-40.66-1.59-12.48,1.23-28.05,2.73-38.8,9.83-7.38,4.88-11.53,12.52-11.87,20.88-.84-.34-1.68-.67-2.53-1.01-5.09-2-11.24,3.13-10.92,8.32.36,5.97,1.77,10.77,5.33,15.61,4.22,5.73,9.51,10.49,15.45,14.41,10.19,6.74,21.12,12.57,31.74,18.62,23.01,13.11,46.24,29.21,73.3,31.66,12.79,1.16,26.13-1.62,38.02-6.27,12.24-4.79,25.13-10.41,34.39-20.07,11.03-11.51,15.24-27.41,8.08-42.17Z"/>
        <path class="cls-12" d="M1602.31,1150.49c-4.54-8.52-13.31-8.42-21.87-8.66-4.37-.13-8.76-.08-13.12-.37-4.43-.3-8.67-1.33-13.11-1.56-3.56-.18-7.14-.23-10.73-.22.22-.31.44-.62.67-.93.14-.19,1.12-1.47,1.32-1.74,5.94-7.78,12.66-15.18,19.59-22.08,3.56-3.55,7.23-7.19,11.38-10.05,1.98-1.36,4.15-2.56,5.88-4.24,1.3-1.26,2.97-5.83,4.38-6.5,2.07-.99.59-4.6-1.58-3.75-1.81.71-5.42-1.07-7.53-.89-2.65.23-5.07,1.35-7.49,2.35-5.3,2.2-10.74,4.03-16.02,6.3-10.27,4.43-19.61,9.78-28.5,16.58-.2.16-.4.32-.6.47,1.23-3.24,2.34-6.51,3.3-9.82,1.84-6.32,3.59-13.59,3.24-20.17-.31-5.84-2.4-16.5-10.6-14.98-10.81,2.01-15.57,18.32-20.01,26.99-4.17,8.13-9.08,16.04-14.42,23.53-7.95-3.41-16.54-5.42-25.35-5.9-1.63-.09-3.25-.1-4.87-.07-2.32-.45-4.67-.72-7.07-.66-3.5.09-6.7,1.17-9.44,2.91-12.11,3.12-23.39,9.23-33.33,17.08-14.44,11.39-26.88,28.46-32.07,46.21-5.13,17.55-.57,37.63,13.26,49.09-2.68.26-5.44.52-8.37.79-7.18.68-13.36,5-14.27,12.6-.83,6.96,3.27,14.15,10.41,15.94,2.22.56,4.45,1.01,6.68,1.39,1.31,1.47,2.97,2.67,4.83,3.38,10.75,4.15,23.82,1.38,34.68-1.05,10.4-2.33,20.71-5.09,30.87-8.28,21.11-6.62,41.83-15.51,61.41-25.79,1.37-.72,2.72-1.47,4.07-2.21,5.7-1.45,11.41-3.99,16.66-6.08,11.69-4.64,24.94-8.11,32.18-19.29,6.37-9.84,5.67-22.33-1.44-31.13-.28-1.34-.64-2.65-1.08-3.93,7.87-2,16.26-1.66,24.27-2.5,4.87-.51,17.65-5.55,13.79-12.79Z"/>
        <path class="cls-12" d="M95.21,966.59c-4.19-5.25-11.63-7.04-17.62-3.52-3.97,2.34-7.63,5.58-11.23,8.43-2.69,2.13-5.36,4.39-7.47,7.08-11.45-.74-23.27,2.59-29.05,12.76-2.91,5.13-3.04,12.63-.1,18.17-3.85.74-7.94,2.03-10.77,4.76-3.69,1.65-5.14,7.45-3.15,10.84,2.48,11.92,20.58,16.6,30.76,15.76,13.07-1.08,24.87-7.28,32.91-17.7,4.04-5.23,7.6-11.04,8.5-17.71.66-4.94-.24-9.59-2.4-13.54,3.31-2.28,6.28-4.87,8.55-7.4,4.53-5.04,5.43-12.46,1.07-17.93Z"/>
        <path class="cls-12" d="M351.65,948.64c-2.55-12.21-11.79-20.19-22.98-24.49-8.62-3.31-18.77-4.41-27.93-3.97-11.45.56-27.81,3.71-31.69,16.32-3.76,7.23-1,15.47,6.28,19.48,6,4.41,13.35,5.05,21.52,5.05,3.25,0,6.47.05,9.71.23-.04.03-.08.05-.11.07-1.26.76-2.55,1.48-3.86,2.15-.33.17-5.25,2.05-2.04.97-3.11,1.04-6.14,2.2-9.31,3.06-2.97.8-6.01,1.49-9.05,1.93.23-.08-3.7.31-3.7.31-1.59.1-3.18.14-4.76.19-7.14.21-14.38-.14-21.46.85-5.23.73-14.76,3.47-13.82,10.32.42,3.04,1.48,5.68,3,7.99-2.74-3.52-7.52-5.47-12.53-2.71-13.27,7.3-26.54,14.63-39.54,22.41-6.35,3.8-12.78,7.52-18.98,11.57-4.8,3.14-11.88,6.56-14.74,11.95-3.13-.79-6.43-1.11-9.72-1.12-16.43-.03-35.89,6.04-36.98,25.46-.04.75-.03,1.49.03,2.22-.83.21-1.65.42-2.47.66-4.36,1.24-8.12,4.76-9.24,9.24-.29,1.1-.45,2.22-.49,3.36,1.12,8.97,7.41,13.14,15.8,15.08,6.48,1.5,13.29,1.81,19.9,1.04,14.02-1.64,28.56-8.49,36.74-20.37,5.75-8.35,5.66-18.93-.28-26.93,3.36-1.39,6.6-3.38,9.47-4.84,6.91-3.51,13.67-7.32,20.5-10.97,13.36-7.15,26.62-14.5,39.99-21.63,5.81-3.1,5.93-9.21,3.14-13.54,9.17,12.37,32.71,14.27,45.94,13.68,19.23-.86,39.68-7.08,53.26-21.45,8.48-8.98,12.95-21.26,10.38-33.54Z"/>
        <path class="cls-12" d="M273.82,1065.44c-3.66-4.05-11.23.59-14.03,3.32-3.34,3.26-6.18,7.49-8.91,11.54-2.43-1.39-5.08-2.43-7.81-3.06-14.11-3.26-33.52,1.55-43.24,12.63-4.95,5.64-7.38,14.01-4.46,21.14-1.84,1.05-3.46,2.06-.55.87-5.95,2.43-9.59,10.14-4.03,15.28.96.89.8.64.69.5.1.12.35.41.89,1.02,1.12,1.26,1.77,1.99,3.13,3.04,2.57,1.97,5.43,3.39,8.59,4.15,6.79,1.64,13.11,1.28,19.92-.02,11.35-2.16,22.07-8.41,30.21-16.54,6.54-6.53,10.66-14.9,8.28-24.34-.98-3.87-2.97-7.24-5.61-10,1.13-.75,2.27-1.48,3.43-2.17,2.63-1.55,5.47-2.62,7.93-4.45,3.12-2.31,9.45-8.64,5.58-12.92Z"/>
        <path class="cls-12" d="M783.13,937.66c-.79-19.37-11.73-35.47-27.55-46.04-16.53-11.05-36.64-12.37-55.75-9.57-17.83,2.61-35.02,10.07-51.18,17.75-14.31,6.8-28,14.88-40.87,24.12-13.62,9.77-28.7,20.67-39.28,33.86-5.92,7.37-10.38,16.38-10.3,25.71-2.56-.81-4.94-1.45-7.4-2.69-5.79-2.93-12,1.88-10.67,8.2.6,2.86,1.43,5.59,2.44,8.32,1.78,4.79,4.28,8.05,7.99,11.44,5.8,5.3,12.33,9.46,19.54,12.55,14.23,6.11,30.08,9.14,45.51,9.78,36.04,1.5,71.13-5.81,103.99-20.42,29.25-13.01,65-36.54,63.51-73.01Z"/>
        <path class="cls-12" d="M965.64,1046.89c-6.67-23.17-28.99-34.28-51.27-37.27-22.39-3.01-45.49-1.22-67.38,4.33-21.69,5.49-40.85,15.92-60.25,26.69-4.56,2.53-9.22,4.77-13.88,7.09h-.02c-1.18.41-2.33.9-3.51,1.31-2.66.93-5.36,1.76-8.09,2.48-5.09,1.35-10.24,2.26-15.43,3.11-.07,0-.11,0-.19.01-1.25.1-2.5.28-3.76.41-3.14.31-6.29.57-9.45.78-10.78.74-21.58,1.04-32.36,1.82-11.65.85-24.19,1.43-35.11,5.88-11.71,4.77-22.3,13.39-26.31,25.65-13.07,10.35-15.31,30.59-6.44,45.5,11.89,19.97,37.32,25.44,58.86,25,12.01-.25,24.28-2.46,35.66-6.28,9.91-3.33,19.34-7.95,29.34-11.05,4.27-1.32,8.64-2.35,13.06-3.04-.39.14,5.18-.44,5.97-.48,2.76-.15,5.53-.22,8.29-.24,10.92-.1,21.8.91,32.66,1.96,22.32,2.16,44.38,3.83,66.54-.86,21.84-4.63,42.06-15.57,58.72-30.3,17.08-15.1,31.08-39.04,24.33-62.5Z"/>
        <path class="cls-12" d="M1240.67,911.6c-.79-30.61-21.43-54.19-44.7-71.59-22.31-16.68-48.94-29.23-75.58-37.13-28.1-8.33-57.33-10.72-86.29-6.25-21.46,3.31-45.36,11.94-61.64,27.58-5.34,1.77-10.11,3.8-14.16,7.01-6.67,5.29-11.7,11.88-14.62,19.93-6.19,17.08,2,35.08,17.71,43.4,14.6,7.73,31.18,7.27,47.21,7.77,1.76.05,3.52.12,5.27.24.63.04,3.09.31,3.17.3l1.58.21c-1.36-.18-1.17-.12.61.19.98.26,1.99.42,2.98.67.53.13,1.67.32,2.67.59.79.36,1.57.74,2.33,1.15.37.2,1.07.49,1.67.72.85.71,1.63,1.82,2.28,2.53-3.15-3.44,0,.56.53,1.38.15.24.28.43.4.6.06.22.14.49.24.82,1.02,3.28,2.08,6.56,3.16,9.81,2.38,7.13,5.35,14.19,9.73,20.34,2.59,3.64,5.45,7.1,8.55,10.33-11.13-5.62-22.55-10.77-34.4-14.63-6.98-2.27-14.15-3.76-21.27-5.49-3.19-.78-6.37-1.61-9.48-2.65-.85-.27-1.69-.57-2.52-.88,2.38,1.06,2.09.95-.86-.32-2.48-1.05-4.84-1.86-7.41-2.62-6.49-1.92-12.64.04-17.2,3.93-6.05-2.57-12.41-4.53-18.64-3.81-7.67.89-12.65,7.94-8.78,15.3,4.7,8.93,14.52,14.13,23.02,19.02,8.25,4.75,16.38,9.69,24.6,14.49,16.41,9.58,33.59,18.03,50.43,26.82,16.89,8.81,33.88,17.39,50.94,25.85,17.49,8.66,37.45,18.57,57.25,11.14,6.51-2.44,11.63-6.57,13.56-13.56,1.75-6.36.1-14.37-4.99-18.88-12.41-10.98-28.69-17.98-43.09-25.98l-5.37-2.98c23.37,5.16,47.91,2.59,71.4-3.41,30.68-7.83,70.68-24.4,69.71-61.94Z"/>
        <path class="cls-12" d="M736.03,1239.85c-65.87-34.55-132.86-67.05-199.34-100.41-8.95-4.49-21.02-2.94-26.69,5.91-1.97-.32-3.94-.5-5.9-.51-4.06-.02-5.77,4.15-4.28,7.46,1.78,3.93,4.14,6.58,7.07,9.74.2.21.38.42.58.64,1.27,4.79,4.2,9.06,8.96,11.45l9.11,4.59c3.82,2.9,7.65,5.77,11.51,8.62,13.82,10.2,28.35,19.24,42.99,28.23,29.22,17.93,59.32,35.12,90.12,50.2,19.06,9.33,39.94,16.35,61.15,10.15,15.63-4.56,20.16-27.95,4.71-36.05Z"/>
      </g>
      <g id="lineart">
        <g>
          <g>
            <path class="cls-7" d="M1051.76,568.43c-.66,15.65-1.21,31.3-.98,46.92.45,32.21,9.45,29.73,10.07,74.15.19,14.21-7.1,69.98-2.02,150.6-2.83.33-5.56.56-8.23.65-20.19.75-35.9-5.51-49.35-23.21-1.01-1.32-2-2.7-2.98-4.16l4.93-79.25c-3.57-46.44-7.66-99.62-7.67-99.66-6.74-37.61-11.28-65.23-11.88-108.06-.43-30.57-3.96-61.07-1.06-91.61,0,.03.01.07.02.11,19.85,21.38,45.64,34.12,82.09,33.61,29.65-.4,48.49-10.5,63.95-25.57.05.21.11.43.16.65,5.57,24.17,9.9,54.86,11.16,111.84,2.31,105.17,18.49,200.11,7.76,261.96-4.47,30.31-6.22,54.29-6.64,89.74-3.32-.4-6.49-.78-9.55-1.1-10.6-1.12-20.06-1.68-30.69-1.19-4.88.22-10.01.66-15.6,1.37,0,0,6.69-95.14,4.34-140.98-2.36-45.84-7.17-56.3-7.17-56.34-10.63-46.95-22.29-93.44-30.64-140.48Z"/>
            <path class="cls-4" d="M1136.61,938.55c2.02,8.58-1.12,17.57-8.06,23.01-6.64,5.2-14.15,8.7-22.06,8.82-4.26.06-8.44-.92-12.49-2.6-3.3-1.36-5.89-4.02-7.19-7.35-1.3-3.33-1.17-7.04.32-10.28,6.84-14.76,11.83-28.67,13.7-45.3,10.63-.49,20.08.07,30.69,1.19.69,10.89,2.54,21.75,5.08,32.51Z"/>
            <path class="cls-6" d="M1128.8,443.6c-.05-.22-.11-.44-.16-.65l.07-.07c.02.25.06.49.08.73Z"/>
            <path class="cls-10" d="M946.89,352.97c-10.64,13.09-19.53,24.22-27.08,33.62-2.98-16.27-14.28-37.95-24.61-54.73,11.29-18.35,24.77-39.83,34.97-54.75,3.26-4.77,6.91-9.34,11.62-13.16l.1-.12c12.55,11.68,22.85,15.02,30.47,12.27,4.55,25.21,49.21,30.99,77.18-22.16l.32-.94c38.11,12.82,70.49,42.4,72.15,90.76.86,25.03,3.27,68.73,6.7,99.1-.02.02-.05.05-.07.07-15.36,15.17-34.3,25.16-63.95,25.57-36.45.51-62.24-12.23-82.09-33.61,0-.03-.01-.07-.02-.11-5.75-48.87-26.01-57.97-35.69-81.82Z"/>
            <path class="cls-4" d="M1050.59,840.74c-.37,2.84-1.37,5.6-2.96,8.05-1.95,3.01-4.68,5.4-7.85,6.93-7.68,1.64-17.54-.52-24.65,3.11-17.31,8.84-16.27,20.16-43.69,20.54-10.72.15-27.96-1.21-28.11-12-.15-11.07,16.68-12.05,24.69-16.31,13.45-7.84,25.81-18.84,33.23-33.54,13.45,17.69,29.16,23.96,49.35,23.21Z"/>
            <path class="cls-6" d="M972.36,276.11c-7.62,2.74-17.92-.59-30.47-12.27-2.79-2.59-5.69-5.6-8.71-9.06-7.52-8.61-13.3-18.5-17.4-29.17,1.24.15,2.5.22,3.79.22,21.22,0,19.69-13.58,35.2-13.58,7.4,0,15.64,11.26,18.19,18.27,2.88-7.12-1.03-22.52,7.45-22.52,4.17,0,6.42,4.63,6.42,9.14,0,2.82-.66,5.59-.66,8.12,0,.7.05,1.39.18,2.05.79.22,1.58.31,2.36.31,1.07,0,3.74-.59,7.08-1.67l.03-.02c.16.17.33.32.5.46,6.14,5.17,13.82,10.91,20.67,17.02,2.17,1.94,4.87,3.21,7.76,3.63,8.46,1.23,16.92,3.21,25.1,5.97l-.32.94c-27.97,53.15-72.63,47.37-77.18,22.16Z"/>
            <path class="cls-7" d="M995.84,225.94l-.03.02c-3.34,1.07-6.02,1.67-7.08,1.67-.78,0-1.56-.09-2.36-.31-.13-.66-.18-1.35-.18-2.05,0-2.53.66-5.31.66-8.12,0-4.51-2.25-9.14-6.42-9.14-8.49,0-4.57,15.4-7.45,22.52-2.55-7.01-10.79-18.27-18.19-18.27-15.5,0-13.97,13.58-35.2,13.58-1.29,0-2.55-.07-3.79-.22-15.55-1.81-27.22-14.41-27.22-23.51,0-19.14,13.7-4.45,31.29-30.93,2-2.31,4-4.31,5.84-5.84,12.75-10.67,29.57-15.2,41.28-1.88,7.64,1.06,13.85,4.99,18.52,10.58,9.59,11.47,12.72,29.92,8.52,44.81-.72,2.55-.04,5.27,1.82,7.12Z"/>
            <path class="cls-6" d="M895.2,331.86c10.33,16.78,21.63,38.46,24.61,54.73-28.05,34.84-37.94,45.85-52.07,44.67-12.64-1.05-24.32-16.83-30.52-27.9l-43.8-78.17c-1.5-2.69-4.36-4.34-7.45-4.3-14.09.19-53.53-.44-57.05-13.29-5.29-19.28,21.28-17.31,44.6-21.04-5.52-4.25-9.45-13.8-6.61-20.6.46-1.09,1.52-1.82,2.71-1.86,1.19-.03,2.29.63,2.82,1.69,3.64,7.36,12.83,10.75,20.36,12.3,7.5,1.55,13.96,6.28,17.68,12.98l3.36,6.03c1.4,2.51,3.03,4.88,4.89,7.07l54.33,64.14s9.75-16.37,22.13-36.46Z"/>
          </g>
          <g>
            <path class="cls-2" d="M1128.8,443.6c5.75,24.12,9.9,54.86,11.16,111.84,2.31,105.17,18.49,200.11,7.76,261.96-4.47,30.31-6.22,54.29-6.64,89.74-3.32-.4-6.49-.78-9.55-1.1-10.6-1.12-20.06-1.68-30.69-1.19-4.88.22-10.01.66-15.6,1.37,0,0,6.69-95.14,4.34-140.98-2.36-45.84-7.17-56.3-7.17-56.34-10.63-46.95-22.3-93.43-30.64-140.48-4.73-26.67-8.07-53.58-8.64-81.06"/>
            <path class="cls-2" d="M1128.64,442.95c.05.21.11.43.16.65"/>
            <path class="cls-2" d="M995.8,225.96c-3.34,1.07-6.02,1.67-7.08,1.67-.78,0-1.56-.09-2.36-.31-.13-.66-.18-1.35-.18-2.05,0-2.53.66-5.31.66-8.12,0-4.51-2.25-9.14-6.42-9.14-8.49,0-4.57,15.4-7.45,22.52-2.55-7.01-10.79-18.27-18.19-18.27-15.5,0-13.97,13.58-35.2,13.58-1.29,0-2.55-.08-3.79-.22-15.54-1.84-27.22-14.41-27.22-23.51,0-19.14,13.7-4.45,31.29-30.93,2-2.31,4-4.31,5.84-5.84,12.75-10.67,29.57-15.2,41.28-1.88,7.64,1.06,13.85,4.99,18.52,10.58,9.59,11.47,12.72,29.92,8.52,44.81-.72,2.55-.01,5.24,1.82,7.12.16.16.33.32.5.46,6.14,5.17,13.82,10.91,20.67,17.02,2.17,1.94,4.87,3.21,7.76,3.63,8.46,1.23,16.92,3.21,25.1,5.97,38.1,12.83,70.49,42.4,72.15,90.76.86,25.03,3.47,68.7,6.7,99.1.03.25.06.49.08.73"/>
            <path class="cls-2" d="M1051.76,568.43c-.66,15.65-1.21,31.3-.98,46.92.45,32.21,9.45,29.73,10.07,74.15.19,14.21-7.1,69.98-2.02,150.6-2.83.33-5.56.55-8.23.65-20.19.72-35.88-5.52-49.35-23.21-1.01-1.32-2-2.7-2.98-4.16l4.93-79.25c-3.57-46.44-7.66-99.62-7.67-99.66-6.74-37.61-11.28-65.23-11.88-108.06-.43-30.57-3.96-61.07-1.06-91.61"/>
            <path class="cls-2" d="M1050.59,840.74c-.37,2.84-1.37,5.6-2.96,8.05-1.95,3.01-4.68,5.4-7.85,6.93-7.68,1.64-17.54-.52-24.65,3.11-17.31,8.84-16.27,20.16-43.69,20.54-10.72.15-27.96-1.21-28.11-12-.15-11.07,16.68-12.05,24.69-16.31,13.45-7.84,25.81-18.84,33.23-33.54"/>
            <path class="cls-2" d="M1131.53,906.04c.69,10.89,2.54,21.75,5.08,32.51,2.02,8.58-1.12,17.57-8.06,23.01-6.64,5.2-14.15,8.7-22.06,8.82-4.26.06-8.44-.92-12.49-2.6-3.3-1.36-5.89-4.02-7.19-7.35-1.3-3.33-1.17-7.04.32-10.28,6.84-14.76,11.83-28.67,13.7-45.3"/>
            <path class="cls-2" d="M982.6,434.91s-.01-.07-.02-.11c-5.75-48.87-26.02-57.96-35.69-81.82-3.8-9.39-5.97-21.07-4.96-38.37"/>
            <path class="cls-2" d="M1128.72,442.87s-.05.05-.07.07c-15.36,15.17-34.3,25.16-63.95,25.57-36.45.51-61.85-12.6-82.09-33.61,0,0-.02-.02-.02-.02"/>
            <path class="cls-2" d="M941.8,263.95c-4.71,3.82-8.36,8.39-11.62,13.16-10.21,14.93-23.68,36.4-34.97,54.75-12.37,20.1-22.13,36.46-22.13,36.46l-54.33-64.14c-1.86-2.19-3.5-4.56-4.89-7.07l-3.36-6.03c-3.72-6.7-10.17-11.44-17.68-12.98-7.54-1.55-16.73-4.93-20.36-12.3-.53-1.07-1.63-1.73-2.82-1.69-1.19.04-2.25.77-2.71,1.86-2.84,6.8,1.09,16.35,6.61,20.6-23.32,3.74-49.89,1.76-44.6,21.04,3.52,12.85,42.96,13.48,57.05,13.29,3.08-.04,5.94,1.61,7.45,4.3l43.8,78.17c6.2,11.07,17.88,26.85,30.52,27.9,14.13,1.18,24.04-9.82,52.07-44.67,7.56-9.39,16.44-20.53,27.08-33.62"/>
            <path class="cls-2" d="M972.36,276.11c4.55,25.21,49.21,30.99,77.18-22.16"/>
            <path class="cls-2" d="M915.79,225.6c4.1,10.68,9.88,20.56,17.4,29.17,3.02,3.45,5.92,6.46,8.71,9.06,12.56,11.67,22.85,15.02,30.47,12.27,9.53-3.43,14.87-16.38,15.21-34.42"/>
            <path class="cls-2" d="M895.19,331.85h0c10.33,16.79,21.63,38.47,24.61,54.74"/>
          </g>
        </g>
        <g>
          <g>
            <path class="cls-11" d="M709.66,762.37c22.43,12.94,24.85,32.53,5.44,43.73l-65.56,37.85c-10.07,5.81-24.03,8.23-38.27,7.41-5.23-.3-10.5-1.04-15.62-2.21-7.83-1.79-15.33-4.58-21.86-8.34l-56.4-32.57c-.37-.21-17.1-8.27-20.99-29.61-4.68-37.03-8.38-94.22-5.73-128.92,2.4-31.48,22.04-63.92,47.33-78.52l9.48-5.47c25.29-14.6,49.89-7.71,59.38,16.9,10.47,27.14,20.74,80.52,25.42,117.56,3.9,21.33,20.62,29.4,20.99,29.61l56.4,32.57Z"/>
            <path class="cls-6" d="M658.09,927.67c30.18,17.43,30.18,45.67,0,63.09-30.17,17.42-79.1,17.42-109.27,0-30.18-17.42-30.18-45.67,0-63.09,13.1-7.56,29.73-11.84,46.83-12.84v39.35c0,1.15.76,2.31,2.29,3.19,3.05,1.76,7.99,1.76,11.04,0,1.52-.88,2.29-2.04,2.29-3.19v-39.35c17.09,1,33.72,5.28,46.82,12.84Z"/>
            <path class="cls-3" d="M611.27,914.83v39.35c0,1.15-.77,2.31-2.29,3.19-3.05,1.76-7.99,1.76-11.04,0-1.53-.88-2.29-2.04-2.29-3.19v-105.02c5.12,1.17,10.39,1.91,15.62,2.21v63.47Z"/>
          </g>
          <g>
            <path class="cls-2" d="M595.65,849.16c-7.83-1.78-15.33-4.58-21.86-8.34l-56.4-32.57c-.37-.21-17.1-8.27-20.99-29.61-4.68-37.03-8.38-94.22-5.73-128.92,2.4-31.48,22.04-63.92,47.33-78.52l9.48-5.47c25.29-14.6,49.89-7.71,59.38,16.9,10.47,27.14,20.74,80.52,25.42,117.56,3.9,21.33,20.62,29.4,20.99,29.61l56.4,32.57c22.43,12.94,24.85,32.53,5.44,43.73l-65.56,37.85c-10.07,5.81-24.03,8.23-38.27,7.41-5.23-.3-10.5-1.04-15.62-2.21Z"/>
            <path class="cls-2" d="M611.27,851.36v102.82c0,1.15-.77,2.31-2.29,3.19-3.05,1.76-7.99,1.76-11.04,0-1.53-.88-2.29-2.04-2.29-3.19v-105.02"/>
            <path class="cls-2" d="M611.27,914.83c17.09,1,33.72,5.28,46.82,12.84,30.18,17.43,30.18,45.67,0,63.09-30.17,17.42-79.1,17.42-109.27,0-30.18-17.42-30.18-45.67,0-63.09,13.1-7.56,29.73-11.84,46.83-12.84"/>
          </g>
        </g>
        <g>
          <g>
            <path class="cls-7" d="M867.59,1091.9c0,5.48-8.85,6.75-14.37,6.75-11.05,0-24.08-2.57-32.11-10.31-19.79-19.1-40.73-23.82-40.73-38.08,0-2.61,1.14-6.21,2.26-11.11,1.23.47,21.82,18.58,30.31,18.58,5.85,0,11.14-6.78,15.77-11.03,13.14,35.5,38.86,38.27,38.86,45.2Z"/>
            <path class="cls-4" d="M828.74,1046.69c-4.63,4.25-9.92,11.03-15.77,11.03-8.49,0-29.08-18.11-30.31-18.58,1.08-4.74,2.15-10.71,2.15-18.24,0-.8-.97-15.61-2.21-27.7,13.04,4.85,24.98,1.93,35.36-7.03-.28,5-.44,9.96-.44,14.87,0,5.28,2.47,23,9.74,41.33.48,1.49.97,2.92,1.48,4.32Z"/>
            <path class="cls-7" d="M782.59,993.2c-2.99-1.1-6.02-2.62-9.12-4.56,4.38-62.43-14.28-56.31,1.62-130.32.77-3.57-1.56-7.09-5.15-7.78-7.99-1.53-15.39-2.54-22.24-3.29,4.23,3.66,9.17,8.75,13.49,14.24,2.12,5.17,6.43,8.45,6.43,22.23,0,8.8-2.39,17.46-5.86,25.73-8.21,16.12-19.07,32.89-30.42,49.87-11.42,20.86-24.95,41.96-32.52,64.81-3.3,1.13-6.64,1.91-9.99,2.22-4.55.42-9.08-.05-13.38-1.77-6.05-2.42-12.02-6.84-16.74-12.25-4.76-5.46-8.25-11.91-9.24-18.31,18.06-19.51,23.91-40.99,34.52-68.8,12.17-26,19.82-33.34,22.86-38.19-25.65,4.05-166.89-30.08-166.89-110.81,0-11.69,3.52-23.16,8.04-34.56l.06.02c42.25,25.2,95.05,7.95,131.8-23.13,3.7,12.3,10.05,18.51,26.65,30.01,27.17,14.01,65.75,35.17,100.08,54.26,11.86,6.6,19.54,18.8,20.34,32.34,2.16,36.64,3.36,45.18-1.87,87.13-3.1,19.56-4.71,39.83-2.77,59.69-1.41,1.52-2.87,2.92-4.35,4.2-10.38,8.96-22.32,11.87-35.36,7.03Z"/>
            <path class="cls-7" d="M691.09,441.36c4.9,8.34,3.17,19.07-4.22,25.44.02-1.53-.03-3.04-.12-4.51-.22-3.71-2.86-6.99-6.71-7.68-34.28-6.13-25.39,39.72-64.74,32.68-2.16-.39-4.2,1.59-3.49,4.01.99,3.4,2.28,6.67,3.9,9.79,1.49,2.86,2.22,6.02,2.11,9.16-21.47,15.17-51.87.52-52.69-26.31-10.62-6.02-14.88-18.87-10.39-29.88-9.61-11.94-7.88-29.44,3.99-39.27-5.31-18.79,10.52-36.88,29.94-33.97,10.63-12.12,29.4-12.26,40.21-.31,13.68-9.43,32.72,1.04,31.47,18.08,11.86-.38,21.35,9.44,20.75,21.14,7.64,4.24,11.75,12.93,9.98,21.63Z"/>
            <path class="cls-6" d="M689.74,602.69c9.93,25.34-1.77,37.49-3.04,39.69-4.49,7.77-13.73,31.82-11.04,54.06,1.34,9.43,2.49,16.42,4.2,22.11-36.76,31.08-89.55,48.33-131.8,23.13l-.06-.02c9.49-23.93,23.39-47.57,18.39-72.35-24.64-80.46-30.46-118.54,43.7-136.04,1.17-2.77,2.26-5.59,3.31-8.44,7.85,14.34,30.56,24.5,40.86,8.77,5.75,1.39,10.25.76,13.84-1.34,23.26,14.9,14.42,51.99,21.64,70.43Z"/>
            <path class="cls-10" d="M689.74,602.69c-2.81-7.19-3.19-17.21-3.97-27.64-.83,18.07-3.87,35.9-11.64,52.55-12.5,25-40.63,33.33-67.71,35.42-10.76,30.48-23.85,63.27-49.86,83.11,40.66,18.42,88.97,1.46,123.3-27.57-1.72-5.69-2.87-12.68-4.2-22.11-2.69-22.24,6.55-46.29,11.04-54.06,1.27-2.2,12.97-14.35,3.04-39.69Z"/>
            <path class="cls-7" d="M678.84,1101.19c.51,9.66,12.21,19.99,8.56,29.13-2.07,5.19-7.77,4.51-13.2,2.34-23.67-9.47-38.03-37.62-47.87-61.01-2.2-4.29-1.76-9.5,1.22-13.38,2.55-3.33,5.22-6.97,7.89-10.73,5.7,12.53,15.17,29.88,20.91,32.18,6.31,2.53,6.7-4.6,20.02-6.06.18,8.55.93,18.24,2.48,27.54Z"/>
            <path class="cls-4" d="M617.82,510.26c.11-3.15-.62-6.3-2.11-9.16-1.62-3.12-2.92-6.39-3.9-9.79-.71-2.42,1.33-4.4,3.49-4.01,39.35,7.04,30.45-38.81,64.74-32.68,3.85.69,6.48,3.97,6.71,7.68.09,1.47.13,2.97.12,4.51-.02,5.06-.58,10.45-1.59,16.13-3.48,19.46-5.35,42.41-17.17,49.33-3.58,2.11-8.09,2.73-13.84,1.34-10.29,15.73-33,5.57-40.86-8.77,1.12-3,2.21-6.03,3.32-9.02.68-1.8,1.03-3.67,1.09-5.55Z"/>
            <path class="cls-4" d="M675.45,1024.58c4.31,1.72,8.83,2.19,13.38,1.77-4.01,7.49-7.58,14.92-10.51,22.27-1.36,3.39-2.21,13.1-1.95,25.03-13.33,1.46-13.71,8.59-20.02,6.06-5.74-2.3-15.21-19.65-20.91-32.18,9.56-13.45,19.1-28.33,23.28-35.21,4.72,5.41,10.69,9.84,16.74,12.25Z"/>
          </g>
          <g>
            <path class="cls-2" d="M782.58,993.15s0,.04,0,.06c1.24,12.1,2.21,26.9,2.21,27.7,0,7.53-1.06,13.5-2.15,18.24-1.12,4.9-2.26,8.5-2.26,11.11,0,14.27,20.94,18.99,40.73,38.08,8.03,7.74,21.05,10.31,32.11,10.31,5.52,0,14.37-1.26,14.37-6.75,0-6.94-25.7-9.71-38.86-45.2-.52-1.39-1.01-2.83-1.48-4.32-7.27-18.33-9.74-36.05-9.74-41.33,0-4.91.16-9.87.44-14.87v-.03"/>
            <path class="cls-2" d="M658.71,1012.32c-4.17,6.88-13.72,21.77-23.28,35.21-2.67,3.76-5.34,7.4-7.89,10.73-2.97,3.88-3.42,9.09-1.22,13.38,9.85,23.39,24.21,51.55,47.87,61.01,5.43,2.17,11.13,2.85,13.2-2.34,3.66-9.14-8.05-19.46-8.56-29.13-1.54-9.3-2.29-18.99-2.48-27.54-.25-11.93.59-21.65,1.95-25.03,2.93-7.34,6.5-14.77,10.51-22.27"/>
            <path class="cls-2" d="M613.41,524.83c7.85,14.34,30.56,24.5,40.86,8.77,5.75,1.39,10.25.76,13.84-1.34,11.82-6.93,13.69-29.87,17.17-49.33,1.01-5.68,1.55-11.07,1.59-16.13.01-1.53-.03-3.04-.12-4.51-.22-3.71-2.86-6.99-6.71-7.68-34.28-6.13-25.39,39.72-64.74,32.68-2.16-.39-4.2,1.59-3.49,4.01.99,3.4,2.28,6.67,3.9,9.79,1.49,2.86,2.21,6.02,2.11,9.16-.06,1.88-.41,3.74-1.09,5.55-1.11,2.99-2.2,6.02-3.32,9.02-1.06,2.84-2.15,5.67-3.31,8.44-74.16,17.5-68.35,55.58-43.7,136.04,5,24.78-8.9,48.42-18.39,72.35-4.52,11.4-8.04,22.87-8.04,34.56,0,80.73,141.24,114.86,166.89,110.81-3.04,4.85-10.7,12.18-22.86,38.19-10.61,27.81-16.47,49.29-34.52,68.8.99,6.4,4.48,12.85,9.24,18.31,4.72,5.41,10.69,9.84,16.74,12.25,4.31,1.72,8.83,2.19,13.38,1.77,3.35-.31,6.69-1.09,9.99-2.22,7.57-22.85,21.1-43.95,32.52-64.81,11.36-16.98,22.21-33.74,30.42-49.87,3.46-8.27,5.86-16.94,5.86-25.73,0-13.78-4.31-17.05-6.43-22.23-4.32-5.49-9.26-10.59-13.49-14.24-1.57-1.36-3.04-2.53-4.36-3.44-27.51-19.24-68.58-41.98-99.98-55.28,2.66-4.04,4.95-8.36,6.87-12.87"/>
            <path class="cls-2" d="M668.1,532.26c23.26,14.9,14.42,51.99,21.64,70.43,9.93,25.34-1.77,37.49-3.04,39.69-4.49,7.77-13.73,31.82-11.04,54.06,1.34,9.43,2.49,16.42,4.2,22.11,3.71,12.3,10.05,18.51,26.65,30.01,27.17,14.01,65.75,35.17,100.08,54.26,11.86,6.6,19.54,18.8,20.34,32.34,2.16,36.64,3.36,45.18-1.87,87.13-3.1,19.56-4.71,39.83-2.77,59.69-1.41,1.52-2.87,2.92-4.35,4.2-10.37,8.96-22.31,11.86-35.36,7.03-2.99-1.11-6.02-2.62-9.12-4.56,4.38-62.43-14.28-56.31,1.62-130.32.77-3.57-1.56-7.09-5.15-7.78-7.99-1.53-15.39-2.54-22.24-3.29-.02,0-.06,0-.08,0"/>
            <path class="cls-2" d="M548.06,741.68c42.25,25.2,95.05,7.95,131.8-23.13"/>
            <path class="cls-2" d="M635.43,1047.54c5.7,12.53,15.17,29.88,20.91,32.18,6.31,2.53,6.7-4.6,20.02-6.06"/>
            <path class="cls-2" d="M782.63,1039.22c-.06-.09-.05-.11.02-.08,1.23.47,21.82,18.58,30.31,18.58,5.85,0,11.14-6.78,15.77-11.03"/>
            <path class="cls-2" d="M686.86,466.8c7.4-6.37,9.13-17.09,4.22-25.44,1.76-8.7-2.34-17.4-9.98-21.63.6-11.7-8.89-21.52-20.75-21.14,1.25-17.04-17.79-27.51-31.47-18.08-10.81-11.95-29.58-11.81-40.21.31-19.42-2.91-35.25,15.19-29.94,33.97-11.87,9.83-13.6,27.33-3.99,39.27-4.48,11.01-.22,23.86,10.39,29.88.82,26.83,31.22,41.48,52.69,26.31,0,0,.02,0,.02-.02"/>
          </g>
        </g>
        <g>
          <g>
            <path class="cls-3" d="M1111.85,1011.57c.07-.94.11-1.91.11-2.91v-271.9c0-16.24-9.88-35.11-22.06-42.14l-206.04-118.96-.95-.55c-5.51-3.18-10.56-3.39-14.42-1.16l22.88-13.22c3.86-2.23,8.91-2.02,14.43,1.17l207,119.51c12.18,7.03,22.06,25.9,22.06,42.14v271.9c0,8.88-2.96,15.14-7.63,17.84l-22.59,13.03c3.98-2.47,6.65-7.58,7.21-14.75Z"/>
            <path class="cls-6" d="M905.8,892.61l206.05,118.97c-.56,7.17-3.24,12.28-7.21,14.75l-.3.18c-3.86,2.23-8.91,2.02-14.43-1.17l-207-119.5c-12.18-7.03-22.05-25.9-22.05-42.14v-271.9c0-8.89,2.96-15.15,7.63-17.83,3.86-2.23,8.91-2.02,14.42,1.16l.95.55c-.08.94-.11,1.9-.11,2.91v271.9c0,16.24,9.87,35.11,22.05,42.14Z"/>
          </g>
          <g>
            <path class="cls-2" d="M883.86,575.66l206.04,118.96c12.18,7.03,22.06,25.9,22.06,42.14,0,0-.04,273.87-.11,274.81-.56,7.17-3.24,12.28-7.21,14.75"/>
            <path class="cls-2" d="M1104.34,1026.5c-3.86,2.23-8.91,2.02-14.43-1.17l-207-119.5c-12.18-7.03-22.05-25.9-22.05-42.14v-271.9c0-8.89,2.96-15.14,7.63-17.83,3.87-2.23,8.91-2.02,14.42,1.16l.95.55"/>
            <path class="cls-2" d="M1104.34,1026.5l22.89-13.21c4.67-2.7,7.63-8.96,7.63-17.84v-271.9c0-16.24-9.88-35.11-22.06-42.14l-207-119.51c-5.52-3.19-10.56-3.4-14.43-1.17l-22.89,13.21"/>
            <path class="cls-2" d="M1112.8,1012.12l-207-119.51c-12.18-7.03-22.05-25.9-22.05-42.14l.11-274.81"/>
          </g>
        </g>
        <g>
          <g>
            <path class="cls-3" d="M701.65,1248.4c.07-.94.11-1.91.11-2.91v-271.9c0-16.24-9.88-35.11-22.06-42.14l-206.04-118.96-.95-.55c-5.51-3.18-10.56-3.39-14.42-1.16l22.88-13.22c3.86-2.23,8.91-2.02,14.43,1.17l207,119.51c12.18,7.03,22.06,25.9,22.06,42.14v271.9c0,8.88-2.96,15.14-7.63,17.84l-22.59,13.03c3.98-2.47,6.65-7.58,7.21-14.75Z"/>
            <path class="cls-6" d="M495.6,1129.44l206.05,118.97c-.56,7.17-3.24,12.28-7.21,14.75l-.3.18c-3.86,2.23-8.91,2.02-14.43-1.17l-207-119.5c-12.18-7.03-22.05-25.9-22.05-42.14v-271.9c0-8.89,2.96-15.15,7.63-17.83,3.86-2.23,8.91-2.02,14.42,1.16l.95.55c-.08.94-.11,1.9-.11,2.91v271.9c0,16.24,9.87,35.11,22.05,42.14Z"/>
          </g>
          <g>
            <path class="cls-2" d="M473.66,812.49l206.04,118.96c12.18,7.03,22.06,25.9,22.06,42.14,0,0-.04,273.87-.11,274.81-.56,7.17-3.24,12.28-7.21,14.75"/>
            <path class="cls-2" d="M694.13,1263.33c-3.86,2.23-8.91,2.02-14.43-1.17l-207-119.5c-12.18-7.03-22.05-25.9-22.05-42.14v-271.9c0-8.89,2.96-15.14,7.63-17.83,3.87-2.23,8.91-2.02,14.42,1.16l.95.55"/>
            <path class="cls-2" d="M694.13,1263.33l22.89-13.21c4.67-2.7,7.63-8.96,7.63-17.84v-271.9c0-16.24-9.88-35.11-22.06-42.14l-207-119.51c-5.52-3.19-10.56-3.4-14.43-1.17l-22.89,13.21"/>
            <path class="cls-2" d="M702.59,1248.95l-207-119.51c-12.18-7.03-22.05-25.9-22.05-42.14l.11-274.81"/>
          </g>
        </g>
        <g>
          <g>
            <polygon class="cls-4" points="1183.75 691.9 1183.75 710.65 690.25 995.57 690.25 976.84 1183.75 691.9"/>
            <polygon class="cls-6" points="1183.75 691.9 690.25 976.84 409.95 815 903.46 530.07 1183.75 691.9"/>
            <path class="cls-10" d="M969.98,629.16c2.83-2.36,3.95-5.57,3.65-8.86-.57-6.21-6.18-10.75-12.41-10.53l-43.2,1.47c-5.27,11.89-11.37,23.26-16.44,34.58l37.51-2.16c5.49-.32,10.9-1.61,15.85-3.98,5.46-2.62,10.55-6.02,15.04-10.51Z"/>
            <path class="cls-10" d="M1128.31,692.7c16.63,8.69,36.16,6.13,54.06-1.6l-64.38-37.17c-8.96,12.62-3.7,31.44,10.32,38.77Z"/>
            <polygon class="cls-10" points="894.62 755.46 760.84 833.85 865.4 820.72 999.57 746.85 894.62 755.46"/>
            <polygon class="cls-3" points="690.25 976.84 690.25 995.57 409.95 833.75 409.95 815 690.25 976.84"/>
          </g>
          <g>
            <polygon class="cls-2" points="409.95 815 903.46 530.07 1183.75 691.9 690.25 976.84 409.95 815"/>
            <line class="cls-2" x1="690.25" y1="976.84" x2="690.25" y2="995.57"/>
            <polyline class="cls-2" points="409.95 815 409.95 833.75 690.25 995.57 1183.75 710.65 1183.75 691.9"/>
          </g>
        </g>
        <g>
          <g>
            <path class="cls-6" d="M732.4,628.68c4.81,11.27,4.82,36.7-11.56,36.72h-.06c-10.86,0-23.44-8.42-27.04-31.13l-11.26-52.44.24-.05c9.11.58,22.37-1.28,24.37-12.45l25.3,59.35Z"/>
            <path class="cls-4" d="M679.98,570.2c-.54,2.21-2.37,3.93-4.83,4.21-2.65.3-5.32-.36-7.52-1.87l-8.59-5.89c-4.05-2.77-6.4-7.42-6.23-12.33l.21-5.94c.14-4.11,1.88-8,4.84-10.85l6.17-5.92c3.5-3.36,8.76-4.09,13.03-1.81l7.16,3.81c6.19,3.29,11.12,8.54,14,14.94l8.85,20.77c-2,11.17-15.27,13.03-24.37,12.45l-.24.05-2.5-11.63Z"/>
          </g>
          <g>
            <path class="cls-2" d="M693.34,567.84c-7.01-3.94-7.45-12.05-7.45-12.05l-7.01,6.35,1.13,5.47c.19.9.17,1.78-.03,2.59-.55,2.21-2.37,3.93-4.83,4.21-2.65.3-5.32-.36-7.52-1.87l-8.59-5.89c-4.05-2.77-6.4-7.42-6.23-12.33l.21-5.94c.14-4.11,1.88-8,4.84-10.85l6.17-5.92c3.5-3.36,8.76-4.09,13.03-1.81l7.16,3.81c6.19,3.29,11.12,8.54,14,14.94l34.16,80.12c4.81,11.27,4.82,36.7-11.56,36.72h-.06c-10.86,0-23.44-8.42-27.04-31.13l-13.76-64.07"/>
            <path class="cls-2" d="M707.09,569.33c-2,11.17-15.27,13.03-24.37,12.45"/>
          </g>
        </g>
        <g>
          <g>
            <path class="cls-10" d="M923.23,672.29l-31.83,83.26c0,1.34-.96,3.02-2.14,3.68l-125.1,72.23s-.07.05-.1.05c-1.12.61-2.03.05-2.03-1.27l31.84-83.26c0-1.35.95-3.02,2.13-3.68l125.13-72.23c1.15-.69,2.1-.15,2.1,1.22Z"/>
            <path class="cls-6" d="M826.71,725.55l-17.72,10.24-12.03-6.95-91.45,52.81,46.36,26.78,23.72-13.68-13.56,35.48c0,1.32.9,1.88,2.03,1.27l-4.17,2.4c-1.15.68-3.21.61-4.56-.17l-85.28-49.24c-1.35-.78-1.49-1.96-.32-2.62l125.13-72.26c1.15-.66,3.21-.59,4.56.2l27.28,15.74Z"/>
            <path class="cls-3" d="M808.99,735.79l-12.99,7.51c-1.17.66-2.13,2.32-2.13,3.68l-18.28,47.78-23.72,13.68-46.36-26.78,91.45-52.81,12.03,6.95Z"/>
          </g>
          <g>
            <path class="cls-2" d="M826.71,725.55l-27.28-15.74c-1.35-.78-3.41-.86-4.56-.2l-125.13,72.26c-1.17.66-1.03,1.84.32,2.62l85.28,49.24c1.35.78,3.41.86,4.56.17l4.17-2.4"/>
            <polyline class="cls-2" points="775.6 794.75 751.87 808.43 705.51 781.65 796.96 728.84 808.99 735.79"/>
            <path class="cls-2" d="M764.06,831.5s.07-.02.1-.05l125.1-72.23c1.17-.66,2.14-2.33,2.14-3.68l31.83-83.26c0-1.37-.95-1.92-2.1-1.22l-125.13,72.23c-1.17.66-2.13,2.32-2.13,3.68l-31.84,83.26c0,1.32.9,1.88,2.03,1.27Z"/>
          </g>
        </g>
        <g>
          <path class="cls-6" d="M692.15,725.61c-24.68-10.36-40.7-16.47-60.98-23.71-7.8-2.78-13.82-9.1-16.24-17.02-8.05-26.34-13.85-46.94-19.89-72.33l-42.35,5.54c4.99,25.54,15.83,57.53,28.08,97.55,3.43,11.21,12.74,19.71,24.23,22.09,26.77,5.54,48.69,8.16,73.44,13.02,3.6.71,7.31,1.32,11.03,1.85.15-9.06,1.56-17.89,5.73-25.85-1.02-.34-2.04-.71-3.04-1.13Z"/>
          <path class="cls-4" d="M757.06,750.64l-16.36-9.88c-8.05-4.86-16.91-8.24-26.16-9.97l-13.8-2.59c-1.88-.36-3.73-.85-5.54-1.46-4.16,7.96-5.58,16.78-5.73,25.85,2.91.42,5.83.78,8.7,1.07l17.44,1.76c3.79.38,7.47,1.47,10.86,3.21l10.34,5.32c5.25,2.7,11.55,2.34,16.46-.93l4.02-2.68c1.64-1.1,2.6-2.95,2.56-4.91-.05-1.97-1.1-3.77-2.78-4.79Z"/>
          <g>
            <path class="cls-2" d="M595.04,612.54c6.04,25.4,11.84,45.99,19.89,72.33,2.42,7.92,8.45,14.24,16.24,17.02,20.28,7.24,36.3,13.36,60.98,23.71,2.77,1.16,5.63,2.03,8.58,2.58l13.8,2.59c9.25,1.73,18.11,5.11,26.16,9.97l16.36,9.88c1.68,1.02,2.73,2.82,2.78,4.79.04,1.96-.92,3.81-2.56,4.91l-4.02,2.68c-4.91,3.27-11.21,3.63-16.46.93l-10.34-5.32c-3.39-1.74-7.07-2.83-10.86-3.21l-17.44-1.76c-6.52-.66-13.3-1.66-19.72-2.92-24.75-4.86-46.67-7.48-73.44-13.02-11.49-2.38-20.8-10.87-24.23-22.09-12.25-40.02-23.09-72.01-28.08-97.55"/>
            <path class="cls-5" d="M696.75,727.24c-6.22,7.24-7.91,17.54-6.17,25.51"/>
          </g>
        </g>
        <g>
          <g>
            <path class="cls-6" d="M1107.87,630.58c1.93,14.77,61.3,64.54,30.07,65.39-10.51.29-24.66-11.14-36.97-20.69-1.54-1.2-3.82-.74-4.72.99-3.76,7.24-11.18,8.86-15.96,9.1-1.93.09-3.23-1.94-2.35-3.66,2.83-5.46,7.17-16.87,3.88-30.92-4.63-19.86-17.21-157.56-13.9-176.76,1.21-7.01.65-24.5-.54-43.9,16.07,13.93,44.08,11.59,55.87-7.2-3.34,84.49-18.65,182.54-15.38,207.64Z"/>
            <path class="cls-10" d="M1119.91,357.05c1.66,19.76,4.28,42.01,3.34,65.89-11.78,18.79-39.79,21.12-55.87,7.2-2.07-33.76-6.08-73.28-6.08-73.28,0,0,41.24-15.69,58.61.19Z"/>
          </g>
          <g>
            <path class="cls-2" d="M1061.3,356.86s4.01,39.52,6.08,73.28c1.19,19.4,1.74,36.89.54,43.9-3.31,19.2,9.27,156.9,13.9,176.76,3.28,14.05-1.06,25.45-3.88,30.92-.88,1.72.42,3.75,2.35,3.66,4.78-.24,12.2-1.86,15.96-9.1.9-1.73,3.18-2.19,4.72-.99,12.31,9.55,26.46,20.97,36.97,20.69,31.23-.84-28.14-50.62-30.07-65.39-3.27-25.1,12.04-123.15,15.38-207.64.94-23.88.93-46.68-.73-66.44"/>
            <path class="cls-2" d="M1067.38,430.14c16.07,13.93,44.08,11.59,55.87-7.2"/>
          </g>
        </g>
        <g>
          <g>
            <path class="cls-11" d="M926.2,588.3v41.99c0,3.53-2.33,7.06-6.99,9.75-4.67,2.7-10.78,4.04-16.9,4.04s-12.24-1.35-16.9-4.04c-4.66-2.69-7-6.22-7-9.75v-41.99c0,1.66.52,3.33,1.56,4.91,1.16,1.77,2.98,3.42,5.45,4.85,4.66,2.69,10.78,4.04,16.9,4.04s12.23-1.35,16.9-4.04c2.47-1.43,4.28-3.08,5.45-4.85,1.04-1.58,1.55-3.24,1.55-4.91Z"/>
            <path class="cls-6" d="M926.2,588.3c0,1.66-.51,3.33-1.55,4.91-1.17-1.77-2.98-3.43-5.45-4.85-4.67-2.7-10.78-4.04-16.9-4.04s-12.24,1.34-16.9,4.04c-2.47,1.42-4.28,3.08-5.45,4.85-1.04-1.58-1.56-3.24-1.56-4.91,0-3.53,2.34-7.06,7-9.75,4.66-2.7,10.78-4.04,16.9-4.04s12.23,1.34,16.9,4.04c4.66,2.69,6.99,6.22,6.99,9.75Z"/>
            <path class="cls-7" d="M919.21,588.36c2.47,1.42,4.28,3.08,5.45,4.85-1.17,1.77-2.98,3.42-5.45,4.85-4.67,2.69-10.78,4.04-16.9,4.04s-12.24-1.35-16.9-4.04c-2.47-1.43-4.29-3.08-5.45-4.85,1.17-1.77,2.98-3.43,5.45-4.85,4.66-2.7,10.78-4.04,16.9-4.04s12.23,1.34,16.9,4.04Z"/>
          </g>
          <g>
            <path class="cls-2" d="M924.65,593.21c-1.16,1.77-2.98,3.42-5.45,4.85-4.67,2.69-10.78,4.04-16.9,4.04s-12.24-1.35-16.9-4.04c-2.47-1.43-4.29-3.08-5.45-4.85-1.04-1.58-1.56-3.24-1.56-4.91,0-3.53,2.34-7.06,7-9.75,4.66-2.7,10.78-4.04,16.9-4.04s12.23,1.34,16.9,4.04c4.66,2.69,6.99,6.22,6.99,9.75,0,1.66-.51,3.33-1.55,4.91Z"/>
            <path class="cls-2" d="M924.65,593.21c-1.17-1.77-2.98-3.43-5.45-4.85-4.67-2.7-10.78-4.04-16.9-4.04s-12.24,1.34-16.9,4.04c-2.47,1.42-4.28,3.08-5.45,4.85"/>
            <path class="cls-2" d="M926.2,588.3v41.99c0,3.53-2.33,7.06-6.99,9.75-4.67,2.7-10.78,4.04-16.9,4.04s-12.24-1.35-16.9-4.04c-4.66-2.69-7-6.22-7-9.75v-41.99"/>
          </g>
        </g>
        <g>
          <g>
            <path class="cls-6" d="M838.43,86.72c0,23.74-9.9,45.21-25.8,60.44-10.31,9.86-18.75,21.55-23.98,34.73l-.48-.2c-1.69,2.86-4.52,5.55-8.47,7.82-13.85,7.99-36.3,7.99-50.14,0-3.94-2.26-6.75-4.93-8.44-7.79l-.32.13c-5.23-13.17-13.68-24.85-23.97-34.69-15.89-15.23-25.8-36.7-25.8-60.44,0-46.24,37.48-83.71,83.71-83.72,46.22.01,83.7,37.48,83.7,83.72Z"/>
            <path class="cls-10" d="M804.94,19.74c8.55,17.04,12.17,36.67,10.87,56.29-3.12,34.38-21.88,66.67-52.08,81.25-16.19,8.1-38.1,8.38-56.55,1.24,5.61,7.11,10.28,14.91,13.62,23.33l.32-.13c1.69,2.85,4.51,5.53,8.44,7.79,13.85,7.99,36.3,7.99,50.14,0,3.95-2.27,6.78-4.96,8.47-7.82l.48.2c5.23-13.18,13.67-24.87,23.98-34.73,15.9-15.23,25.8-36.7,25.8-60.44,0-27.39-13.16-51.71-33.49-66.98Z"/>
            <path class="cls-10" d="M788.17,181.69l.48.2c-.67,1.64-1.27,3.31-1.82,5.01-1.35,4.14-2.43,8.37-3.27,12.68h-.02c-.11.56-.21,1.1-.31,1.64-1.44,2.41-3.84,4.69-7.18,6.62-11.78,6.8-30.87,6.8-42.64,0-3.36-1.93-5.75-4.21-7.19-6.63-.09-.55-.2-1.09-.3-1.63h-.02c-.83-4.31-1.93-8.53-3.27-12.68-.55-1.71-1.16-3.39-1.83-5.04l.32-.13c1.69,2.85,4.51,5.53,8.44,7.79,13.85,7.99,36.3,7.99,50.14,0,3.95-2.27,6.78-4.96,8.47-7.82Z"/>
            <path class="cls-10" d="M783.23,201.22c-.94,5.33-1.49,10.77-1.62,16.25,0,3.11-2.01,6.15-5.93,8.74-.59.39-1.24.77-1.93,1.13-2.62,1.36-5.66,2.37-8.89,3.05-3.23.68-6.68,1.02-10.12,1.02h-.01c-6.89,0-13.76-1.36-19.01-4.07-.93-.49-1.8-1.02-2.58-1.56-3.54-2.45-5.3-5.37-5.3-8.31-.13-5.48-.67-10.92-1.62-16.26,1.45,2.42,3.84,4.7,7.19,6.63,11.78,6.8,30.87,6.8,42.64,0,3.34-1.93,5.75-4.21,7.18-6.62Z"/>
            <path class="cls-7" d="M775.68,226.21h0c-.53,11.31-9.85,20.3-21.26,20.3s-20.99-9.22-21.28-20.72c.78.54,1.64,1.06,2.58,1.56,5.25,2.71,12.13,4.07,19.01,4.07h.01c3.44,0,6.89-.34,10.12-1.02,3.23-.68,6.28-1.69,8.89-3.05.69-.36,1.35-.73,1.93-1.13Z"/>
          </g>
          <g>
            <path class="cls-2" d="M788.65,181.89c5.29-13.16,13.67-24.87,23.98-34.73,15.9-15.23,25.8-36.7,25.8-60.44,0-46.24-37.48-83.71-83.7-83.72-46.23.01-83.71,37.48-83.71,83.72,0,23.74,9.91,45.21,25.8,60.44,10.29,9.85,18.7,21.54,23.97,34.69.66,1.66,1.28,3.33,1.83,5.04,1.34,4.14,2.43,8.37,3.27,12.68h.02c.1.55.2,1.09.3,1.63.91,5.35,1.49,10.78,1.62,16.26,0,2.94,1.75,5.86,5.3,8.31.78.54,1.64,1.06,2.58,1.56,5.25,2.71,12.13,4.07,19.01,4.07h.01c3.44,0,6.89-.34,10.12-1.02,3.23-.68,6.28-1.69,8.89-3.05.69-.36,1.34-.74,1.93-1.13,3.93-2.59,5.93-5.63,5.93-8.74.13-5.48.67-10.92,1.62-16.25.1-.55.2-1.09.31-1.64h.02c.83-4.31,1.92-8.53,3.27-12.68.55-1.7,1.16-3.36,1.82-5.01Z"/>
            <path class="cls-2" d="M720.97,68.68c5.66,3.26,5.66,14.79,11.31,18.05,5.64,3.27,5.64-8.27,11.29-5.01,5.64,3.27,5.64,14.8,11.29,18.06,5.66,3.27,5.66-8.27,11.31-5.01,5.65,3.27,5.65,14.8,11.31,18.06"/>
            <path class="cls-2" d="M783.26,201.2s-.01.01-.02.02c-1.44,2.41-3.84,4.69-7.18,6.62-11.78,6.8-30.87,6.8-42.64,0-3.36-1.93-5.75-4.21-7.19-6.63"/>
            <path class="cls-2" d="M788.17,181.69c-1.69,2.86-4.52,5.55-8.47,7.82-13.85,7.99-36.3,7.99-50.14,0-3.94-2.26-6.75-4.93-8.44-7.79"/>
            <path class="cls-2" d="M775.68,226.22c-.53,11.29-9.85,20.29-21.26,20.29s-20.99-9.22-21.28-20.72"/>
          </g>
        </g>
        <g>
          <g>
            <polygon class="cls-6" points="266.43 586.31 188.23 721.76 188.22 721.76 178.91 737.91 119.65 703.71 145.33 659.28 178.91 678.65 240.78 571.47 266.43 586.31"/>
            <path class="cls-10" d="M260.56,613.26v85.9c0,12.57-8.81,27.84-19.7,34.12l-114.65,66.2c-5.44,3.13-10.4,3.5-13.94,1.38-.09-.06-.18-.1-.26-.16-3.41-2.12-5.5-6.47-5.5-12.59v-19.18l63.07-36.41,9.32,5.39,9.31-16.15h.01l16.34-9.44c10.89-6.28,19.7-21.55,19.7-34.12v-18.87l29.03-50.29,7.26,4.21Z"/>
            <path class="cls-6" d="M218.5,533.06l35.95,20.76c-3.54-1.84-8.32-1.47-13.59,1.58l-114.65,66.2c-6.31,3.64-11.92,10.29-15.51,17.68-2.62,5.39-4.19,11.15-4.19,16.44v132.39c0,6.12,2.09,10.47,5.5,12.59.08.06.17.1.26.16l-36.31-20.97c-3.56-2.06-5.77-6.47-5.77-12.74v-132.41c0-12.55,8.81-27.84,19.7-34.11l114.66-66.2c5.44-3.15,10.36-3.44,13.94-1.38Z"/>
            <polygon class="cls-7" points="240.78 571.47 178.91 678.65 142.61 657.7 182.06 589.34 226.89 563.46 240.78 571.47"/>
            <path class="cls-7" d="M145.33,659.28l-25.67,44.43-13.14-7.61v-40.38c0-5.29,1.57-11.06,4.19-16.44l34.63,20Z"/>
            <polygon class="cls-6" points="121.89 705 119.65 703.72 119.65 703.71 121.89 705"/>
          </g>
          <g>
            <line class="cls-2" x1="106.51" y1="696.1" x2="121.89" y2="705"/>
            <line class="cls-2" x1="240.78" y1="571.47" x2="226.89" y2="563.46"/>
            <polyline class="cls-2" points="182.06 589.34 142.61 657.7 110.7 639.28"/>
            <polygon class="cls-2" points="188.23 721.76 266.43 586.31 240.78 571.47 178.91 678.65 145.33 659.28 119.65 703.71 119.65 703.72 178.91 737.91 188.22 721.76 188.23 721.76"/>
            <path class="cls-2" d="M254.45,553.82c-3.54-1.84-8.32-1.47-13.59,1.58l-114.65,66.2c-6.31,3.64-11.92,10.29-15.51,17.68-2.62,5.39-4.19,11.15-4.19,16.44v132.39c0,6.12,2.09,10.47,5.5,12.59.08.06.17.11.26.16,3.53,2.12,8.49,1.75,13.94-1.38l114.65-66.2c10.89-6.28,19.7-21.55,19.7-34.12v-85.9l-7.26-4.21"/>
            <path class="cls-2" d="M258.8,558.37c-.99-1.91-2.35-3.38-4-4.35"/>
            <path class="cls-2" d="M224.27,659.33v18.87c0,12.57-8.81,27.84-19.7,34.12l-16.34,9.44h-.01"/>
            <line class="cls-2" x1="169.58" y1="732.52" x2="106.51" y2="768.93"/>
            <path class="cls-2" d="M254.8,554.02l-36.29-20.96c-3.58-2.06-8.49-1.77-13.94,1.38l-114.66,66.2c-10.89,6.27-19.7,21.55-19.7,34.11v132.41c0,6.27,2.21,10.68,5.77,12.74l36.31,20.97"/>
          </g>
        </g>
        <g>
          <g>
            <path class="cls-7" d="M3,1013.56c0,.07,0,.14,0,.21.05,3.88,2.71,7.74,7.84,10.71,5.12,2.96,11.82,4.47,18.55,4.52,6.96.05,13.96-1.45,19.27-4.52,5.23-3.02,7.83-6.96,7.83-10.92v-16.53c0,3.95-2.6,7.91-7.83,10.91-5.31,3.08-12.3,4.58-19.27,4.52-6.73-.05-13.42-1.56-18.55-4.52-5.13-2.96-7.74-6.82-7.84-10.71v16.32Z"/>
            <path class="cls-6" d="M3,997.02v.21c.1,3.88,2.71,7.74,7.84,10.71,5.12,2.96,11.82,4.47,18.55,4.52,6.96.05,13.96-1.44,19.27-4.52,5.23-3.01,7.83-6.96,7.83-10.91,0-3.18-1.69-6.35-5.04-9.05-.12-.1-.25-.19-.37-.28-.73-.56-1.53-1.09-2.41-1.59-10.46-6.02-27.38-6.03-37.84,0-5.23,3.02-7.83,6.96-7.83,10.91Z"/>
            <path class="cls-7" d="M88.57,1062.96c0,.07,0,.15,0,.21.04,3.88,2.71,7.74,7.84,10.71,5.12,2.97,11.82,4.47,18.55,4.52,6.96.05,13.96-1.44,19.27-4.52,5.23-3.01,7.83-6.96,7.83-10.91v-16.54c0,3.95-2.6,7.91-7.83,10.92-5.31,3.07-12.3,4.58-19.27,4.52-6.73-.06-13.42-1.56-18.55-4.52-5.13-2.96-7.76-6.82-7.84-10.72v16.32Z"/>
            <path class="cls-6" d="M88.57,1046.42v.21c.09,3.89,2.71,7.76,7.84,10.72,5.12,2.96,11.82,4.46,18.55,4.52,6.96.05,13.96-1.45,19.27-4.52,5.23-3.02,7.83-6.97,7.83-10.92,0-2.08-.7-4.16-2.14-6.09-.2-.27-.41-.53-.63-.79-1.27-1.46-2.94-2.83-5.05-4.04-10.45-6.02-27.4-6.02-37.84.01-5.23,3.01-7.83,6.95-7.83,10.9Z"/>
            <path class="cls-7" d="M174.13,1112.36c0,.07,0,.15,0,.21.04,3.88,2.71,7.76,7.84,10.72,5.12,2.96,11.82,4.46,18.55,4.52,6.95.05,13.96-1.45,19.27-4.52,5.23-3.02,7.83-6.97,7.83-10.92v-16.54c0,3.96-2.6,7.91-7.83,10.92-5.31,3.07-12.31,4.58-19.27,4.52-6.73-.05-13.42-1.56-18.55-4.52-5.13-2.96-7.76-6.82-7.84-10.72v16.32Z"/>
            <path class="cls-6" d="M174.13,1095.82v.21c.09,3.89,2.71,7.76,7.84,10.72,5.12,2.96,11.82,4.47,18.55,4.52,6.95.05,13.96-1.45,19.27-4.52,5.23-3.02,7.83-6.96,7.83-10.92,0-1.48-.35-2.94-1.09-4.38-1.21-2.4-3.46-4.66-6.73-6.55-10.45-6.02-27.4-6.02-37.84.01-5.23,3.02-7.83,6.95-7.83,10.9Z"/>
            <path class="cls-7" d="M219.02,964.48c0,.14,0,.28,0,.42.09,7.55,5.25,15.06,15.22,20.83,9.98,5.77,22.98,8.69,36.06,8.78,13.53.11,27.13-2.82,37.45-8.78,10.15-5.86,15.23-13.54,15.23-21.23v-17.59c0,7.69-5.08,15.37-15.23,21.23-10.32,5.97-23.92,8.9-37.45,8.79-13.08-.11-26.08-3.03-36.06-8.79-9.97-5.76-15.05-13.28-15.22-20.84v17.18Z"/>
            <path class="cls-6" d="M219.02,946.9v.41c17.27-2.9,33.17-1.62,41.82-.44h.03c-.59-2.16.56-4.44,3.42-6.09,4.78-2.77,12.56-2.76,17.33,0,4.79,2.77,4.79,7.25,0,10.02-2.87,1.65-6.8,2.3-10.52,1.98h-.02c2.03,5,4.3,14.2-.78,24.15,13.53.11,27.13-2.82,37.45-8.79,10.15-5.86,15.23-13.54,15.23-21.23s-5.08-15.37-15.22-21.23c-20.31-11.7-53.23-11.7-73.53.03-10.16,5.86-15.22,13.52-15.21,21.19Z"/>
            <path class="cls-3" d="M219.02,947.3c.17,7.56,5.25,15.08,15.22,20.84,9.98,5.77,22.98,8.69,36.06,8.79,5.08-9.96,2.81-19.16.78-24.15-2.49-.22-4.88-.89-6.79-1.99s-3.06-2.48-3.42-3.94h-.03c-8.64-1.17-24.55-2.45-41.82.45Z"/>
            <path class="cls-6" d="M264.29,940.78c-2.87,1.65-4.01,3.93-3.42,6.08.36,1.45,1.51,2.83,3.42,3.94s4.3,1.76,6.79,1.99h.02c3.71.32,7.65-.33,10.52-1.98,4.79-2.77,4.79-7.25,0-10.02-4.77-2.76-12.55-2.77-17.33,0Z"/>
          </g>
          <g>
            <path class="cls-2" d="M219.02,946.9c-.01-7.67,5.05-15.33,15.21-21.19,20.3-11.73,53.22-11.73,73.53-.03,10.14,5.86,15.22,13.55,15.22,21.23s-5.08,15.37-15.23,21.23c-10.32,5.97-23.92,8.9-37.45,8.79-13.08-.11-26.08-3.03-36.06-8.79-9.97-5.76-15.05-13.28-15.22-20.84"/>
            <path class="cls-2" d="M260.87,946.85c-.56-2.16.56-4.43,3.42-6.08,4.78-2.77,12.56-2.76,17.33,0,4.79,2.77,4.79,7.25,0,10.02-2.87,1.65-6.8,2.3-10.52,1.98h-.02c-2.49-.22-4.88-.89-6.79-1.99s-3.04-2.49-3.42-3.94Z"/>
            <path class="cls-2" d="M271.08,952.78c2.03,5,4.3,14.2-.78,24.15"/>
            <path class="cls-2" d="M260.83,946.86c-8.64-1.18-24.55-2.46-41.82.44"/>
            <path class="cls-2" d="M219.02,946.9s0,17.86,0,18c.09,7.55,5.25,15.06,15.22,20.83,9.98,5.77,22.98,8.69,36.06,8.78,13.53.11,27.13-2.82,37.45-8.78,10.15-5.86,15.23-13.54,15.23-21.23v-17.59"/>
            <path class="cls-2" d="M227.39,1093.79l38-21.94c11.12-6.42,11.12-16.84,0-23.27l-139.73-80.67c-11.14-6.43-29.17-6.43-40.3,0l-34.29,19.79"/>
            <line class="cls-2" x1="233.22" y1="986.49" x2="139.91" y2="1040.35"/>
            <path class="cls-2" d="M174.13,1095.82c0-3.95,2.6-7.88,7.83-10.9,10.44-6.03,27.38-6.03,37.84-.01,3.27,1.88,5.52,4.15,6.73,6.55.74,1.43,1.09,2.9,1.09,4.38,0,3.96-2.6,7.91-7.83,10.92-5.31,3.07-12.31,4.58-19.27,4.52-6.73-.05-13.42-1.56-18.55-4.52-5.13-2.96-7.76-6.82-7.84-10.72"/>
            <path class="cls-2" d="M174.13,1095.82s0,16.69,0,16.75c.04,3.88,2.71,7.76,7.84,10.72,5.12,2.96,11.82,4.46,18.55,4.52,6.95.05,13.96-1.45,19.27-4.52,5.23-3.02,7.83-6.97,7.83-10.92v-16.54"/>
            <path class="cls-2" d="M88.57,1046.42c0-3.95,2.6-7.89,7.83-10.9,10.44-6.03,27.38-6.03,37.84-.01,2.11,1.21,3.78,2.58,5.05,4.04.22.26.43.52.63.79,1.44,1.92,2.14,4.01,2.14,6.09,0,3.95-2.6,7.91-7.83,10.92-5.31,3.07-12.3,4.58-19.27,4.52-6.73-.06-13.42-1.56-18.55-4.52-5.13-2.96-7.76-6.82-7.84-10.72"/>
            <path class="cls-2" d="M88.57,1046.42s0,16.69,0,16.75c.04,3.88,2.71,7.74,7.84,10.71,5.12,2.97,11.82,4.47,18.55,4.52,6.96.05,13.96-1.44,19.27-4.52,5.23-3.01,7.83-6.96,7.83-10.91v-16.54"/>
            <path class="cls-2" d="M3,997.02c0-3.95,2.6-7.89,7.83-10.91,10.45-6.03,27.38-6.02,37.84,0,.88.5,1.68,1.04,2.41,1.59.13.09.26.18.37.28,3.34,2.7,5.04,5.87,5.04,9.05,0,3.95-2.6,7.91-7.83,10.91-5.31,3.08-12.3,4.58-19.27,4.52-6.73-.05-13.42-1.56-18.55-4.52-5.13-2.96-7.74-6.82-7.84-10.71"/>
            <path class="cls-2" d="M3,997.02s0,16.68,0,16.75c.05,3.88,2.71,7.74,7.84,10.71,5.12,2.96,11.82,4.47,18.55,4.52,6.96.05,13.96-1.45,19.27-4.52,5.23-3.02,7.83-6.96,7.83-10.92v-16.53"/>
          </g>
        </g>
        <g>
          <g>
            <path class="cls-7" d="M861.96,1306.9v33.23c0,14.52,9.6,29.04,28.78,40.1,19.49,11.25,45.18,16.79,70.73,16.58,24.72-.17,49.26-5.69,68.12-16.58,18.83-10.89,28.59-25.08,28.76-39.34,0-.27,0-33.24,0-33.24-.33,14.28-9.93,28.49-28.76,39.36-18.85,10.89-43.4,16.4-68.12,16.61-25.56.2-51.24-5.34-70.73-16.61-19.18-11.08-28.78-25.58-28.78-40.12Z"/>
            <path class="cls-6" d="M890.72,1266.79c-19.16,11.07-28.76,25.6-28.76,40.1s9.6,29.04,28.78,40.12c19.49,11.27,45.18,16.8,70.73,16.61-9.59-18.82-5.31-36.19-1.47-45.63h-.05c-7.01.62-14.44-.62-19.87-3.74-9.04-5.23-9.04-13.7,0-18.93,9.02-5.21,23.71-5.23,32.74,0,5.41,3.12,7.58,7.42,6.47,11.49h.06c16.33-2.21,46.36-4.63,78.98.85v-.77c.01-14.49-9.54-28.95-28.73-40.03-38.36-22.17-100.53-22.17-138.9-.06Z"/>
            <path class="cls-6" d="M940.1,1295.32c-9.04,5.24-9.04,13.71,0,18.93,5.42,3.12,12.86,4.35,19.87,3.74h.05c4.7-.42,9.21-1.68,12.82-3.75,3.62-2.08,5.78-4.69,6.47-7.44,1.11-4.06-1.06-8.37-6.47-11.49-9.03-5.23-23.72-5.21-32.74,0Z"/>
            <path class="cls-10" d="M960.01,1317.99c-3.84,9.44-8.12,26.81,1.47,45.63,24.72-.21,49.26-5.71,68.12-16.61,18.83-10.87,28.43-25.08,28.76-39.36-32.62-5.48-62.66-3.06-78.98-.84h-.06c-.69,2.73-2.85,5.34-6.47,7.42-3.62,2.07-8.12,3.33-12.82,3.75Z"/>
          </g>
          <g>
            <path class="cls-2" d="M1058.35,1306.89c.01-14.49-9.54-28.95-28.73-40.03-38.36-22.17-100.53-22.17-138.9-.06-19.16,11.07-28.76,25.6-28.76,40.1s9.6,29.04,28.78,40.12c19.49,11.27,45.18,16.81,70.73,16.61,24.72-.2,49.26-5.71,68.12-16.61,18.83-10.87,28.43-25.08,28.76-39.36"/>
            <path class="cls-2" d="M979.3,1306.8c1.06-4.07-1.06-8.37-6.47-11.49-9.03-5.23-23.72-5.21-32.74,0-9.04,5.24-9.04,13.71,0,18.93,5.42,3.12,12.86,4.35,19.87,3.74h.05c4.7-.42,9.21-1.68,12.82-3.75,3.62-2.08,5.76-4.7,6.47-7.44Z"/>
            <path class="cls-2" d="M960.01,1317.99c-3.84,9.44-8.12,26.81,1.47,45.63"/>
            <path class="cls-2" d="M979.36,1306.82c16.33-2.22,46.36-4.64,78.98.84"/>
            <path class="cls-2" d="M1058.35,1306.89s0,33.74,0,34.01c-.16,14.26-9.93,28.44-28.76,39.34-18.85,10.89-43.4,16.41-68.12,16.58-25.56.21-51.24-5.33-70.73-16.58-19.18-11.07-28.78-25.58-28.78-40.1v-33.23"/>
          </g>
        </g>
        <g>
          <g>
            <path class="cls-11" d="M1375.82,1114.04h.01c3.29.26,6.43-.18,8.19-1.2l17.23-9.95h.01l71.47-41.27-28.42-16.43h-.01c-.49-8.44-.18-16.3.82-23.71l1.09.11,38.64,22.31c7.64,4.42,12.01,11.04,12.01,18.17,0,6.54-3.66,12.43-10.07,16.13l-92.06,53.16c-4.8,2.77-10.94,4.14-17.26,4.14h-.01c-7.24,0-14.68-1.76-20.76-5.28l-88.15-50.88c-7.65-4.43-12.03-11.05-12.03-18.2,0-6.52,3.68-12.41,10.08-16.1l21.34-12.32c1.12,7.74,1.56,15.69,1.53,23.81l-8.81,5.1,67.1,38.87c23.78,13.78,23.33,13.21,28.05,13.54Z"/>
            <path class="cls-7" d="M1480.67,1081.73l-23.22,122.88c-.68,3.53-2.99,6.63-6.58,8.72l-62.02,35.8c-3.17,1.82-7.21,2.75-11.38,2.78v-116.41h.01c6.32,0,12.46-1.37,17.26-4.14l85.93-49.63Z"/>
            <path class="cls-7" d="M1472.74,1061.62l-23.77,13.71c-2.63-10.86-4.13-20.85-4.66-30.14h.01l28.42,16.43Z"/>
            <path class="cls-6" d="M1448.97,1075.33l-30.49,17.62c-4.88-17.75-6.32-36.83-3.84-55.68,1.32-10.03,3.74-19.98,7.37-29.64,11.4-30.52,34.63-58.08,71.98-75.33-23.48,28.38-44.09,53.53-48.87,89.2-1,7.41-1.31,15.27-.82,23.71.53,9.29,2.03,19.28,4.66,30.14Z"/>
            <path class="cls-7" d="M1422.01,1007.62h.01c-3.62,9.66-6.05,19.62-7.37,29.64h-.01c-2.38-11.71-3.44-23.85-3.47-35.91l10.84,6.27Z"/>
            <path class="cls-6" d="M1411.17,1001.35c.03,12.07,1.1,24.21,3.47,35.91h.01c-2.49,18.85-1.05,37.94,3.84,55.68l-9.35,5.41c-14.61-48.59-21.86-107.24-20.81-140.31v-.02c14.47-39.35,41.75-62.29,41.75-62.29,0,0-19.15,51.89-18.91,105.61Z"/>
            <path class="cls-6" d="M1409.13,1098.35l-7.86,4.54h-.01l-17.23,9.95c-1.76,1.02-4.9,1.46-8.19,1.2h-.01c9.7-43.52-3.02-87.86-18.11-121.15.53-7.36,1.37-15.35,2.67-23.67,4.4-28.39,14.03-60.65,34.48-84.72-2.5,25.14-5.71,48.45-6.53,73.54v.02c-1.06,33.07,6.2,91.72,20.81,140.31Z"/>
            <path class="cls-6" d="M1377.47,1135.5v116.41h-.26c-4.85,0-9.87-1.21-13.95-3.54l-59.39-34.27c-4.36-2.54-7.14-6.13-7.88-10.08l-23.08-122.19,83.81,48.39c6.08,3.52,13.52,5.28,20.76,5.28Z"/>
            <path class="cls-6" d="M1357.72,992.88c15.09,33.29,27.81,77.63,18.11,121.15-4.72-.33-4.28.24-28.05-13.54,6.75-29.52,2.05-67.67-4.75-99.59-7.42-34.82-17.33-62.22-17.57-62.87.44.42,4.27,5.32,9.69,13.65,6.29,9.66,14.75,23.94,22.57,41.2Z"/>
            <path class="cls-6" d="M1360.38,969.21c-1.3,8.32-2.13,16.32-2.67,23.67-7.82-17.26-16.28-31.54-22.57-41.2-3.79-23.2-10.76-50.44-23.55-72.29,28.87,44.78,41.06,62.21,48.79,89.82Z"/>
            <path class="cls-7" d="M1343.02,1000.91c6.8,31.92,11.51,70.07,4.75,99.59l-11.56-6.7c1.65-33.73-.91-60.33-6.8-85.02l13.61-7.87Z"/>
            <path class="cls-6" d="M1329.41,1008.78c5.9,24.68,8.46,51.29,6.8,85.02l-13.37-7.77.03-.04c-1.62-23.38-5.98-43.85-12.82-61.17,0-.01-.01-.02-.01-.03-.1-1.53-.23-3.06-.38-4.61-3.29-36.25-15.03-74.94-31.25-118.33,26.24,40.06,42.41,71.32,51,106.94Z"/>
            <path class="cls-6" d="M1310.04,1024.78s.01.02.01.03c6.84,17.32,11.2,37.79,12.82,61.17l-.03.04-33.64-19.47h.01c.16-3.37.24-6.72.26-10.04.03-8.11-.41-16.07-1.53-23.81-3.75-26.27-15.13-50.26-41.23-70.89,27.72,8.7,48.73,28.78,61.7,59.06.55,1.28,1.1,2.58,1.62,3.91Z"/>
            <path class="cls-7" d="M1280.67,1061.62l8.81-5.1c-.02,3.31-.1,6.66-.26,10.03h-.01s-8.54-4.92-8.54-4.92Z"/>
          </g>
          <g>
            <path class="cls-2" d="M1287.95,1032.71l-21.34,12.32c-6.39,3.68-10.08,9.57-10.08,16.1,0,7.15,4.38,13.77,12.03,18.2l88.15,50.88c6.08,3.52,13.52,5.28,20.76,5.28h.01c6.32,0,12.46-1.37,17.26-4.14l92.06-53.16c6.4-3.69,10.07-9.58,10.07-16.13,0-7.13-4.37-13.75-12.01-18.17l-38.64-22.31"/>
            <polyline class="cls-2" points="1422.01 1007.62 1411.17 1001.35 1411.16 1001.35"/>
            <line class="cls-2" x1="1343.02" y1="1000.91" x2="1329.41" y2="1008.78"/>
            <path class="cls-2" d="M1480.67,1081.73l-23.22,122.88c-.68,3.53-2.99,6.63-6.58,8.72l-62.02,35.8c-3.17,1.82-7.21,2.76-11.38,2.78-.08,0-.18,0-.26,0-4.85,0-9.87-1.21-13.95-3.54l-59.39-34.27c-4.36-2.54-7.14-6.13-7.88-10.08l-23.08-122.19"/>
            <line class="cls-2" x1="1377.47" y1="1135.5" x2="1377.47" y2="1251.91"/>
            <path class="cls-2" d="M1325.44,938.03h.01c.23.66,10.14,28.06,17.57,62.88,6.8,31.92,11.51,70.07,4.75,99.59"/>
            <path class="cls-2" d="M1375.82,1114.06v-.02c9.7-43.52-3.02-87.86-18.11-121.15-7.82-17.26-16.27-31.54-22.57-41.2-5.42-8.33-9.25-13.23-9.69-13.65"/>
            <path class="cls-2" d="M1388.33,958.05c-1.06,33.07,6.2,91.72,20.81,140.31"/>
            <path class="cls-2" d="M1357.72,992.88c.53-7.36,1.37-15.35,2.67-23.67,4.41-28.38,14.03-60.65,34.48-84.72-2.5,25.14-5.71,48.45-6.53,73.54"/>
            <path class="cls-2" d="M1444.32,1045.2l28.42,16.43-71.47,41.27h-.01l-17.23,9.95c-1.76,1.02-4.9,1.46-8.19,1.2h-.01c-4.72-.33-4.29.26-28.05-13.54l-67.1-38.87,8.81-5.1"/>
            <path class="cls-2" d="M1336.22,1093.79c1.65-33.73-.88-60.34-6.8-85.02-8.56-35.63-24.76-66.88-51-106.94,16.23,43.39,27.96,82.09,31.25,118.33.15,1.55.28,3.08.38,4.61v.03"/>
            <path class="cls-2" d="M1335.15,951.68c-3.79-23.2-10.76-50.44-23.55-72.29,28.87,44.78,41.06,62.21,48.79,89.82"/>
            <path class="cls-2" d="M1418.48,1092.95c-4.88-17.75-6.32-36.83-3.84-55.68,1.32-10.03,3.75-19.98,7.37-29.64,11.42-30.51,34.63-58.08,71.98-75.33-23.48,28.38-44.08,53.53-48.87,89.2-.99,7.41-1.3,15.27-.82,23.71.54,9.29,2.03,19.28,4.66,30.14"/>
            <path class="cls-2" d="M1388.33,958.05v-.02c14.47-39.35,41.75-62.29,41.75-62.29,0,0-19.1,51.89-18.91,105.61.04,12.07,1.1,24.21,3.47,35.91"/>
            <path class="cls-2" d="M1289.22,1066.55c.16-3.36.25-6.71.26-10.03.04-8.11-.42-16.06-1.53-23.81-3.77-26.27-15.13-50.26-41.23-70.89,27.72,8.7,48.73,28.78,61.7,59.06.55,1.28,1.1,2.58,1.62,3.91,0,.01.01.02.01.03,6.84,17.32,11.2,37.79,12.82,61.17"/>
          </g>
        </g>
        <g>
          <g>
            <path class="cls-3" d="M1553.79,634.8c.29,6.45-1.81,10.99-5.34,13.02l-25.01,14.44c3.38-2.1,5.37-6.57,5.1-12.89-.52-11.08-8.23-24.28-17.57-30.1-4.41-2.74-8.49-3.47-11.72-2.51-4.26,1.25-9.56,0-14.91-3.09l-7.74-4.47v-54.9l25.26-14.59v54.91l7.76,4.47c5.34,3.09,10.64,4.34,14.9,3.07,3.24-.96,7.32-.23,11.72,2.51,9.34,5.81,17.06,19.03,17.57,30.11Z"/>
            <path class="cls-6" d="M1528.53,649.37c.27,6.31-1.72,10.79-5.1,12.89l-.26.15c-3.32,1.9-7.88,1.63-12.93-1.28-3.03-1.76-5.87-4.25-8.4-7.21-.78-.9-1.52-1.87-2.24-2.86-4.41-6.22-9.62-11.41-15.06-14.56l-7.96-4.6v63.93l-50.59-29.2v-3.96c0-6.27,1.92-11.18,5.08-14.45,2.15-2.21,3.41-5.72,3.41-10.3,0-7.5-3.39-16.05-8.51-22.75-3.09-4.06-6.82-7.46-10.8-9.51-9.34-4.81-16.93-.27-17.28,10.29-.17,5.01,1.22,10.51,3.67,15.67,3.23,6.79,4.79,13.8,4.79,19.98v3.68l-48.51-28.01v-141.55l48.51,28.01v-7.91c0-6.18-1.57-13.19-4.79-19.98-.81-1.72-1.51-3.48-2.07-5.25-1.13-3.53-1.72-7.09-1.6-10.42.18-5.34,2.21-9.14,5.37-10.97,3.1-1.8,7.29-1.7,11.91.68,10.56,5.43,19.31,20.19,19.31,32.24,0,4.58-1.26,8.09-3.41,10.32-3.16,3.27-5.08,8.19-5.08,14.45v8.19l50.59,29.21v54.9l7.74,4.47c5.36,3.09,10.65,4.34,14.91,3.09,3.23-.96,7.3-.23,11.72,2.51,9.34,5.81,17.06,19.02,17.57,30.1Z"/>
            <path class="cls-7" d="M1501.84,653.92v27.34l-25.26,14.58v-63.93l7.96,4.6c5.45,3.15,10.65,8.34,15.06,14.56.72.99,1.46,1.96,2.24,2.86Z"/>
            <polygon class="cls-3" points="1501.84 539.72 1476.58 554.31 1425.99 525.09 1451.27 510.5 1501.84 539.72"/>
            <path class="cls-3" d="M1459.76,477.56c0,4.58-1.28,8.09-3.42,10.32-3.16,3.27-5.07,8.17-5.07,14.44v8.19l-25.27,14.59v-8.19c0-6.27,1.92-11.18,5.08-14.45,2.15-2.22,3.41-5.74,3.41-10.32,0-12.05-8.75-26.81-19.31-32.24-4.63-2.39-8.81-2.48-11.91-.68l25.26-14.59c3.1-1.8,7.29-1.69,11.91.68,10.57,5.45,19.32,20.21,19.32,32.26Z"/>
            <path class="cls-7" d="M1431.61,637.02v3.7l-25.26,14.58v-3.68c0-6.18-1.57-13.19-4.79-19.98-2.45-5.16-3.83-10.67-3.67-15.67.35-10.56,7.94-15.09,17.28-10.29,3.99,2.05,7.71,5.45,10.8,9.51.27.62.55,1.24.85,1.86,3.3,6.77,4.78,13.82,4.78,19.98Z"/>
            <path class="cls-10" d="M1406.35,505.83v7.91l-48.51-28.01,25.26-14.59,16.39,9.46c.56,1.76,1.26,3.53,2.07,5.25,3.23,6.79,4.79,13.8,4.79,19.98Z"/>
          </g>
          <g>
            <path class="cls-2" d="M1523.43,662.26c3.38-2.1,5.37-6.57,5.1-12.89-.52-11.08-8.23-24.28-17.57-30.1-4.41-2.74-8.49-3.47-11.72-2.51-4.26,1.25-9.56,0-14.91-3.09l-7.74-4.47v-54.9l-50.59-29.21v-8.19c0-6.27,1.92-11.18,5.08-14.45,2.15-2.22,3.41-5.74,3.41-10.32,0-12.05-8.75-26.81-19.31-32.24-4.63-2.39-8.81-2.48-11.91-.68-3.16,1.83-5.19,5.63-5.37,10.97-.12,3.33.47,6.89,1.6,10.42.56,1.76,1.26,3.53,2.07,5.25,3.23,6.79,4.79,13.8,4.79,19.98v7.91l-48.51-28.01v141.55l48.51,28.01v-3.68c0-6.18-1.57-13.19-4.79-19.98-2.45-5.16-3.83-10.67-3.67-15.67.35-10.56,7.94-15.09,17.28-10.29,3.99,2.05,7.71,5.45,10.8,9.51,5.11,6.7,8.51,15.25,8.51,22.75,0,4.58-1.26,8.09-3.41,10.3-3.16,3.27-5.08,8.19-5.08,14.45v3.96l50.59,29.2v-63.93l7.96,4.6c5.45,3.15,10.65,8.34,15.06,14.56.72.99,1.46,1.96,2.24,2.86,2.54,2.96,5.37,5.45,8.4,7.21,5.05,2.91,9.62,3.18,12.93,1.28"/>
            <path class="cls-2" d="M1403.26,459.21l25.26-14.59c3.1-1.8,7.29-1.69,11.91.68,10.57,5.45,19.32,20.21,19.32,32.26,0,4.58-1.28,8.09-3.42,10.32-3.16,3.27-5.07,8.17-5.07,14.44v8.19l50.58,29.21v54.91l7.76,4.47c5.34,3.09,10.64,4.34,14.9,3.07,3.24-.96,7.32-.23,11.72,2.51,9.34,5.81,17.06,19.03,17.57,30.11.29,6.45-1.81,10.99-5.34,13.02l-25.27,14.59"/>
            <line class="cls-2" x1="1476.58" y1="554.31" x2="1501.84" y2="539.72"/>
            <polyline class="cls-2" points="1357.84 485.73 1383.1 471.14 1399.49 480.6"/>
            <path class="cls-2" d="M1406.35,655.29l25.26-14.58v-3.7c0-6.16-1.48-13.21-4.78-19.98-.3-.61-.58-1.23-.85-1.86"/>
            <polyline class="cls-2" points="1476.58 695.84 1501.84 681.27 1501.84 653.92"/>
            <line class="cls-2" x1="1425.99" y1="525.09" x2="1451.27" y2="510.5"/>
          </g>
        </g>
        <polyline class="cls-2" points="422.64 491.12 403.84 509.63 385.05 469.41 366.25 487.93 347.46 447.71 328.66 466.23"/>
        <polyline class="cls-2" points="1242.26 1275.74 1223.46 1294.26 1204.66 1254.04 1185.87 1272.55 1167.07 1232.33 1148.27 1250.85"/>
        <polyline class="cls-2" points="315.23 1247.84 334.03 1266.35 352.82 1226.13 371.62 1244.65 390.42 1204.43 409.21 1222.95"/>
        <polyline class="cls-2" points="1263.07 766.8 1281.87 785.32 1300.66 745.09 1319.46 763.61 1338.25 723.39 1357.05 741.91"/>
        <path class="cls-5" d="M385.43,669.03c0-9.17-7.44-16.61-16.61-16.61s-16.61,7.44-16.61,16.61,7.44,16.61,16.61,16.61,16.61-7.44,16.61-16.61Z"/>
        <path class="cls-5" d="M1047.49,1125.3c0-9.17-7.44-16.61-16.61-16.61s-16.61,7.44-16.61,16.61,7.44,16.61,16.61,16.61,16.61-7.44,16.61-16.61Z"/>
        <path class="cls-5" d="M1240.99,534.11c0-9.17-7.44-16.61-16.61-16.61s-16.61,7.44-16.61,16.61,7.44,16.61,16.61,16.61,16.61-7.44,16.61-16.61Z"/>
        <g>
          <line class="cls-2" x1="1498.32" y1="851.8" x2="1529.68" y2="833.69"/>
          <line class="cls-2" x1="1529.68" y1="851.8" x2="1498.32" y2="833.69"/>
        </g>
        <g>
          <line class="cls-2" x1="507.26" y1="318.61" x2="538.62" y2="300.5"/>
          <line class="cls-2" x1="538.62" y1="318.61" x2="507.26" y2="300.5"/>
        </g>
        <g>
          <line class="cls-2" x1="607.35" y1="1375.57" x2="638.72" y2="1357.46"/>
          <line class="cls-2" x1="638.72" y1="1375.57" x2="607.35" y2="1357.46"/>
        </g>
      </g>
    </g>
  </g>
</svg>