<?xml version="1.0" encoding="UTF-8"?>
<svg id="Calque_2" data-name="Calque 2" xmlns="http://www.w3.org/2000/svg" xmlns:xlink="http://www.w3.org/1999/xlink" viewBox="0 0 845.17 657.53">
  <defs>
    <style>
      .cls-1, .cls-2, .cls-3 {
        fill: none;
      }

      .cls-4 {
        fill: #c2c7cc;
      }

      .cls-2 {
        stroke-width: 2px;
      }

      .cls-2, .cls-3, .cls-5 {
        stroke: #373a3a;
        stroke-linecap: round;
        stroke-linejoin: round;
      }

      .cls-6 {
        fill: #969a9e;
      }

      .cls-3, .cls-5 {
        stroke-width: 3px;
      }

      .cls-7, .cls-5 {
        fill: #fff;
      }

      .cls-8 {
        fill: #5f646b;
      }

      .cls-9 {
        fill: #dae0e5;
      }

      .cls-10 {
        fill: #fdb827;
      }

      .cls-11 {
        fill: #373a3a;
      }

      .cls-12 {
        fill: url(#New_Pattern_Swatch_2);
      }
    </style>
    <pattern id="New_Pattern_Swatch_2" data-name="New Pattern Swatch 2" x="0" y="0" width="16" height="19" patternTransform="translate(-4956.88 -4501.06) scale(.4)" patternUnits="userSpaceOnUse" viewBox="0 0 16 19">
      <g>
        <rect class="cls-1" x="0" width="16" height="19"/>
        <g>
          <polygon class="cls-6" points="16 22.18 10.5 19 16 15.82 21.5 19 16 22.18"/>
          <polygon class="cls-6" points="8 12.68 2.5 9.5 8 6.32 13.5 9.5 8 12.68"/>
        </g>
        <polygon class="cls-6" points="0 22.18 -5.5 19 0 15.82 5.5 19 0 22.18"/>
        <polygon class="cls-6" points="16 3.18 10.5 0 16 -3.18 21.5 0 16 3.18"/>
        <polygon class="cls-6" points="0 3.18 -5.5 0 0 -3.18 5.5 0 0 3.18"/>
      </g>
    </pattern>
  </defs>
  <g id="shadow">
    <path class="cls-12" d="M740.09,138.13s21.22-22.18,0-30.79c-21.22-8.61-43.03-3.48-43.03-3.48l-33.16,28.44h.01c-3.37,2.81-2.42,6.99,2.53,9.86l63.08,36.42c5.48,3.17,13.78,3.51,18.53.77.48-.28.89-.58,1.26-.89h.01c17.93-11.09,13.84-36.1-9.23-40.32Z"/>
    <path class="cls-12" d="M794.11,436.72c-4.64,2.68-12.17,2.68-16.81,0-4.64-2.68-4.64-7.02,0-9.7,4.64-2.68,12.17-2.68,16.81,0,4.64,2.68,4.64,7.02,0,9.7Z"/>
    <path class="cls-12" d="M336.55,52.76c-4.64,2.68-12.17,2.68-16.81,0-4.64-2.68-4.64-7.02,0-9.7,4.64-2.68,12.17-2.68,16.81,0,4.64,2.68,4.64,7.02,0,9.7Z"/>
    <path class="cls-12" d="M79.38,459.12c-4.64,2.68-12.17,2.68-16.81,0-4.64-2.68-4.64-7.02,0-9.7,4.64-2.68,12.17-2.68,16.81,0,4.64,2.68,4.64,7.02,0,9.7Z"/>
    <path class="cls-12" d="M127.36,228.76c-17.08,9.86-44.78,9.86-61.86,0-17.08-9.86-17.08-25.85,0-35.71,17.08-9.86,44.78-9.86,61.86,0,17.08,9.86,17.08,25.85,0,35.71Z"/>
    <polygon class="cls-12" points="38.05 327.23 4.75 344.28 62.35 380.05 140.92 332.91 92.64 297.81 38.05 327.23"/>
    <polygon class="cls-12" points="83.78 519.53 126.14 543.74 164.03 520.85 122.98 499.54 83.78 519.53"/>
    <path class="cls-12" d="M480.02,625.76c37.46,15.98,76.84-.95,23.42-21.58l-23.42,21.58Z"/>
    <path class="cls-12" d="M589.95,645.55c26.05,2.37,37.1-1.32,35-7.37-2.11-6.05-27.1-15.79-27.1-15.79l-17.89,6.32,10,16.84Z"/>
    <path class="cls-12" d="M594.22,579.85c26.05,2.37,37.1-1.32,35-7.37s-27.1-15.79-27.1-15.79l-17.89,6.31,10,16.84Z"/>
    <polygon class="cls-12" points="701.44 578.03 671.78 595.94 718.17 624.42 776.6 590.95 731.97 567.17 701.44 578.03"/>
    <path class="cls-12" d="M623.1,367.31l-241.32,136.9c-10.46,5.93-30.09,6.71-43.85,1.73l-96.21-37.59c-13.76-4.98-16.44-13.82-5.98-19.76l241.32-136.9c10.46-5.93,30.09-6.71,43.85-1.73l96.21,37.59c13.76,4.98,16.44,13.82,5.98,19.76Z"/>
    <path class="cls-12" d="M545.37,325.84c2.93-.46,19.13,2.77,33.76,5.39,5.21.93,10.58-.11,15.07-2.93l1.12-.7c4.83-3.03,3.59-10.39-1.97-11.66l-44.4-10.16-3.58,20.06Z"/>
    <path class="cls-12" d="M845.17,342.09l-43.61-25.18-16.82,9.71c-.36-.17-.75-.31-1.18-.43-4.22-1.15-9.86.68-12.61,4.07-1.4,1.73-1.77,3.53-1.25,5.04l-15.4,8.89c-.44-.22-.92-.41-1.46-.56-4.22-1.15-9.86.68-12.61,4.07-2.75,3.4-1.56,7.08,2.66,8.22,4.22,1.15,9.86-.68,12.61-4.07.34-.43.63-.86.85-1.29l18.43,10.64c-1.89.77-3.6,1.93-4.77,3.38-2.75,3.4-1.56,7.08,2.66,8.22s9.86-.68,12.61-4.07c.28-.35.51-.7.71-1.05l7.43,4.29,51.76-29.88Z"/>
    <polygon class="cls-12" points="427.47 589.48 460.12 594.58 491.74 576.47 390.74 518.58 389.72 528.52 427.47 589.48"/>
    <polygon class="cls-12" points="493.27 555.73 522.09 564.15 553.46 546.04 488.17 512.88 493.27 555.73"/>
    <path class="cls-12" d="M363.11,615.63l-45.72-28.84-90.18,47.7,32.92,19.75c6.03,3.62,13.39,4.29,19.98,1.81l28.49-10.71c20.37,3.19,45.8.03,59.23-7.72,12.9-7.45,10.41-16.65-4.74-21.99Z"/>
    <path class="cls-12" d="M738.57,485.98l29.71-14.85-43.78-28.75-90.18,47.7,24.9,14.94c2.7,3.79,8.94,7.13,18.39,9.26,21.06,4.76,50.01,1.77,64.66-6.69,12.6-7.28,10.52-16.22-3.7-21.61Z"/>
    <path class="cls-12" d="M390.56,522.59c17.32-10.32,38.33-21.38,62.66-14.01,2.58-30.22-39.44-38.7-39.44-38.7l-39.44,16.22-12.53,18.43,28.75,18.06Z"/>
  </g>
  <g id="lineart">
    <g id="cloud">
      <g>
        <path class="cls-7" d="M650.93,105.41c0,9.19,6.45,20.36,14.4,24.95l62.74,36.22c3.1,1.79,5.9,1.95,7.93.79l.15-.09c1.95-1.21,3.14-3.68,3.14-7.17,0-7.16-5.02-15.86-11.22-19.44-2.29-1.32-4.42-1.75-6.19-1.42.48-1.31.76-2.85.76-4.64,0-8.46-5.94-18.74-13.27-22.97-2.77-1.61-5.35-2.1-7.48-1.66-2.34-9.55-9.02-19.34-16.91-23.89-4.82-2.78-9.2-3.1-12.4-1.36-1.65.89-2.99,2.33-3.92,4.25-.97,1.97-1.5,4.45-1.5,7.39,0,.66.03,1.32.08,1.99-.63-.46-1.27-.9-1.92-1.27-3.86-2.24-7.38-2.5-9.97-1.13l-.22.12c-2.61,1.5-4.22,4.73-4.22,9.32Z"/>
        <path class="cls-8" d="M665.9,89.88l-10.54,6.08c2.59-1.37,6.11-1.11,9.97,1.13.65.38,1.29.82,1.92,1.27-.05-.67-.08-1.33-.08-1.99,0-2.94.53-5.42,1.5-7.39-1.01.12-1.94.42-2.76.9Z"/>
        <path class="cls-8" d="M672.58,84.73c3.2-1.74,7.58-1.42,12.4,1.36,7.89,4.55,14.57,14.34,16.91,23.89,2.13-.45,4.7.05,7.48,1.66,7.33,4.23,13.27,14.51,13.27,22.97,0,1.79-.28,3.33-.76,4.64,1.77-.33,3.9.1,6.19,1.42,6.19,3.58,11.22,12.28,11.22,19.44,0,3.48-1.19,5.96-3.14,7.17l10.6-6.12c2.03-1.18,3.29-3.68,3.29-7.26,0-7.16-5.02-15.86-11.22-19.44-2.29-1.32-4.42-1.75-6.19-1.42.48-1.31.76-2.85.76-4.64,0-8.46-5.94-18.74-13.27-22.97-2.77-1.61-5.35-2.1-7.48-1.66-2.34-9.55-9.02-19.34-16.91-23.89-4.92-2.84-9.37-3.11-12.59-1.25l-10.56,6.1Z"/>
      </g>
      <g>
        <path class="cls-3" d="M655.15,96.09c-2.61,1.5-4.22,4.73-4.22,9.32,0,9.19,6.45,20.36,14.4,24.95l62.74,36.22c3.1,1.79,5.9,1.95,7.93.79"/>
        <path class="cls-3" d="M736.15,167.27c1.95-1.21,3.14-3.68,3.14-7.17,0-7.16-5.02-15.86-11.22-19.44-2.29-1.32-4.42-1.75-6.19-1.42.48-1.31.76-2.85.76-4.64,0-8.46-5.94-18.74-13.27-22.97-2.77-1.61-5.35-2.1-7.48-1.66-2.34-9.55-9.02-19.34-16.91-23.89-4.82-2.78-9.2-3.1-12.4-1.36-1.65.89-2.98,2.33-3.92,4.25-.96,1.97-1.5,4.45-1.5,7.39,0,.66.03,1.32.08,1.99-.63-.46-1.27-.9-1.92-1.27-3.86-2.24-7.38-2.5-9.97-1.13"/>
        <path class="cls-3" d="M736,167.36l10.75-6.21c2.03-1.18,3.29-3.68,3.29-7.26,0-7.16-5.02-15.86-11.22-19.44-2.29-1.32-4.42-1.75-6.19-1.42.48-1.31.76-2.85.76-4.64,0-8.46-5.94-18.74-13.27-22.97-2.77-1.61-5.35-2.1-7.48-1.66-2.34-9.55-9.02-19.34-16.91-23.89-4.92-2.84-9.37-3.11-12.59-1.25l-10.76,6.21"/>
        <path class="cls-3" d="M668.67,88.98c-1.01.12-1.94.42-2.76.9l-10.75,6.21"/>
      </g>
    </g>
    <g id="mail_envelope" data-name="mail envelope">
      <g>
        <path class="cls-8" d="M2.62,329.53l52.59,30.36c.69.4,1.57.62,2.42.65l-1.36-31.87-54.76-.54c.04.49.42,1,1.11,1.4Z"/>
        <path class="cls-8" d="M56.26,328.67l1.36,31.87c.8.03,1.58-.12,2.15-.45l67.03-38.7c.57-.33.84-.78.79-1.24l-55.27-.79.16,5.88c.05,2.05-2.59,3.57-6.14,3.54l-10.08-.1Z"/>
        <path class="cls-8" d="M1.5,328.13l64.84.63c3.55.04,6.19-1.49,6.14-3.54l-1.02-37.49c-.79-.02-1.58.13-2.14.46L2.29,326.9c-.57.33-.82.78-.79,1.23Z"/>
        <path class="cls-8" d="M72.32,319.35l55.27.79c-.05-.49-.43-1-1.12-1.4l-52.59-30.36c-.7-.4-1.58-.62-2.42-.64l.86,31.61Z"/>
      </g>
      <g>
        <path class="cls-3" d="M57.62,360.54c.8.03,1.58-.12,2.15-.45l67.03-38.7c.57-.33.84-.78.79-1.24-.05-.49-.43-1-1.12-1.4l-52.59-30.36c-.7-.4-1.58-.62-2.42-.64-.79-.02-1.58.13-2.14.46L2.29,326.9c-.57.33-.82.78-.79,1.23.04.49.42,1,1.11,1.4l52.59,30.36c.69.4,1.57.62,2.42.65Z"/>
        <path class="cls-3" d="M1.5,328.13l64.84.63c3.55.04,6.19-1.49,6.14-3.54l-1.02-37.49"/>
        <line class="cls-3" x1="57.62" y1="360.54" x2="56.26" y2="328.67"/>
        <line class="cls-3" x1="72.32" y1="319.35" x2="127.59" y2="320.14"/>
      </g>
    </g>
    <g id="mail_envelope-2" data-name="mail envelope">
      <g>
        <path class="cls-7" d="M6.41,311.38l52.59,30.36c.69.4,1.57.62,2.42.65l-1.36-31.87-54.76-.54c.04.49.42,1,1.11,1.4Z"/>
        <path class="cls-7" d="M60.06,310.51l1.36,31.87c.8.03,1.58-.12,2.15-.45l67.03-38.7c.57-.33.83-.78.79-1.24l-55.27-.79.16,5.88c.05,2.05-2.59,3.57-6.14,3.54l-10.08-.1Z"/>
        <path class="cls-7" d="M5.3,309.98l64.84.63c3.55.04,6.19-1.49,6.14-3.54l-1.02-37.49c-.79-.02-1.58.13-2.14.46L6.08,308.74c-.57.33-.82.78-.79,1.23Z"/>
        <path class="cls-7" d="M76.12,301.19l55.27.79c-.05-.49-.43-1-1.12-1.4l-52.59-30.36c-.7-.4-1.58-.62-2.42-.64l.86,31.61Z"/>
      </g>
      <g>
        <path class="cls-3" d="M61.42,342.38c.8.03,1.58-.12,2.15-.45l67.03-38.7c.57-.33.84-.78.79-1.24-.05-.49-.43-1-1.12-1.4l-52.59-30.36c-.7-.4-1.58-.62-2.42-.64-.79-.02-1.58.13-2.14.46L6.08,308.74c-.57.33-.82.78-.79,1.23.04.49.42,1,1.11,1.4l52.59,30.36c.69.4,1.57.62,2.42.65Z"/>
        <path class="cls-3" d="M5.3,309.98l64.84.63c3.55.04,6.19-1.49,6.14-3.54l-1.02-37.49"/>
        <line class="cls-3" x1="61.42" y1="342.38" x2="60.06" y2="310.51"/>
        <line class="cls-3" x1="76.12" y1="301.19" x2="131.39" y2="301.99"/>
      </g>
    </g>
    <g>
      <polygon class="cls-7" points="770.5 576.94 718.14 607.17 670.83 579.84 723.18 549.62 770.5 576.94"/>
      <g>
        <polygon class="cls-3" points="670.83 579.84 718.14 607.17 770.5 576.94 723.18 549.62 670.83 579.84"/>
        <line class="cls-3" x1="715.89" y1="590.26" x2="705.03" y2="584"/>
        <line class="cls-3" x1="723.64" y1="585.79" x2="703.49" y2="574.15"/>
        <line class="cls-3" x1="731.4" y1="581.31" x2="714.69" y2="571.67"/>
        <line class="cls-3" x1="739.15" y1="576.84" x2="728.3" y2="570.57"/>
      </g>
    </g>
    <g>
      <g>
        <path class="cls-11" d="M131.68,499.28c2.61,1.51,4.26,3.36,4.94,5.32,1.14,3.3-.51,6.86-4.94,9.42-7.05,4.07-18.47,4.07-25.52,0-7.06-4.08-7.05-10.67,0-14.74,1.66-.96,3.56-1.69,5.59-2.2,6.59-1.65,14.53-.92,19.93,2.2ZM80.39,505.99l39.2,22.63,35.43-20.46-39.2-22.63-35.43,20.46Z"/>
        <path class="cls-7" d="M131.68,514.02c4.43-2.56,6.08-6.12,4.94-9.42l-17.7,2.05-7.17-9.57c-2.03.51-3.93,1.24-5.59,2.2-7.05,4.06-7.06,10.66,0,14.74,7.04,4.07,18.47,4.07,25.52,0Z"/>
        <path class="cls-4" d="M136.62,504.6c-.67-1.96-2.32-3.81-4.94-5.32-5.4-3.11-13.35-3.85-19.93-2.2l7.17,9.57,17.7-2.05Z"/>
      </g>
      <g>
        <polygon class="cls-3" points="80.39 505.99 119.59 528.62 155.02 508.17 115.82 485.54 80.39 505.99"/>
        <path class="cls-3" d="M111.75,497.08c-2.03.51-3.93,1.24-5.59,2.2-7.05,4.06-7.06,10.66,0,14.74,7.04,4.07,18.47,4.07,25.52,0,4.43-2.56,6.08-6.12,4.94-9.42-.68-1.96-2.32-3.81-4.94-5.32-5.4-3.11-13.35-3.85-19.93-2.2Z"/>
        <polyline class="cls-3" points="111.75 497.08 118.92 506.65 136.62 504.6"/>
      </g>
    </g>
    <g>
      <g>
        <polygon class="cls-8" points="251.88 65.68 251.55 66.11 240.82 67.36 238.54 57.98 225.82 50.77 233.46 40.73 242.94 44.39 269.07 59.2 259.59 55.55 251.88 65.68"/>
        <polygon class="cls-6" points="147.05 153.43 173.18 168.24 176.21 180.32 150.09 165.5 147.05 153.43"/>
        <polygon class="cls-6" points="238.54 57.98 226.21 64.15 200.09 49.33 212.41 43.16 238.54 57.98"/>
        <polygon class="cls-8" points="188.29 195.49 162.16 180.68 164.26 173.54 176.21 180.32 185.73 175.49 191.88 183.22 188.29 195.49"/>
        <polygon class="cls-8" points="265.47 71.47 267.14 65.79 281.15 74.38 271.63 79.22 265.47 71.47"/>
        <path class="cls-7" d="M182.06,143.99l-7.38-2.73,4.59-15.89,9.51-4.68,7.4-14.54-2.39-9.27,10.44-13.63,7.28,2.89,11.22-9.75,3.48-12.25,12.32-6.17,2.28,9.38,10.73-1.25,8.04-10.56,9.48,3.65-3.6,12.27,6.16,7.74,9.52-4.83,3.03,12.07-8.1,10.48-.77,13.77,7.35,2.74-4.58,15.88-9.51,4.69-7.4,14.53,2.4,9.26-10.45,13.63-7.28-2.89-11.2,9.75-3.49,12.25-12.32,6.17-2.27-9.37-10.73,1.24-8.04,10.56-9.49-3.65,3.6-12.27-6.16-7.73-9.52,4.83-3.03-12.08,8.11-10.48.77-13.77ZM213.28,107.99c-9.59,12.52-14.41,27.71-13.36,39.31.43,4.73,1.84,8.87,4.3,11.96,3.18,3.99,7.66,5.71,12.72,5.38,2.2-.15,4.52-.68,6.88-1.58,6.78-2.57,14-8.16,20.28-16.36,10.18-13.29,15-29.6,13.09-41.42-.39-2.46-1.08-4.74-2.08-6.74-.56-1.12-1.2-2.15-1.96-3.1-4.98-6.26-13.18-6.93-21.82-2.85-6.11,2.87-12.45,8.11-18.04,15.41Z"/>
        <path class="cls-11" d="M204.21,159.26c-2.46-3.1-3.87-7.23-4.3-11.96,6.12-2.89,12.45-8.11,18.05-15.41,9.59-12.51,14.41-27.71,13.35-39.31,8.64-4.07,16.84-3.41,21.82,2.85.76.95,1.4,1.98,1.96,3.1,1.01,2.01,1.7,4.28,2.08,6.74,1.91,11.82-2.91,28.14-13.09,41.42-6.28,8.19-13.5,13.79-20.28,16.36-2.36.91-4.68,1.44-6.88,1.58-5.06.33-9.54-1.39-12.72-5.38Z"/>
        <polygon class="cls-8" points="226.21 64.15 222.74 76.4 211.52 86.15 204.24 83.26 178.12 68.44 185.4 71.33 196.61 61.59 200.09 49.33 226.21 64.15"/>
        <polygon class="cls-6" points="204.24 83.26 193.79 96.88 167.67 82.07 178.12 68.44 204.24 83.26"/>
        <polygon class="cls-8" points="193.79 96.88 196.18 106.15 188.78 120.69 179.27 125.37 153.15 110.55 162.66 105.88 170.07 91.33 167.67 82.07 193.79 96.88"/>
        <polygon class="cls-8" points="182.06 143.99 181.29 157.77 173.18 168.24 147.05 153.43 155.16 142.95 155.84 130.57 174.68 141.26 182.06 143.99"/>
        <polygon class="cls-6" points="179.27 125.37 174.68 141.26 148.56 126.44 153.15 110.55 179.27 125.37"/>
      </g>
      <g>
        <polygon class="cls-3" points="281.15 74.38 271.63 79.22 265.47 71.47 269.07 59.2 259.59 55.55 251.55 66.11 240.82 67.36 238.54 57.98 226.21 64.15 222.74 76.4 211.52 86.15 204.24 83.26 193.79 96.88 196.18 106.15 188.78 120.69 179.27 125.37 174.68 141.26 182.06 143.99 181.29 157.77 173.18 168.24 176.21 180.32 185.73 175.49 191.88 183.22 188.29 195.49 197.77 199.15 205.82 188.58 216.54 187.35 218.82 196.72 231.14 190.55 234.63 178.3 245.84 168.55 253.12 171.44 263.57 157.81 261.17 148.55 268.58 134.02 278.08 129.33 282.67 113.45 275.31 110.7 276.08 96.93 284.18 86.45 281.15 74.38"/>
        <path class="cls-3" d="M231.32,92.58c8.64-4.07,16.84-3.41,21.82,2.85.76.95,1.4,1.98,1.96,3.1,1.01,2.01,1.7,4.28,2.08,6.74,1.91,11.82-2.91,28.14-13.09,41.42-6.28,8.19-13.5,13.79-20.28,16.36-2.36.91-4.68,1.44-6.88,1.58-5.06.33-9.54-1.39-12.72-5.38-2.46-3.1-3.87-7.23-4.3-11.96-1.05-11.59,3.77-26.79,13.36-39.31,5.59-7.3,11.93-12.54,18.04-15.41Z"/>
        <path class="cls-3" d="M231.32,92.58c1.06,11.59-3.76,26.79-13.35,39.31-5.6,7.3-11.94,12.53-18.05,15.41"/>
        <polyline class="cls-3" points="164.26 173.54 162.16 180.68 188.29 195.49"/>
        <polyline class="cls-3" points="225.76 50.85 233.46 40.73 242.94 44.39 269.07 59.2"/>
        <polyline class="cls-3" points="174.68 141.26 148.56 126.44 153.15 110.55 162.66 105.88 170.07 91.33 167.67 82.07 178.12 68.44 185.4 71.33 196.61 61.59 200.09 49.33 212.41 43.16 238.54 57.98"/>
        <line class="cls-3" x1="200.09" y1="49.33" x2="226.21" y2="64.15"/>
        <line class="cls-3" x1="178.12" y1="68.44" x2="204.24" y2="83.26"/>
        <line class="cls-3" x1="167.67" y1="82.07" x2="193.79" y2="96.88"/>
        <line class="cls-3" x1="153.15" y1="110.55" x2="179.27" y2="125.37"/>
        <line class="cls-3" x1="147.05" y1="153.43" x2="173.18" y2="168.24"/>
        <polyline class="cls-3" points="155.84 130.57 155.16 142.95 147.05 153.43 150.09 165.5 176.21 180.32"/>
        <line class="cls-3" x1="281.15" y1="74.38" x2="267.14" y2="65.79"/>
      </g>
    </g>
    <g>
      <g>
        <path class="cls-9" d="M204.67,177.07c-2.75,1.59-4.98,5.84-4.98,9.51v249.14c0,2.02.66,3.42,1.71,4.03l-17.09-9.87c-1.05-.61-1.71-2.03-1.71-4.03v-249.14c0-3.67,2.22-7.92,4.97-9.51L473.53,2.1c1.25-.73,2.39-.77,3.26-.27l17.1,9.87h0c-.88-.49-2.02-.45-3.26.27L204.67,177.07Z"/>
        <path class="cls-8" d="M441.05,381.86c7.25,3.51,7.74,9.86,1.04,13.72l-79.06,45.65c-6.7,3.87-17.7,3.6-23.79-.59l-62.31-42.87,89.9-51.89,74.22,35.98Z"/>
        <path class="cls-4" d="M199.7,435.72v-249.14c0-3.67,2.23-7.92,4.98-9.51L490.63,11.97c1.24-.72,2.38-.76,3.26-.26,1.05.6,1.72,2.02,1.72,4.02v249.14c0,3.67-2.23,7.93-4.98,9.53l-285.96,165.09c-1.25.72-2.39.77-3.27.26-1.05-.61-1.71-2.01-1.71-4.03ZM483.65,261.69V29.8L211.65,186.84v231.9l272-157.05Z"/>
        <path class="cls-7" d="M483.65,29.8v231.89l-272,157.05v-231.9L483.65,29.8ZM455.68,173.31v-94.84l-109.63,63.29v94.84l49.8-28.74h0s59.83-34.54,59.83-34.54ZM323.55,249.59v-94.83l-82.12,47.41v94.83l9.52-5.49h0s72.6-41.92,72.6-41.92Z"/>
        <polygon class="cls-9" points="455.68 78.48 455.68 173.31 444.02 180.04 444.02 152.38 429.97 160.49 429.97 188.15 419.94 193.95 419.94 146.53 405.88 154.65 405.88 202.06 395.85 207.85 395.85 145.24 381.8 153.36 381.8 215.97 371.75 221.77 371.75 182.62 357.7 190.74 357.7 229.87 346.05 236.6 346.05 141.77 455.68 78.48"/>
        <polygon class="cls-7" points="444.02 180.03 444.02 180.04 429.97 188.15 429.97 160.49 444.02 152.38 444.02 180.03"/>
        <polygon class="cls-6" points="419.94 146.53 419.94 193.95 405.88 202.06 405.88 154.65 419.94 146.53"/>
        <polygon class="cls-7" points="395.85 145.24 395.85 207.86 381.8 215.97 381.8 153.36 395.85 145.24"/>
        <polygon class="cls-6" points="371.75 182.62 371.75 221.77 357.7 229.87 357.7 190.74 371.75 182.62"/>
        <path class="cls-9" d="M323.55,154.77v94.83l-9.52,5.5c-1.99-13.3-8.63-29.02-22.48-27.09,3.86-5.34,6.4-11.97,6.4-17.82,0-9.5-6.68-13.34-14.9-8.59-8.23,4.75-14.9,16.3-14.9,25.8,0,5.66,2.37,9.31,6.02,10.33-14.34,13.96-21.19,37.9-23.22,53.78h0s-9.52,5.5-9.52,5.5v-94.83l82.12-47.41Z"/>
        <path class="cls-11" d="M314.03,255.1l-63.08,36.41c2.03-15.88,8.88-39.82,23.22-53.78,2.48.7,5.55.19,8.88-1.73,3.15-1.82,6.08-4.66,8.5-7.98,13.85-1.94,20.49,13.78,22.48,27.09Z"/>
        <path class="cls-7" d="M297.94,210.19c0,5.85-2.53,12.49-6.4,17.82-2.42,3.33-5.35,6.16-8.5,7.98-3.33,1.92-6.4,2.43-8.88,1.73-3.65-1.02-6.02-4.68-6.02-10.33,0-9.5,6.67-21.05,14.9-25.8,8.22-4.75,14.9-.91,14.9,8.59Z"/>
      </g>
      <g>
        <path class="cls-3" d="M366.83,345.88l123.81-71.48c2.75-1.6,4.98-5.86,4.98-9.53V15.74c0-2-.67-3.42-1.72-4.02-.88-.5-2.02-.46-3.26.26L204.67,177.07c-2.75,1.59-4.98,5.84-4.98,9.51v249.14c0,2.02.66,3.42,1.71,4.03.88.51,2.02.46,3.27-.26l162.15-93.61Z"/>
        <polygon class="cls-3" points="483.65 261.69 483.65 29.8 211.65 186.84 211.65 418.74 483.65 261.69"/>
        <path class="cls-3" d="M493.89,11.71l-17.1-9.87c-.87-.5-2.01-.46-3.26.27L187.57,167.2c-2.75,1.59-4.97,5.84-4.97,9.51v249.14c0,2,.66,3.42,1.71,4.03l17.09,9.87"/>
        <path class="cls-3" d="M276.93,397.78l62.31,42.87c6.09,4.18,17.09,4.46,23.79.59l79.06-45.65c6.7-3.86,6.21-10.21-1.04-13.72l-74.22-35.98h-.01"/>
        <polygon class="cls-3" points="395.85 207.86 346.05 236.6 346.05 141.77 455.68 78.48 455.68 173.31 395.85 207.85 395.85 207.86"/>
        <polygon class="cls-3" points="250.94 291.51 323.55 249.59 323.55 154.77 241.42 202.18 241.42 297.01 250.94 291.52 250.94 291.51"/>
        <path class="cls-3" d="M291.55,228.01c3.87-5.33,6.4-11.97,6.4-17.82,0-9.5-6.68-13.34-14.9-8.59-8.23,4.75-14.9,16.3-14.9,25.8,0,5.66,2.37,9.31,6.02,10.33,2.48.7,5.55.19,8.88-1.73,3.15-1.82,6.08-4.65,8.5-7.98Z"/>
        <path class="cls-3" d="M291.55,228.01c13.85-1.94,20.49,13.78,22.48,27.09"/>
        <path class="cls-3" d="M250.94,291.52h0c2.03-15.89,8.88-39.83,23.22-53.79"/>
        <polyline class="cls-3" points="371.75 221.77 371.75 182.62 357.7 190.74 357.7 229.87"/>
        <polyline class="cls-3" points="395.85 207.86 395.85 145.24 381.8 153.36 381.8 215.97"/>
        <polyline class="cls-3" points="419.94 193.95 419.94 146.53 405.88 154.65 405.88 202.06"/>
        <polyline class="cls-3" points="444.02 180.03 444.02 152.38 429.97 160.49 429.97 188.15"/>
        <path class="cls-3" d="M241.42,371.04c1.83-13.63,6.95-22.99,12.45-26.16,11.52-6.65,7.78,3.77,18.2-2.25,10.42-6.02,14.71-40.76,31.25-50.31,16.56-9.56,7.97,21.39,21.76,13.43,13.8-7.96,9.51-24.66,22.37-32.08,12.88-7.44,5.52,12.78,15.94,6.77,10.42-6.02,11.03-35.41,26.05-44.08,15.02-8.67,10.3,22.29,23.64,14.59,14.56-8.41,11.29-22.45,22.93-29.18,7.94-4.58,15.6,13.57,19.67,25.56"/>
      </g>
    </g>
    <g>
      <g>
        <path class="cls-6" d="M89.6,184.57s.07,0,.11,0c4.87,0,9.74,1.01,13.46,3.05,7.42,4.07,7.42,10.68,0,14.76-7.43,4.07-19.46,4.07-26.89,0-7.42-4.08-7.42-10.69,0-14.76,3.68-2.01,8.5-3.04,13.33-3.05ZM109.89,183.97c-5.57-3.15-12.88-4.72-20.17-4.72h-.09c-7.27,0-14.52,1.59-20.06,4.72-11.13,6.29-11.13,16.5,0,22.79,11.14,6.29,29.19,6.29,40.32,0,11.14-6.29,11.14-16.49,0-22.79Z"/>
        <path class="cls-7" d="M89.71,184.57s-.07,0-.11,0c-4.82,0-9.64,1.04-13.33,3.05-7.42,4.07-7.42,10.68,0,14.76,7.43,4.07,19.46,4.07,26.89,0,7.42-4.08,7.42-10.69,0-14.76-3.72-2.04-8.59-3.06-13.46-3.05ZM95.97,191.74c3.45,1.78,3.45,4.65,0,6.42-3.45,1.78-9.05,1.78-12.5,0-3.46-1.77-3.46-4.64,0-6.42,1.69-.86,3.89-1.3,6.1-1.32h.14c2.27,0,4.53.43,6.26,1.32Z"/>
        <polygon class="cls-7" points="89.78 149.36 89.87 149.5 96.81 147.36 96.81 128.5 89.71 129.21 89.71 149.26 89.78 149.36"/>
        <path class="cls-6" d="M95.97,198.16c3.45-1.77,3.45-4.64,0-6.42-1.73-.89-4-1.32-6.26-1.32h-.14c-2.21.02-4.41.46-6.1,1.32-3.46,1.78-3.46,4.65,0,6.42,3.45,1.78,9.05,1.78,12.5,0Z"/>
        <polygon class="cls-7" points="82.94 139.35 89.71 149.26 89.71 129.21 82.94 120.49 82.94 139.35"/>
        <path class="cls-7" d="M89.71,173.6h-.06c-9.7,0-19.41,2.15-26.81,6.43-7.41,4.28-11.14,9.9-11.14,15.52s3.72,11.24,11.14,15.53c14.85,8.57,38.92,8.57,53.77,0,7.42-4.29,11.14-9.91,11.14-15.53s-3.71-11.23-11.14-15.52c-7.43-4.29-17.17-6.43-26.9-6.43ZM89.71,179.25c7.3,0,14.6,1.57,20.17,4.72,11.14,6.29,11.14,16.5,0,22.79-11.14,6.29-29.19,6.29-40.32,0-11.13-6.29-11.13-16.49,0-22.79,5.54-3.13,12.79-4.71,20.06-4.72h.09Z"/>
        <path class="cls-11" d="M51.7,195.54v9.67c0,5.61,3.72,11.23,11.14,15.51,14.85,8.58,38.92,8.58,53.77,0,7.42-4.28,11.14-9.9,11.14-15.51v-9.67c0,5.62-3.71,11.24-11.14,15.53-14.85,8.57-38.92,8.57-53.77,0-7.41-4.29-11.14-9.91-11.14-15.53Z"/>
      </g>
      <g>
        <path class="cls-2" d="M83.47,198.16c-3.46-1.77-3.46-4.64,0-6.42,1.69-.86,3.89-1.3,6.1-1.32h.14c2.27,0,4.53.43,6.26,1.32,3.45,1.78,3.45,4.65,0,6.42-3.45,1.78-9.05,1.78-12.5,0Z"/>
        <path class="cls-2" d="M76.28,202.39c-7.42-4.08-7.42-10.69,0-14.76,3.68-2.01,8.5-3.04,13.33-3.05.04,0,.07,0,.11,0,4.87,0,9.74,1.01,13.46,3.05,7.42,4.07,7.42,10.68,0,14.76-7.43,4.07-19.46,4.07-26.89,0Z"/>
        <path class="cls-2" d="M69.56,206.76c-11.13-6.29-11.13-16.49,0-22.79,5.54-3.13,12.79-4.71,20.06-4.72h.09c7.3,0,14.6,1.57,20.17,4.72,11.14,6.29,11.14,16.5,0,22.79-11.14,6.29-29.19,6.29-40.32,0Z"/>
        <path class="cls-3" d="M51.7,195.54c0-5.62,3.72-11.24,11.14-15.52,7.4-4.27,17.11-6.42,26.81-6.43h.06c9.73,0,19.46,2.13,26.9,6.43,7.42,4.29,11.14,9.9,11.14,15.52s-3.71,11.24-11.14,15.53c-14.85,8.57-38.92,8.57-53.77,0-7.41-4.29-11.14-9.91-11.14-15.53Z"/>
        <path class="cls-3" d="M127.74,195.54v9.67c0,5.61-3.71,11.23-11.14,15.51-14.85,8.58-38.92,8.58-53.77,0-7.41-4.28-11.14-9.9-11.14-15.51v-9.67"/>
        <line class="cls-3" x1="89.71" y1="194.53" x2="89.71" y2="129.21"/>
        <polygon class="cls-3" points="89.71 149.26 89.87 149.5 96.81 147.36 96.81 128.5 89.71 129.21 82.94 120.49 82.94 139.35 89.71 149.26"/>
      </g>
    </g>
    <g id="cart_shoping" data-name="cart shoping">
      <g>
        <g>
          <path class="cls-7" d="M809.18,342.5c0,1.29-.46,2.73-1.19,3.99-.73,1.27-1.75,2.38-2.86,3.02-1.12.65-2.13.71-2.86.29-.73-.43-1.19-1.33-1.19-2.63s.43-2.67,1.15-3.93c.74-1.29,1.77-2.42,2.9-3.08,1.11-.64,2.13-.7,2.86-.28.73.42,1.18,1.33,1.19,2.62Z"/>
          <path class="cls-11" d="M802.7,336.83l5.29,3.05c-.73-.42-1.75-.36-2.86.28-1.13.66-2.16,1.79-2.9,3.08-.72,1.26-1.15,2.66-1.15,3.93s.46,2.2,1.19,2.63l-5.29-3.05c-.73-.43-1.18-1.33-1.18-2.63s.44-2.67,1.15-3.93c.73-1.29,1.76-2.42,2.89-3.08,1.12-.64,2.13-.7,2.86-.28Z"/>
          <path class="cls-7" d="M778.12,324.57c0,1.29-.45,2.72-1.19,3.99-.73,1.27-1.74,2.38-2.86,3.02-1.12.65-2.12.71-2.86.29-.73-.43-1.18-1.33-1.18-2.63s.43-2.67,1.15-3.93c.73-1.29,1.76-2.43,2.89-3.08,1.12-.64,2.13-.7,2.86-.28.74.43,1.19,1.33,1.19,2.62Z"/>
          <path class="cls-11" d="M771.64,318.9l5.29,3.05c-.73-.42-1.74-.36-2.86.28-1.13.65-2.16,1.79-2.89,3.08-.72,1.26-1.15,2.66-1.15,3.93s.45,2.2,1.18,2.63l-5.29-3.05c-.73-.43-1.19-1.33-1.19-2.63s.44-2.67,1.16-3.93c.73-1.29,1.76-2.42,2.89-3.08,1.12-.64,2.13-.7,2.86-.28Z"/>
          <path class="cls-7" d="M774.93,362.27c0,1.29-.45,2.72-1.18,3.99-.73,1.26-1.75,2.38-2.86,3.02-1.13.65-2.13.71-2.86.29-.73-.43-1.19-1.33-1.19-2.62s.43-2.68,1.15-3.94c.74-1.29,1.77-2.42,2.9-3.08,1.11-.64,2.13-.7,2.86-.28.73.42,1.18,1.34,1.18,2.63Z"/>
          <path class="cls-11" d="M768.46,356.59l5.29,3.05c-.73-.42-1.75-.36-2.86.28-1.13.66-2.16,1.79-2.9,3.08-.72,1.26-1.15,2.66-1.15,3.94s.46,2.19,1.19,2.62l-5.29-3.05c-.73-.42-1.18-1.33-1.18-2.62s.43-2.68,1.15-3.94c.73-1.29,1.76-2.42,2.89-3.08,1.12-.65,2.13-.71,2.86-.29Z"/>
          <path class="cls-7" d="M743.88,344.35c0,1.29-.46,2.72-1.19,3.98-.73,1.27-1.74,2.38-2.86,3.02-1.12.65-2.13.71-2.86.29-.73-.43-1.18-1.33-1.18-2.63s.43-2.67,1.14-3.93c.74-1.29,1.77-2.42,2.9-3.08,1.12-.64,2.13-.7,2.86-.28.73.43,1.18,1.33,1.19,2.63Z"/>
          <path class="cls-11" d="M737.41,338.66l5.29,3.05c-.73-.42-1.74-.36-2.86.28-1.13.66-2.16,1.79-2.9,3.08-.71,1.26-1.14,2.66-1.14,3.93s.45,2.2,1.18,2.63l-5.29-3.05c-.73-.42-1.19-1.33-1.19-2.62s.44-2.68,1.16-3.94c.73-1.29,1.76-2.42,2.89-3.08,1.12-.64,2.13-.7,2.86-.28Z"/>
        </g>
        <g>
          <path class="cls-2" d="M742.69,341.72c-.73-.42-1.74-.36-2.86.28-1.13.66-2.16,1.79-2.9,3.08-.71,1.26-1.14,2.66-1.14,3.93s.45,2.2,1.18,2.63c.73.42,1.74.36,2.86-.29,1.12-.64,2.13-1.75,2.86-3.02.73-1.26,1.19-2.7,1.19-3.98,0-1.29-.46-2.2-1.19-2.63Z"/>
          <path class="cls-2" d="M742.69,341.72l-5.29-3.05c-.73-.42-1.74-.36-2.86.28-1.13.66-2.16,1.79-2.89,3.08-.72,1.26-1.16,2.67-1.16,3.94s.46,2.2,1.19,2.62l5.29,3.05"/>
          <path class="cls-2" d="M776.93,321.95c-.73-.42-1.74-.36-2.86.28-1.13.65-2.16,1.79-2.89,3.08-.72,1.26-1.15,2.66-1.15,3.93s.45,2.21,1.18,2.63c.74.42,1.74.36,2.86-.29,1.12-.65,2.13-1.75,2.86-3.02.74-1.27,1.19-2.7,1.19-3.99s-.45-2.19-1.19-2.62Z"/>
          <path class="cls-2" d="M776.93,321.95l-5.29-3.05c-.73-.42-1.74-.36-2.86.28-1.13.66-2.16,1.79-2.89,3.08-.72,1.26-1.16,2.67-1.16,3.93s.46,2.2,1.19,2.63l5.29,3.05"/>
          <path class="cls-2" d="M773.75,359.65c-.73-.42-1.75-.36-2.86.28-1.13.66-2.16,1.79-2.9,3.08-.72,1.26-1.15,2.66-1.15,3.94s.46,2.2,1.19,2.62c.73.42,1.74.36,2.86-.29,1.11-.64,2.13-1.75,2.86-3.02.73-1.27,1.18-2.7,1.18-3.99s-.45-2.2-1.18-2.63Z"/>
          <path class="cls-2" d="M773.75,359.65l-5.29-3.05c-.73-.42-1.74-.36-2.86.29-1.13.65-2.16,1.78-2.89,3.08-.72,1.26-1.15,2.67-1.15,3.94s.45,2.2,1.18,2.62l5.29,3.05"/>
          <path class="cls-2" d="M807.98,339.88c-.73-.42-1.75-.36-2.86.28-1.13.66-2.16,1.79-2.9,3.08-.72,1.26-1.15,2.66-1.15,3.93s.46,2.2,1.19,2.63c.73.42,1.74.36,2.86-.29,1.11-.65,2.13-1.75,2.86-3.02.73-1.26,1.19-2.7,1.19-3.99,0-1.29-.46-2.2-1.19-2.62Z"/>
          <path class="cls-2" d="M807.98,339.88l-5.29-3.05c-.73-.42-1.74-.36-2.86.28-1.13.66-2.16,1.79-2.89,3.08-.71,1.26-1.15,2.67-1.15,3.93s.45,2.2,1.18,2.63l5.29,3.05"/>
        </g>
      </g>
      <g>
        <g>
          <path class="cls-6" d="M820.33,244.26c0,.81-.28,1.71-.74,2.51-.46.79-1.1,1.49-1.8,1.89s-1.33.44-1.79.18c-.47-.27-.75-.84-.75-1.65s.27-1.68.72-2.47c.46-.81,1.1-1.52,1.81-1.93.7-.4,1.34-.44,1.79-.18.46.27.74.83.74,1.64Z"/>
          <path class="cls-6" d="M812.54,246.83l-33.74-19.47c-.46-.27-.75-.84-.75-1.65s.28-1.68.72-2.47c.46-.81,1.1-1.52,1.82-1.93.7-.4,1.33-.44,1.79-.18l37.2,21.49c-.46-.27-1.09-.23-1.79.18-.71.41-1.36,1.12-1.81,1.93-.45.79-.72,1.67-.72,2.47s.28,1.38.75,1.65l-3.47-2Z"/>
          <polygon class="cls-9" points="802.41 303.03 757.09 329.2 757.09 318.61 793.24 297.74 802.41 303.03"/>
          <polygon class="cls-9" points="784 292.41 793.24 297.74 757.09 318.61 757.09 307.95 784 292.41"/>
          <polygon class="cls-9" points="784 292.41 757.09 307.95 757.09 298.36 775.07 287.25 784 292.41"/>
          <polygon class="cls-9" points="775.07 287.25 757.09 298.36 771.64 285.27 775.07 287.25"/>
          <polygon class="cls-9" points="771.64 285.27 757.09 298.36 752.14 295.5 770.75 284.76 771.64 285.27"/>
          <polygon class="cls-9" points="757.09 318.61 757.09 329.2 725.43 310.93 733.49 306.27 755.98 319.25 757.09 318.61"/>
          <polygon class="cls-9" points="757.09 307.95 757.09 318.61 755.98 319.25 733.49 306.27 742.73 300.93 755.98 308.59 757.09 307.95"/>
          <polygon class="cls-9" points="757.09 298.36 757.09 307.95 755.98 308.59 742.73 300.93 752.14 295.5 757.09 298.36"/>
        </g>
        <g>
          <polygon class="cls-2" points="757.09 298.36 757.09 329.2 802.41 303.03 802.41 257.6 757.09 298.36"/>
          <line class="cls-2" x1="770.75" y1="239.32" x2="802.41" y2="257.6"/>
          <polyline class="cls-2" points="733.49 306.27 770.75 284.76 770.75 239.32 725.43 280.08 725.43 310.93 757.09 329.2"/>
          <line class="cls-2" x1="725.43" y1="310.93" x2="733.49" y2="306.27"/>
          <polyline class="cls-2" points="770.75 275.44 725.43 301.61 755.98 319.25 802.41 292.44"/>
          <polygon class="cls-2" points="770.75 264.78 802.41 281.78 755.98 308.59 725.43 290.95 770.75 264.78"/>
          <line class="cls-2" x1="725.43" y1="280.08" x2="770.75" y2="253.35"/>
          <line class="cls-2" x1="770.75" y1="253.35" x2="802.41" y2="270.35"/>
          <line class="cls-2" x1="802.41" y1="303.03" x2="770.75" y2="284.76"/>
          <polyline class="cls-2" points="802.41 270.35 757.09 298.36 725.43 280.08"/>
          <line class="cls-2" x1="802.41" y1="257.6" x2="812.54" y2="246.83"/>
          <line class="cls-2" x1="770.75" y1="239.32" x2="781.17" y2="228.73"/>
          <path class="cls-2" d="M816.02,248.85c.45.25,1.08.2,1.77-.2.7-.4,1.34-1.1,1.8-1.89.46-.8.74-1.7.74-2.51s-.29-1.37-.74-1.64"/>
          <path class="cls-2" d="M819.58,242.62c-.46-.27-1.09-.23-1.79.18-.71.41-1.36,1.12-1.81,1.93-.45.79-.72,1.67-.72,2.47s.28,1.38.75,1.65h.02"/>
          <path class="cls-2" d="M819.58,242.62l-37.2-21.49c-.46-.26-1.09-.22-1.79.18-.72.41-1.36,1.12-1.82,1.93-.44.78-.72,1.67-.72,2.47s.29,1.38.75,1.65l37.21,21.48"/>
          <path class="cls-2" d="M794.33,307.7l9.86,22.83c.69,1.58.76,3.3.31,4.85-.5,1.74-1.66,3.3-3.34,4.27l-34.14,19.71c-2.38,1.37-5.32,1.37-7.69,0l-26.67-15.4c-.59-.34-.96-.97-.96-1.66s.37-1.32.96-1.66l22.12-12.76"/>
          <line class="cls-2" x1="775.44" y1="318.61" x2="804.5" y2="335.38"/>
        </g>
      </g>
    </g>
    <g>
      <g>
        <path class="cls-9" d="M312.26,281.74c-6.03-3.38-11.45-3.63-15.34-1.31h0s13.93-8.29,13.93-8.29c3.89-2.32,9.32-2.06,15.34,1.32,2.51,1.4,4.91,3.24,7.15,5.36,3.27,3.11,6.22,6.86,8.58,10.94.09.15.17.3.25.44,3.72,6.49,6.06,13.73,6.16,20.33.01.06.01.13.01.19,0,.27,0,.54-.01.8-.17,6.49-2.41,11.09-6.15,13.31l-13.94,8.28c3.9-2.32,6.27-7.2,6.17-14.12-.08-6.8-2.53-14.31-6.43-20.97-4.03-6.87-9.6-12.88-15.72-16.3Z"/>
        <path class="cls-9" d="M288.28,523.03c-12.33,7.13-22.63,24.46-22.33,38.7.3,14.79,1.03,21.09-7.61,26.07l-6.52,3.76c-3.68,2.13-8.22,2.13-11.9,0l-30.23-17.45c-.87-.5-1.4-1.43-1.4-2.42s.53-1.92,1.4-2.43l8.27-4.77c4.99-2.88,6.85-6.2,7.51-10.68.26-1.8.33-3.8.32-6.02-.01-2.73-.13-5.82-.13-9.35,0-2.7.36-5.51,1.03-8.33s1.64-5.68,2.87-8.46l7,9.91,21.5,12.4c3.54-10.88,11.29-21.5,20.29-26.69.95-.55,1.89-1.03,2.82-1.43l-11.07-14.02,33.99,19.62h0c-4.04-2.33-9.62-2-15.8,1.56Z"/>
        <path class="cls-10" d="M508.4,244.49c.92.44,1.36,1.11,1.35,1.83l-100.7,8.09c-5.52.44-9.81-1.63-9.95-4.83l-2.52-58.39c1.24-.12,2.46.03,3.38.48l108.43,52.82Z"/>
        <path class="cls-10" d="M509.76,246.32c0,.77-.54,1.61-1.58,2.3l-78.41,52.95c-1.04.7-2.38,1.13-3.7,1.26l-1.37-49.68,85.06-6.83Z"/>
        <path class="cls-10" d="M426.07,302.83c-1.25.13-2.46-.02-3.38-.47l-51.9-25.28,18.25-11.42-.29-7.9-10.61-4.91-34.97,10.77-28.92-14.09c-.93-.44-1.39-1.12-1.36-1.84l85.82-7.27.39,9.15c.14,3.2,4.43,5.28,9.95,4.83l15.64-1.26,1.37,49.68Z"/>
        <path class="cls-4" d="M290.82,292.09c.44-5.62,2.69-9.63,6.1-11.66,3.89-2.32,9.32-2.07,15.34,1.31,6.12,3.43,11.69,9.43,15.72,16.3,3.9,6.66,6.34,14.17,6.43,20.97.1,6.91-2.27,11.8-6.17,14.12-3.82,2.27-9.12,2.06-15.02-1.15,2.34-2.23,4.53-4.51,6.54-6.76l.44-26.2-16.4-8.81c-3.76-.02-8.11.48-12.98,1.88Z"/>
        <path class="cls-8" d="M238.53,384.02l-2.76,1.76c.03-.18.05-.37.08-.55,0-.03.01-.06.01-.1.97-4.92.04-11.3-3-18.05-1.07-2.37-2.29-4.65-3.73-6.74-1.44-2.08-3.14-4.03-4.98-5.86-4.62-4.61-9.55-7.58-14.03-8.79l2.82-1.81c2.47-1.59,5.82-1.78,9.64-.37.75.28,1.51.62,2.29,1.03,4.83,2.53,9.3,7.03,12.59,12.27,3.19,5.08,5.27,10.83,5.5,16.1.04.96.02,1.88-.05,2.75-.35,3.93-1.96,6.8-4.39,8.35Z"/>
        <path class="cls-4" d="M134.22,387.5c-.48.87-.88,1.81-1.19,2.79,7.5-25.89,48.39-50.43,75.28-44.99.59.12,1.19.23,1.81.4,4.48,1.22,9.41,4.18,14.03,8.79,1.84,1.83,3.54,3.77,4.98,5.86,1.44,2.08,2.66,4.37,3.73,6.74,3.05,6.75,3.98,13.13,3,18.05,0,.03-.01.06-.01.1-.03.18-.05.37-.08.55-2.31,13.8-12.9,28.44-26.41,39.16-7.97,6.32-16.91,11.28-25.65,13.91-3.83,1.16-7.62,1.87-11.27,2.04l-.27-.38c16.57-3.65,12.28-32.9-2.41-47.56-13.72-13.7-29.65-16.15-35.53-5.46Z"/>
        <path class="cls-7" d="M171.05,440.72c.38-.05.75-.13,1.11-.2l.27.38c-1.36.07-2.71.06-4.03-.03.91.03,1.79-.03,2.64-.15Z"/>
        <path class="cls-8" d="M358.2,284.95c-.11-2.99-2.25-4.13-4.79-2.55-2.55,1.6-4.51,5.31-4.41,8.31.11,2.99,2.25,4.13,4.79,2.55,2.55-1.6,4.51-5.32,4.41-8.31ZM370.78,277.09l9.8,4.77-31.55,30-.7-1.31h-.01c-.11-6.6-2.44-13.85-6.16-20.33l5.4-19.76,41.18-12.68.29,7.9-18.25,11.42Z"/>
        <path class="cls-4" d="M172.16,440.52c-.36.08-.73.15-1.11.2-.86.12-1.73.18-2.64.15-.01.01-.02.01-.03,0-9.07-.2-19.96-7.5-27.61-18.55-7.5-10.83-10.51-23.29-7.79-31.85.02-.05.04-.12.05-.18.32-.98.72-1.92,1.19-2.79,5.88-10.69,21.8-8.25,35.53,5.46,14.69,14.65,19,44.02,2.41,47.56Z"/>
        <path class="cls-6" d="M258.33,587.81c8.64-4.98,7.91-11.28,7.61-26.07-.3-14.24,10-31.57,22.33-38.7,6.17-3.56,11.76-3.89,15.8-1.55,4.05,2.33,6.54,7.33,6.54,14.45s-2.61,15.35-6.82,22.47c-1.52,2.6-3.27,5.08-5.18,7.34l.68.39c2.37,1.37,3.53,3.2,3.53,5.13,0,2.32-1.69,4.76-5,6.67l-46.43,26.8c-6.05,3.49-15.19,3.87-20.43.85l-38.11-21.99c-2.37-1.37-3.53-3.2-3.53-5.12,0-2.32,1.69-4.76,5-6.67l31.12-17.97h.01c-.66,4.48-2.52,7.8-7.51,10.68l-8.27,4.77c-.87.51-1.4,1.43-1.4,2.43s.53,1.92,1.4,2.42l30.23,17.45c3.68,2.13,8.22,2.13,11.9,0l6.52-3.76ZM288.28,564.65c7.57-4.37,13.7-14.99,13.7-23.73s-6.13-12.28-13.7-7.91c-7.56,4.37-13.69,14.99-13.69,23.73s6.13,12.28,13.69,7.91Z"/>
        <path class="cls-10" d="M314.48,245.41l78.41-52.95c1.04-.7,2.38-1.14,3.7-1.27l2.13,49.24-85.82,7.27c.01-.77.55-1.6,1.59-2.29Z"/>
        <path class="cls-8" d="M348.33,310.54l.7,1.31-.7-.32h-.01c.01-.26.01-.53.01-.8,0-.06,0-.13-.01-.19h.01Z"/>
        <path class="cls-4" d="M388.75,257.77l-41.18,12.68-5.4,19.76c-.08-.15-.17-.3-.25-.44-2.36-4.08-5.31-7.83-8.58-10.94l3.63-13.27,41.18-12.69,10.61,4.91Z"/>
        <path class="cls-11" d="M358.2,284.95c.11,2.99-1.86,6.71-4.41,8.31-2.54,1.59-4.68.44-4.79-2.55-.11-3,1.86-6.71,4.41-8.31,2.54-1.59,4.68-.44,4.79,2.55Z"/>
        <path class="cls-6" d="M320.2,299.01l-.44,26.2c-2.02,2.24-4.21,4.53-6.54,6.76-5.69,5.47-12.27,10.73-19.55,14.77-5.79,3.22-10.98,3.65-14.57,1.71l-.11-.05c-3.21-1.79-5.12-5.47-5.03-10.73.18-11.15,9.32-25.19,20.39-31.33,10.27-5.7,19.02-7.37,25.86-7.33Z"/>
        <path class="cls-8" d="M320.2,299.01c-6.84-.04-15.6,1.63-25.86,7.33-11.07,6.14-20.21,20.17-20.39,31.33-.08,5.27,1.82,8.95,5.03,10.73l-7.73-4.16c1.85-3.01,1.91-6.94-.16-10.09-2.85-4.3-8.66-5.48-12.96-2.62l-.39.27h-.01c-.14-.92-.19-1.9-.18-2.94.19-11.15,9.32-25.19,20.39-31.34,4.61-2.56,8.91-4.3,12.88-5.45,4.87-1.41,9.22-1.9,12.98-1.88l16.4,8.81Z"/>
        <path class="cls-9" d="M303.81,558.41c41.99,20.04,44.19,56.02,6.59,77.71-35.52,20.51-93.11,20.51-128.63,0-35.53-20.5-35.53-53.76,0-74.26,12.56-7.25,27.88-11.95,44.01-14.06.01,2.22-.05,4.22-.32,6.02h-.01l-31.12,17.97c-3.31,1.91-5,4.36-5,6.67v19.32c0,1.91,1.16,3.75,3.53,5.12l38.11,22c5.23,3.02,14.38,2.64,20.43-.86l46.43-26.8c3.31-1.91,5.01-4.36,5.01-6.67v-19.32h-.01c0-1.92-1.16-3.75-3.53-5.13l-.68-.39c1.91-2.26,3.66-4.74,5.18-7.34h.01Z"/>
        <path class="cls-11" d="M302.84,571.26v19.32c0,2.32-1.7,4.76-5.01,6.67l-46.43,26.8c-6.05,3.5-15.19,3.88-20.43.86l-38.11-22c-2.37-1.36-3.53-3.2-3.53-5.12v-19.32c0,1.91,1.16,3.74,3.53,5.12l38.11,21.99c5.23,3.02,14.38,2.64,20.43-.85l46.43-26.8c3.31-1.91,5-4.36,5-6.67h.01Z"/>
        <path class="cls-4" d="M301.98,540.92c0,8.73-6.13,19.36-13.7,23.73-7.56,4.37-13.69.82-13.69-7.91s6.13-19.36,13.69-23.73c7.57-4.37,13.7-.82,13.7,7.91Z"/>
        <path class="cls-8" d="M270.08,501.84l11.07,14.02c-.93.4-1.87.88-2.82,1.43-9,5.19-16.75,15.81-20.29,26.69l-74.33-105.12c8.74-2.63,17.68-7.59,25.65-13.91l60.72,76.9Z"/>
        <path class="cls-7" d="M271.1,334.16c2.07,3.15,2.01,7.07.16,10.09-.69,1.12-1.63,2.1-2.79,2.88l-15.66,11c-.73-2.94-2.05-5.92-3.76-8.64-1.72-2.74-3.85-5.23-6.2-7.2l15.29-10.74c4.3-2.85,10.11-1.68,12.96,2.62Z"/>
        <path class="cls-11" d="M183.71,438.86l74.33,105.12-21.5-12.4-64.11-90.68c3.65-.17,7.44-.88,11.27-2.04Z"/>
        <path class="cls-11" d="M253.44,362.35c.19,4.29-1.18,7.37-3.55,8.88l-6.97,4.44c.07-.87.1-1.79.05-2.75-.23-5.28-2.3-11.03-5.5-16.1-3.29-5.23-7.77-9.74-12.59-12.27-.78-.41-1.54-.75-2.29-1.03l6.85-4.37c2.37-1.51,5.74-1.46,9.55.52,1.33.69,2.63,1.58,3.86,2.6,2.35,1.97,4.47,4.46,6.2,7.2,1.71,2.72,3.03,5.7,3.76,8.64.36,1.43.58,2.85.63,4.23Z"/>
      </g>
      <g>
        <path class="cls-3" d="M189.33,578.47v19.32c0,1.91,1.16,3.75,3.53,5.12l38.11,22c5.23,3.02,14.38,2.64,20.43-.86l46.43-26.8c3.31-1.91,5.01-4.36,5.01-6.67v-19.32"/>
        <path class="cls-2" d="M301.98,540.92c0,8.73-6.13,19.36-13.7,23.73-7.56,4.37-13.69.82-13.69-7.91s6.13-19.36,13.69-23.73c7.57-4.37,13.7-.82,13.7,7.91Z"/>
        <path class="cls-3" d="M225.45,553.82l-31.12,17.97c-3.31,1.91-5,4.36-5,6.67,0,1.91,1.16,3.74,3.53,5.12l38.11,21.99c5.23,3.02,14.38,2.64,20.43-.85l46.43-26.8c3.31-1.91,5-4.36,5-6.67,0-1.92-1.16-3.75-3.53-5.13l-.68-.39c1.91-2.26,3.65-4.74,5.18-7.34,4.19-7.13,6.82-15.19,6.82-22.47s-2.5-12.12-6.54-14.45c-4.04-2.33-9.62-2.01-15.8,1.55-12.33,7.13-22.63,24.46-22.33,38.7.3,14.79,1.03,21.09-7.61,26.07l-6.52,3.76c-3.68,2.13-8.22,2.13-11.9,0l-30.23-17.45c-.87-.5-1.4-1.43-1.4-2.42s.53-1.92,1.4-2.43l8.27-4.77c4.99-2.88,6.85-6.2,7.51-10.68.26-1.8.33-3.8.32-6.02-.01-2.73-.13-5.82-.13-9.35,0-2.7.36-5.51,1.03-8.33s1.64-5.68,2.87-8.46"/>
        <path class="cls-3" d="M303.81,558.41c41.99,20.04,44.19,56.02,6.59,77.71-35.52,20.51-93.11,20.51-128.63,0-35.53-20.5-35.53-53.76,0-74.26,12.56-7.25,27.88-11.95,44.01-14.06"/>
        <line class="cls-3" x1="304.07" y1="521.47" x2="270.08" y2="501.84"/>
        <path class="cls-3" d="M172.16,440.52l64.38,91.06,21.5,12.4c3.54-10.88,11.29-21.5,20.29-26.69.95-.55,1.89-1.03,2.82-1.43l-71.79-90.92"/>
        <line class="cls-3" x1="258.04" y1="543.98" x2="183.71" y2="438.86"/>
        <path class="cls-3" d="M133.03,390.29c.32-.98.72-1.92,1.19-2.79,5.88-10.69,21.8-8.25,35.53,5.46,14.69,14.65,19,44.02,2.41,47.56-.36.08-.73.15-1.11.2-.86.12-1.73.18-2.64.15"/>
        <path class="cls-3" d="M168.38,440.87c-9.07-.2-19.96-7.5-27.61-18.55-7.5-10.83-10.51-23.29-7.79-31.85"/>
        <path class="cls-3" d="M208.23,345.29s.05.01.08.01c.59.11,1.19.23,1.81.4,4.48,1.22,9.41,4.18,14.03,8.79,1.84,1.83,3.54,3.77,4.98,5.86,1.44,2.08,2.66,4.37,3.73,6.74,3.05,6.75,3.98,13.13,3,18.05"/>
        <path class="cls-3" d="M132.36,393.05c.17-.86.37-1.71.61-2.58.02-.05.04-.12.05-.18,7.5-25.89,48.52-51.04,75.28-44.99"/>
        <path class="cls-3" d="M165.19,440.51c1.05.18,2.1.3,3.18.36.01.01.02.01.03,0,1.32.1,2.66.1,4.03.03,3.65-.18,7.44-.88,11.27-2.04,8.74-2.64,17.68-7.59,25.65-13.91,13.51-10.72,24.1-25.36,26.41-39.16.03-.18.05-.37.08-.55,0-.03.01-.06.01-.1"/>
        <path class="cls-3" d="M222.58,343.53l6.85-4.37c2.37-1.51,5.74-1.46,9.55.52,1.33.69,2.63,1.57,3.86,2.6,2.35,1.97,4.47,4.46,6.2,7.2,1.71,2.72,3.03,5.7,3.76,8.64.36,1.43.58,2.85.63,4.23.19,4.29-1.18,7.37-3.55,8.88l-6.97,4.44"/>
        <path class="cls-3" d="M210.12,345.71l2.82-1.81c2.47-1.59,5.82-1.78,9.64-.37.75.28,1.51.62,2.29,1.03,4.83,2.53,9.3,7.03,12.59,12.27,3.19,5.08,5.27,10.83,5.5,16.1.04.96.02,1.88-.05,2.75-.35,3.93-1.96,6.8-4.39,8.35l-2.76,1.76"/>
        <path class="cls-3" d="M242.84,342.28l15.29-10.74c4.3-2.85,10.11-1.68,12.96,2.62,2.07,3.15,2.01,7.07.16,10.09-.69,1.12-1.63,2.1-2.79,2.88l-15.66,11"/>
        <path class="cls-3" d="M290.82,292.09c.44-5.62,2.69-9.63,6.1-11.66,3.89-2.31,9.32-2.07,15.34,1.31,6.12,3.43,11.69,9.43,15.72,16.3,3.9,6.66,6.34,14.17,6.43,20.97.1,6.91-2.27,11.8-6.17,14.12-3.82,2.27-9.12,2.06-15.02-1.15"/>
        <path class="cls-3" d="M296.92,280.42l13.93-8.28c3.89-2.32,9.32-2.06,15.34,1.32,2.51,1.4,4.91,3.23,7.15,5.36,3.27,3.11,6.22,6.86,8.58,10.94.09.15.17.3.25.44,3.72,6.49,6.06,13.73,6.16,20.33.01.06.01.13.01.19,0,.27,0,.54-.01.8-.17,6.49-2.41,11.09-6.15,13.31l-13.94,8.28"/>
        <path class="cls-3" d="M279.09,348.46c3.6,1.93,8.78,1.51,14.57-1.71,7.28-4.04,13.85-9.31,19.55-14.77,2.33-2.23,4.53-4.51,6.54-6.76l.44-26.2c-6.84-.04-15.6,1.63-25.86,7.33-11.07,6.14-20.21,20.17-20.39,31.33-.08,5.27,1.82,8.95,5.03,10.73"/>
        <path class="cls-3" d="M320.2,299.01l-16.4-8.81c-3.76-.02-8.11.48-12.98,1.88-3.96,1.14-8.27,2.89-12.88,5.45-11.07,6.15-20.2,20.18-20.39,31.34-.01,1.04.04,2.02.18,2.93"/>
        <line class="cls-3" x1="271.25" y1="344.25" x2="279.09" y2="348.46"/>
        <polyline class="cls-3" points="380.58 281.85 349.03 311.85 348.33 310.54"/>
        <polyline class="cls-3" points="342.16 290.21 347.56 270.45 388.75 257.77"/>
        <path class="cls-3" d="M358.2,284.95c-.11-2.99-2.25-4.13-4.79-2.55-2.55,1.6-4.51,5.31-4.41,8.31.11,2.99,2.25,4.13,4.79,2.55,2.55-1.6,4.51-5.32,4.41-8.31Z"/>
        <polyline class="cls-3" points="358.2 284.95 389.03 265.67 388.75 257.77 378.14 252.86 336.96 265.55 333.33 278.82"/>
        <line class="cls-3" x1="348.33" y1="311.53" x2="349.03" y2="311.85"/>
        <path class="cls-3" d="M343.17,263.64l-28.92-14.09c-.93-.44-1.38-1.12-1.36-1.84.02-.77.55-1.6,1.59-2.29l78.41-52.95c1.04-.7,2.38-1.14,3.7-1.27,1.24-.12,2.46.03,3.38.48l108.43,52.82c.92.44,1.36,1.11,1.35,1.83,0,.77-.54,1.61-1.58,2.3l-78.41,52.95c-1.04.7-2.38,1.13-3.7,1.26-1.25.12-2.46-.02-3.38-.47l-51.9-25.28"/>
        <path class="cls-3" d="M509.76,246.32l-100.7,8.09c-5.52.44-9.81-1.63-9.95-4.83l-2.52-58.39"/>
        <line class="cls-3" x1="426.07" y1="302.83" x2="424.7" y2="253.15"/>
        <line class="cls-3" x1="398.73" y1="240.43" x2="312.89" y2="247.7"/>
      </g>
    </g>
    <g>
      <g>
        <path class="cls-4" d="M565.17,172.24c-4.35.68-8.77,1.12-13.22,1.31-20.58.96-41.72-3.12-57.47-12.21-28.51-16.46-28.51-43.15,0-59.62,28.51-16.46,74.74-16.46,103.25,0,27.81,16.06,28.47,41.81,2.05,58.38-.67.42-1.35.83-2.05,1.24-9.35,5.43-20.64,9.03-32.57,10.9Z"/>
        <path class="cls-8" d="M599.79,160.12c-.55,3.57-2.46,7.77-5.41,11.71-1.33,1.81-2.88,3.56-4.61,5.18-3.43,3.23-7.01,5.42-10.2,6.46-2.65.86-5.01.94-6.81.16-1.08-.46-1.95-1.23-2.55-2.31l-5.04-9.09c11.93-1.86,23.21-5.46,32.57-10.9.7-.41,1.39-.82,2.05-1.24h0Z"/>
        <path class="cls-8" d="M642.52,310.77l-20.61,98.28-20.37-11.76,21.35-101.79c5.26,6.41,10.82,11.4,16.03,13.94.35.17.68.32,1.01.46.04.02.08.03.11.04.06.03.13.05.19.08.26.12.52.22.79.3.02.01.04.01.06.02.47.16.95.3,1.44.42Z"/>
        <path class="cls-6" d="M640.23,310.03c.27.11.53.2.79.3-.27-.09-.53-.18-.79-.3Z"/>
        <path class="cls-6" d="M633.95,215.32l-5.57-8.14c-.17-.26-.38-.51-.59-.72,3.48-.3,6.74.05,9.35,1.19.02,0,.03.01.05.01,3.15,1.39,5.36,3.9,5.88,7.74,1.01,7.28-4.86,16.67-14.18,23.04-9.32,6.38-20.2,8.43-26.62,4.85-3.39-1.89-4.93-4.86-5.07-8.3-.13-2.84.71-6.01,2.26-9.15.14.3.3.59.48.86h.01s5.56,8.14,5.56,8.14c.51.75,1.22,1.39,2.17,1.88,4.13,2.18,11.28.65,17.5-3.61,6.22-4.27,10.24-10.4,9.72-15.06-.13-1.08-.46-1.98-.97-2.73Z"/>
        <path class="cls-4" d="M691.47,275.91c-.4,8.94-7.61,19.57-18.5,27.02-5.07,3.46-10.49,5.93-15.68,7.29-5.37,1.4-10.49,1.6-14.77.55-.49-.12-.97-.26-1.44-.42-.02-.01-.04-.01-.06-.02-.26-.1-.52-.19-.79-.3-.06-.02-.13-.04-.19-.08-.03-.01-.06-.02-.11-.04-.33-.14-.67-.29-1.01-.46-5.2-2.54-10.77-7.53-16.03-13.94-14.56-17.71-27.1-45.96-25.68-60.52.14,3.44,1.68,6.41,5.07,8.3,6.42,3.58,17.29,1.53,26.62-4.85,9.31-6.37,15.19-15.76,14.18-23.04-.53-3.84-2.73-6.36-5.88-7.74,19.89,5.61,55.08,47.04,54.27,68.25h.01Z"/>
        <path class="cls-7" d="M601.75,215.55l-22.18-32.07c3.18-1.04,6.77-3.24,10.2-6.46,1.73-1.62,3.28-3.38,4.61-5.18h.01l26.91,38.93c.24.34.37.76.39,1.29.08,2.24-2.27,5.39-5.65,7.72-3.39,2.34-7.13,3.41-9.15,2.53-.46-.2-.81-.47-1.03-.81l-4.11-5.95Z"/>
        <path class="cls-11" d="M640.76,405.67l-.58,3.32-2.66-1.55h.01c-.08-.05-.15-.1-.23-.13-4.78-2.61-10.64-1.05-15.39,1.73l20.61-98.28c4.27,1.08,9.4.85,14.77-.55l-16.53,95.45Z"/>
        <path class="cls-11" d="M551.95,173.55c4.45-.19,8.87-.63,13.22-1.31l5.04,9.09c.6,1.09,1.47,1.85,2.55,2.31l-18.07-7.51c-1.11-.46-2-1.24-2.61-2.34l-.13-.23h0Z"/>
        <path class="cls-11" d="M628.54,207.41l5.41,7.91c.51.75.84,1.66.97,2.73.52,4.66-3.51,10.79-9.72,15.06-6.22,4.26-13.37,5.8-17.5,3.61-.96-.49-1.67-1.13-2.17-1.88l-5.56-8.13c.51.74,1.22,1.38,2.16,1.87,4.13,2.17,11.28.65,17.5-3.62,6.23-4.26,10.24-10.4,9.72-15.05-.11-.97-.39-1.8-.81-2.5Z"/>
        <path class="cls-6" d="M639.93,309.91s.08.03.11.04c-.03-.01-.06-.02-.11-.04Z"/>
        <path class="cls-8" d="M629.34,209.91c.52,4.65-3.5,10.79-9.72,15.05-6.22,4.27-13.37,5.8-17.5,3.62-.95-.49-1.66-1.13-2.16-1.87h-.01c-.18-.28-.35-.57-.48-.87-1.25-2.77-.14-6.65,2.28-10.28l4.11,5.95c.23.33.57.6,1.03.81,2.02.88,5.76-.18,9.15-2.53,3.38-2.33,5.72-5.49,5.65-7.72-.02-.53-.15-.95-.39-1.29l-4.08-5.9c4.32-.99,8.39-.6,10.56,1.59.21.22.42.46.59.72l.16.24c.42.7.7,1.53.81,2.5Z"/>
        <path class="cls-9" d="M661.24,410.31c75.62,13.84,89.89,63.04,42.81,90.22-36.13,20.87-94.71,20.87-130.84,0-35.8-20.66-36.13-54.06-.99-74.96-.24,1.62-.37,3.24-.37,4.81,0,6.98,2.45,11.88,6.42,14.18l2.62,1.52v14.65c0,1.95,1.18,3.82,3.6,5.21l38.75,22.37c5.32,3.08,14.63,2.69,20.78-.86l47.24-27.26c3.36-1.95,5.09-4.43,5.09-6.79v-19.65c0-1.96-1.18-3.82-3.6-5.22l-31.51-18.2Z"/>
        <path class="cls-11" d="M616.06,466.37h0c1.48.91,3.19,1.46,5.08,1.59.73.05,1.44.29,2.09.66,5.33,3.06,14.65,2.72,20.81-.84l47.24-27.26c3.36-1.95,5.09-4.42,5.09-6.79v19.65c0,2.36-1.73,4.84-5.09,6.79l-47.24,27.26c-6.15,3.55-15.46,3.94-20.78.86l-38.75-22.37c-2.42-1.39-3.6-3.26-3.6-5.21v-14.65l35.16,20.31Z"/>
        <path class="cls-6" d="M652.21,418.93c1.38,3.14,1.9,7.25,1.29,12.19-1.72,13.85,3.32,16.89,14.08,10.68l6.83-3.95c2.34-1.36,2.34-4.74,0-6.1l-22.2-12.82ZM646.82,412.9l-6.65-3.9.58-3.32c4.4-1.95,9.51-1.7,13.72.73l38.28,22.1c2.42,1.4,3.6,3.26,3.6,5.22,0,2.37-1.73,4.84-5.09,6.79l-47.24,27.26c-6.16,3.56-15.48,3.9-20.81.84-.64-.37-1.36-.6-2.09-.66-1.88-.13-3.59-.68-5.08-1.6-3.79-2.36-6.11-7.2-6.11-14,0-14.09,9.97-31.24,22.21-38.12,2.61-1.47,5.17-2.31,7.55-2.56,2.62-.29,5.04.14,7.11,1.23ZM631.85,453.5c6.6-3.81,11.95-13.07,11.95-20.69s-5.35-10.7-11.95-6.89c-6.59,3.81-11.94,13.08-11.94,20.69s5.35,10.7,11.94,6.89Z"/>
        <path class="cls-6" d="M674.41,431.75c2.34,1.36,2.34,4.74,0,6.1l-6.83,3.95c-10.76,6.21-15.8,3.17-14.08-10.68.61-4.94.09-9.05-1.29-12.19l22.2,12.82Z"/>
        <path class="cls-7" d="M640.17,409l6.65,3.9c-2.07-1.09-4.48-1.52-7.11-1.23l.46-2.68Z"/>
        <path class="cls-4" d="M643.8,432.81c0,7.63-5.35,16.89-11.95,20.69-6.59,3.81-11.94.72-11.94-6.89s5.35-16.89,11.94-20.69c6.6-3.81,11.95-.72,11.95,6.89Z"/>
        <path class="cls-9" d="M640.17,409l-.46,2.68c-2.38.25-4.94,1.09-7.55,2.56-12.24,6.87-22.21,24.03-22.21,38.12,0,6.81,2.32,11.65,6.11,14h0s-37.78-21.81-37.78-21.81c-3.97-2.29-6.42-7.2-6.42-14.18,0-1.57.13-3.18.37-4.81,1.87-12.85,10.8-26.93,21.54-33.14,3.38-1.95,6.57-2.91,9.42-2.98l-1.65,7.85,20.37,11.76c4.75-2.79,10.62-4.35,15.39-1.73l2.87,1.68Z"/>
        <path class="cls-7" d="M637.53,407.44h-.01s-.22-.12-.22-.12c.08.03.15.08.23.12Z"/>
      </g>
      <g>
        <path class="cls-2" d="M643.8,432.81c0,7.63-5.35,16.89-11.95,20.69-6.59,3.81-11.94.72-11.94-6.89s5.35-16.89,11.94-20.69c6.6-3.81,11.95-.72,11.95,6.89Z"/>
        <path class="cls-3" d="M661.24,410.31c75.62,13.84,89.89,63.04,42.81,90.22-36.13,20.87-94.71,20.87-130.84,0-35.8-20.66-36.13-54.06-.99-74.96"/>
        <line class="cls-3" x1="637.53" y1="407.44" x2="637.52" y2="407.45"/>
        <path class="cls-3" d="M652.21,418.93c1.38,3.14,1.9,7.25,1.29,12.19-1.72,13.85,3.32,16.89,14.08,10.68l6.83-3.95c2.34-1.36,2.34-4.74,0-6.1l-22.2-12.82Z"/>
        <path class="cls-3" d="M647.25,413.15c2.12,1.23,3.83,3.17,4.96,5.78"/>
        <path class="cls-3" d="M640.76,405.67c4.4-1.95,9.51-1.7,13.72.73l38.28,22.1c2.42,1.4,3.6,3.26,3.6,5.22,0,2.37-1.73,4.84-5.09,6.79l-47.24,27.26c-6.16,3.56-15.48,3.9-20.81.84-.64-.37-1.36-.6-2.09-.66-1.88-.13-3.59-.68-5.08-1.6-3.78-2.36-6.11-7.2-6.11-14,0-14.09,9.97-31.24,22.21-38.12,2.61-1.47,5.17-2.3,7.55-2.56,2.63-.28,5.04.14,7.11,1.23"/>
        <path class="cls-3" d="M580.9,446.06v14.65c0,1.95,1.18,3.82,3.6,5.21l38.75,22.37c5.32,3.08,14.63,2.69,20.78-.86l47.24-27.26c3.36-1.95,5.09-4.43,5.09-6.79v-19.65"/>
        <path class="cls-3" d="M616.36,466.54l-38.08-21.99c-3.97-2.29-6.42-7.2-6.42-14.18,0-1.57.13-3.18.37-4.81,1.87-12.85,10.8-26.93,21.54-33.14,3.38-1.95,6.57-2.91,9.42-2.98"/>
        <line class="cls-3" x1="637.12" y1="407.21" x2="647.25" y2="413.15"/>
        <path class="cls-3" d="M637.58,407.47s-.03-.02-.05-.03c-.08-.04-.15-.09-.23-.12-4.78-2.61-10.64-1.05-15.39,1.73l-20.37-11.76,21.35-101.79"/>
        <line class="cls-3" x1="621.91" y1="409.05" x2="642.52" y2="310.77"/>
        <line class="cls-3" x1="657.31" y1="310.1" x2="639.71" y2="411.68"/>
        <path class="cls-3" d="M640.03,309.95s-.06-.02-.11-.04"/>
        <path class="cls-3" d="M641.01,310.33c-.27-.09-.53-.18-.79-.3"/>
        <path class="cls-3" d="M691.41,273.56c.08.76.09,1.55.05,2.36-.44,8.94-7.61,19.57-18.5,27.02-5.07,3.46-10.48,5.93-15.68,7.29-5.37,1.4-10.49,1.6-14.77.55-.49-.12-.97-.26-1.44-.42"/>
        <path class="cls-3" d="M637.18,207.66c3.15,1.39,5.36,3.9,5.88,7.74,1.01,7.28-4.86,16.67-14.18,23.04-9.32,6.38-20.2,8.43-26.62,4.85-3.39-1.89-4.92-4.86-5.07-8.3-.12-2.84.71-6.01,2.26-9.15"/>
        <path class="cls-3" d="M627.78,206.45c3.48-.3,6.74.05,9.35,1.19"/>
        <path class="cls-3" d="M599.95,226.69c-.18-.27-.35-.56-.48-.86-1.25-2.77-.14-6.65,2.28-10.28"/>
        <path class="cls-3" d="M628.54,207.41c.42.7.7,1.53.81,2.5.52,4.65-3.5,10.79-9.72,15.05-6.22,4.27-13.37,5.8-17.5,3.62-.95-.49-1.66-1.13-2.16-1.87"/>
        <path class="cls-3" d="M617.22,204.86c4.32-.99,8.39-.6,10.56,1.59.21.22.42.46.59.72"/>
        <path class="cls-3" d="M691.46,275.91c.81-21.21-34.38-62.64-54.27-68.25-.02,0-.03-.01-.05-.01"/>
        <path class="cls-3" d="M641.08,310.35s-.04-.01-.06-.02c-.26-.1-.52-.19-.79-.3-.06-.02-.13-.04-.19-.08-.03-.01-.06-.02-.11-.04-.33-.14-.67-.29-1.01-.46-5.2-2.54-10.76-7.53-16.03-13.94-14.55-17.72-27.1-45.96-25.68-60.52v-.05"/>
        <path class="cls-3" d="M599.95,226.69h.01s5.56,8.14,5.56,8.14c.51.75,1.22,1.39,2.17,1.88,4.13,2.18,11.28.65,17.5-3.61,6.22-4.27,10.24-10.4,9.72-15.06-.13-1.08-.46-1.98-.97-2.73l-5.57-8.14"/>
        <path class="cls-3" d="M579.57,183.47h0s26.29,38.03,26.29,38.03c.23.33.57.6,1.03.81,2.02.88,5.76-.18,9.15-2.53,3.38-2.33,5.72-5.49,5.65-7.72-.02-.53-.15-.95-.39-1.29l-26.91-38.93"/>
        <path class="cls-3" d="M565.17,172.24l5.04,9.09c.6,1.09,1.47,1.85,2.55,2.31,1.8.77,4.16.7,6.81-.16,3.18-1.04,6.77-3.24,10.2-6.46,1.73-1.62,3.28-3.38,4.61-5.18,2.94-3.96,4.86-8.14,5.41-11.71"/>
        <path class="cls-3" d="M572.82,183.67l-18.13-7.54c-1.11-.46-2-1.24-2.61-2.34l-.13-.23"/>
        <path class="cls-3" d="M599.79,160.11c-.67.42-1.35.83-2.05,1.24-9.35,5.43-20.64,9.03-32.57,10.9-4.35.68-8.77,1.11-13.22,1.31-20.58.93-41.72-3.12-57.47-12.21-28.51-16.46-28.51-43.15,0-59.62,28.51-16.46,74.74-16.46,103.25,0,27.81,16.06,28.47,41.81,2.05,58.38Z"/>
      </g>
    </g>
    <g>
      <g>
        <path class="cls-11" d="M575.88,127.08c0,.05,0,.11,0,.19-.03,10.22-22.51,16.79-34.22,10.03l-23.58-13.62c-3.45-2-4.99-4.7-4.72-7.51.02-23.18,7.04-32.12,16.43-37.04,2.62,6.22,8.73,10.59,15.91,10.59,5.05,0,9.57-2.18,12.73-5.63,12.96,9.06,17.41,16.98,17.45,42.99Z"/>
        <path class="cls-7" d="M558.43,84.09c-3.16,3.45-7.69,5.63-12.73,5.63-7.18,0-13.29-4.37-15.91-10.59-.87-2.04-1.33-4.29-1.33-6.65,0-9.53,7.72-17.24,17.24-17.24s17.25,7.71,17.25,17.24c0,4.48-1.71,8.56-4.52,11.61Z"/>
      </g>
      <g>
        <path class="cls-3" d="M575.88,127.08c-.07-26.01-4.49-33.93-17.45-42.99h-.01"/>
        <path class="cls-3" d="M529.79,79.12c-9.39,4.91-16.41,13.85-16.43,37.04-.27,2.81,1.27,5.51,4.72,7.51l23.58,13.62c11.71,6.76,34.19.2,34.22-10.03,0-.07,0-.13,0-.19"/>
        <path class="cls-3" d="M529.79,79.12c-.87-2.04-1.33-4.29-1.33-6.65,0-9.53,7.72-17.24,17.24-17.24s17.25,7.71,17.25,17.24c0,4.48-1.71,8.55-4.52,11.61-3.16,3.45-7.69,5.63-12.73,5.63-7.18,0-13.28-4.38-15.91-10.59Z"/>
      </g>
    </g>
    <g>
      <g>
        <path class="cls-10" d="M534.04,275.5c0,1.94,1.29,3.89,3.86,5.38,5.15,2.97,13.49,2.97,18.63,0,2.58-1.49,3.86-3.43,3.86-5.38v10.76c0,1.96-1.29,3.9-3.86,5.39-5.14,2.97-13.48,2.97-18.63,0-2.57-1.48-3.86-3.43-3.86-5.39v-10.76Z"/>
        <path class="cls-7" d="M560.39,264.88c0,1.94-1.29,3.89-3.86,5.38-5.14,2.97-13.48,2.97-18.63,0-2.57-1.49-3.86-3.43-3.86-5.38s1.29-3.89,3.86-5.38c5.15-2.97,13.49-2.97,18.63,0,2.58,1.49,3.86,3.43,3.86,5.38Z"/>
        <path class="cls-10" d="M556.53,270.26c2.58-1.49,3.86-3.43,3.86-5.38v10.61c0,1.94-1.29,3.89-3.86,5.38-5.14,2.97-13.48,2.97-18.63,0-2.57-1.49-3.86-3.43-3.86-5.38v-10.61c0,1.94,1.29,3.89,3.86,5.38,5.15,2.97,13.49,2.97,18.63,0Z"/>
        <path class="cls-10" d="M560.39,307.79v10.77c0,1.95-1.29,3.9-3.86,5.39-5.14,2.97-13.48,2.97-18.63,0-2.57-1.49-3.86-3.43-3.86-5.39v-10.77c0,1.95,1.29,3.9,3.86,5.38,5.15,2.97,13.49,2.97,18.63,0,2.58-1.48,3.86-3.43,3.86-5.38Z"/>
        <path class="cls-10" d="M560.39,297.03v10.76c0,1.95-1.29,3.9-3.86,5.38-5.14,2.97-13.48,2.97-18.63,0-2.57-1.48-3.86-3.43-3.86-5.38v-10.76c0,1.94,1.29,3.89,3.86,5.38,5.15,2.97,13.49,2.97,18.63,0,2.58-1.49,3.86-3.43,3.86-5.38Z"/>
        <path class="cls-10" d="M560.39,286.26v10.77c0,1.94-1.29,3.89-3.86,5.38-5.14,2.97-13.48,2.97-18.63,0-2.57-1.49-3.86-3.43-3.86-5.38v-10.77c0,1.96,1.29,3.9,3.86,5.39,5.15,2.97,13.49,2.97,18.63,0,2.58-1.48,3.86-3.43,3.86-5.39Z"/>
      </g>
      <g>
        <path class="cls-3" d="M560.39,264.88c0,1.94-1.29,3.89-3.86,5.38-5.14,2.97-13.48,2.97-18.63,0-2.57-1.49-3.86-3.43-3.86-5.38s1.29-3.89,3.86-5.38c5.15-2.97,13.49-2.97,18.63,0,2.58,1.49,3.86,3.43,3.86,5.38Z"/>
        <path class="cls-3" d="M560.39,275.5c0,1.94-1.29,3.89-3.86,5.38-5.14,2.97-13.48,2.97-18.63,0-2.57-1.49-3.86-3.43-3.86-5.38"/>
        <path class="cls-3" d="M560.39,286.26c0,1.96-1.29,3.9-3.86,5.39-5.14,2.97-13.48,2.97-18.63,0-2.57-1.48-3.86-3.43-3.86-5.39"/>
        <path class="cls-3" d="M560.39,297.03c0,1.94-1.29,3.89-3.86,5.38-5.14,2.97-13.48,2.97-18.63,0-2.57-1.49-3.86-3.43-3.86-5.38"/>
        <path class="cls-3" d="M560.39,307.79c0,1.95-1.29,3.9-3.86,5.38-5.14,2.97-13.48,2.97-18.63,0-2.57-1.48-3.86-3.43-3.86-5.38"/>
        <path class="cls-3" d="M560.39,264.88v53.68c0,1.95-1.29,3.9-3.86,5.39-5.14,2.97-13.48,2.97-18.63,0-2.57-1.49-3.86-3.43-3.86-5.39v-53.68"/>
      </g>
    </g>
    <g>
      <g>
        <path class="cls-10" d="M541.47,311.88v10.61c0,1.94-1.29,3.89-3.86,5.38-5.14,2.97-13.48,2.97-18.63,0-2.57-1.49-3.86-3.43-3.86-5.38v-10.61c0,1.94,1.29,3.89,3.86,5.38,5.15,2.97,13.49,2.97,18.63,0,2.58-1.49,3.86-3.43,3.86-5.38Z"/>
        <path class="cls-10" d="M515.12,322.49c0,1.94,1.29,3.89,3.86,5.38,5.15,2.97,13.49,2.97,18.63,0,2.58-1.49,3.86-3.43,3.86-5.38v10.76c0,1.96-1.29,3.9-3.86,5.39-5.14,2.97-13.48,2.97-18.63,0-2.57-1.48-3.86-3.43-3.86-5.39v-10.76Z"/>
        <path class="cls-7" d="M537.61,317.26c-5.14,2.97-13.48,2.97-18.63,0-2.57-1.49-3.86-3.43-3.86-5.38s1.29-3.89,3.86-5.38c5.15-2.97,13.49-2.97,18.63,0,2.58,1.49,3.86,3.43,3.86,5.38s-1.29,3.89-3.86,5.38Z"/>
        <path class="cls-10" d="M541.47,333.25v10.77c0,1.94-1.29,3.89-3.86,5.38-5.14,2.97-13.48,2.97-18.63,0-2.57-1.49-3.86-3.43-3.86-5.38v-10.77c0,1.96,1.29,3.9,3.86,5.39,5.15,2.97,13.49,2.97,18.63,0,2.58-1.48,3.86-3.43,3.86-5.39Z"/>
      </g>
      <g>
        <path class="cls-3" d="M541.47,311.88c0,1.94-1.29,3.89-3.86,5.38-5.14,2.97-13.48,2.97-18.63,0-2.57-1.49-3.86-3.43-3.86-5.38s1.29-3.89,3.86-5.38c5.15-2.97,13.49-2.97,18.63,0,2.58,1.49,3.86,3.43,3.86,5.38Z"/>
        <path class="cls-3" d="M541.47,322.49c0,1.94-1.29,3.89-3.86,5.38-5.14,2.97-13.48,2.97-18.63,0-2.57-1.49-3.86-3.43-3.86-5.38"/>
        <path class="cls-3" d="M541.47,333.25c0,1.96-1.29,3.9-3.86,5.39-5.14,2.97-13.48,2.97-18.63,0-2.57-1.48-3.86-3.43-3.86-5.39"/>
        <path class="cls-3" d="M541.47,311.88v32.15c0,1.94-1.29,3.89-3.86,5.38-5.14,2.97-13.48,2.97-18.63,0-2.57-1.49-3.86-3.43-3.86-5.38v-32.15"/>
      </g>
    </g>
    <circle class="cls-5" cx="783.67" cy="423.8" r="8.07" transform="translate(-81.25 210.13) rotate(-14.53)"/>
    <circle class="cls-5" cx="324.47" cy="39.84" r="8.07" transform="translate(233.04 353.7) rotate(-80.76)"/>
    <circle class="cls-5" cx="69.62" cy="445.17" r="8.07" transform="translate(-355.02 294.48) rotate(-61.57)"/>
    <g>
      <line class="cls-3" x1="701.07" y1="217.69" x2="716.94" y2="208.53"/>
      <line class="cls-3" x1="716.94" y1="217.69" x2="701.07" y2="208.53"/>
    </g>
    <g>
      <g>
        <g>
          <polygon class="cls-10" points="515.84 518.19 515.84 541.58 492.57 555.02 492.57 531.61 515.84 518.19"/>
          <polygon class="cls-10" points="515.84 518.19 492.57 531.61 470.59 518.92 493.86 505.49 515.84 518.19"/>
          <path class="cls-7" d="M354.22,514.09c-.18-8.95,5.63-17.95,17.46-24.78l4.88-2.82c11.64-6.73,26.91-10.07,42.2-10.07h.92c14.96.13,29.88,3.49,41.28,10.07l32.91,18.99-23.27,13.43-32.91-19c-10.42-6.03-27.43-6.03-37.87,0l-4.87,2.81c-10.44,6.04-10.44,15.84,0,21.87l32.91,19-23.27,13.43-32.91-19c-11.44-6.61-17.27-15.26-17.44-23.95Z"/>
          <polygon class="cls-10" points="492.57 531.61 492.57 555.02 470.59 542.32 470.59 518.92 492.57 531.61"/>
          <path class="cls-11" d="M470.59,518.92v23.4l-32.91-19c-10.42-6.03-27.43-6.03-37.87,0l-3.55,2.05-1.33-.77c-10.44-6.03-10.44-15.83,0-21.87l4.87-2.81c10.44-6.03,27.45-6.03,37.87,0l32.91,19Z"/>
          <polygon class="cls-10" points="449.83 556.29 449.83 579.69 426.56 593.13 426.56 569.73 449.83 556.29"/>
          <polygon class="cls-10" points="449.83 556.29 426.56 569.73 404.58 557.04 427.85 543.61 449.83 556.29"/>
          <polygon class="cls-10" points="426.56 569.73 426.56 593.13 404.58 580.43 404.58 557.04 426.56 569.73"/>
          <path class="cls-8" d="M404.58,557.04v23.39l-32.91-19c-11.63-6.71-17.44-15.54-17.44-24.36v-22.98c.18,8.68,6,17.34,17.44,23.95l32.91,19Z"/>
        </g>
        <g>
          <path class="cls-3" d="M354.22,514.09c-.18-8.95,5.63-17.95,17.46-24.78l4.88-2.82c11.64-6.73,26.91-10.07,42.2-10.07h.92c14.96.13,29.88,3.49,41.28,10.07l54.89,31.69-23.27,13.43-54.89-31.69c-10.42-6.03-27.43-6.03-37.87,0l-4.87,2.81c-10.44,6.04-10.44,15.84,0,21.87l54.89,31.69-23.27,13.43-54.9-31.69c-11.44-6.61-17.27-15.26-17.44-23.95Z"/>
          <polyline class="cls-3" points="493.86 505.49 470.59 518.92 470.59 542.32"/>
          <polyline class="cls-3" points="427.85 543.61 404.58 557.04 404.58 580.43"/>
          <path class="cls-3" d="M515.84,518.19v23.4l-23.27,13.43-54.89-31.69c-10.42-6.03-27.43-6.03-37.87,0l-3.55,2.05"/>
          <line class="cls-3" x1="492.57" y1="531.61" x2="492.57" y2="555.02"/>
          <path class="cls-3" d="M449.83,556.29v23.39l-23.27,13.44-54.9-31.69c-11.63-6.71-17.44-15.54-17.44-24.36v-23.39"/>
          <line class="cls-3" x1="426.56" y1="569.73" x2="426.56" y2="593.13"/>
        </g>
      </g>
      <g>
        <g>
          <path class="cls-8" d="M504.27,616.32c.16,1.57-.71,3.08-2.64,4.2l-13.18,7.61c-6.55,3.77-19.11.11-19.12-5.61,0-.04,0-.07,0-.1.02-14.54,2.5-18.96,9.74-24.02,1.77,1.92,4.3,3.14,7.13,3.14,4,0,7.42-2.44,8.88-5.92,5.24,2.74,9.17,7.74,9.18,20.69Z"/>
          <path class="cls-7" d="M479.07,598.4c-1.56-1.71-2.52-3.99-2.52-6.49,0-5.33,4.32-9.63,9.65-9.63s9.63,4.3,9.63,9.63c0,1.32-.26,2.58-.74,3.72-1.47,3.48-4.88,5.92-8.88,5.92-2.82,0-5.36-1.22-7.13-3.14Z"/>
        </g>
        <g>
          <path class="cls-3" d="M469.33,622.42c.04-14.54,2.5-18.96,9.74-24.02h.01"/>
          <path class="cls-3" d="M495.08,595.62c5.24,2.74,9.17,7.74,9.18,20.69.16,1.57-.71,3.08-2.64,4.2l-13.18,7.61c-6.55,3.77-19.11.11-19.12-5.61,0-.04,0-.07,0-.1"/>
          <path class="cls-3" d="M495.08,595.62c.49-1.15.74-2.4.74-3.72,0-5.33-4.31-9.63-9.63-9.63s-9.65,4.3-9.65,9.63c0,2.5.96,4.79,2.52,6.49,1.77,1.93,4.3,3.14,7.13,3.14,4,0,7.41-2.44,8.88-5.92Z"/>
        </g>
      </g>
      <g>
        <g>
          <path class="cls-8" d="M606.6,571.58s0,.06,0,.1c-.02,5.72-12.58,9.39-19.11,5.61l-13.18-7.61c-1.93-1.12-2.79-2.63-2.64-4.19.01-12.97,3.93-17.96,9.17-20.71,1.47,3.47,4.88,5.92,8.89,5.92,2.82,0,5.35-1.21,7.12-3.14,7.24,5.07,9.72,9.49,9.74,24.02Z"/>
          <path class="cls-7" d="M596.86,547.55c-1.77,1.93-4.29,3.14-7.12,3.14-4.01,0-7.43-2.44-8.89-5.92-.49-1.14-.74-2.4-.74-3.71,0-5.33,4.32-9.64,9.64-9.64s9.64,4.31,9.64,9.64c0,2.5-.95,4.78-2.52,6.48Z"/>
        </g>
        <g>
          <path class="cls-3" d="M606.6,571.58c-.04-14.53-2.5-18.96-9.74-24.02h-.01"/>
          <path class="cls-3" d="M580.85,544.78c-5.24,2.74-9.16,7.74-9.17,20.71-.16,1.56.7,3.07,2.64,4.19l13.18,7.61c6.54,3.79,19.1.11,19.11-5.61,0-.04,0-.07,0-.1"/>
          <path class="cls-3" d="M580.85,544.78c-.48-1.14-.74-2.4-.74-3.71,0-5.33,4.32-9.64,9.64-9.64s9.64,4.31,9.64,9.64c0,2.5-.95,4.78-2.52,6.48-1.77,1.93-4.29,3.14-7.12,3.14-4.01,0-7.42-2.44-8.89-5.92Z"/>
        </g>
      </g>
      <g>
        <g>
          <path class="cls-8" d="M602.16,637.8s0,.06,0,.1c-.02,5.72-12.58,9.38-19.12,5.61l-13.18-7.61c-1.92-1.12-2.79-2.63-2.64-4.2.01-12.96,3.94-17.95,9.18-20.69,1.47,3.48,4.88,5.92,8.88,5.92,2.82,0,5.36-1.22,7.13-3.14,7.24,5.07,9.72,9.48,9.74,24.02Z"/>
          <path class="cls-7" d="M592.42,613.77c-1.77,1.92-4.3,3.14-7.13,3.14-4,0-7.42-2.44-8.88-5.92-.49-1.15-.74-2.4-.74-3.72,0-5.33,4.31-9.63,9.63-9.63s9.65,4.3,9.65,9.63c0,2.5-.96,4.79-2.52,6.49Z"/>
        </g>
        <g>
          <path class="cls-3" d="M602.16,637.8c-.04-14.54-2.5-18.96-9.74-24.02h-.01"/>
          <path class="cls-3" d="M576.41,611c-5.24,2.74-9.17,7.74-9.18,20.69-.16,1.57.71,3.08,2.64,4.2l13.18,7.61c6.55,3.77,19.11.11,19.12-5.61,0-.04,0-.07,0-.1"/>
          <path class="cls-3" d="M576.41,611c-.49-1.15-.74-2.4-.74-3.72,0-5.33,4.31-9.63,9.63-9.63s9.65,4.3,9.65,9.63c0,2.5-.96,4.79-2.52,6.49-1.77,1.93-4.3,3.14-7.13,3.14-4,0-7.41-2.44-8.88-5.92Z"/>
        </g>
      </g>
    </g>
  </g>
</svg>