<svg xmlns="http://www.w3.org/2000/svg" xmlns:xlink="http://www.w3.org/1999/xlink" viewBox="0 0 201.75 203.18"><defs><style>.cls-1,.cls-8{fill:none;}.cls-2{fill:#969a9e;}.cls-3{fill:url(#New_Pattern_Swatch_3);}.cls-4{fill:#FDB827;}.cls-5{fill:#5f646b;}.cls-6{fill:#373a3a;}.cls-7{fill:#c2c7cc;}.cls-8{stroke:#2E2E2E;stroke-linecap:round;stroke-linejoin:round;stroke-width:3px;}.cls-9{fill:#fff;}</style><pattern id="New_Pattern_Swatch_3" data-name="New Pattern Swatch 3" width="16" height="19" patternTransform="translate(-2123.38 -47.85) scale(0.4)" patternUnits="userSpaceOnUse" viewBox="0 0 16 19"><rect class="cls-1" width="16" height="19"/><polygon class="cls-2" points="16 22.18 10.5 19 16 15.82 21.5 19 16 22.18"/><polygon class="cls-2" points="8 12.68 2.5 9.5 8 6.33 13.5 9.5 8 12.68"/><polygon class="cls-2" points="0 22.18 -5.5 19 0 15.82 5.5 19 0 22.18"/><polygon class="cls-2" points="16 3.18 10.5 0 16 -3.17 21.5 0 16 3.18"/><polygon class="cls-2" points="0 3.18 -5.5 0 0 -3.17 5.5 0 0 3.18"/></pattern></defs><g id="Layer_2" data-name="Layer 2"><g id="icons_design" data-name="icons design"><path class="cls-3" d="M112.66,202.18c13.4,1,64.49-1.08,76.3-1.58,3.24.17,7.07-3.75,9.56-5.38a8,8,0,0,0-1.12-13.53l-81.93-41.95S112.09,201.05,112.66,202.18Z"/><path class="cls-3" d="M181.55,117.5c-5.06-7.54-14.56-13-21.9-18-4.49-3.1-10.47.37-12,5-4-2.31-10.41.36-11.83,5.55-16.23-13.21-24.74,1.93-15.68,9.14,8.62,5.74,17.59,11.13,26.52,16.38C157.43,144.94,190.54,133.18,181.55,117.5Z"/><g id="cogwheel"><path class="cls-4" d="M79.81,46.57l3.76,18.37,10.17,7,9.93,17.2,1,12.3,14,12.44,5.91-6.19,13.56,3.63,9.28,10.27,10.29-5.94-4.25-13.17,3.62-13.58,8.33-2-3.76-18.38-10.17-7-9.92-17.2-1-12.29-14-12.44-5.9,6.19-13.57-3.64L97.8,11.87,87.52,17.8,91.77,31,88.14,44.54ZM110.2,73.88c-3.76-6.49-5.46-13.27-5.1-18.72.28-4.53,2-8.15,5.1-10,6.84-4,18,2.47,24.82,14.35s6.86,24.71,0,28.67c-3.11,1.8-7.1,1.45-11.16-.56C119,85.23,114,80.37,110.2,73.88Z"/><polygon class="cls-5" points="97.8 11.87 107.08 22.13 120.65 25.77 126.55 19.58 135.32 14.52 125.04 11.77 115.76 1.5 97.8 11.87"/><path class="cls-6" d="M105.1,55.16c-.36,5.45,1.34,12.23,5.1,18.72S119,85.23,123.86,87.66c4.06,2,8,2.36,11.16.56,6.86-4,6.86-16.79,0-28.67S117,41.25,110.2,45.2C107.07,47,105.38,50.63,105.1,55.16Z"/><polygon class="cls-7" points="126.55 19.58 140.59 32.02 158.55 21.65 144.51 9.21 126.55 19.58"/><polygon class="cls-5" points="140.59 32.02 141.56 44.31 151.48 61.51 161.65 68.49 179.6 58.12 169.44 51.14 159.52 33.95 158.55 21.65 140.59 32.02"/><polygon class="cls-5" points="157.08 88.88 153.46 102.46 157.71 115.63 175.67 105.26 171.41 92.09 174.16 81.82 165.41 86.87 157.08 88.88"/><polygon class="cls-7" points="161.65 68.49 165.41 86.87 183.37 76.5 179.6 58.12 161.65 68.49"/><polygon class="cls-8" points="97.8 11.87 87.52 17.8 91.77 30.97 88.14 44.54 79.81 46.57 83.56 64.94 93.74 71.92 103.67 89.12 104.62 101.42 118.67 113.86 124.58 107.67 138.14 111.3 147.43 121.57 157.71 115.63 153.46 102.46 157.08 88.88 165.41 86.87 161.65 68.49 151.48 61.51 141.56 44.31 140.59 32.02 126.55 19.58 120.65 25.77 107.08 22.13 97.8 11.87"/><path class="cls-8" d="M105.1,55.16c.28-4.53,2-8.15,5.1-10,6.84-4,18,2.47,24.82,14.35s6.86,24.71,0,28.67c-3.11,1.8-7.1,1.45-11.16-.56C119,85.23,114,80.37,110.2,73.88S104.74,60.61,105.1,55.16Z"/><line class="cls-8" x1="135.32" y1="14.52" x2="126.55" y2="19.58"/><polyline class="cls-8" points="165.41 86.87 183.37 76.5 179.6 58.12 169.44 51.14 159.52 33.95 158.55 21.65 144.51 9.21 135.32 14.52"/><line class="cls-8" x1="158.55" y1="21.65" x2="140.59" y2="32.02"/><line class="cls-8" x1="179.6" y1="58.12" x2="161.65" y2="68.49"/><polyline class="cls-8" points="97.8 11.87 115.76 1.5 125.04 11.77 135.32 14.52"/><polyline class="cls-8" points="174.16 81.82 171.41 92.09 175.67 105.26 157.71 115.63"/></g><path class="cls-2" d="M113.2,201.39c.91-.53,1.41-1.75,1.41-3.63v-111a12.52,12.52,0,0,0-1.8-6.16,9.52,9.52,0,0,0-3.2-3.41L6.51,17.63a3.22,3.22,0,0,0-3.2-.3l15-8.65A3.17,3.17,0,0,1,21.56,9l103.1,59.51a9.47,9.47,0,0,1,3.2,3.42,12.43,12.43,0,0,1,1.8,6.15v111c0,1.88-.5,3.11-1.4,3.65Z"/><path class="cls-9" d="M11.45,27.07A5.59,5.59,0,0,1,14,31.44c0,1.62-1.13,2.28-2.53,1.47a5.59,5.59,0,0,1-2.53-4.38C8.92,26.91,10.05,26.26,11.45,27.07Z"/><path class="cls-6" d="M114.61,86.72V98.14L1.5,32.83V21.42c0-2,.67-3.43,1.73-4.05l.08,0a3.22,3.22,0,0,1,3.2.3l103.1,59.52a9.52,9.52,0,0,1,3.2,3.41A12.52,12.52,0,0,1,114.61,86.72ZM31.87,41.77a5.62,5.62,0,0,0-2.53-4.38c-1.4-.81-2.53-.15-2.53,1.47a5.59,5.59,0,0,0,2.53,4.37C30.73,44,31.87,43.39,31.87,41.77Zm-8.95-5.16a5.58,5.58,0,0,0-2.53-4.38c-1.39-.8-2.53-.16-2.53,1.46a5.6,5.6,0,0,0,2.53,4.38C21.79,38.87,22.92,38.22,22.92,36.61ZM14,31.44a5.59,5.59,0,0,0-2.53-4.37c-1.4-.81-2.53-.16-2.53,1.46a5.59,5.59,0,0,0,2.53,4.38C12.85,33.72,14,33.06,14,31.44Z"/><path class="cls-9" d="M114.61,98.41v99.35c0,1.88-.5,3.1-1.41,3.63s-2.21.34-3.83-.59L6.51,141.42a9.46,9.46,0,0,1-3.29-3.57,12.39,12.39,0,0,1-1.72-6v-99L114.61,98.14Z"/><path class="cls-9" d="M29.34,37.39a5.62,5.62,0,0,1,2.53,4.38c0,1.62-1.14,2.27-2.53,1.46a5.59,5.59,0,0,1-2.53-4.37C26.81,37.24,27.94,36.58,29.34,37.39Z"/><path class="cls-9" d="M20.39,32.23a5.58,5.58,0,0,1,2.53,4.38c0,1.61-1.13,2.26-2.53,1.46a5.6,5.6,0,0,1-2.53-4.38C17.86,32.07,19,31.43,20.39,32.23Z"/><path class="cls-8" d="M3.23,17.37c-1.06.62-1.73,2-1.73,4.05V131.84a12.39,12.39,0,0,0,1.72,6,9.46,9.46,0,0,0,3.29,3.57L109.37,200.8c1.62.93,2.93,1.11,3.83.59s1.41-1.75,1.41-3.63v-111a12.52,12.52,0,0,0-1.8-6.16,9.52,9.52,0,0,0-3.2-3.41L6.51,17.63a3.22,3.22,0,0,0-3.2-.3Z"/><line class="cls-8" x1="1.5" y1="32.83" x2="114.61" y2="98.14"/><path class="cls-8" d="M3.23,17.37l.08,0,15-8.65A3.17,3.17,0,0,1,21.56,9l103.1,59.51a9.47,9.47,0,0,1,3.2,3.42,12.43,12.43,0,0,1,1.8,6.15v111c0,1.88-.5,3.11-1.4,3.65l-15.06,8.68"/><path class="cls-6" d="M37.9,80.23l7.51,4.34,5.74,50.32-5.54-3.19-1-9.92v.13l-6.29-3.63-1,8.62-5.14-3ZM44,115.15,41.48,90.49l-.1-.06L39,112.27Z"/><path class="cls-6" d="M53.82,89.42,62,94.13a15.33,15.33,0,0,1,6.2,6.54,22,22,0,0,1,2.06,9.85v4.64q0,5.7-2.06,7.47T62,122l-2.62-1.52v19.14l-5.54-3.19ZM62,115.29c.91.52,1.59.58,2,.17s.68-1.42.68-3v-5.58A9,9,0,0,0,64,103a4.94,4.94,0,0,0-2-2.18l-2.62-1.51v14.44Z"/><polygon class="cls-6" points="73.26 100.65 78.8 103.85 78.8 150.86 73.26 147.66 73.26 100.65"/></g></g></svg>