<svg xmlns="http://www.w3.org/2000/svg" xmlns:xlink="http://www.w3.org/1999/xlink" viewBox="0 0 211.3 190.14"><defs><style>.cls-1,.cls-8{fill:none;}.cls-2{fill:#969a9e;}.cls-3{fill:url(#New_Pattern_Swatch_3);}.cls-4{fill:#FDB827;}.cls-5{fill:#5f646b;}.cls-6{fill:#373a3a;}.cls-7{fill:#fff;}.cls-8{stroke:#373a3a;stroke-linecap:round;stroke-linejoin:round;stroke-width:3px;}</style><pattern id="New_Pattern_Swatch_3" data-name="New Pattern Swatch 3" width="16" height="19" patternTransform="translate(-2123.38 -47.85) scale(0.4)" patternUnits="userSpaceOnUse" viewBox="0 0 16 19"><rect class="cls-1" width="16" height="19"/><polygon class="cls-2" points="16 22.18 10.5 19 16 15.82 21.5 19 16 22.18"/><polygon class="cls-2" points="8 12.68 2.5 9.5 8 6.33 13.5 9.5 8 12.68"/><polygon class="cls-2" points="0 22.18 -5.5 19 0 15.82 5.5 19 0 22.18"/><polygon class="cls-2" points="16 3.18 10.5 0 16 -3.17 21.5 0 16 3.18"/><polygon class="cls-2" points="0 3.18 -5.5 0 0 -3.17 5.5 0 0 3.18"/></pattern></defs><g id="Layer_2" data-name="Layer 2"><g id="icons_design" data-name="icons design"><path class="cls-3" d="M197.35,110.73c-25.31-7.24-54.27,0-75.85,14.62L55,163.75C40.36,172.19,41.09,183,56.6,187.8c15,4.68,38.33,2.11,53.11-5.7,0,0,0,0,.05,0,20.06,7.82,48.7,5.43,70.06-2.07,21.19-6.06,43-28.17,15.89-39.31C213.72,132.64,218.48,116.77,197.35,110.73Z"/><path class="cls-4" d="M109.63,5.19C86-11.23,42.53,30,38.16,72.55c-31.37,14.4-48.7,68-27,80.55l20.82,12h0c-5.74-3.31-9.69-10.33-9.69-21.4,0-22.19,16.46-49.87,36.64-59.14,4.22-40.93,44.63-81,69.19-68.67L109.66,5.21Z"/><path class="cls-4" d="M83.9,111.32V146c0,3.34,1.11,5.71,2.87,6.72,1.46.85,3.37.77,5.45-.44l32.59-18.81c4.49-2.59,8-9.47,8.3-15.51,0-.13,0-.25,0-.38V82.9c0-3.34-1.11-5.71-2.87-6.73l-.16-.09a4.36,4.36,0,0,0-1.28-.41,6.11,6.11,0,0,0-4,.94L92.22,95.43C87.62,98.07,83.9,105.19,83.9,111.32Z"/><path class="cls-5" d="M128.76,75.31,114.5,67.08c-.27.13-.55.28-.82.44L81.09,86.34c-6,3.49-10.63,12-10.63,19.9V140.9a16.58,16.58,0,0,0,.18,2.49l16.13,9.31c-1.76-1-2.87-3.38-2.87-6.72V111.32c0-6.13,3.72-13.25,8.32-15.89l32.59-18.82a6.11,6.11,0,0,1,4-.94C128.79,75.55,128.78,75.44,128.76,75.31Z"/><path class="cls-6" d="M128.76,75.31c-.54-3.72-2.29-6.64-5-8.22l-.38-.21a8.88,8.88,0,0,0-4.1-1,10.84,10.84,0,0,0-4.79,1.18Z"/><path class="cls-7" d="M128.81,75.67a4.36,4.36,0,0,1,1.28.41l-1.33-.77C128.78,75.44,128.79,75.55,128.81,75.67Z"/><path class="cls-7" d="M114.5,67.08a11.16,11.16,0,0,1,4.79-1.18,8.88,8.88,0,0,1,4.1,1l.38.21c2.7,1.58,4.45,4.5,5,8.22l1.49.86c1.76,1,2.87,3.39,2.87,6.73,0,0,0,34.92,0,35l6.38-3.69c15.64-9,28.32-31,28.32-49.06,0-9.34-3.33-15.68-8.6-18.51l-.13-.08C154.3,44.1,147.94,44.43,141,48a.05.05,0,0,1-.05,0,54.92,54.92,0,0,0-.23-11.62C138.49,19.93,128.23,16,128.16,15.9,103.6,3.53,63.19,43.64,59,84.57c-20.18,9.27-36.64,37-36.64,59.14,0,11.07,4,18.09,9.69,21.4a17.88,17.88,0,0,0,10.89,2.09c5.69-.59,7.24-1.1,32.49-15.73-2.57-1.6-4.23-4.46-4.76-8.08a16.58,16.58,0,0,1-.18-2.49V106.24c0-7.85,4.58-16.41,10.63-19.9C81.09,86.34,114.23,67.22,114.5,67.08Z"/><path class="cls-4" d="M140.75,36.4A54.92,54.92,0,0,1,141,48a.05.05,0,0,0,.05,0c6.91-3.56,13.27-3.89,18.05-1.39C143.12,37.5,143.28,37.21,140.75,36.4Z"/><path class="cls-8" d="M159.08,46.6c-16-9.1-15.8-9.39-18.33-10.2"/><line class="cls-8" x1="109.63" y1="5.19" x2="107.44" y2="3.93"/><line class="cls-8" x1="128.16" y1="15.9" x2="109.66" y2="5.21"/><path class="cls-8" d="M32,165.12l-20.82-12c-21.73-12.56-4.4-66.15,27-80.55C42.53,30,86-11.23,109.63,5.19l0,0"/><path class="cls-8" d="M128.81,75.67c0-.12,0-.23-.05-.36-.56-3.72-2.29-6.64-5-8.22l-.38-.21a8.88,8.88,0,0,0-4.1-1,11.16,11.16,0,0,0-4.79,1.18c-.27.14-.55.28-.82.44L81.09,86.34c-6,3.49-10.63,12-10.63,19.9V140.9a16.58,16.58,0,0,0,.18,2.49c.53,3.62,2.19,6.48,4.76,8.08C50.15,166.1,48.6,166.61,42.91,167.2A17.88,17.88,0,0,1,32,165.11c-5.75-3.3-9.69-10.33-9.69-21.4,0-22.19,16.46-49.87,36.64-59.14,4.22-40.93,44.63-81,69.19-68.67.07.07,10.31,4,12.59,20.5A54.92,54.92,0,0,1,141,48a.05.05,0,0,0,.05,0c6.91-3.56,13.27-3.89,18.05-1.39l.13.08c5.27,2.83,8.6,9.17,8.6,18.51,0,18.06-12.68,40-28.32,49.06l-6.38,3.69"/><path class="cls-8" d="M114.49,67.08l15.76,9.09c1.76,1,2.87,3.39,2.87,6.73,0,0,0,34.91,0,35-.29,6-3.81,12.92-8.3,15.51L92.22,152.26c-2.08,1.21-4,1.29-5.45.44-1.76-1-2.87-3.38-2.87-6.72V111.32c0-6.13,3.72-13.25,8.32-15.89l32.59-18.82a6.11,6.11,0,0,1,4-.94,4.36,4.36,0,0,1,1.28.41"/><line class="cls-8" x1="86.77" y1="152.7" x2="70.64" y2="143.39"/><path class="cls-5" d="M97.12,119.78v34.66c0,3.34,1.11,5.7,2.86,6.72l17,9.8c-1.77-1-2.88-3.38-2.88-6.72V129.58c0-6.13,3.72-13.25,8.32-15.9L155,94.86c2-1.15,3.83-1.27,5.28-.52l-16.82-9.71c-1.45-.85-3.36-.76-5.44.43l-32.59,18.82C100.84,106.53,97.12,113.65,97.12,119.78Z"/><path class="cls-7" d="M114.09,129.58v34.66c0,3.34,1.11,5.71,2.88,6.72,1.45.85,3.36.77,5.44-.44L155,151.71c4.59-2.65,8.31-9.77,8.31-15.9V101.16c0-3.35-1.11-5.71-2.87-6.73l-.16-.09c-1.45-.75-3.28-.63-5.28.52l-32.59,18.82C117.81,116.33,114.09,123.45,114.09,129.58Z"/><path class="cls-8" d="M160.44,94.43c1.76,1,2.87,3.38,2.87,6.73v34.65c0,6.13-3.72,13.25-8.31,15.9l-32.59,18.81c-2.08,1.21-4,1.28-5.44.44-1.76-1-2.88-3.38-2.88-6.72V129.58c0-6.13,3.72-13.25,8.32-15.9L155,94.86c2-1.15,3.83-1.27,5.28-.52"/><path class="cls-8" d="M117,171l-17-9.8c-1.75-1-2.86-3.38-2.86-6.72V119.78c0-6.13,3.72-13.25,8.31-15.9L138,85.06c2.08-1.19,4-1.28,5.44-.43l17,9.8"/><path class="cls-6" d="M129.79,129.6l3.55-2,2.72,17.71-2.62,1.51-.48-3.55v.05L130,145l-.48,4-2.43,1.41Zm2.86,11.24L131.48,132l0,0-1.14,10.19Z"/><path class="cls-6" d="M137.32,125.25l3.87-2.23c1.3-.75,2.28-.91,2.93-.48s1,1.43,1,3v1.9a8.38,8.38,0,0,1-1,4.11,7.52,7.52,0,0,1-2.93,2.91l-1.24.71V143l-2.63,1.52Zm3.87,6.45a2.44,2.44,0,0,0,1-1,3.28,3.28,0,0,0,.32-1.59v-2.28c0-.66-.1-1.07-.32-1.22s-.53-.1-1,.14l-1.24.72v5.92Z"/><path class="cls-6" d="M146.53,119.94l3.86-2.23c1.3-.75,2.28-.91,2.93-.48s1,1.42,1,3v1.9a8.31,8.31,0,0,1-1,4.12,7.56,7.56,0,0,1-2.93,2.9l-1.24.72v7.85l-2.62,1.51Zm3.86,6.44a2.51,2.51,0,0,0,1-1,3.43,3.43,0,0,0,.32-1.59v-2.28c0-.67-.11-1.07-.32-1.22s-.54-.11-1,.14l-1.24.72v5.92Z"/></g></g></svg>