<svg xmlns="http://www.w3.org/2000/svg" xmlns:xlink="http://www.w3.org/1999/xlink" viewBox="0 0 224.57 221.21"><defs><style>.cls-1,.cls-7{fill:none;}.cls-2{fill:#969a9e;}.cls-3{fill:url(#New_Pattern_Swatch_3);}.cls-4{fill:#fff;}.cls-5{fill:#3232FC;}.cls-6{fill:#373a3a;}.cls-7{stroke:#373a3a;stroke-linecap:round;stroke-linejoin:round;stroke-width:3px;}</style><pattern id="New_Pattern_Swatch_3" data-name="New Pattern Swatch 3" width="16" height="19" patternTransform="translate(-2123.38 -47.85) scale(0.4)" patternUnits="userSpaceOnUse" viewBox="0 0 16 19"><rect class="cls-1" width="16" height="19"/><polygon class="cls-2" points="16 22.18 10.5 19 16 15.82 21.5 19 16 22.18"/><polygon class="cls-2" points="8 12.68 2.5 9.5 8 6.33 13.5 9.5 8 12.68"/><polygon class="cls-2" points="0 22.18 -5.5 19 0 15.82 5.5 19 0 22.18"/><polygon class="cls-2" points="16 3.18 10.5 0 16 -3.17 21.5 0 16 3.18"/><polygon class="cls-2" points="0 3.18 -5.5 0 0 -3.17 5.5 0 0 3.18"/></pattern></defs><g id="Layer_2" data-name="Layer 2"><g id="icons_design" data-name="icons design"><path class="cls-3" d="M129.55,220.93c14.3,1,68.79-1.16,81.38-1.69,3.46.18,7.55-4,10.2-5.74a8.52,8.52,0,0,0-1.2-14.42l-87.38-44.75S129,219.73,129.55,220.93Z"/><path class="cls-4" d="M79.63,164.2a68,68,0,0,1-9.06-3.45c-1.12-.53-2.24-1.12-3.34-1.77C51.48,149.67,38.17,128,37,108.7c-.12-2-.17-3.9-.17-5.87,0-4.34.26-8.77.68-13.47L56,120.86a24.81,24.81,0,0,0,8.47,8.86,12.33,12.33,0,0,0,4,1.53,8.19,8.19,0,0,0,1.08.1,6.23,6.23,0,0,0,6.27-4.11l.19-.5c1.69-4.12.67-10.48-2.63-16.3L55.61,78.89a125.9,125.9,0,0,1,17,9.23C88.94,99,101.21,121.89,101,140.34c0,1-.06,2-.14,2.92a66.81,66.81,0,0,1-1.55,9.55l32.57,56.43v5.88c0,2.09-.56,3.46-1.57,4s-2.47.38-4.27-.66l-22.61-13Z"/><path class="cls-5" d="M72.61,88.12a125.9,125.9,0,0,0-17-9.23l17.83,31.55c3.3,5.82,4.32,12.18,2.63,16.3l-.19.5a6.23,6.23,0,0,1-6.27,4.11,8.19,8.19,0,0,1-1.08-.1,12.33,12.33,0,0,1-4-1.53A24.81,24.81,0,0,1,56,120.86L37.46,89.36c-.42,4.7-.68,9.13-.68,13.47,0,2,0,3.92.17,5.87,1.22,19.26,14.53,41,30.28,50.28,1.1.65,2.22,1.24,3.34,1.77a68,68,0,0,0,9.06,3.45l23.82,41.26L7.08,149.83a10.69,10.69,0,0,1-3.67-4,13.93,13.93,0,0,1-1.91-6.7V28.8l130.4,75.29V209.24L99.33,152.81a66.81,66.81,0,0,0,1.55-9.55c.08-.95.13-1.93.14-2.92C101.21,121.89,88.94,99,72.61,88.12Z"/><path class="cls-2" d="M3.51,11.52,20.2,1.87a3.57,3.57,0,0,1,3.66.31L143.1,71a10.51,10.51,0,0,1,3.57,3.8,14,14,0,0,1,2,6.87V205.43c0,2.1-.55,3.46-1.56,4.06L135.81,216l-3.91-6.77V91.36a14.07,14.07,0,0,0-2-6.87,10.53,10.53,0,0,0-3.58-3.8L7.08,11.85A3.58,3.58,0,0,0,3.51,11.52Z"/><path class="cls-4" d="M131.9,209.24l3.91,6.77-5.48,3.16c1-.59,1.57-2,1.57-4Z"/><path class="cls-6" d="M1.5,28.8V16.07c0-2.24.75-3.82,1.93-4.51l.08,0a3.58,3.58,0,0,1,3.57.33L126.32,80.69a10.53,10.53,0,0,1,3.58,3.8,14.07,14.07,0,0,1,2,6.87v12.73Z"/><path class="cls-7" d="M3.43,11.56c-1.18.69-1.93,2.27-1.93,4.51V139.15a13.93,13.93,0,0,0,1.91,6.7,10.69,10.69,0,0,0,3.67,4l119,68.68c1.8,1,3.26,1.25,4.27.66s1.57-2,1.57-4V91.36a14.07,14.07,0,0,0-2-6.87,10.53,10.53,0,0,0-3.58-3.8L7.08,11.85a3.58,3.58,0,0,0-3.57-.33Z"/><line class="cls-7" x1="1.5" y1="28.8" x2="131.9" y2="104.09"/><path class="cls-7" d="M3.43,11.56l.08,0L20.2,1.87a3.57,3.57,0,0,1,3.66.31L143.1,71a10.51,10.51,0,0,1,3.57,3.8,14,14,0,0,1,2,6.87V205.43c0,2.1-.55,3.46-1.56,4.06l-16.78,9.68"/><path class="cls-7" d="M135.81,216l-36.48-63.2a66.81,66.81,0,0,0,1.55-9.55c.08-.95.13-1.93.14-2.92.19-18.45-12.08-41.38-28.41-52.22a125.9,125.9,0,0,0-17-9.23l17.83,31.55c3.3,5.82,4.32,12.18,2.63,16.3l-.19.5a6.23,6.23,0,0,1-6.27,4.11,8.19,8.19,0,0,1-1.08-.1,12.33,12.33,0,0,1-4-1.53A24.81,24.81,0,0,1,56,120.86L37.46,89.36c-.42,4.7-.68,9.13-.68,13.47,0,2,0,3.92.17,5.87,1.22,19.26,14.53,41,30.28,50.28,1.1.65,2.22,1.24,3.34,1.77a68,68,0,0,0,9.06,3.45l23.82,41.26"/><path class="cls-4" d="M10.76,21.88a5.66,5.66,0,0,1,2.55,4.43c0,1.63-1.14,2.29-2.55,1.47A5.63,5.63,0,0,1,8.2,23.36C8.2,21.73,9.34,21.07,10.76,21.88Z"/><path class="cls-4" d="M28.83,32.32a5.65,5.65,0,0,1,2.56,4.42c0,1.63-1.15,2.29-2.56,1.48a5.64,5.64,0,0,1-2.56-4.43C26.27,32.16,27.41,31.5,28.83,32.32Z"/><path class="cls-4" d="M19.79,27.1a5.64,5.64,0,0,1,2.56,4.43c0,1.62-1.15,2.28-2.56,1.48a5.66,5.66,0,0,1-2.55-4.44C17.24,26.94,18.38,26.29,19.79,27.1Z"/></g></g></svg>