<svg xmlns="http://www.w3.org/2000/svg"
    xmlns:xlink="http://www.w3.org/1999/xlink" viewBox="0 0 251.45 205.67">
    <defs>
        <style>.cls-1,.cls-6{fill:none;}.cls-2{fill:#969a9e;}.cls-3{fill:url(#New_Pattern_Swatch_3);}.cls-4{fill:#c2c7cc;}.cls-5{fill:#fff;}.cls-6{stroke:#373a3a;stroke-linecap:round;stroke-linejoin:round;stroke-width:3px;}.cls-7{fill:#dae0e5;}.cls-8{fill:#5f646b;}.cls-9{fill:#3232FC;}</style>
        <pattern id="New_Pattern_Swatch_3" data-name="New Pattern Swatch 3" width="16" height="19" patternTransform="translate(-2123.38 -47.85) scale(0.4)" patternUnits="userSpaceOnUse" viewBox="0 0 16 19">
            <rect class="cls-1" width="16" height="19"/>
            <polygon class="cls-2" points="16 22.18 10.5 19 16 15.82 21.5 19 16 22.18"/>
            <polygon class="cls-2" points="8 12.68 2.5 9.5 8 6.33 13.5 9.5 8 12.68"/>
            <polygon class="cls-2" points="0 22.18 -5.5 19 0 15.82 5.5 19 0 22.18"/>
            <polygon class="cls-2" points="16 3.18 10.5 0 16 -3.17 21.5 0 16 3.18"/>
            <polygon class="cls-2" points="0 3.18 -5.5 0 0 -3.17 5.5 0 0 3.18"/>
        </pattern>
    </defs>
    <g id="Layer_2" data-name="Layer 2">
        <g id="icons_design" data-name="icons design">
            <path class="cls-3" d="M156.43,200.24c14.3,1.06,68.79-1.15,81.38-1.69,3.45.19,7.54-4,10.19-5.74a8.52,8.52,0,0,0-1.19-14.42l-87.38-44.74S155.83,199,156.43,200.24Z"/>
            <path class="cls-3" d="M131.49,177.88l-.21.1a7.27,7.27,0,0,0-.63-1.41c-1.84-3.24-7-5.09-10.25-2.69-3.51,2.58-8.32,5.06-10.94,8.55A8.92,8.92,0,0,0,108,190a74.28,74.28,0,0,1-11.54-2.71c-9.26-2.8-13.21,11.66-4,14.45s19.76,5.5,29.36,2.74a32.77,32.77,0,0,0,20-16.37C145.29,181.25,138.25,174.63,131.49,177.88Z"/>
            <path class="cls-4" d="M72.12,76.05c0,2.1-.73,3.58-1.93,4.27L12.74,113.48c1.2-.68,1.93-2.16,1.93-4.26a13.34,13.34,0,0,0-1.87-6.39,13.61,13.61,0,0,0-4.71-5c-1.82-1-3.47-1.15-4.66-.46L60.88,64.18c1.19-.69,2.84-.59,4.66.46a13.61,13.61,0,0,1,4.71,5A13.37,13.37,0,0,1,72.12,76.05Z"/>
            <path class="cls-5" d="M14.67,109.22c0,2.1-.73,3.58-1.93,4.26s-2.83.59-4.65-.46a13.46,13.46,0,0,1-4.66-4.91,13.5,13.5,0,0,1-1.93-6.5c0-2.1.74-3.57,1.93-4.26s2.84-.59,4.66.46a13.61,13.61,0,0,1,4.71,5A13.34,13.34,0,0,1,14.67,109.22Z"/>
            <path class="cls-6" d="M3.43,97.35c1.19-.69,2.84-.59,4.66.46a13.61,13.61,0,0,1,4.71,5,13.34,13.34,0,0,1,1.87,6.39c0,2.1-.73,3.58-1.93,4.26s-2.83.59-4.65-.46a13.46,13.46,0,0,1-4.66-4.91,13.5,13.5,0,0,1-1.93-6.5C1.5,99.51,2.24,98,3.43,97.35Z"/>
            <path class="cls-6" d="M3.43,97.35,60.88,64.18c1.19-.69,2.84-.59,4.66.46a13.61,13.61,0,0,1,4.71,5,13.37,13.37,0,0,1,1.87,6.39c0,2.1-.73,3.58-1.93,4.27L12.74,113.48"/>
            <polygon class="cls-2" points="170.26 68.84 170.26 192.97 157.4 200.4 157.4 76.26 170.26 68.84"/>
            <polygon class="cls-7" points="170.26 68.84 157.4 76.26 40.77 8.92 53.63 1.5 170.26 68.84"/>
            <polygon class="cls-5" points="157.4 76.26 157.4 200.4 40.77 133.06 40.77 8.92 157.4 76.26"/>
            <polygon class="cls-6" points="40.77 8.92 40.77 133.06 157.4 200.4 157.4 76.26 40.77 8.92"/>
            <line class="cls-6" x1="157.4" y1="76.26" x2="170.26" y2="68.84"/>
            <polyline class="cls-6" points="157.4 200.4 170.26 192.97 170.26 68.84 53.63 1.5 40.77 8.92"/>
            <path class="cls-5" d="M138.58,110.54a7,7,0,0,1,3.17,5.51,1.93,1.93,0,0,1-3.17,1.83l-17.9-10.33a7,7,0,0,1-3.17-5.5,1.93,1.93,0,0,1,3.17-1.84Z"/>
            <path class="cls-5" d="M135.26,123.53a7,7,0,0,1,3.18,5.5,2.22,2.22,0,0,1-.94,2.05,2.24,2.24,0,0,1-2.24-.22l-48.42-28a7,7,0,0,1-3.18-5.49,1.94,1.94,0,0,1,3.18-1.84Z"/>
            <path class="cls-5" d="M132.62,151.8a7,7,0,0,1,3.18,5.5,1.94,1.94,0,0,1-3.18,1.83L123.77,154a7,7,0,0,1-3.18-5.5,1.93,1.93,0,0,1,3.18-1.83Z"/>
            <path class="cls-5" d="M129.61,135.16a7,7,0,0,1,3.17,5.5,1.94,1.94,0,0,1-3.17,1.84L92.49,121.07a7,7,0,0,1-3.17-5.5,1.93,1.93,0,0,1,3.17-1.84Z"/>
            <path class="cls-5" d="M129,90.14a7.06,7.06,0,0,1,3.18,5.51A1.94,1.94,0,0,1,129,97.48L98.15,79.64A7,7,0,0,1,95,74.14a1.94,1.94,0,0,1,3.18-1.83Z"/>
            <path class="cls-5" d="M112.65,140.27a7,7,0,0,1,3.18,5.5,1.94,1.94,0,0,1-3.18,1.83L92.49,136a7,7,0,0,1-3.17-5.5,2.21,2.21,0,0,1,.93-2.05,2.24,2.24,0,0,1,2.24.22Z"/>
            <path class="cls-5" d="M109.26,93.62a7,7,0,0,1,3.18,5.5,1.94,1.94,0,0,1-3.18,1.83l-15.64-9a7,7,0,0,1-3.17-5.51,1.93,1.93,0,0,1,3.17-1.83Z"/>
            <polygon class="cls-8" points="68.24 107.35 68.24 121.32 56.15 114.33 56.15 100.36 68.24 107.35"/>
            <polygon class="cls-9" points="68.24 79.73 68.24 93.7 56.15 86.72 56.15 72.75 68.24 79.73"/>
            <polygon class="cls-4" points="68.24 52.12 68.24 66.09 56.15 59.1 56.15 45.13 68.24 52.12"/>
            <polygon class="cls-6" points="68.24 66.09 56.15 59.1 56.15 45.13 68.24 52.12 68.24 66.09"/>
            <polygon class="cls-6" points="68.24 93.7 56.15 86.72 56.15 72.75 68.24 79.73 68.24 93.7"/>
            <polygon class="cls-6" points="68.24 121.32 56.15 114.33 56.15 100.36 68.24 107.35 68.24 121.32"/>
            <polyline class="cls-6" points="78.52 56.12 86.24 69.49 78.52 73.95"/>
            <path class="cls-6" d="M129,97.48,98.15,79.64A7,7,0,0,1,95,74.14a1.94,1.94,0,0,1,3.18-1.83L129,90.14a7.06,7.06,0,0,1,3.18,5.51A1.94,1.94,0,0,1,129,97.48Z"/>
            <path class="cls-6" d="M109.26,101l-15.64-9a7,7,0,0,1-3.17-5.51,1.93,1.93,0,0,1,3.17-1.83l15.64,9a7,7,0,0,1,3.18,5.5,1.94,1.94,0,0,1-3.18,1.83Z"/>
            <path class="cls-6" d="M138.58,117.88l-17.9-10.33a7,7,0,0,1-3.17-5.5,1.93,1.93,0,0,1,3.17-1.84l17.9,10.33a7,7,0,0,1,3.17,5.51,1.93,1.93,0,0,1-3.17,1.83Z"/>
            <path class="cls-6" d="M135.26,130.86l-48.42-28a7,7,0,0,1-3.18-5.49,1.94,1.94,0,0,1,3.18-1.84l48.42,28a7,7,0,0,1,3.18,5.5,2.22,2.22,0,0,1-.94,2.05A2.24,2.24,0,0,1,135.26,130.86Z"/>
            <path class="cls-6" d="M129.61,142.5,92.49,121.07a7,7,0,0,1-3.17-5.5,1.93,1.93,0,0,1,3.17-1.84l37.12,21.43a7,7,0,0,1,3.17,5.5,1.94,1.94,0,0,1-3.17,1.84Z"/>
            <path class="cls-6" d="M112.65,147.6,92.49,136a7,7,0,0,1-3.17-5.5,2.21,2.21,0,0,1,.93-2.05,2.24,2.24,0,0,1,2.24.22l20.16,11.64a7,7,0,0,1,3.18,5.5,1.94,1.94,0,0,1-3.18,1.83Z"/>
            <path class="cls-6" d="M132.62,159.13,123.77,154a7,7,0,0,1-3.18-5.5,1.93,1.93,0,0,1,3.18-1.83l8.85,5.11a7,7,0,0,1,3.18,5.5,1.94,1.94,0,0,1-3.18,1.83Z"/>
            <path class="cls-5" d="M96.43,160.64a20,20,0,1,0,20,20A20,20,0,0,0,96.43,160.64Z"/>
            <path class="cls-6" d="M76.44,180.63a20,20,0,1,1,20,20A20,20,0,0,1,76.44,180.63Z"/>
        </g>
    </g>
</svg>