<?xml version="1.0" encoding="UTF-8"?>
<svg id="Calque_2" data-name="Calque 2" xmlns="http://www.w3.org/2000/svg" xmlns:xlink="http://www.w3.org/1999/xlink" viewBox="0 0 799.18 666.61">
  <defs>
    <style>
      .cls-1, .cls-2, .cls-3, .cls-4 {
        fill: none;
      }

      .cls-5 {
        fill: #c2c7cc;
      }

      .cls-6, .cls-2, .cls-3, .cls-4, .cls-7 {
        stroke-linecap: round;
        stroke-linejoin: round;
      }

      .cls-6, .cls-2, .cls-3, .cls-7 {
        stroke: #373a3a;
      }

      .cls-6, .cls-3, .cls-4, .cls-7 {
        stroke-width: 3px;
      }

      .cls-6, .cls-8 {
        fill: #dae0e5;
      }

      .cls-9 {
        fill: #969a9e;
      }

      .cls-2 {
        stroke-width: 2.5px;
      }

      .cls-10, .cls-7 {
        fill: #fff;
      }

      .cls-4 {
        stroke: #c2c7cc;
      }

      .cls-11 {
        fill: #5f646b;
      }

      .cls-12 {
        fill: #fdb827;
      }

      .cls-13 {
        fill: #373a3a;
      }

      .cls-14 {
        fill: url(#New_Pattern_Swatch_2);
      }
    </style>
    <pattern id="New_Pattern_Swatch_2" data-name="New Pattern Swatch 2" x="0" y="0" width="16" height="19" patternTransform="translate(-4989.91 -4551.49) scale(.4)" patternUnits="userSpaceOnUse" viewBox="0 0 16 19">
      <g>
        <rect class="cls-1" x="0" width="16" height="19"/>
        <g>
          <polygon class="cls-9" points="16 22.18 10.5 19 16 15.82 21.5 19 16 22.18"/>
          <polygon class="cls-9" points="8 12.68 2.5 9.5 8 6.32 13.5 9.5 8 12.68"/>
        </g>
        <polygon class="cls-9" points="0 22.18 -5.5 19 0 15.82 5.5 19 0 22.18"/>
        <polygon class="cls-9" points="16 3.18 10.5 0 16 -3.18 21.5 0 16 3.18"/>
        <polygon class="cls-9" points="0 3.18 -5.5 0 0 -3.18 5.5 0 0 3.18"/>
      </g>
    </pattern>
  </defs>
  <g id="shadow">
    <path class="cls-14" d="M777.35,444.18c-29.11,16.81-76.31,16.81-105.42,0-29.11-16.81-29.11-44.06,0-60.87,29.11-16.81,76.31-16.81,105.42,0,29.11,16.81,29.11,44.06,0,60.87Z"/>
    <path class="cls-14" d="M248.57,249.9c-16.97,9.8-44.49,9.8-61.46,0-16.97-9.8-16.97-25.68,0-35.48,16.97-9.8,44.49-9.8,61.46,0,16.97,9.8,16.97,25.68,0,35.48Z"/>
    <path class="cls-14" d="M562.51,203.34c-.74,3.47-1.66,6.62-1.66,9.73,0,23.1,70.75,40.14,95.56,40.14,10.61,0,22.82-.72,29.64-9.54,2.46-3.18,3.47-6.73,3.25-10.19.06-.41.09-.82.09-1.23,0-14.08-30.01-25.16-35.54-27.93-9.63-4.83-19.38-10.88-29.54-14.47-16.05-5.67-37.41-4.76-51.34,3.3-5.09,2.94-8.58,6.45-10.46,10.18Z"/>
    <path class="cls-14" d="M658.89,373c-28.27-16.24-57.52-30.93-87.73-43.25-8.98-3.66-15.34,11.46-6.63,15.72,28.62,13.98,56.85,28.56,84.35,44.65,11.03,6.46,21.07-10.75,10-17.11Z"/>
    <path class="cls-14" d="M508.1,334.63c-2.94-2.69-7.29-3.46-10.82-1.4-.09.05-.43.22-.79.41-.89-.12-2.71.19-3.21.25-2.62.29-4.64,1.02-6.29,3.16-1.41,1.83-2.37,4.7-1.43,6.98,1.06,2.59,2.3,4.37,4.64,5.9,2.01,1.32,4.73,1.59,7.06,1.75,4.75.33,9.95-1.92,12.25-6.23,1.81-3.39,1.58-8.09-1.4-10.82Z"/>
    <path class="cls-14" d="M687.27,286.35c-.08.05-.23.14-.41.25-.49.02-.98,0-1.48-.04-1.73-.12-3.41-.06-5.04.63-3.11,1.31-4.44,3.71-4.87,7-.83,6.34,7.1,10.18,12.29,10.32,6.46.17,12.57-3.49,12.91-10.48.33-6.86-7.77-10.94-13.4-7.69Z"/>
    <path class="cls-14" d="M139.12,276.84c-.74.43-1.43.95-2.08,1.52-.24-.04-.48-.05-.72-.08-.11-.03-.3-.07-.59-.14-.94-.15-1.89-.27-2.84-.36-2.73-.29-5.62,1.73-6.94,3.98-1.53,2.61-1.3,5.49,0,8.11,2.45,4.95,8.32,7.51,13.65,7.22,6.52-.36,13.38-5.32,13.15-12.43-.21-6.69-7.59-11.51-13.63-7.82Z"/>
    <path class="cls-14" d="M92.61,341.3c-7.19,4.15-19.75,3.63-28.05-1.16l-48.05-27.74c-8.3-4.79-9.2-12.04-2.01-16.2s19.75-3.63,28.05,1.16l48.05,27.74c8.3,4.79,9.2,12.04,2.01,16.2Z"/>
    <polygon class="cls-14" points="491.68 441.1 542.6 439.57 506.62 420.67 491.68 441.1"/>
    <path class="cls-14" d="M740.46,572.2l-.2-.55c-1.03-3.06-2.51-6.12-4.36-9.16l-33.29-23.46c-2.27-.5-4.57-.91-6.86-1.28-32.81-5.41-66.42-1.97-88.87,11-10.88,6.28-17.9,14.06-21.16,22.6-1.36,3.56-2.06,7.25-2.13,11.02,0,.21,0,.43,0,.63v.02c0,3.55.59,7.16,1.74,10.77l.15.48c1.05,3.24,2.58,6.52,4.57,9.74l33.29,23.46c34.88,7.1,71.69,4.12,95.69-9.74,15.67-9.02,23.31-21.21,23.31-34.2v-.55c-.06-3.56-.68-7.16-1.87-10.78Z"/>
    <path class="cls-14" d="M505.53,612.18l-70.11,40.48c-35.78,20.66-98.29,18.07-139.61-5.79s-45.81-59.94-10.02-80.6l70.11-40.48c35.78-20.66,98.29-18.07,139.61,5.79s45.81,59.94,10.02,80.6Z"/>
    <path class="cls-14" d="M298.45,365.08c4.15,1.75,5.97,4.53,5.68,7.83-.45,5.15-6.05,11.57-15.99,17.31-.84.49-1.69.95-2.55,1.41l17.54,7.39c.91.38,1.32.96,1.28,1.59-.06.63-.59,1.3-1.58,1.88l-43.63,25.19c-1.98,1.14-5.08,1.45-6.9.69l-27.51-11.58c-.88-.37-1.32-.93-1.28-1.54v-.05c0-.15.06-.29.12-.45.21-.49.7-.99,1.46-1.43l5.9-3.41c-4.61-.4-9.62-.14-14.52.72,6.33-2.65,13.74-4.13,20.72-4.3l9.51-5.49c-2.77-.25-5.23-.79-7.28-1.66-4.07-1.71-5.89-4.42-5.69-7.64l.02-.19c.33-3.79,3.46-8.28,9.05-12.66,1.01-.79,2.09-1.58,3.27-2.37l-4.53-5.72,12.18,1.31c15.72-7.85,34.98-10.93,44.75-6.82Z"/>
    <path class="cls-14" d="M121.95,518.24s25.13,58.46,27.69,57.95c1.82-.36,32.01,4.95,49.41,8.07,7.78,1.39,15.79-.35,22.28-4.86,3.77-2.62,3.39-8.3-.69-10.4l-98.69-50.76Z"/>
    <path class="cls-14" d="M222.51,649.51c-3.98-3.54-8.27-7.09-13.09-11.01,4.98.19,7.92.24,7.92.24-17.66-15.73-38.63-31.39-69.23-57.43l-43.08,42.05c15.32,6.2,39.12,9.93,60.87,12.15l-5.61,5.47c19.14,7.75,62.21,8.52,62.21,8.52Z"/>
  </g>
  <g id="lineart">
    <g>
      <g>
        <path class="cls-12" d="M272.99,315.24c3.43,1.97,5.45,5.64,5.45,10.88,0,12.33-11.21,28.96-25.7,38.87l-3.82,12.75-3.83-8.33c-1.28.6-2.52,1.12-3.75,1.55-6.75,2.44-12.56,2.4-16.5.12l-.2-.11c-3.31-2.01-5.25-5.64-5.25-10.77,0-2.58.49-5.36,1.41-8.22,3.57-11.2,13.57-23.75,25.63-31.54.82-.53,1.65-1.04,2.49-1.52,9.93-5.73,18.72-6.78,24.07-3.68Z"/>
        <path class="cls-13" d="M246.44,320.44c-12.06,7.78-22.06,20.34-25.63,31.54l-9.51,5.49c-3.11,6.67-7.72,12.86-13.04,17.21,2.93-4.19,5.3-8.89,6.84-13.64l-5.9,3.4c-.76.44-1.47.58-2.04.45-.18-.04-.35-.1-.5-.19l-.05-.03c-.62-.39-1-1.18-1-2.3v-34.71c0-2.3,1.61-5.09,3.6-6.24l43.63-25.19c1-.57,1.9-.63,2.55-.25.65.38,1.06,1.19,1.06,2.34v22.13Z"/>
      </g>
      <g>
        <path class="cls-3" d="M196.61,364.67c-.62-.39-1-1.18-1-2.3v-34.71c0-2.3,1.61-5.09,3.6-6.24l43.63-25.19c1-.57,1.9-.63,2.55-.25.65.38,1.06,1.19,1.06,2.34v22.13"/>
        <path class="cls-3" d="M220.81,351.98l-9.51,5.49c-3.11,6.67-7.72,12.86-13.04,17.21,2.93-4.19,5.3-8.89,6.84-13.64l-5.9,3.4c-.76.44-1.47.58-2.04.45-.18-.04-.35-.1-.5-.19"/>
        <path class="cls-3" d="M224.85,371.09c3.93,2.28,9.75,2.32,16.5-.12,1.22-.44,2.47-.96,3.75-1.55l3.83,8.33,3.82-12.75c14.5-9.91,25.7-26.55,25.7-38.87,0-5.23-2.02-8.91-5.45-10.88-5.35-3.1-14.14-2.05-24.07,3.68-.84.48-1.67.99-2.49,1.52-12.06,7.78-22.06,20.34-25.63,31.54-.91,2.86-1.41,5.64-1.41,8.22,0,5.13,1.94,8.77,5.25,10.77"/>
      </g>
    </g>
    <path class="cls-6" d="M500.31,597.57l-70.11,40.48c-35.78,20.66-98.29,18.07-139.61-5.79s-45.81-59.94-10.02-80.6l70.11-40.48c35.78-20.66,98.29-18.07,139.61,5.79s45.81,59.94,10.02,80.6Z"/>
    <circle class="cls-7" cx="496.29" cy="329.19" r="9.91"/>
    <circle class="cls-7" cx="136.4" cy="274.07" r="9.91" transform="translate(-141.07 403.41) rotate(-88.53)"/>
    <circle class="cls-7" cx="684.39" cy="285.52" r="9.91" transform="translate(388.85 965.65) rotate(-89.16)"/>
    <g>
      <line class="cls-3" x1="572.92" y1="449.49" x2="593.79" y2="437.44"/>
      <line class="cls-3" x1="593.79" y1="449.49" x2="572.92" y2="437.44"/>
    </g>
    <g>
      <line class="cls-3" x1="130.5" y1="374.44" x2="151.37" y2="362.39"/>
      <line class="cls-3" x1="151.37" y1="374.44" x2="130.5" y2="362.39"/>
    </g>
    <g>
      <line class="cls-3" x1="282.97" y1="180.47" x2="303.84" y2="168.42"/>
      <line class="cls-3" x1="303.84" y1="180.47" x2="282.97" y2="168.42"/>
    </g>
    <g>
      <g>
        <polygon class="cls-13" points="497.17 392.65 517.36 431.07 491.23 439.29 497.17 392.65"/>
        <polygon class="cls-10" points="497.17 392.65 491.23 439.29 476.98 424.21 497.17 392.65"/>
      </g>
      <polyline class="cls-3" points="491.23 439.29 497.17 392.65 517.36 431.07 491.23 439.29 476.98 424.21 497.17 392.65"/>
    </g>
    <polyline class="cls-3" points="227.33 498.13 248.87 500.03 245.77 487.57 267.31 489.47 264.22 477.01 285.76 478.91"/>
    <polyline class="cls-3" points="546.49 264.9 524.95 266.8 528.04 254.34 506.5 256.24 509.6 243.79 488.05 245.68"/>
    <g id="eye">
      <g>
        <path class="cls-9" d="M706.01,526.1v33.34c0,12.99-7.64,25.19-23.31,34.22-24,13.85-60.81,16.83-95.69,9.73v-33.35c34.88,7.1,71.69,4.12,95.69-9.74,15.67-9.02,23.31-21.22,23.31-34.2Z"/>
        <path class="cls-10" d="M706.01,525.55v.55c0,12.99-7.64,25.18-23.31,34.2-24,13.86-60.81,16.84-95.69,9.74-1.98-3.22-3.51-6.5-4.57-9.74l-.15-.48c-1.15-3.62-1.73-7.23-1.73-10.77v-.02c0-.21,0-.43,0-.63.11-3.77.77-7.46,2.13-11.02,3.27-8.54,10.28-16.31,21.16-22.6,22.44-12.96,56.06-16.41,88.87-11,2.29.38,4.58.79,6.86,1.28,1.86,3.04,3.33,6.1,4.36,9.16l.2.55c1.19,3.63,1.81,7.23,1.87,10.78ZM667.15,551.32c13.18-7.62,13.2-19.95.02-27.56-13.2-7.63-34.56-7.62-47.75,0-13.19,7.61-13.18,19.94,0,27.56,13.18,7.61,34.54,7.61,47.72,0Z"/>
        <path class="cls-11" d="M667.17,523.76c13.18,7.61,13.17,19.94-.02,27.56-13.18,7.61-34.54,7.61-47.72,0-13.19-7.62-13.2-19.95,0-27.56,13.18-7.62,34.54-7.63,47.75,0ZM650.97,541.98c4.23-2.45,4.24-6.42-.02-8.88-4.23-2.45-11.1-2.43-15.33.02-4.24,2.45-4.24,6.42,0,8.86,4.24,2.45,11.12,2.45,15.36,0Z"/>
        <path class="cls-13" d="M650.95,533.1c4.26,2.45,4.25,6.43.02,8.88-4.24,2.45-11.12,2.45-15.36,0-4.23-2.44-4.23-6.41,0-8.86,4.23-2.45,11.1-2.46,15.33-.02Z"/>
        <path class="cls-10" d="M587.02,570.04v33.35c-1.98-3.21-3.51-6.5-4.57-9.74l-.15-.48c-1.21-3.84-1.81-7.67-1.73-11.42v-32.7c0,3.55.59,7.16,1.73,10.77l.15.48c1.05,3.24,2.58,6.52,4.57,9.74Z"/>
      </g>
      <g>
        <path class="cls-3" d="M580.57,549.03c0-.21,0-.43,0-.63.11-3.77.77-7.46,2.13-11.02,3.27-8.54,10.28-16.31,21.16-22.6,22.44-12.96,56.06-16.41,88.87-11,2.29.38,4.58.79,6.86,1.28,1.86,3.04,3.33,6.1,4.36,9.16l.2.55c1.19,3.63,1.81,7.23,1.87,10.78"/>
        <path class="cls-3" d="M706.01,526.1c0,12.99-7.64,25.18-23.31,34.2-24,13.86-60.81,16.84-95.69,9.74-1.98-3.22-3.51-6.5-4.57-9.74l-.15-.48c-1.15-3.62-1.73-7.23-1.73-10.77"/>
        <path class="cls-3" d="M667.17,523.76c-13.2-7.63-34.56-7.62-47.75,0-13.19,7.61-13.18,19.94,0,27.56,13.18,7.61,34.54,7.61,47.72,0,13.18-7.62,13.2-19.95.02-27.56Z"/>
        <path class="cls-3" d="M650.95,533.1c-4.23-2.45-11.1-2.43-15.33.02-4.24,2.45-4.24,6.42,0,8.86,4.24,2.45,11.12,2.45,15.36,0,4.23-2.45,4.24-6.42-.02-8.88Z"/>
        <path class="cls-3" d="M580.57,549.03v32.71c-.08,3.75.52,7.58,1.73,11.42l.15.48c1.05,3.24,2.58,6.52,4.57,9.74,34.88,7.1,71.69,4.12,95.69-9.73,15.67-9.03,23.31-21.23,23.31-34.22v-33.34"/>
        <line class="cls-3" x1="587.02" y1="570.04" x2="587.02" y2="603.39"/>
      </g>
    </g>
    <g>
      <line class="cls-3" x1="601.3" y1="629.51" x2="610.54" y2="565.3"/>
      <line class="cls-3" x1="631.5" y1="567.9" x2="622.25" y2="632.11"/>
      <line class="cls-3" x1="608.53" y1="579.32" x2="629.48" y2="581.93"/>
      <line class="cls-3" x1="606.39" y1="594.15" x2="627.34" y2="596.75"/>
      <line class="cls-3" x1="604.17" y1="609.58" x2="625.12" y2="612.19"/>
      <line class="cls-3" x1="602.56" y1="620.74" x2="623.52" y2="623.35"/>
    </g>
    <g>
      <g>
        <path class="cls-13" d="M781.61,385.71v18.56c0,10.03-6.63,20.06-19.89,27.72-13.26,7.65-30.63,11.48-48,11.48s-34.74-3.83-48-11.48c-13.26-7.66-19.89-17.68-19.89-27.72v-18.56c0,10.03,6.63,20.05,19.89,27.71s30.63,11.48,48,11.48,34.74-3.83,48-11.48c13.25-7.66,19.89-17.68,19.89-27.71Z"/>
        <path class="cls-5" d="M761.72,357.99c13.26,7.66,19.89,17.68,19.89,27.72s-6.64,20.05-19.89,27.71c-13.26,7.66-30.63,11.48-48,11.48s-34.74-3.83-48-11.48-19.89-17.68-19.89-27.71c0-3.1.64-6.22,1.91-9.25,2.6-6.22,7.89-12.13,15.83-17.16.7-.44,1.41-.88,2.15-1.3,13.25-7.66,30.63-11.48,48-11.48s34.74,3.82,48,11.48ZM754.11,407.74c22.32-12.17,22.32-31.9,0-44.07-11.16-6.09-25.78-9.13-40.39-9.13s-29.25,3.04-40.4,9.13c-22.31,12.16-22.31,31.9,0,44.07,11.16,6.09,25.78,9.14,40.4,9.14s29.25-3.05,40.39-9.14Z"/>
        <path class="cls-10" d="M754.11,363.67c22.32,12.16,22.32,31.9,0,44.07-11.15,6.09-25.78,9.14-40.39,9.14s-29.25-3.05-40.4-9.14c-22.31-12.17-22.31-31.9,0-44.07,11.16-6.09,25.78-9.13,40.4-9.13s29.24,3.04,40.39,9.13Z"/>
        <path class="cls-10" d="M654.51,353.92l9.06,5.38c-7.95,5.02-13.23,10.95-15.83,17.16l-5.4-2.97c-.17-.72-.27-1.52-.27-2.41,0-5.88,4.13-13.03,9.21-15.96,1.14-.66,2.22-1.05,3.22-1.2Z"/>
        <path class="cls-12" d="M577.87,308.43l76.64,45.49c-1,.14-2.09.54-3.22,1.2-5.09,2.93-9.21,10.08-9.21,15.96,0,.89.09,1.7.27,2.41l-77.42-42.55c-1.71-.94-2.77-3.01-2.77-5.99,0-5.85,4.11-12.97,9.18-15.89,2.56-1.49,4.87-1.61,6.53-.62Z"/>
      </g>
      <g>
        <path class="cls-3" d="M663.57,359.3c.7-.44,1.41-.88,2.15-1.3,13.25-7.66,30.63-11.48,48-11.48s34.74,3.82,48,11.48c13.26,7.66,19.89,17.68,19.89,27.72s-6.64,20.05-19.89,27.71c-13.26,7.66-30.63,11.48-48,11.48s-34.74-3.83-48-11.48-19.89-17.68-19.89-27.71c0-3.1.64-6.22,1.91-9.25,2.6-6.22,7.89-12.13,15.83-17.16Z"/>
        <path class="cls-3" d="M713.72,354.54c14.62,0,29.24,3.04,40.39,9.13,22.32,12.16,22.32,31.9,0,44.07-11.15,6.09-25.78,9.14-40.39,9.14s-29.25-3.05-40.4-9.14c-22.31-12.17-22.31-31.9,0-44.07,11.16-6.09,25.78-9.13,40.4-9.13Z"/>
        <path class="cls-3" d="M781.61,385.71v18.56c0,10.03-6.63,20.06-19.89,27.72-13.26,7.65-30.63,11.48-48,11.48s-34.74-3.83-48-11.48c-13.26-7.66-19.89-17.68-19.89-27.72v-18.56"/>
        <path class="cls-3" d="M642.34,373.49c-.17-.72-.27-1.52-.27-2.41,0-5.88,4.13-13.03,9.21-15.96,1.14-.66,2.22-1.05,3.22-1.2"/>
        <path class="cls-3" d="M647.74,376.46l-82.82-45.52c-1.71-.94-2.77-3.01-2.77-5.99,0-5.85,4.11-12.97,9.18-15.89,2.56-1.49,4.87-1.61,6.53-.62l85.7,50.87"/>
      </g>
    </g>
    <g>
      <g>
        <path class="cls-8" d="M477.38,172.64c.53,5.37-2.1,10.6-6.81,13.2-5.82,3.23-12.55,5.18-19.75,6.23-15.13,2.23-32.28.51-47.15-1.58l4.52-27.69,35.29-2.35s2.38-5.97,4.12-12.79c9.04-6.06,25.47-1.59,27.66,8.13h.01c.88,5.59,1.55,11.18,2.11,16.84Z"/>
        <path class="cls-10" d="M447.6,147.67c-1.74,6.81-4.12,12.79-4.12,12.79l-35.29,2.35,6.04-36.94c.66-4.25,2.83-8.13,6.1-10.92l4.21-3.59c5.14-4.4,6.17-11.98,2.36-17.57-1.34-1.95-2.84-3.68-4.65-5.18-1.21-.99-1.71-2.62-1.12-4.08l4.39-11.05c.36-.91.38-1.89.1-2.77,8.9.17,17.97,3.7,24.96,15.99,14.9,26.16,21.32,47.71,24.7,69.1h-.01c-2.19-9.72-18.63-14.19-27.66-8.13Z"/>
        <path class="cls-11" d="M456.7,552.94c0,3.81-5.23,9.79-14.75,9.79-14.02,0-15.31-9.33-31.87-16.2-5.95-2.47-15.72-1.41-15.72-13.58,0-.61.03-1.21.08-1.83,7.95,4.22,24.58,5.49,34.72-4.26,0-.8.01-1.59.01-2.39,15.64,19.39,27.53,20.98,27.53,28.47Z"/>
        <path class="cls-13" d="M394.44,531.12c-.81-.43-1.53-.9-2.13-1.38-.8-14.97-4.73-77.43-.8-110.51.84-7.05.29-15.1-1.1-23.45-3.31,16.54-6.07,33.37-7.05,50.84-2.62,47.78-3.93,130.21-3.93,130.21-.07,2.02-1.61,3.83-4.04,5.33-7.63,4.81-24.15,6.72-31.66,2.98-2.04-1-3.42-2.44-3.77-4.36-3.57-32.82-4.03-78.89-4.03-80.41,0-16.67,6.47-100.02,6.47-128.31,0-41.97-3.44-55.27-3.44-88.23,0-10.33.54-19.23,1.26-27.47,11.18,13.25,25.11,22.4,45.68,22.4,23.91,0,49.13-11.81,66.36-42.04.11,91.57-22.64,82.91-23.08,287.77,0,.8-.01,1.59-.01,2.39-10.15,9.74-26.79,8.51-34.72,4.26Z"/>
        <path class="cls-10" d="M452.23,232.92c.02,1.27.02,2.55.02,3.78-17.23,30.23-42.45,42.04-66.36,42.04-20.57,0-34.5-9.15-45.68-22.4,2.05-23.44,5.61-41.54,2.64-72.14-.22-2.35-.54-4.47-.92-6.42,3.39,7.06,6.62,12.84,9.79,17.74,7.99,12.41,15.49,19.14,23.95,26.6,3.54,3.12,8.36,4.36,12.97,3.32,2.93-.66,5.5-2.18,7.47-4.27s3.32-4.76,3.81-7.71l3.76-22.97c14.88,2.09,32.02,3.82,47.15,1.58h0c.89,15.66,1.34,29.07,1.41,40.84Z"/>
        <path class="cls-13" d="M427.54,5.35c2.37.55,3.96,2.44,3.96,6.55,0,7.99-2.28,13.81-6.44,17.61-4,3.65-9.7,5.41-16.8,5.41s-13.19-2.44-19.05-5.93c-.79,6.03-1.02,12.06-1.11,18.11-2.23-1.94-4.97-3.64-7.4-3.64s-4.61,1.79-4.61,5.8c0,5.39,3.42,6.75,3.42,9.51,0,1.83-.76,4.72-1.96,8.14-5.97-9.51-12.17-22.63-12.17-35.35,0-18.01,17-30.07,27.2-30.07s17.02,2.68,24.56,6.59c3.38-1.17,5.3-2.89,8.96-2.89.52,0,1,.04,1.44.15Z"/>
        <path class="cls-8" d="M374.71,180.23c1.11-3.96,18.86-66.73,23.79-82.82,1.98-6.47,3.53-11.27,4.37-13.29,3.28-7.9,12.33-13.48,16.82-15.85.62-.33,1.29-.48,1.95-.48.09,0,.17,0,.26.01.9.06,1.77.39,2.48,1.01.59.52,1.01,1.19,1.23,1.91.28.89.26,1.86-.1,2.77l-4.39,11.05c-.58,1.46-.09,3.09,1.12,4.08,1.81,1.49,3.31,3.22,4.65,5.18,3.82,5.59,2.78,13.17-2.36,17.57l-4.21,3.59c-3.27,2.8-5.43,6.67-6.1,10.92l-14.33,87.59c-.48,2.95-1.84,5.62-3.81,7.71s-4.54,3.6-7.47,4.27c-4.6,1.03-9.43-.2-12.97-3.32-8.45-7.45-15.95-14.19-23.95-26.6.57-5.3,2.04-9.4,3.95-12.73,2.41,3.87,5.06,6.98,7.25,6.98,4.34,0,7.05-6.18,10.26-8.62.49-.37,1.01-.67,1.53-.92Z"/>
        <path class="cls-8" d="M426.4,39.47c.7,9.74-.35,20.4-4.5,28.31h-.26c-.66,0-1.34.16-1.95.48-4.49,2.37-13.54,7.95-16.82,15.85-.84,2.02-2.39,6.83-4.37,13.29h-.01c-9.63,2.58-24.49.2-29.18-11.73,3.03-6.13,6.24-13.16,8.23-18.76,1.2-3.42,1.96-6.31,1.96-8.14,0-2.76-3.42-4.12-3.42-9.51,0-4.02,2.12-5.8,4.61-5.8s5.16,1.7,7.4,3.64c.09-6.05.33-12.08,1.11-18.11,5.86,3.49,12.16,5.93,19.05,5.93s12.8-1.76,16.8-5.41c.63,3.1,1.1,6.46,1.35,9.96Z"/>
        <path class="cls-10" d="M375.17,158.52c-7.06.55-13.52,5.27-18.66,10.88-3.21,3.5-3.68,8.75-1.2,12.81.12.2.24.39.36.58-1.91,3.33-3.38,7.43-3.95,12.73-3.17-4.89-6.4-10.68-9.79-17.74-3.3-6.85-6.76-14.91-10.45-24.53-.92-2.4-1.86-4.92-2.82-7.53-3.61-13.02-1.27-27.23,7.14-38.16,7.12-9.26,15.1-12.63,33.38-22.2,0,0,.01,0,.01.01.03.1.08.2.12.3,4.95,11.83,19.55,14.31,29.18,11.73h.01c-4.93,16.09-12.45,42.47-17.87,61.71-1.39-.4-2.81-.65-4.22-.65-.42,0-.83.01-1.23.04Z"/>
        <path class="cls-11" d="M375.39,582.15c.92,10.9,5.32,26.21,5.32,27.11,0,6.94-9.53,9.99-16.58,9.99-17.01,0-18.01-18.66-20.4-34.13,7.51,3.75,24.03,1.83,31.66-2.98Z"/>
        <path class="cls-10" d="M376.41,158.47c1.41,0,2.83.25,4.22.65l-5.92,21.11c-.52.25-1.04.55-1.53.92-3.21,2.44-5.92,8.62-10.26,8.62-2.19,0-4.81-3.13-7.25-6.98-.12-.19-.24-.38-.36-.58-2.47-4.06-2.01-9.31,1.2-12.81,5.14-5.61,11.6-10.33,18.66-10.88.4-.03.82-.04,1.23-.04Z"/>
        <path class="cls-10" d="M328.66,145.72c.95,2.62,1.9,5.13,2.82,7.53-1.17-2.44-2.11-4.96-2.82-7.53Z"/>
      </g>
      <g>
        <path class="cls-3" d="M377.54,66.92c-5.97-9.51-12.17-22.63-12.17-35.35,0-18.01,17-30.07,27.2-30.07s17.02,2.68,24.56,6.59c3.38-1.17,5.3-2.89,8.96-2.89.52,0,1,.04,1.44.15,2.37.55,3.96,2.44,3.96,6.55,0,7.99-2.28,13.81-6.44,17.61-4,3.65-9.7,5.41-16.8,5.41s-13.19-2.44-19.05-5.93c-.79,6.03-1.02,12.06-1.11,18.11-2.23-1.94-4.97-3.64-7.4-3.64s-4.61,1.79-4.61,5.8c0,5.39,3.42,6.75,3.42,9.51,0,1.83-.76,4.72-1.96,8.14-1.98,5.61-5.2,12.63-8.23,18.76"/>
        <path class="cls-3" d="M450.82,192.09c.89,15.65,1.34,29.06,1.41,40.83.02,1.27.02,2.55.02,3.78.06,91.57-22.64,82.91-23.08,287.77,0,.8-.01,1.59-.01,2.39-10.15,9.74-26.79,8.51-34.72,4.26-.81-.43-1.53-.9-2.13-1.38-.8-14.97-4.73-77.43-.8-110.51.84-7.05.29-15.1-1.1-23.45"/>
        <path class="cls-3" d="M398.49,97.41c-9.63,2.58-24.23.1-29.18-11.73-.04-.1-.09-.2-.12-.3,0-.01-.01-.01-.01-.01-18.28,9.57-26.26,12.93-33.38,22.2-8.41,10.93-10.74,25.13-7.14,38.16.71,2.57,1.65,5.1,2.82,7.53"/>
        <path class="cls-3" d="M341.93,177.78c.38,1.95.7,4.08.92,6.42,2.98,30.6-.59,48.7-2.64,72.14-.72,8.24-1.26,17.14-1.26,27.47,0,32.96,3.44,46.27,3.44,88.23,0,28.29-6.47,111.64-6.47,128.31,0,1.52.46,47.59,4.03,80.41.35,1.92,1.73,3.35,3.77,4.36,7.53,3.72,24,1.8,31.66-2.98,2.43-1.51,3.97-3.31,4.04-5.33,0,0,1.31-82.43,3.93-130.21.98-17.47,3.74-34.3,7.05-50.84"/>
        <path class="cls-3" d="M452.26,236.7c-17.23,30.23-42.45,42.04-66.36,42.04-20.57,0-34.5-9.15-45.68-22.4"/>
        <path class="cls-3" d="M375.39,582.15c.92,10.9,5.32,26.21,5.32,27.11,0,6.94-9.53,9.99-16.58,9.99-17.01,0-18.01-18.66-20.4-34.13"/>
        <path class="cls-3" d="M429.16,524.46h.01c15.64,19.4,27.53,20.99,27.53,28.48,0,3.81-5.23,9.79-14.75,9.79-14.02,0-15.31-9.33-31.87-16.2-5.95-2.47-15.72-1.41-15.72-13.58,0-.61.03-1.21.08-1.83h0"/>
        <path class="cls-3" d="M425.05,29.51c.63,3.1,1.1,6.46,1.35,9.96.7,9.74-.35,20.4-4.5,28.31"/>
        <path class="cls-3" d="M425.62,70.71c8.9.17,17.97,3.7,24.96,15.99,14.9,26.16,21.33,47.71,24.7,69.1.88,5.59,1.55,11.18,2.11,16.84.53,5.37-2.1,10.6-6.81,13.2-5.82,3.23-12.55,5.17-19.75,6.23-15.13,2.23-32.28.51-47.15-1.58"/>
        <path class="cls-3" d="M408.19,162.81l35.29-2.35s2.38-5.97,4.12-12.79c-.75-8.9-1.63-18.33-2.59-28.39"/>
        <path class="cls-3" d="M447.6,147.67c9.04-6.06,25.47-1.59,27.66,8.13"/>
        <path class="cls-3" d="M328.66,145.72c.95,2.62,1.9,5.13,2.82,7.53,3.69,9.62,7.16,17.68,10.45,24.53,3.4,7.06,6.63,12.84,9.79,17.74,8,12.4,15.49,19.14,23.95,26.6,3.54,3.12,8.36,4.36,12.97,3.32,2.93-.66,5.5-2.18,7.47-4.27s3.32-4.76,3.81-7.71l14.33-87.59c.66-4.25,2.83-8.13,6.1-10.92l4.21-3.59c5.14-4.4,6.17-11.98,2.36-17.57-1.34-1.95-2.84-3.68-4.65-5.18-1.21-.99-1.71-2.62-1.12-4.08l4.39-11.05c.36-.91.38-1.89.1-2.77-.23-.72-.64-1.39-1.23-1.91-.71-.62-1.58-.95-2.48-1.01-.09-.01-.17-.01-.26-.01-.66,0-1.34.16-1.95.48-4.49,2.37-13.54,7.95-16.82,15.85-.84,2.02-2.39,6.83-4.37,13.29-4.92,16.09-24.59,85.71-24.59,85.71"/>
        <path class="cls-3" d="M366.7,143.96c2.55,3.9,5.51,9.09,8.48,14.56"/>
        <path class="cls-3" d="M380.63,159.13c-1.39-.4-2.81-.65-4.22-.65-.42,0-.83.01-1.23.04-7.06.55-13.52,5.27-18.66,10.88-3.21,3.5-3.68,8.75-1.2,12.81.12.2.24.39.36.58,2.45,3.85,5.06,6.98,7.25,6.98,4.34,0,7.05-6.18,10.26-8.62.49-.37,1.01-.67,1.53-.92"/>
        <path class="cls-3" d="M355.67,182.79c-1.91,3.33-3.38,7.43-3.95,12.73"/>
        <path class="cls-4" d="M390.41,395.77c.59-2.96,1.2-5.91,1.82-8.85"/>
        <path class="cls-4" d="M394.58,375.98c4.74-21.83,9.57-43.43,11.51-65.68"/>
      </g>
    </g>
    <g id="question_mark" data-name="question mark">
      <g>
        <path class="cls-10" d="M261.3,85.55c0,6.54-1.28,13.48-3.81,20.77-2.54,7.29-6.98,16.31-13.32,27.05l-8.08,13.58c-5.08,8.55-7.99,16.82-8.73,24.8l-.39,7.3-25.63,14.8c0-1.14.02-2.24.05-3.34.21-9.37,1.33-17.51,3.37-24.42,2.26-7.71,6.41-16.42,12.46-26.12,6.04-9.68,10.05-17.07,12.06-22.13,2-5.05,3-9.72,3-14.05,0-13.04-5.22-16.56-15.62-10.55-4.93,2.85-8.89,6.88-11.85,12.12-2.97,5.23-4.53,10.96-4.66,17.22l-29.03,16.76c.13-14.82,4.27-28.73,12.37-41.72,8.11-13.02,19.16-23.58,33.17-31.64,14.14-8.19,25.15-10.63,32.92-7.18.21.09.42.2.62.27.23.11.45.23.68.35l.3.17c6.76,3.9,10.12,12.55,10.12,25.95Z"/>
        <path class="cls-9" d="M227.41,45.88l23.47,13.56c-.23-.12-.45-.24-.68-.35-.2-.08-.41-.18-.62-.27-7.77-3.45-18.78-1.01-32.92,7.18-14.01,8.07-25.06,18.63-33.17,31.64-8.1,12.99-12.24,26.89-12.37,41.72l-23.78-13.73c.14-14.82,4.27-28.73,12.38-41.72,8.1-13.03,19.16-23.58,33.16-31.65,14.14-8.19,25.19-10.7,32.93-7.18.2.09.41.19.61.27.34.15.67.33.99.52Z"/>
        <path class="cls-13" d="M232.28,103.79c0,4.33-1,9-3,14.05-2.01,5.06-6.02,12.45-12.06,22.13-6.05,9.69-10.19,18.41-12.46,26.12-2.04,6.91-3.16,15.05-3.37,24.42-.03,1.1-.05,2.21-.05,3.34l-23.78-13.73c0-1.14.02-2.24.06-3.35.2-9.36,1.33-17.5,3.36-24.41,2.23-7.61,6.31-16.21,12.25-25.77l6.92-4.01c.12-6.26,1.68-11.98,4.66-17.22,2.96-5.23,6.92-9.27,11.85-12.12,10.4-6.01,15.62-2.5,15.62,10.55Z"/>
        <path class="cls-10" d="M226.33,202.11l.24.13c2.86,1.65,4.31,4.98,4.31,9.97s-1.48,10.1-4.45,15.14c-2.97,5.01-6.88,8.92-11.77,11.74-4.72,2.73-8.57,3.39-11.49,1.96l-.27-.11c-.08-.04-.14-.08-.21-.12l-.33-.2c-2.59-1.69-3.91-4.9-3.91-9.66,0-5.16,1.53-10.28,4.55-15.36,3.05-5.12,6.92-9.02,11.66-11.74,4.51-2.6,8.23-3.27,11.21-1.98l.02-.03.44.26Z"/>
        <path class="cls-13" d="M225.88,201.85l-.02.03c-2.98-1.29-6.7-.62-11.21,1.98-4.74,2.72-8.61,6.62-11.66,11.74-3.02,5.08-4.55,10.2-4.55,15.36,0,4.75,1.32,7.96,3.91,9.66l-22.96-13.29-.27-.12c-2.96-1.58-4.46-4.9-4.46-9.97s1.53-10.28,4.56-15.37c3.04-5.11,6.91-9.02,11.65-11.74.73-.42,1.43-.78,2.11-1.1l8.36,4.83,5.34-3.09,19.2,11.08Z"/>
      </g>
      <g>
        <path class="cls-3" d="M179.12,227.2c-2.96-1.58-4.46-4.9-4.46-9.97s1.53-10.28,4.56-15.37c3.04-5.11,6.91-9.02,11.65-11.74.73-.42,1.43-.78,2.11-1.1"/>
        <path class="cls-3" d="M251.18,59.6c6.76,3.9,10.12,12.55,10.12,25.95,0,6.54-1.28,13.48-3.81,20.77-2.54,7.29-6.98,16.31-13.32,27.05l-8.08,13.58c-5.08,8.55-7.99,16.82-8.73,24.8l-.39,7.3-25.63,14.8c0-1.14.02-2.24.05-3.34.21-9.37,1.33-17.51,3.37-24.42,2.26-7.71,6.41-16.42,12.46-26.12,6.04-9.68,10.05-17.07,12.06-22.13,2-5.05,3-9.72,3-14.05,0-13.04-5.22-16.56-15.62-10.55-4.93,2.85-8.89,6.88-11.85,12.12-2.97,5.23-4.53,10.96-4.66,17.22l-29.03,16.76c.13-14.82,4.27-28.73,12.37-41.72,8.11-13.02,19.16-23.58,33.17-31.64,14.14-8.19,25.15-10.63,32.92-7.18.21.09.42.2.62.27.23.11.45.23.68.35"/>
        <path class="cls-3" d="M226.56,202.25c2.86,1.65,4.31,4.98,4.31,9.97s-1.48,10.1-4.45,15.14c-2.97,5.01-6.88,8.92-11.77,11.74-4.72,2.73-8.57,3.39-11.49,1.96"/>
        <path class="cls-3" d="M226.11,202.03c.08.02.15.05.22.09"/>
        <path class="cls-3" d="M202.35,240.61c-2.59-1.69-3.91-4.9-3.91-9.66,0-5.16,1.53-10.28,4.55-15.36,3.05-5.12,6.92-9.02,11.66-11.74,4.51-2.6,8.23-3.27,11.21-1.98"/>
        <path class="cls-3" d="M202.89,240.93c-.08-.04-.14-.08-.21-.12"/>
        <line class="cls-3" x1="226.56" y1="202.25" x2="206.68" y2="190.76"/>
        <line class="cls-3" x1="202.35" y1="240.61" x2="202.68" y2="240.81"/>
        <line class="cls-3" x1="179.39" y1="227.32" x2="202.35" y2="240.61"/>
        <path class="cls-3" d="M193.23,126.59c-5.94,9.56-10.02,18.16-12.25,25.77-2.04,6.91-3.16,15.05-3.36,24.41-.04,1.11-.06,2.22-.06,3.35l23.78,13.73"/>
        <path class="cls-3" d="M251.18,59.6s-24.42-14.09-24.76-14.25c-.2-.09-.41-.18-.61-.27-7.74-3.52-18.79-1.01-32.93,7.18-14,8.07-25.06,18.62-33.16,31.65-8.11,12.99-12.24,26.89-12.38,41.72l23.78,13.73"/>
      </g>
    </g>
    <g>
      <g>
        <path class="cls-13" d="M636.16,112.33c8.91,5.83,10.48,34.99,8.3,63.66-1.73-1.26-3.48-2.77-5.19-4.63,2.42-17.35-5.96-26.41-14.25-10.9-12.06-13.51-3.38-22.05-5.31-30.4-4.18-18.23-46.92,13.02-62.67,4.78h0c-.4-.22-.78-.46-1.13-.72-1.34-1-2.32-2.36-2.75-4.2-3.76-16.35,29.01-33.44,41.6-36.32,17.82-4.1,32.72-1.03,41.41,18.73Z"/>
        <path class="cls-10" d="M639.26,171.36c1.71,1.86,3.46,3.37,5.19,4.63-1.03,13.71-2.94,27.3-5.29,38.19-.95,4.33-4.29,8.52-10.05,11.85-13.78,7.95-45.01,7.95-58.79,0-5.58-3.23-8.9-7.25-9.95-11.44,0-.01-.01-.02-.01-.03-.07-.34-.14-.69-.21-1.03-4.68-21.68-9.3-49.64-4.24-79.39.36.27.73.5,1.13.71h0c15.75,8.25,58.49-23,62.67-4.77,1.92,8.34-6.75,16.88,5.31,30.4,8.29-15.52,16.67-6.45,14.25,10.9Z"/>
        <path class="cls-10" d="M560.14,213.51c.08.34.14.69.21,1.03-.09-.34-.16-.69-.21-1.03Z"/>
      </g>
      <g>
        <path class="cls-3" d="M555.9,134.12c-5.06,29.75-.44,57.71,4.24,79.39.07.35.14.69.21,1.03"/>
        <path class="cls-3" d="M576.63,166.24c1.1,3.37,2.06,7.45,1.84,11.27-.41,6.95-4.75,7.82-4.93,10.78-.14,2.45,3.28,4.42,5.61,5.22"/>
        <path class="cls-3" d="M603.63,173.64c-4.37-4.53-11.78-8.89-18.18-9.34"/>
        <path class="cls-3" d="M571.09,160.65c-2.09-.72-4.12-1.23-6.19-1.36-1.47-.09-2.97.02-4.54.39"/>
        <path class="cls-3" d="M560.14,213.51c.06.34.12.69.21,1.03,0,.01.01.02.01.03,1.06,4.19,4.37,8.22,9.95,11.44,13.78,7.95,45.01,7.95,58.79,0,5.76-3.33,9.11-7.52,10.05-11.85,2.36-10.89,4.26-24.48,5.29-38.19,2.17-28.67.61-57.83-8.3-63.66-8.69-19.76-23.59-22.83-41.41-18.73-12.59,2.88-45.36,19.98-41.6,36.32.42,1.85,1.41,3.21,2.75,4.2.36.27.73.5,1.13.71h0c15.75,8.25,58.49-23,62.67-4.77,1.92,8.34-6.75,16.88,5.31,30.4,8.29-15.52,16.67-6.45,14.25,10.9,1.71,1.86,3.46,3.37,5.19,4.63,0,.01.01.01.01.01"/>
        <path class="cls-3" d="M562.64,171.28c.89,0,1.82-.06,2.75-.06,1.07,0,2.14.08,3.1.44"/>
        <path class="cls-3" d="M587.21,177.53c1.05.21,2.11.1,3.15.43,1.53.49,2.68,1.57,4.1,2.24"/>
      </g>
    </g>
    <g>
      <path class="cls-3" d="M663.84,149.33c3.92,5.25,6.51,11.88,6.51,17.72s-2.55,9.42-6.43,10.18"/>
      <path class="cls-3" d="M541.47,91.89c-3.63.67-6.02,4.03-6.02,9.43s2.36,11.43,5.94,16.27"/>
      <path class="cls-3" d="M668.96,137.64c8.88,10.55,14.93,24.82,14.93,37.23s-6.05,19.69-14.93,19.99"/>
      <path class="cls-3" d="M536.74,75.62c-8.21.27-13.8,7.01-13.8,18.47s5.59,24.66,13.8,34.41"/>
    </g>
    <g id="cloud">
      <g>
        <path class="cls-10" d="M2.16,263.58c-2.79,10.9,3.6,26.1,12.86,31.55,55.71,32.59,53.82,31.96,56.31,32.66,1.94.54,3.63.35,5.01-.45h.01c3.38-1.97,4.86-7.58,3.4-14.95-2.08-10.48-9.54-21.03-16.64-22.35-.79-16.17-9.09-33.32-19.22-39.16-4.24-2.45-8.17-2.54-11.35-.7-3.75,2.16-6.47,7-7.49,13.83-5.59-8.03-12.9-10.75-17.89-7.87-2.27,1.3-4.07,3.77-5.01,7.44Z"/>
        <path class="cls-8" d="M7.17,256.13h0c4.99-2.87,12.3-.14,17.89,7.88,1.02-6.83,3.74-11.67,7.49-13.83h0s.85-.5.85-.5c-4.24-3.08-8.66-3.69-12.03-1.75l-14.2,8.2Z"/>
        <path class="cls-9" d="M33.4,249.69l-.85.49h0c3.19-1.84,7.11-1.74,11.35.71,10.12,5.84,18.42,22.99,19.22,39.16l14.2-8.2c-.79-16.17-9.1-33.32-19.22-39.16-4.24-2.45-8.17-2.54-11.35-.71l-13.35,7.71Z"/>
        <path class="cls-13" d="M77.33,281.84l-14.2,8.2c7.1,1.32,14.56,11.86,16.64,22.35,1.46,7.37-.02,12.98-3.4,14.94l14.19-8.19c3.38-1.96,4.87-7.58,3.41-14.95-2.08-10.48-9.55-21.03-16.64-22.35Z"/>
      </g>
      <g>
        <path class="cls-3" d="M76.36,327.33c3.38-1.96,4.86-7.57,3.4-14.94-2.08-10.48-9.54-21.03-16.64-22.35-.79-16.17-9.09-33.32-19.22-39.16-4.24-2.45-8.16-2.54-11.35-.7-3.75,2.17-6.47,7-7.49,13.83-5.59-8.03-12.89-10.75-17.89-7.87-2.27,1.31-4.07,3.77-5.01,7.44-2.79,10.9,3.6,26.1,12.86,31.55,55.71,32.59,53.82,31.96,56.31,32.66,1.94.54,3.63.35,5.01-.45h.01Z"/>
        <path class="cls-3" d="M33.46,249.72s-.03-.02-.05-.03c-4.24-3.08-8.66-3.69-12.03-1.75l-14.2,8.2"/>
        <path class="cls-3" d="M32.56,250.17l14.2-8.2c3.19-1.84,7.11-1.74,11.35.71,10.11,5.84,18.42,22.99,19.22,39.16,7.09,1.32,14.56,11.86,16.64,22.35,1.46,7.37-.03,12.99-3.41,14.95l-14.19,8.19h-.01"/>
        <line class="cls-3" x1="63.12" y1="290.04" x2="77.33" y2="281.84"/>
      </g>
    </g>
    <g>
      <g>
        <path class="cls-11" d="M165.65,466.2v98.38c.01,2.96-1.04,5.05-2.72,6.03l-10.99,6.33c1.61-1,2.6-3.06,2.6-5.95v-98.38c0-5.95-4.16-13.17-9.32-16.15l-105.76-61.07c-2.4-1.39-4.6-1.6-6.25-.83l10.78-6.23c1.69-.98,4.01-.84,6.58.64l105.77,61.07c5.16,2.97,9.31,10.2,9.31,16.15Z"/>
        <path class="cls-10" d="M154.54,472.61v98.38c0,2.89-.99,4.95-2.6,5.95-1.69,1.05-4.07.94-6.72-.58l-105.76-61.05c-5.14-2.97-9.32-10.21-9.32-16.15v-98.39c.01-2.96,1.05-5.05,2.73-6.02l.34-.19c1.66-.77,3.85-.56,6.25.83l105.76,61.07c5.16,2.97,9.32,10.2,9.32,16.15ZM62.82,493.94c.01-3.71-2.6-8.24-5.82-10.1-3.23-1.85-5.84-.35-5.83,3.37-.01,3.71,2.61,8.25,5.82,10.09,3.23,1.87,5.83.36,5.83-3.36ZM56.99,470.14c3.23,1.87,5.84.36,5.83-3.37.01-3.71-2.6-8.24-5.82-10.09-3.23-1.87-5.84-.36-5.83,3.36-.01,3.72,2.61,8.25,5.82,10.1ZM56.99,442.96c3.23,1.88,5.84.37,5.83-3.36,0-3.71-2.6-8.24-5.83-10.1-3.22-1.87-5.83-.35-5.83,3.37s2.61,8.24,5.83,10.09Z"/>
        <path class="cls-5" d="M57,483.83c3.22,1.87,5.83,6.39,5.82,10.1,0,3.72-2.6,5.23-5.83,3.36-3.21-1.84-5.83-6.38-5.82-10.09-.01-3.72,2.6-5.23,5.83-3.37Z"/>
        <path class="cls-5" d="M62.82,466.77c.01,3.73-2.6,5.24-5.83,3.37-3.21-1.85-5.83-6.38-5.82-10.1-.01-3.72,2.6-5.23,5.83-3.36,3.22,1.85,5.83,6.38,5.82,10.09Z"/>
        <path class="cls-5" d="M62.82,439.6c.01,3.73-2.6,5.24-5.83,3.36-3.22-1.85-5.83-6.37-5.83-10.09s2.61-5.24,5.83-3.37c3.23,1.87,5.83,6.39,5.83,10.1Z"/>
      </g>
      <g>
        <path class="cls-3" d="M33.21,394.57c1.66-.77,3.85-.56,6.25.83l105.76,61.07c5.16,2.97,9.32,10.2,9.32,16.15v98.38c0,2.89-.99,4.95-2.6,5.95-1.69,1.05-4.07.94-6.72-.58l-105.76-61.05c-5.14-2.97-9.32-10.21-9.32-16.15v-98.39c.01-2.96,1.05-5.05,2.73-6.02"/>
        <path class="cls-3" d="M56.99,442.96c-3.22-1.85-5.83-6.37-5.83-10.09s2.61-5.24,5.83-3.37c3.23,1.87,5.83,6.39,5.83,10.1.01,3.73-2.6,5.24-5.83,3.36Z"/>
        <line class="cls-3" x1="72.95" y1="445.45" x2="131.07" y2="478.99"/>
        <path class="cls-3" d="M56.99,470.14c-3.21-1.85-5.83-6.38-5.82-10.1-.01-3.72,2.6-5.23,5.83-3.36,3.22,1.85,5.83,6.38,5.82,10.09.01,3.73-2.6,5.24-5.83,3.37Z"/>
        <line class="cls-3" x1="72.95" y1="472.61" x2="131.07" y2="506.17"/>
        <path class="cls-3" d="M56.99,497.3c-3.21-1.84-5.83-6.38-5.82-10.09-.01-3.72,2.6-5.23,5.83-3.37,3.22,1.87,5.83,6.39,5.82,10.1,0,3.72-2.6,5.23-5.83,3.36Z"/>
        <line class="cls-3" x1="72.95" y1="499.78" x2="131.07" y2="533.34"/>
        <path class="cls-3" d="M32.87,394.76l11.12-6.42c1.69-.98,4.01-.84,6.58.64l105.77,61.07c5.16,2.97,9.31,10.2,9.31,16.15v98.38c.01,2.96-1.04,5.05-2.72,6.03l-11.12,6.42"/>
      </g>
    </g>
    <g>
      <g>
        <path class="cls-12" d="M189.48,625.96c2.11,4.25.12,9.07-5.72,12.44-4.33,2.5-10.01,3.76-15.7,3.76s-11.37-1.26-15.7-3.76c-5.84-3.37-7.83-8.19-5.72-12.44.54-1.1,21.39-42.99,21.39-42.99v-.02s.03-.05.03-.05l.02.04s15.54,31.17,21.4,43.02Z"/>
        <path class="cls-13" d="M156.38,583.41l5.29,12.34-13.16,26.46c-6.4,2.6-13.89,3.91-21.39,3.91-9.54,0-19.05-2.11-26.32-6.31-9.78-5.65-12.97-13.66-9.6-20.86l6.87-16.05h.02c-.6,1.36-.88,2.76-.88,4.14,0,4.44,2.89,8.83,8.75,12.22,11.7,6.75,30.65,6.75,42.31,0,5.66-3.26,8.58-7.5,8.76-11.79.05-1.36-.16-2.73-.64-4.06Z"/>
        <path class="cls-9" d="M98.09,582.91h-.02s29.05-67.89,29.05-67.89c0,0,29.19,68.21,29.26,68.39.51,1.32.69,2.7.64,4.06-.18,4.29-3.11,8.53-8.76,11.79-11.65,6.75-30.6,6.75-42.31,0-5.86-3.38-8.75-7.78-8.75-12.22,0-1.38.29-2.78.88-4.13Z"/>
      </g>
      <g>
        <line class="cls-3" x1="161.67" y1="595.75" x2="156.38" y2="583.41"/>
        <path class="cls-3" d="M148.5,622.21c-6.4,2.6-13.89,3.91-21.39,3.91-9.54,0-19.05-2.11-26.32-6.31-9.78-5.65-12.97-13.66-9.6-20.86l35.92-83.93s29.19,68.21,29.26,68.39c.51,1.32.69,2.7.64,4.06-.18,4.29-3.11,8.53-8.76,11.79-11.65,6.75-30.6,6.75-42.31,0-5.86-3.38-8.75-7.78-8.75-12.22,0-1.38.29-2.78.88-4.13"/>
        <path class="cls-3" d="M168.14,583.05s15.48,31.06,21.35,42.91c2.11,4.25.12,9.07-5.72,12.44-4.33,2.5-10.01,3.76-15.7,3.76s-11.37-1.26-15.7-3.76c-5.84-3.37-7.83-8.19-5.72-12.44.54-1.1,21.35-42.91,21.35-42.91"/>
        <polyline class="cls-3" points="167.99 583.05 168.03 582.97 168.04 582.95 168.06 582.9 168.08 582.94 168.13 583.04"/>
      </g>
    </g>
    <g>
      <path class="cls-3" d="M404.64,53.73c.08.8.42,3.44.42,3.44"/>
      <path class="cls-2" d="M423.2,48.51c-.01.86-.04,1.72-.12,2.59"/>
      <path class="cls-3" d="M399.54,51.88c1.63-1.48,4.98-3.38,7.02-4.15"/>
      <path class="cls-3" d="M421.67,43.6c1.22.19,3.02.42,4.21.75"/>
      <path class="cls-3" d="M414.86,47.95c-.09.75-.14,1.5-.14,2.24,0,7.14,3.64,5.57,3.64,8.63,0,1.39-1.22,2.8-2.07,3.3"/>
    </g>
  </g>
</svg>