<?xml version="1.0" encoding="UTF-8"?>
<svg id="Calque_2" data-name="Calque 2" xmlns="http://www.w3.org/2000/svg" xmlns:xlink="http://www.w3.org/1999/xlink" viewBox="0 0 253.93 190.65">
  <defs>
    <style>
      .cls-1, .cls-2 {
        fill: none;
      }

      .cls-3 {
        fill: #969a9e;
      }

      .cls-2 {
        stroke: #373a3a;
        stroke-linecap: round;
        stroke-linejoin: round;
        stroke-width: 3px;
      }

      .cls-4 {
        fill: #fff;
      }

      .cls-5 {
        fill: #3232FC;
      }

      .cls-6 {
        fill: #373a3a;
      }

      .cls-7 {
        fill: url(#New_Pattern_Swatch_1);
      }
    </style>
    <pattern id="New_Pattern_Swatch_1" data-name="New Pattern Swatch 1" x="0" y="0" width="16" height="19" patternTransform="translate(-5292.33 -4898.17) scale(.4)" patternUnits="userSpaceOnUse" viewBox="0 0 16 19">
      <g>
        <rect class="cls-1" x="0" y="0" width="16" height="19"/>
        <g>
          <polygon class="cls-3" points="16 22.18 10.5 19 16 15.82 21.5 19 16 22.18"/>
          <polygon class="cls-3" points="8 12.68 2.5 9.5 8 6.32 13.5 9.5 8 12.68"/>
        </g>
        <polygon class="cls-3" points="0 22.18 -5.5 19 0 15.82 5.5 19 0 22.18"/>
        <polygon class="cls-3" points="16 3.18 10.5 0 16 -3.18 21.5 0 16 3.18"/>
        <polygon class="cls-3" points="0 3.18 -5.5 0 0 -3.18 5.5 0 0 3.18"/>
      </g>
    </pattern>
  </defs>
  <g id="Calque_1-2" data-name="Calque 1">
    <path class="cls-7" d="M.2,170.57c32.99,9.88,72.08,20.08,107.53,20.08,44.63,0,146.2-27.74,146.2-79.99,0-25.68-16.47-45.9-57.63-45.9-24.54,0-83.91,10.82-113.37,28C44.03,115.44,25.83,136.43.2,170.57Z"/>
    <path class="cls-6" d="M209.77,49.43v46.84c0,15.5-11.35,31.85-33.47,44.63-36.02,20.78-146.5,26.51-170.24,27.49l-4.51-.19c.04-.43.15-1.19.28-2.24v-44.26c.55,0,1.85-.04,3.75-.13l.49-.02c23.74-1,134.22-6.71,170.24-27.51,22.12-12.77,33.45-29.13,33.45-44.6h.02Z"/>
    <path class="cls-5" d="M186.09,15.15c15.88,9.16,23.65,21.42,23.65,34.28,0,15.48-11.33,31.83-33.45,44.6-36.02,20.8-146.5,26.51-170.24,27.51l-.49.02c-1.89.09-3.19.13-3.75.13v-2.58c1.75-13.71,11.62-77.5,47.65-98.3C69.69,9.12,95.1,2.65,119.81,1.65c24.76-1.04,48.78,3.39,66.28,13.5ZM139.21,68.4c10.38-7.43,11.31-17.36,3-24.23-.84-.69-1.83-1.38-2.92-2-12.65-7.24-34.7-6.39-49.29,2.04-14.61,8.43-16.16,21.18-3.56,28.47,12.65,7.28,34.72,6.36,49.31-2.04,1.26-.72,2.39-1.48,3.45-2.24Z"/>
    <path class="cls-6" d="M142.21,44.17c8.31,6.87,7.38,16.8-3,24.23-1.06.76-2.19,1.51-3.45,2.24-14.59,8.41-36.66,9.33-49.31,2.04-12.6-7.28-11.05-20.03,3.56-28.47,14.58-8.43,36.64-9.29,49.29-2.04,1.08.62,2.08,1.31,2.92,2Z"/>
    <path class="cls-4" d="M1.82,119.11v2.58c-.21.02-.32.02-.32.02,0,0,.11-.92.32-2.6Z"/>
    <g>
      <path class="cls-2" d="M6.06,121.54c23.74-1,134.22-6.71,170.24-27.51,22.12-12.77,33.45-29.13,33.45-44.6,0-12.86-7.77-25.12-23.65-34.28C168.59,5.03,144.58.61,119.81,1.65c-24.72,1-50.12,7.47-70.35,19.16C13.44,41.61,3.56,105.4,1.82,119.11c-.21,1.68-.32,2.6-.32,2.6,0,0,.11,0,.32-.02.55,0,1.85-.04,3.75-.13"/>
      <path class="cls-2" d="M142.21,44.17c-.84-.69-1.83-1.38-2.92-2-12.65-7.24-34.7-6.39-49.29,2.04-14.61,8.43-16.16,21.18-3.56,28.47,12.65,7.28,34.72,6.36,49.31-2.04,1.26-.72,2.39-1.48,3.45-2.24,10.38-7.43,11.31-17.36,3-24.23Z"/>
      <path class="cls-2" d="M209.77,49.43v46.84c0,15.5-11.35,31.85-33.47,44.63-36.02,20.78-146.5,26.51-170.24,27.49"/>
      <path class="cls-2" d="M1.82,119.11v46.84c-.13,1.04-.24,1.81-.28,2.24-.02.26-.04.38-.04.38l4.07-.17"/>
    </g>
  </g>
</svg>