<?xml version="1.0" encoding="UTF-8"?>
<svg id="Calque_2" data-name="Calque 2" xmlns="http://www.w3.org/2000/svg" xmlns:xlink="http://www.w3.org/1999/xlink" viewBox="0 0 178.57 153.37">
  <defs>
    <style>
      .cls-1, .cls-2 {
        fill: none;
      }

      .cls-3 {
        fill: #c2c7cc;
      }

      .cls-4 {
        fill: #969a9e;
      }

      .cls-2, .cls-5 {
        stroke: #373a3a;
        stroke-linecap: round;
        stroke-linejoin: round;
        stroke-width: 3px;
      }

      .cls-5 {
        fill: #3232FC;
      }

      .cls-6 {
        fill: #fff;
      }

      .cls-7 {
        fill: #dae0e5;
      }

      .cls-8 {
        fill: #373a3a;
      }

      .cls-9 {
        fill: url(#New_Pattern_Swatch_1);
      }
    </style>
    <pattern id="New_Pattern_Swatch_1" data-name="New Pattern Swatch 1" x="0" y="0" width="16" height="19" patternTransform="translate(-5329.77 -4921.32) scale(.4)" patternUnits="userSpaceOnUse" viewBox="0 0 16 19">
      <g>
        <rect class="cls-1" x="0" y="0" width="16" height="19"/>
        <g>
          <polygon class="cls-4" points="16 22.18 10.5 19 16 15.82 21.5 19 16 22.18"/>
          <polygon class="cls-4" points="8 12.68 2.5 9.5 8 6.32 13.5 9.5 8 12.68"/>
        </g>
        <polygon class="cls-4" points="0 22.18 -5.5 19 0 15.82 5.5 19 0 22.18"/>
        <polygon class="cls-4" points="16 3.18 10.5 0 16 -3.18 21.5 0 16 3.18"/>
        <polygon class="cls-4" points="0 3.18 -5.5 0 0 -3.18 5.5 0 0 3.18"/>
      </g>
    </pattern>
  </defs>
  <g id="Calque_1-2" data-name="Calque 1">
    <path class="cls-9" d="M94.77,153.37l50.91-1.06-37.18-13.06,57.25,3.27-37.35-14.72,50.16,3.3-82.06-40.65-24.55,24.21s23.34,37.66,22.81,38.72Z"/>
    <g>
      <g>
        <g>
          <polygon class="cls-3" points="128.8 54.66 128.8 129.81 93.18 71.38 128.8 54.66"/>
          <polygon class="cls-3" points="93.18 71.38 128.8 129.81 36.72 76.66 72.39 59.32 82.83 76.25 93.18 71.38"/>
          <polygon class="cls-3" points="128.8 54.66 82.83 76.25 36.72 1.5 128.8 54.66"/>
          <polygon class="cls-3" points="36.72 1.5 72.39 59.32 36.72 76.66 36.72 1.5"/>
        </g>
        <g>
          <polygon class="cls-2" points="36.72 76.66 36.72 1.5 128.8 54.66 128.8 129.81 36.72 76.66"/>
          <polyline class="cls-2" points="128.8 54.66 82.83 76.25 36.72 1.5"/>
          <line class="cls-2" x1="128.8" y1="129.81" x2="93.18" y2="71.38"/>
          <line class="cls-2" x1="72.39" y1="59.32" x2="36.72" y2="76.66"/>
        </g>
      </g>
      <g>
        <g>
          <polygon class="cls-7" points="110.76 65.08 110.76 140.23 75.14 81.81 110.76 65.08"/>
          <polygon class="cls-7" points="75.14 81.81 110.76 140.23 18.68 87.08 54.34 69.74 64.78 86.67 75.14 81.81"/>
          <polygon class="cls-7" points="110.76 65.08 64.78 86.67 18.68 11.92 110.76 65.08"/>
          <polygon class="cls-7" points="18.68 11.92 54.34 69.74 18.68 87.08 18.68 11.92"/>
        </g>
        <g>
          <polygon class="cls-2" points="18.68 87.08 18.68 11.92 110.76 65.08 110.76 140.23 18.68 87.08"/>
          <polyline class="cls-2" points="110.76 65.08 64.78 86.67 18.68 11.92"/>
          <line class="cls-2" x1="110.76" y1="140.23" x2="75.14" y2="81.81"/>
          <line class="cls-2" x1="54.34" y1="69.74" x2="18.68" y2="87.08"/>
        </g>
      </g>
      <g>
        <g>
          <polygon class="cls-6" points="93.58 74.99 93.58 150.15 57.96 91.73 93.58 74.99"/>
          <polygon class="cls-6" points="57.96 91.73 93.58 150.15 1.5 97 37.16 79.66 47.6 96.59 57.96 91.73"/>
          <polygon class="cls-6" points="93.58 74.99 47.6 96.59 1.5 21.85 93.58 74.99"/>
          <polygon class="cls-6" points="1.5 21.85 37.16 79.66 1.5 97 1.5 21.85"/>
        </g>
        <g>
          <polygon class="cls-2" points="1.5 97 1.5 21.85 93.58 74.99 93.58 150.15 1.5 97"/>
          <polyline class="cls-2" points="93.58 74.99 47.6 96.59 1.5 21.85"/>
          <line class="cls-2" x1="93.58" y1="150.15" x2="57.96" y2="91.73"/>
          <line class="cls-2" x1="37.16" y1="79.66" x2="1.5" y2="97"/>
        </g>
      </g>
      <g>
        <path class="cls-5" d="M112.57,83.99c0-11.03-7.74-24.43-17.29-29.95-9.55-5.51-17.29-1.04-17.29,9.98s7.74,24.43,17.29,29.95c9.55,5.51,17.29,1.04,17.29-9.98Z"/>
        <path class="cls-8" d="M99.37,76.16c.58,1.07.87,2.15.87,3.23,0,.84-.19,1.5-.57,1.99-.38.49-.96.72-1.74.69-.78-.02-1.73-.36-2.86-1.01-.88-.51-1.74-1.14-2.59-1.9-.85-.76-1.57-1.56-2.17-2.39l1.12-1.9c.48.69,1.03,1.32,1.65,1.91.62.59,1.26,1.07,1.92,1.45.72.42,1.3.59,1.71.5.42-.08.62-.42.62-1.01,0-1.18-.78-2.22-2.34-3.12l-1.32-.76v-2.2l2.57-1.87-5.31-3.07v-2.68l8.74,5.04v2.16l-2.82,2.08c1.09.84,1.93,1.79,2.51,2.86Z"/>
      </g>
    </g>
  </g>
</svg>