<?xml version="1.0" encoding="UTF-8"?>
<svg id="Calque_2" data-name="Calque 2" xmlns="http://www.w3.org/2000/svg" xmlns:xlink="http://www.w3.org/1999/xlink" viewBox="0 0 162.55 140.59">
  <defs>
    <style>
      .cls-1, .cls-2 {
        fill: none;
      }

      .cls-3 {
        fill: #969a9e;
      }

      .cls-4 {
        fill: #dae0e5;
      }

      .cls-2 {
        stroke: #373a3a;
        stroke-linecap: round;
        stroke-linejoin: round;
        stroke-width: 3px;
      }

      .cls-5 {
        fill: #3232FC;
      }

      .cls-6 {
        fill: url(#New_Pattern_Swatch_3);
      }

      .cls-7 {
        fill: #5f646b;
      }
    </style>
    <pattern id="New_Pattern_Swatch_3" data-name="New Pattern Swatch 3" x="0" y="0" width="16" height="19" patternTransform="translate(-4864.17 -11024.39) scale(.4 -.4)" patternUnits="userSpaceOnUse" viewBox="0 0 16 19">
      <g>
        <rect class="cls-1" width="16" height="19"/>
        <rect class="cls-1" width="16" height="19"/>
        <polygon class="cls-3" points="16 -3.18 10.5 0 16 3.18 21.5 0 16 -3.18"/>
        <polygon class="cls-3" points="8 6.32 2.5 9.5 8 12.67 13.5 9.5 8 6.32"/>
        <polygon class="cls-3" points="0 -3.18 -5.5 0 0 3.18 5.5 0 0 -3.18"/>
        <polygon class="cls-3" points="16 15.82 10.5 19 16 22.17 21.5 19 16 15.82"/>
        <polygon class="cls-3" points="0 15.82 -5.5 19 0 22.17 5.5 19 0 15.82"/>
      </g>
    </pattern>
  </defs>
  <g id="Calque_1-2" data-name="Calque 1">
    <path class="cls-6" d="M111.24,73.19c-1.54.34-3.02.91-4.39,1.69-12.24,7.06-9.12,28.06-21,34.93-5.82,3.37-13.13,2.79-19.26,6.33-5.79,3.35-7.14,9.36-4.74,13.53,1.34,2.16,3.23,3.92,5.47,5.11,8.45,4.69,21.33,5.81,30.58,5.81,1.64.03,3.27-.18,4.85-.62,4.3-.38,8.59-.88,12.87-1.47,17.59-2.45,41.88-7.25,46.21-24.12s-11.46-30.29-28.75-36.56c-7.02-2.58-14.38-4.14-21.84-4.63Z"/>
    <path class="cls-7" d="M113.25,88.35c0,14.79-5.22,25.22-13.63,30.07l-18.79,10.85c8.4-4.86,13.61-15.26,13.61-30.07,0-29.64-20.82-65.68-46.49-80.49-12.81-7.4-24.38-8.11-32.76-3.31l18.81-10.83h0C42.32-.26,53.9.43,66.75,7.85c25.67,14.81,46.48,50.85,46.5,80.5Z"/>
    <path class="cls-4" d="M94.44,99.2c0,14.81-5.21,25.21-13.61,30.07-8.4,4.86-20.05,4.16-32.83-3.27-13.1-7.51-24.9-20.55-33.33-35.43C6.51,76.19,1.48,60.1,1.5,45.54S6.5,20.67,14.68,15.71l.51-.31c8.38-4.8,20-4.09,32.76,3.31,25.67,14.81,46.48,50.85,46.49,80.49ZM65.23,97.38c.67-.72.48-2.32-.42-3.69l-8.1-12.25c-1-1.48-2.45-2.09-3.18-1.33l-2.27,2.35c-.57.58-1.7.09-2.45-1.07l-1-1.54c-3.19-4.93-6.13-10.01-8.81-15.24l-.84-1.61c-.63-1.23-.48-2.46.31-2.66l3.16-.79c1-.26,1.23-1.82.43-3.42l-6.54-13.13c-.73-1.47-2-2.43-3-2.21l-4.83,1.15c-3.82.9-4.64,6.59-1.78,12.52,3.09,6.35,7.18,14.54,11.15,21.43s9,14.51,13,20.38c3.7,5.42,9,7.57,11.73,4.71l3.44-3.6Z"/>
    <path class="cls-5" d="M64.81,93.69c.9,1.37,1.09,3,.42,3.69l-3.4,3.6c-2.69,2.86-8,.71-11.73-4.71-4-5.87-9-13.49-13-20.38s-8.1-15.08-11.17-21.48c-2.86-5.93-2-11.62,1.78-12.52l4.83-1.15c.94-.22,2.25.74,3,2.21l6.54,13.14c.8,1.6.61,3.16-.43,3.42l-3.16.79c-.79.2-.94,1.43-.31,2.66l.82,1.65c2.67,5.23,5.61,10.31,8.8,15.24l1,1.54c.75,1.16,1.88,1.65,2.45,1.07l2.27-2.35c.73-.76,2.19-.15,3.18,1.33l8.11,12.25Z"/>
    <path class="cls-2" d="M15.12,15.44h0c8.38-4.8,20-4.09,32.76,3.31,25.74,14.77,46.55,50.81,46.56,80.45,0,14.81-5.21,25.22-13.61,30.07s-20.05,4.16-32.83-3.27c-13.1-7.51-24.9-20.55-33.33-35.43C6.51,76.19,1.48,60.1,1.5,45.54S6.5,20.67,14.68,15.71"/>
    <path class="cls-2" d="M99.62,118.42c8.41-4.85,13.61-15.28,13.63-30.07,0-29.65-20.83-65.69-46.5-80.5C53.9.43,42.32-.26,33.93,4.6h0L15.19,15.4"/>
    <line class="cls-2" x1="99.62" y1="118.42" x2="80.83" y2="129.27"/>
  </g>
</svg>