<svg xmlns="http://www.w3.org/2000/svg" xmlns:xlink="http://www.w3.org/1999/xlink" id="Calque_2" viewBox="0 0 976.03 201.89"><defs><style>      .cls-1 {        fill: url(#Dégradé_sans_nom);      }    </style><linearGradient id="D&#xE9;grad&#xE9;_sans_nom" data-name="D&#xE9;grad&#xE9; sans nom" x1="343.23" y1="15.31" x2="413.86" y2="15.31" gradientTransform="translate(0 201.9) scale(1 -1)" gradientUnits="userSpaceOnUse"><stop offset=".11" stop-color="#000"></stop><stop offset=".2" stop-color="#0c0001"></stop><stop offset=".36" stop-color="#2d0005"></stop><stop offset=".58" stop-color="#63010b"></stop><stop offset=".84" stop-color="#ad0314"></stop><stop offset="1" stop-color="#df041a"></stop></linearGradient></defs><g id="Calque_1-2" data-name="Calque_1"><g><g><path d="M585.23,116.65l-23.06,83.07h-23.99l12.73-44.7c1.3-4.53,2.84-9.25,4.63-14.16,1.43-3.98,2.45-7,3.05-9.08-.63,1.24-1.56,3.12-2.79,5.65-2.61,5.26-4.97,9.78-7.09,13.53l-27.67,48.77h-15.36l.32-48.77c0-4.24.21-8.75.61-13.53.2-2.85.31-5.05.35-6.61-2.59,11.35-5.11,21.19-7.57,29.5l-11.72,39.41h-19.3l25.1-83.07h33.53l.08,36.3c0,3,.08,5.13.22,6.38.8-1.87,1.9-3.99,3.3-6.38l20.86-36.3h33.77Z"></path><path d="M617,201.89c-10.08,0-18.49-3.29-25.23-9.85-6.71-6.54-9.42-15.87-8.14-27.96,1.46-13.91,6.77-25.64,15.9-35.23,9.08-9.54,20.13-14.29,33.18-14.29,10.45,0,18.74,3.32,24.88,9.98,6.16,6.69,8.8,15.48,7.89,26.4-1.17,14.04-6.23,26.04-15.2,35.96-9.02,9.98-20.12,14.99-33.28,14.99h0ZM619.07,182.18c4.39,0,7.9-1.84,10.51-5.51,2.61-3.66,4.9-9.02,6.86-16.07,1.95-7.02,3.04-11.74,3.26-14.21.38-4.23-.32-7.42-2.11-9.59-1.79-2.17-4.31-3.25-7.58-3.25-6.26,0-11.06,4.27-14.43,12.84-3.39,8.61-5.41,16.26-6.07,22.94-.84,8.55,2.34,12.84,9.55,12.84h.01Z"></path><path d="M714.81,135.19l-15.61,64.53h-24.75l16.03-64.53h-17.92l4.78-18.78h60.34l-4.41,18.78h-18.47,0Z"></path><path d="M765.85,201.89c-10.08,0-18.62-3.29-25.62-9.85-6.97-6.54-10.05-15.87-9.25-27.96.91-13.91,5.76-25.64,14.51-35.23,8.7-9.54,19.56-14.29,32.62-14.29,10.45,0,18.87,3.32,25.28,9.98,6.43,6.69,9.41,15.48,8.93,26.4-.62,14.04-5.2,26.04-13.78,35.96-8.62,9.98-19.53,14.99-32.69,14.99h0ZM767.13,182.18c4.39,0,7.82-1.84,10.3-5.51,2.47-3.66,4.54-9.02,6.23-16.07,1.68-7.02,2.58-11.74,2.7-14.21.22-4.23-.61-7.42-2.49-9.59-1.87-2.17-4.44-3.25-7.71-3.25-6.26,0-10.89,4.27-13.93,12.84-3.05,8.61-4.77,16.26-5.16,22.94-.5,8.55,2.85,12.84,10.06,12.84h0Z"></path><path d="M877.78,164.45l8.3,35.26h-25.21l-6.45-32.02h-10l-6.57,32.02h-24.3l17.51-83.07h36.38c9.89,0,17.16,2.11,21.83,6.35,4.68,4.24,6.94,10.03,6.78,17.37-.26,11.81-6.33,19.86-18.25,24.09h-.02ZM847.96,150.4h9.46c9.09,0,13.72-3.03,13.89-9.07.14-5.06-3.58-7.58-11.17-7.58h-8.76l-3.42,16.65h0Z"></path><path d="M976.03,135.61l-21.57,5.36c-.6-2.45-2.12-4.38-4.57-5.78-2.44-1.4-5.14-2.1-8.08-2.1-5.52,0-8.3,1.8-8.34,5.41-.01,1.17.36,2.17,1.13,3.01s2.95,1.89,6.54,3.15l13.31,4.68c3.48,1.22,6.72,3.01,9.72,5.37,3,2.37,5.16,4.96,6.47,7.79s1.98,5.85,1.97,9.07c0,8.47-3.38,15.5-10.14,21.07-6.78,5.58-15.82,8.38-27.1,8.38-9.66,0-18.05-1.95-25.16-5.84-7.09-3.89-11.97-9.8-14.61-17.73l24.52-4.73c2.02,5.94,7.2,8.92,15.52,8.92,3.48,0,6-.63,7.56-1.88s2.35-2.68,2.36-4.27c0-1.02-.28-1.92-.88-2.7-.59-.78-1.23-1.34-1.91-1.69s-3.88-1.57-9.59-3.66c-7.72-2.82-13.11-5.06-16.2-6.7s-5.64-4.09-7.66-7.32c-2.02-3.23-2.98-7.02-2.9-11.37.14-7.5,3.07-13.83,8.77-18.99,5.68-5.15,14.27-7.71,25.79-7.71,8.79,0,16.3,1.81,22.56,5.42,6.27,3.62,10.43,8.57,12.47,14.85h.02Z"></path></g><g><path d="M545.19,1.63l-50.51,106.02h28.31l9.63-22h29.1l3.22,22h29.88L576.93,1.63h-31.74,0ZM558.3,62.28h-15.44l11.58-26.43,3.87,26.43h-.01Z"></path><path d="M685.91,4.89c-5.47-2.19-12.89-3.26-22.7-3.26h-39.54l-17.71,106.02h28.45l6.69-39.82h13.81l10.5,39.82h29.58l-12.73-44.37c7.23-2.4,12.63-6.24,16.07-11.44,3.8-5.75,5.73-11.9,5.73-18.28,0-5.94-1.61-11.66-4.78-17.02-3.23-5.46-7.74-9.38-13.4-11.65h.03ZM674.85,33.93c0,2.51-.64,4.53-1.96,6.18-1.35,1.69-3.04,2.8-5.16,3.39-2.44.68-6.43,1.03-11.85,1.03h-11.31l3.27-19.45h12.67c6.92,0,10.14,1.23,11.61,2.25,1.84,1.28,2.73,3.44,2.73,6.59h0Z"></path><polygon points="743.29 65.19 782.67 65.19 786.66 41.16 747.3 41.16 749.75 26.55 796.8 26.55 801.04 1.63 724.49 1.63 706.78 107.65 784.05 107.65 788.28 82.74 740.36 82.74 743.29 65.19"></polygon><path d="M868.83,46.3c-4.85-2.35-11.53-4.6-19.86-6.69-6.56-1.64-9.32-2.99-10.48-3.84-.77-.56-1.79-1.59-1.79-4.05,0-1.94.83-3.51,2.61-4.95,1.92-1.55,4.66-2.34,8.14-2.34,7.73,0,12.25,3.28,14.24,10.31l.77,2.72,26.43-6.13-1-3.07C881.8,9.53,868.22.04,847.53.04c-12.01,0-21.62,3.55-28.57,10.55-6.94,6.99-10.47,15.21-10.47,24.44,0,5.7,1.36,10.86,4.05,15.34s6.35,7.98,10.89,10.43c4.27,2.3,10.02,4.41,17.09,6.27,9.46,2.57,12.57,4.13,13.58,4.83.79.55,1.84,1.62,1.84,4.55,0,2.47-.95,4.39-3,6.03-2.19,1.75-5.54,2.64-9.96,2.64-9.99,0-15.52-3.99-17.42-12.57l-.59-2.66-27.15,3.72.52,3.02c1.89,10.93,6.86,19.26,14.75,24.77,7.73,5.39,17.49,8.12,29.01,8.12,13.51,0,24.15-3.45,31.62-10.26,7.55-6.88,11.38-15.57,11.38-25.82,0-6.39-1.42-11.93-4.22-16.47-2.81-4.55-6.86-8.13-12.05-10.64v-.03Z"></path></g><path d="M205.49,141.91L196.64,1.26,196.56,0h-70.19L0,199.23h55.61l25.58-40.82h60.03l1.03,25.22.64,15.6h66.22l-3.61-57.33h0ZM103.41,117.21l36.03-57.64,2.41,57.64h-38.44Z"></path><path d="M374.57.01l-53.91,88.01c-3.58,5.74-6.38,10.85-8.41,15.33-.45-3.02-.77-8.12-.97-15.33L308.87.01h-90l-.37,1.26,8.85,140.65,10.79-36.24c5.91-19.94,11.9-43.67,17.99-71.16.02,3.79-.13,9.13-.46,16.03-.73,11.57-.94,22.45-.65,32.66l2.66,116.04h40.44l70.61-116.04c5.46-9.04,11.57-19.93,18.3-32.66,3.18-6.12,5.58-10.69,7.22-13.7-1.53,5.05-4.13,12.38-7.79,22-4.56,11.86-8.47,23.24-11.72,34.13l-18.35,61.84h63.09L465.12,0h-90.58.03Z"></path><polygon class="cls-1" points="413.86 173.95 406.4 199.24 343.23 199.24 350.73 173.95 413.86 173.95"></polygon></g></g></svg>